<svg xmlns="http://www.w3.org/2000/svg" width="364" height="387" viewBox="0 0 364 387">
  <path fill-rule="evenodd" d="M512.28302,7298.22997 C510.578558,7310.6734 504.022497,7319.69652 492.364433,7325.70339 C490.392493,7321.11358 487.043324,7315.11809 481.670997,7310.45145 C479.124263,7308.24333 475.223066,7308.47097 472.960883,7310.96933 C470.704392,7313.46484 470.937724,7317.28352 473.490149,7319.50017 C479.792959,7324.9721 482.294164,7333.72774 482.65839,7335.1135 C485.563658,7352.69308 478.913695,7364.79504 472.798689,7371.84907 C465.508486,7380.27178 455.011391,7385.92582 444.494376,7387.37418 C446.181765,7382.8925 447.70696,7377.35229 447.655741,7372.06817 C447.621595,7368.75315 444.867139,7366.08691 441.48667,7366.08691 L441.424068,7366.08691 C438.01799,7366.12105 435.283453,7368.85274 435.317599,7372.19337 C435.3802,7378.77505 431.148923,7387.73272 429.504217,7390.64083 C429.498526,7390.64652 429.498526,7390.64937 429.492835,7390.65221 C421.033126,7405.59115 402.819001,7410.91511 388.588593,7410.91511 C372.485838,7410.91511 355.159512,7404.09157 355.159512,7389.10995 L355.159512,7368.30356 C360.250134,7372.4637 366.979771,7375.52832 375.601674,7375.60514 L376.096793,7375.60514 C396.40237,7375.60514 406.646215,7364.53326 407.078733,7364.05805 C409.335224,7361.55685 409.099047,7357.74102 406.549468,7355.52721 C403.997043,7353.31909 400.098691,7353.54958 397.842199,7356.04225 C397.773907,7356.11907 390.463786,7363.53448 375.712649,7363.51741 C361.445249,7363.3922 356.215197,7350.62154 355.159512,7347.5427 L355.159512,7284.10485 C359.123311,7285.45077 364.202551,7286.51499 370.377313,7286.51499 C376.813862,7286.51499 384.422763,7285.35687 393.178404,7282.16136 C396.368224,7280.99185 397.993012,7277.51179 396.803587,7274.38457 C395.608472,7271.2602 392.054427,7269.67241 388.864608,7270.83622 C370.676092,7277.49187 359.530219,7273.38011 355.162358,7270.9785 L355.162358,7190.68098 C355.162358,7183.4363 360.47493,7180.43998 363.636294,7179.30747 C370.13829,7176.97415 380.288233,7178.10666 387.222747,7186.11109 C389.43371,7188.65782 393.323526,7188.97652 395.915787,7186.81108 C398.51374,7184.65418 398.832438,7180.83551 396.627166,7178.29162 C385.802836,7165.79128 370.118371,7164.0982 359.379407,7167.95956 C357.874131,7168.50021 356.485521,7169.17175 355.159512,7169.90589 L355.159512,7124.17282 C362.173701,7120.26593 382.704073,7111.19728 404.392569,7124.11022 C420.031506,7133.41504 426.046919,7145.77879 427.973331,7156.458 C427.99325,7156.65719 427.987559,7156.85353 428.027396,7157.05556 C428.05016,7157.16369 428.095688,7157.25759 428.118452,7157.36857 C430.005027,7169.13191 427.037157,7178.653 426.798134,7179.38999 C425.739604,7182.56273 427.506667,7185.97735 430.74486,7187.01027 C431.382255,7187.2123 432.028186,7187.31189 432.65989,7187.31189 C435.257843,7187.31189 437.673683,7185.6928 438.521646,7183.14606 C438.592784,7182.94119 441.668783,7173.33189 440.732609,7160.60107 C464.091421,7154.44338 473.934049,7139.75769 477.749881,7131.36058 C488.907135,7135.38698 498.40261,7144.13978 502.719253,7154.76777 C505.803788,7162.35675 507.579388,7174.14855 498.54204,7187.24645 C498.172124,7187.75864 490.395338,7198.2472 472.545438,7202.21669 C469.219034,7202.95937 467.136119,7206.19471 467.893026,7209.44998 C468.544648,7212.25281 471.085691,7214.15646 473.902748,7214.15646 C474.352339,7214.15646 474.816157,7214.11093 475.274285,7214.00565 C489.925829,7210.74469 499.333093,7203.74757 504.324122,7198.9728 C516.024869,7208.87234 518.64274,7219.80195 518.64274,7227.52468 C518.64274,7239.76322 510.942784,7254.12737 504.56599,7257.85784 C504.477779,7257.91475 504.409487,7257.98873 504.324122,7258.04849 C504.139163,7258.168 503.95136,7258.26759 503.774938,7258.40987 C503.592825,7258.56068 485.592113,7272.79109 451.121575,7266.4769 C449.548007,7255.76354 445.15169,7246.75749 437.907015,7239.67217 C421.667675,7223.78852 397.267406,7223.5751 396.038145,7223.5751 L396.021071,7223.5751 C392.620684,7223.57795 389.874765,7226.28403 389.871919,7229.61328 C389.869073,7232.94253 392.626375,7235.65146 396.026762,7235.66284 C397.799517,7235.66853 439.474892,7236.25471 439.474892,7275.63375 C439.474892,7287.67027 435.499712,7297.38201 427.654634,7304.49863 C418.255906,7313.01525 405.997438,7315.38841 397.657241,7314.74532 C394.251163,7314.51484 391.29183,7316.97905 391.030043,7320.30545 C390.768255,7323.6347 393.309298,7326.53713 396.70684,7326.79607 C397.916183,7326.88428 399.131217,7326.93265 400.351941,7326.93265 C413.239267,7326.93265 426.624558,7321.90179 436.034668,7313.3681 C445.618354,7304.68359 450.942308,7292.78935 451.667913,7278.87195 C457.59227,7279.81381 463.11541,7280.2321 468.188959,7280.2321 C486.747391,7280.2321 499.546506,7274.92522 506.253379,7271.20898 C511.47774,7279.01138 513.628948,7288.43856 512.28302,7298.22997 L512.28302,7298.22997 Z M355.159512,7065.35038 C355.159512,7053.64964 367.850498,7048.3143 379.645147,7048.3143 C391.024352,7048.3143 406.324672,7053.24842 415.381938,7067.01501 C418.924601,7075.03366 417.316887,7081.54989 417.217294,7081.93403 C416.315266,7085.13523 418.207532,7088.44741 421.471335,7089.35797 C422.040438,7089.51163 422.606695,7089.58846 423.16726,7089.58846 C425.853424,7089.58846 428.323329,7087.85839 429.094463,7085.20068 C429.194056,7084.86775 430.901363,7078.79543 429.327795,7070.52637 C441.717156,7071.84953 453.079288,7077.42958 460.306889,7086.15392 C468.314161,7095.82867 470.932033,7108.45136 467.884489,7122.68177 C467.801969,7123.03461 463.266222,7141.55321 438.644003,7148.61292 C435.274916,7136.6134 427.475366,7123.69762 410.803509,7113.77816 C388.230058,7100.3388 367.033836,7105.52902 355.159512,7110.65663 L355.159512,7065.35038 Z M342.82137,7110.65948 C330.947047,7105.53471 309.756515,7100.3388 287.177374,7113.781 C270.508362,7123.70331 262.700276,7136.62193 259.339725,7148.61292 C235.150024,7141.69833 230.372408,7123.78298 230.102085,7122.66754 C227.051695,7108.44567 229.672412,7095.82867 237.676839,7086.15962 C244.907286,7077.42958 256.25519,7071.83246 268.661624,7070.52068 C267.08521,7078.79258 268.792518,7084.86775 268.889265,7085.20352 C269.660399,7087.8527 272.116076,7089.56 274.790858,7089.56 C275.340042,7089.56 275.894917,7089.49171 276.446946,7089.3409 C279.710749,7088.46163 281.634316,7085.14661 280.76928,7081.94257 C280.695296,7081.66371 279.022135,7075.10195 282.598944,7067.01501 C291.65621,7053.24273 306.956531,7048.3143 318.338581,7048.3143 C330.127539,7048.3143 342.82137,7053.64964 342.82137,7065.35038 L342.82137,7110.65948 Z M342.82137,7169.90589 C341.495361,7169.17175 340.106751,7168.50021 338.59863,7167.95956 C327.862511,7164.0982 312.180892,7165.79413 301.353717,7178.29162 C299.145599,7180.83551 299.469988,7184.65134 302.065095,7186.81108 C304.660202,7188.96798 308.552864,7188.65782 310.758136,7186.11109 C317.698341,7178.10381 327.85682,7176.97415 334.347434,7179.30747 C337.514489,7180.44567 342.82137,7183.4363 342.82137,7190.68098 L342.82137,7270.96142 C338.476273,7273.30328 327.205198,7277.44635 309.119121,7270.83053 C305.926456,7269.66956 302.37241,7271.25736 301.182986,7274.38457 C299.993562,7277.5061 301.612659,7280.99185 304.802478,7282.15567 C313.560965,7285.35972 321.169866,7286.51215 327.60357,7286.51215 C333.778332,7286.51215 338.857571,7285.44508 342.82137,7284.102 L342.82137,7347.5427 C341.782758,7350.5561 336.524251,7363.38651 322.271079,7363.51172 C307.502869,7363.55155 300.389088,7356.29834 300.141529,7356.03655 C297.885037,7353.54389 293.98384,7353.3134 291.431415,7355.52152 C288.881836,7357.73248 288.648504,7361.55116 290.904995,7364.05236 C291.334668,7364.52756 301.578512,7375.59945 321.88978,7375.59945 L322.382054,7375.59945 C331.003957,7375.52262 337.730748,7372.45801 342.82137,7368.29787 L342.82137,7389.10426 C342.82137,7395.53796 339.699843,7400.79931 333.545,7404.75457 C327.361701,7408.72406 318.782481,7410.91511 309.395135,7410.91511 C295.164727,7410.91511 276.942065,7405.59115 268.490893,7390.64937 C268.482357,7390.64083 268.476666,7390.6323 268.470975,7390.62376 C266.820578,7387.69573 262.600683,7378.76082 262.663284,7372.18199 C262.694584,7368.84705 259.965738,7366.11536 256.553969,7366.08121 L256.494213,7366.08121 C253.110898,7366.08121 250.356442,7368.7503 250.325142,7372.06817 C250.271077,7377.35229 251.801963,7382.88681 253.489352,7387.36849 C242.969492,7385.92013 232.480933,7380.26609 225.187885,7371.84622 C219.072878,7364.78651 212.42007,7352.69308 215.322493,7335.11635 C215.658263,7333.83302 218.16516,7324.98632 224.499271,7319.49448 C227.046004,7317.27783 227.282182,7313.45915 225.022845,7310.96364 C222.766353,7308.47097 218.865156,7308.23479 216.309886,7310.44575 C210.940404,7315.11239 207.591235,7321.10789 205.622141,7325.6977 C193.958385,7319.69652 187.40517,7310.6677 185.697862,7298.22712 C184.354781,7288.43287 186.505988,7279.00569 191.73604,7271.19191 C198.434376,7274.9053 211.233491,7280.21503 229.791924,7280.21503 C234.868318,7280.21503 240.397149,7279.79105 246.31866,7278.85487 C247.044266,7292.76659 252.36822,7304.66652 261.951906,7313.35387 C271.364861,7321.88471 284.750152,7326.91558 297.631787,7326.91558 C298.855357,7326.91558 300.070391,7326.86721 301.279734,7326.779 C304.67443,7326.52005 307.215473,7323.60909 306.95084,7320.28838 C306.686207,7316.95913 303.738256,7314.48638 300.323641,7314.72825 C291.980599,7315.36849 279.727822,7313.00387 270.329094,7304.48156 C262.486862,7297.36778 258.508836,7287.65889 258.508836,7275.61668 C258.508836,7236.24902 300.161447,7235.65146 301.95412,7235.64577 C305.354508,7235.64292 308.114655,7232.94253 308.120346,7229.61044 C308.123191,7226.27265 305.36589,7223.56372 301.959811,7223.55803 L301.948429,7223.55803 C300.716322,7223.55803 276.316053,7223.77144 260.079559,7239.65509 C252.834884,7246.74042 248.438567,7255.74647 246.862153,7266.45982 C212.869661,7272.69149 195.019761,7259.04157 194.174644,7258.37288 C194.01245,7258.23629 193.833183,7258.14239 193.656761,7258.03141 C193.571395,7257.97166 193.500258,7257.89483 193.412047,7257.84076 C187.035253,7254.11883 179.338142,7239.75753 179.338142,7227.51898 C179.338142,7219.79342 181.950323,7208.86665 193.65107,7198.96711 C198.64779,7203.74188 208.057899,7210.739 222.703752,7213.99995 C223.164725,7214.10239 223.625698,7214.15077 224.075289,7214.15077 C226.892347,7214.15077 229.43908,7212.24996 230.085012,7209.44429 C230.841918,7206.18902 228.756157,7202.95367 225.43829,7202.211 C207.722129,7198.26996 199.936807,7187.92368 199.45307,7187.26352 C190.40434,7174.15424 192.17994,7162.3539 195.264475,7154.75638 C199.581118,7144.13409 209.073747,7135.38129 220.233847,7131.35489 C224.04968,7139.752 233.883771,7154.43769 257.253965,7160.59538 C256.317791,7173.3262 259.390945,7182.93549 259.459237,7183.14037 C260.3072,7185.6928 262.72304,7187.30905 265.320993,7187.30905 C265.955542,7187.30905 266.604319,7187.2123 267.238868,7187.01027 C270.477061,7185.97166 272.24697,7182.55989 271.188439,7179.38714 C270.943725,7178.65584 268.007156,7169.44207 269.697391,7157.93767 C269.802675,7157.64743 269.893731,7157.36003 269.956332,7157.05271 C270.041698,7156.62589 270.070153,7156.21044 270.064462,7155.79784 C272.10754,7145.29221 278.194091,7133.26707 293.588313,7124.10452 C315.424776,7111.10622 335.804336,7120.1891 342.82137,7124.15574 L342.82137,7169.90589 Z M511.719609,7189.22408 C518.511847,7176.81195 519.41672,7163.17626 514.186668,7150.29462 C508.467188,7136.21218 495.759129,7124.65086 480.925473,7119.62853 C483.531962,7100.03718 476.55192,7086.59498 469.88773,7078.54787 C459.333724,7065.79997 442.229349,7058.15977 424.094898,7058.07441 C413.996174,7044.51839 397.287325,7036.22656 379.645147,7036.22656 C366.25132,7036.22656 355.364389,7040.80499 348.990441,7048.3456 C342.616493,7040.80499 331.732408,7036.22656 318.338581,7036.22656 C300.690713,7036.22656 283.984709,7044.51839 273.888831,7058.06872 C255.75438,7058.15693 238.650004,7065.79713 228.095998,7078.54502 C221.431808,7086.58929 214.451766,7100.03433 217.058255,7119.62853 C202.218908,7124.64802 189.51654,7136.20933 183.794215,7150.29178 C178.567008,7163.17341 179.46619,7176.80626 186.258428,7189.22408 C170.454452,7202.18539 167,7217.02758 167,7227.51898 C167,7240.56281 173.354029,7255.64403 181.745446,7264.02406 C174.620282,7274.3675 171.69225,7286.88776 173.462159,7299.84337 C175.818243,7316.99328 185.837293,7330.00865 202.548987,7337.71999 C201.123386,7353.33616 205.735961,7368.08161 215.774929,7379.67707 C226.969175,7392.5957 243.481684,7400.23021 259.78078,7399.84891 C271.44169,7416.83947 292.700514,7423 309.395135,7423 C321.164175,7423 332.142162,7420.10896 340.308783,7414.86183 C343.785999,7412.63095 346.679885,7409.98747 348.979059,7407.04521 C356.610724,7416.9106 370.809831,7423 388.588593,7423 C405.283215,7423 426.539193,7416.83947 438.202948,7399.84607 C454.507735,7400.26151 471.014553,7392.5957 482.208799,7379.67423 C492.244921,7368.07876 496.860343,7353.33047 495.431895,7337.71999 C512.14359,7330.00296 522.162639,7316.99043 524.518724,7299.84053 C526.285787,7286.94751 523.394746,7274.48986 516.224055,7264.0326 C524.621162,7255.65826 530.983728,7240.57135 530.983728,7227.51898 C530.983728,7217.02758 527.529276,7202.18539 511.719609,7189.22408 Z" transform="translate(-167 -7036)"/>
</svg>
