<svg xmlns="http://www.w3.org/2000/svg" width="372" height="383" viewBox="0 0 372 383">
  <path fill-rule="evenodd" d="M417.227113,4448.09583 L469.023934,4448.09583 L469.023934,4458.72309 L427.846798,4458.72309 L427.846798,4489.94143 L417.227113,4489.94143 L417.227113,4448.09583 Z M327.930947,4448.09583 L379.727768,4448.09583 L379.727768,4458.72309 L338.550632,4458.72309 L338.550632,4489.94143 L327.930947,4489.94143 L327.930947,4448.09583 Z M238.634781,4448.09583 L290.439169,4448.09583 L290.439169,4458.72309 L249.254466,4458.72309 L249.254466,4489.94143 L238.634781,4489.94143 L238.634781,4448.09583 Z M417.227113,4374.33821 L469.023934,4374.33821 L469.023934,4384.96546 L427.846798,4384.96546 L427.846798,4416.18128 L417.227113,4416.18128 L417.227113,4374.33821 Z M327.930947,4374.33821 L379.727768,4374.33821 L379.727768,4384.96546 L338.550632,4384.96546 L338.550632,4416.18128 L327.930947,4416.18128 L327.930947,4374.33821 Z M238.634781,4374.33821 L290.439169,4374.33821 L290.439169,4384.96546 L249.254466,4384.96546 L249.254466,4416.18128 L238.634781,4416.18128 L238.634781,4374.33821 Z M417.227113,4300.57554 L469.023934,4300.57554 L469.023934,4311.20279 L427.846798,4311.20279 L427.846798,4342.41861 L417.227113,4342.41861 L417.227113,4300.57554 Z M327.930947,4300.57554 L379.727768,4300.57554 L379.727768,4311.20279 L338.550632,4311.20279 L338.550632,4342.41861 L327.930947,4342.41861 L327.930947,4300.57554 Z M238.634781,4300.57554 L290.439169,4300.57554 L290.439169,4311.20279 L249.254466,4311.20279 L249.254466,4342.41861 L238.634781,4342.41861 L238.634781,4300.57554 Z M408.827219,4208.04302 L426.527535,4208.04302 L426.527535,4172.62725 L408.827219,4172.62725 L408.827219,4208.04302 Z M398.199966,4218.66271 L437.154788,4218.66271 L437.154788,4162 L398.199966,4162 L398.199966,4218.66271 Z M277.786357,4208.04302 L295.49424,4208.04302 L295.49424,4172.62725 L277.786357,4172.62725 L277.786357,4208.04302 Z M267.166671,4218.66271 L306.121493,4218.66271 L306.121493,4162 L267.166671,4162 L267.166671,4218.66271 Z M345.068748,4208.04302 L362.784199,4208.04302 L362.784199,4172.62725 L345.068748,4172.62725 L345.068748,4208.04302 Z M334.449062,4218.66271 L373.411451,4218.66271 L373.411451,4162 L334.449062,4162 L334.449062,4218.66271 Z M178.629775,4533.85295 L529.235783,4533.85295 L529.235783,4266.61525 L178.629775,4266.61525 L178.629775,4533.85295 Z M496.81169,4193.87419 L458.404248,4193.87419 C455.475637,4193.87419 453.094406,4196.25542 453.094406,4199.18403 C453.094406,4202.12273 455.475637,4204.49388 458.404248,4204.49388 L496.81169,4204.49388 C516.504774,4204.49388 529.235783,4218.0119 529.235783,4238.9183 L529.235783,4255.988 L178.629775,4255.988 L178.629775,4238.9183 C178.629775,4218.0119 191.035384,4204.49388 210.251717,4204.49388 L242.373112,4204.49388 C245.309291,4204.49388 247.682954,4202.12273 247.682954,4199.18403 C247.682954,4196.25542 245.309291,4193.87419 242.373112,4193.87419 L210.251717,4193.87419 C184.978884,4193.87419 168,4211.97054 168,4238.9183 L168,4539.17036 C168,4542.09897 170.383754,4544.4802 173.312365,4544.4802 L534.545626,4544.4802 C537.481805,4544.4802 539.855469,4542.09897 539.855469,4539.17036 L539.855469,4238.9183 C539.855469,4212.39936 522.155152,4193.87419 496.81169,4193.87419 L496.81169,4193.87419 Z" transform="translate(-168 -4162)"/>
</svg>
