<svg xmlns="http://www.w3.org/2000/svg" width="259" height="253" viewBox="0 0 259 253">
  <path fill-rule="evenodd" d="M278.912728,2034.43173 C283.851803,2034.43173 287.872299,2038.4488 287.872299,2043.3913 C287.872299,2048.33038 283.851803,2052.34744 278.912728,2052.34744 C273.973654,2052.34744 269.953158,2048.33038 269.953158,2043.3913 C269.953158,2038.4488 273.973654,2034.43173 278.912728,2034.43173 L278.912728,2034.43173 Z M278.912728,2060.77918 C288.502965,2060.77918 296.300602,2052.97811 296.300602,2043.3913 C296.300602,2033.80106 288.502965,2026 278.912728,2026 C269.325919,2026 261.524855,2033.80106 261.524855,2043.3913 C261.524855,2052.97811 269.325919,2060.77918 278.912728,2060.77918 L278.912728,2060.77918 Z M226.492042,2056.49819 C235.355642,2056.49819 242.567171,2063.70972 242.567171,2072.57674 C242.567171,2081.44034 235.355642,2088.65187 226.492042,2088.65187 C217.625015,2088.65187 210.413486,2081.44034 210.413486,2072.57674 C210.413486,2063.70972 217.625015,2056.49819 226.492042,2056.49819 L226.492042,2056.49819 Z M226.492042,2097.0836 C240.003376,2097.0836 250.998901,2086.08808 250.998901,2072.57674 C250.998901,2059.06198 240.003376,2048.06646 226.492042,2048.06646 C212.97728,2048.06646 201.981755,2059.06198 201.981755,2072.57674 C201.981755,2086.08808 212.97728,2097.0836 226.492042,2097.0836 L226.492042,2097.0836 Z M383.195413,2189.22939 L338.836284,2233.58509 C333.091739,2239.32964 325.458623,2242.48982 317.335371,2242.48982 L238.087386,2242.48982 C222.831437,2242.48982 210.344935,2254.57531 209.697132,2269.67359 L143.675995,2269.67359 L168.354231,2220.07033 C173.430407,2209.87 181.231472,2201.30802 190.91768,2195.30641 C200.603887,2189.30823 211.746796,2186.13776 223.139915,2186.13776 L277.452599,2186.13776 C277.877613,2186.16861 278.306055,2186.18917 278.734497,2186.1926 C281.935812,2186.59362 284.420774,2189.32879 284.420774,2192.63636 C284.420774,2196.21813 281.507371,2199.13496 277.925599,2199.13496 L237.717212,2199.13496 C232.743862,2199.13496 228.699373,2203.17945 228.699373,2208.1528 C228.699373,2213.12615 232.743862,2217.17064 237.717212,2217.17064 L319.799767,2217.17064 C329.023257,2217.17064 337.694915,2213.57859 344.214083,2207.05599 L360.67995,2190.59012 C360.67995,2190.59012 360.67995,2190.59012 360.683378,2190.59012 L372.371264,2178.89881 C373.77998,2177.49009 375.651413,2176.71547 377.64281,2176.71547 C377.646237,2176.71547 377.653092,2176.71547 377.65652,2176.71547 C379.661627,2176.7189 381.557052,2177.50723 382.989761,2178.93994 L383.195413,2179.14902 C384.542433,2180.49604 385.28278,2182.28521 385.28278,2184.19092 C385.28278,2186.0932 384.542433,2187.8858 383.195413,2189.22939 L383.195413,2189.22939 Z M188.521834,2110.54352 L283.145731,2110.54352 C284.609288,2113.51177 286.556126,2116.19552 288.890276,2118.49197 L200.124033,2118.49197 C197.796738,2118.49197 195.911595,2120.38054 195.911595,2122.70784 L195.911595,2183.26206 C193.385503,2184.33488 190.91768,2185.55165 188.521834,2186.92266 L188.521834,2110.54352 Z M309.424625,2076.78918 C320.92057,2076.78918 330.274307,2086.14292 330.274307,2097.64229 C330.274307,2109.13823 320.92057,2118.49197 309.424625,2118.49197 C297.925253,2118.49197 288.571516,2109.13823 288.571516,2097.64229 C288.571516,2086.14292 297.925253,2076.78918 309.424625,2076.78918 L309.424625,2076.78918 Z M337.667495,2110.54352 L337.667495,2118.49197 L329.958974,2118.49197 C332.289696,2116.19552 334.239962,2113.51177 335.703519,2110.54352 L337.667495,2110.54352 Z M278.912728,2155.84522 C284.955469,2155.84522 289.873978,2160.76373 289.873978,2166.80647 C289.873978,2172.77038 285.085715,2177.63405 279.152656,2177.76087 C278.748207,2177.72659 278.34033,2177.70603 277.925599,2177.70603 L277.761077,2177.70603 C272.25646,2177.1302 267.951479,2172.4619 267.951479,2166.80647 C267.951479,2160.76373 272.869988,2155.84522 278.912728,2155.84522 L278.912728,2155.84522 Z M262.885585,2177.70603 L241.614317,2177.70603 C238.450704,2175.10453 234.704411,2173.38391 230.707907,2172.67098 L230.707907,2160.94197 C240.483231,2159.1905 248.215745,2151.45798 249.967214,2141.67923 L307.858243,2141.67923 C309.609712,2151.45798 317.342226,2159.1905 327.120977,2160.94197 L327.120977,2172.67098 C317.342226,2174.42245 309.609712,2182.15497 307.858243,2191.93372 L292.835366,2191.93372 C292.681128,2188.58502 291.416368,2185.5208 289.404406,2183.10096 C294.754785,2179.64601 298.305709,2173.63412 298.305709,2166.80647 C298.305709,2156.11257 289.606631,2147.41349 278.912728,2147.41349 C268.218826,2147.41349 259.523175,2156.11257 259.523175,2166.80647 C259.523175,2170.84411 260.763942,2174.59726 262.885585,2177.70603 L262.885585,2177.70603 Z M353.485559,2126.9237 L353.485559,2185.86356 L338.253603,2201.09551 C333.324811,2206.0243 326.771368,2208.73891 319.799767,2208.73891 L237.717212,2208.73891 C237.391596,2208.73891 237.131104,2208.47499 237.131104,2208.1528 C237.131104,2207.82719 237.391596,2207.56327 237.717212,2207.56327 L277.925599,2207.56327 C283.330818,2207.56327 288.071096,2204.67728 290.693159,2200.36545 L311.700507,2200.36545 C314.027802,2200.36545 315.916372,2198.47688 315.916372,2196.14958 C315.916372,2187.64587 322.833133,2180.72911 331.336842,2180.72911 C333.664137,2180.72911 335.54928,2178.84397 335.54928,2176.51325 L335.54928,2157.0997 C335.54928,2154.76898 333.664137,2152.88384 331.336842,2152.88384 C322.833133,2152.88384 315.916372,2145.96707 315.916372,2137.46337 C315.916372,2135.13607 314.027802,2133.2475 311.700507,2133.2475 L246.12495,2133.2475 C243.797655,2133.2475 241.909085,2135.13607 241.909085,2137.46337 C241.909085,2145.96707 234.992323,2152.88384 226.492042,2152.88384 C224.16132,2152.88384 222.276177,2154.76898 222.276177,2157.0997 L222.276177,2176.51325 C222.276177,2176.93483 222.337872,2177.33585 222.450981,2177.71974 C216.295132,2177.77801 210.211262,2178.6486 204.339898,2180.29382 L204.339898,2126.9237 L353.485559,2126.9237 Z M389.155892,2173.18511 L388.95024,2172.97946 C385.927157,2169.9598 381.923798,2168.2906 377.67023,2168.28374 C377.663375,2168.28374 377.653092,2168.28374 377.64281,2168.28374 C373.399524,2168.28374 369.409876,2169.93581 366.410785,2172.93833 L361.917289,2177.43183 L361.917289,2122.70784 C361.917289,2120.38054 360.028719,2118.49197 357.701424,2118.49197 L346.099226,2118.49197 L346.099226,2106.33109 C346.099226,2104.00036 344.210655,2102.11522 341.88336,2102.11522 L338.363284,2102.11522 C338.589501,2100.65509 338.706038,2099.16069 338.706038,2097.64229 C338.706038,2081.49518 325.571732,2068.36088 309.424625,2068.36088 C293.277518,2068.36088 280.143213,2081.49518 280.143213,2097.64229 C280.143213,2099.16069 280.259749,2100.65509 280.482538,2102.11522 L184.305969,2102.11522 C181.978674,2102.11522 180.090104,2104.00036 180.090104,2106.33109 L180.090104,2192.61922 C172.011409,2198.97387 165.416836,2207.04914 160.806804,2216.31718 L135.847511,2266.47913 C134.599889,2268.98808 134.73699,2271.91177 136.210829,2274.29733 C137.688096,2276.67946 140.245035,2278.10532 143.048757,2278.10532 L210.903623,2278.10532 C214.872706,2278.10532 218.101442,2274.87658 218.101442,2270.9075 C218.101442,2259.88798 227.067868,2250.92156 238.087386,2250.92156 L317.335371,2250.92156 C327.710512,2250.92156 337.461843,2246.88392 344.796763,2239.549 L389.155892,2195.1933 C392.093288,2192.25248 393.714511,2188.34509 393.714511,2184.19092 C393.714511,2180.03332 392.096716,2176.12594 389.155892,2173.18511 L389.155892,2173.18511 Z" transform="translate(-135 -2026)"/>
</svg>
