<svg xmlns="http://www.w3.org/2000/svg" width="351" height="160" viewBox="0 0 351 160">
  <path fill-rule="evenodd" d="M1100.99373,3461.41969 L1137.41102,3461.41969 L1137.41102,3492.28425 L1100.99373,3492.28425 L1100.99373,3534.0426 L1067.35281,3534.0426 L1067.35281,3492.28425 L1030.82615,3492.28425 L1030.82615,3461.41969 L1067.35281,3461.41969 L1067.35281,3420.83609 L1100.99373,3420.83609 L1100.99373,3461.41969 Z M985.218994,3453.09059 C985.218994,3441.91458 983.758492,3433.56432 980.841017,3428.04334 C977.920014,3422.52942 973.291564,3419.76717 966.955668,3419.76717 C960.764412,3419.76717 956.259435,3422.33187 953.447793,3427.45773 C950.632623,3432.5836 949.122732,3440.34472 948.907538,3450.74109 L948.907538,3490.46744 C948.907538,3502.07384 950.368039,3510.56521 953.285515,3515.94155 C956.206518,3521.31789 960.834967,3524.00253 967.170863,3524.00253 C973.291564,3524.00253 977.81418,3521.38492 980.735183,3516.15675 C983.652659,3510.91799 985.148438,3502.7159 985.218994,3491.53636 L985.218994,3453.09059 Z M1021.20942,3486.08946 C1021.20942,3507.09388 1016.49278,3523.29345 1007.05949,3534.68466 C997.626202,3546.07586 984.329993,3551.7697 967.170863,3551.7697 C949.870622,3551.7697 936.482691,3546.04058 927.014125,3534.57529 C917.545559,3523.11353 912.811276,3506.95276 912.811276,3486.08946 L912.811276,3457.68024 C912.811276,3436.67935 917.52792,3420.48331 926.961208,3409.08857 C936.394496,3397.7009 949.725983,3392 966.955668,3392 C984.185354,3392 997.53448,3397.73265 1007.00657,3409.19441 C1016.47514,3420.6597 1021.20942,3436.85574 1021.20942,3457.7896 L1021.20942,3486.08946 Z M899.028233,3413.36072 L840.932725,3549.63539 L802.910295,3549.63539 L861.115164,3421.905 L787,3421.905 L787,3394.13784 L899.028233,3394.13784 L899.028233,3413.36072 Z" transform="translate(-787 -3392)"/>
</svg>
