<svg xmlns="http://www.w3.org/2000/svg" width="236" height="230" viewBox="0 0 236 230">
  <path fill-rule="evenodd" d="M352.91228,1371.65653 L339.46668,1361.28525 L353.392263,1348.52621 L362.217267,1355.47381 L352.91228,1371.65653 Z M241.112696,1490.97787 L252.626213,1499.86059 L233.165636,1513.27885 L241.112696,1490.97787 Z M258.246267,1494.82381 L244.536373,1484.24596 L334.697229,1367.36099 L348.306874,1378.08466 L258.246267,1494.82381 Z M369.325876,1351.63091 L355.509656,1340.74319 C354.081859,1339.61311 352.052564,1339.69209 350.706789,1340.91939 L331.006221,1358.9704 C330.301436,1359.61746 329.939929,1360.52275 329.876134,1361.46449 L236.397927,1482.64804 C236.394889,1482.64804 236.391851,1482.65108 236.391851,1482.65108 C236.382737,1482.66323 236.382737,1482.67538 236.373624,1482.68753 C236.145784,1482.98828 235.957436,1483.31637 235.832884,1483.6718 L222.317413,1521.61172 C221.773635,1523.13066 222.271845,1524.82275 223.553825,1525.80398 C223.57509,1525.81917 223.599393,1525.82221 223.620658,1525.84043 C222.721449,1526.51484 222.101724,1527.54164 222.101724,1528.75375 C222.101724,1536.33019 226.020573,1539.72045 229.687278,1540.37359 C232.333261,1540.83535 235.744785,1539.99082 238.764425,1536.87093 C240.675244,1542.36947 243.351604,1546.74704 249.958965,1546.74704 C256.602781,1546.74704 256.657462,1539.61716 256.678727,1536.57322 C256.684803,1535.71654 256.693917,1534.42241 256.809356,1533.59915 C256.827583,1533.60522 256.854924,1533.60826 256.873151,1533.61434 C258.869029,1534.11862 260.880097,1532.89132 261.363118,1530.90456 C261.855253,1528.91172 260.640106,1526.90369 258.653341,1526.40852 C256.01951,1525.75234 253.823132,1526.09865 252.128002,1527.41709 C249.302786,1529.61346 249.278483,1533.44422 249.25418,1536.52157 C249.251142,1537.30534 249.242029,1538.46581 249.150893,1539.25869 C247.340324,1538.92149 246.495797,1537.10485 244.46954,1530.23623 C244.14145,1529.13044 243.801209,1527.9639 243.421475,1526.74268 C242.94453,1525.22071 241.556225,1524.17265 239.961345,1524.13011 C238.402919,1524.13011 236.938667,1525.07793 236.391851,1526.56952 C234.581282,1531.51213 231.929224,1533.2103 230.98141,1533.06144 C230.373836,1532.95816 229.523234,1531.55162 229.523234,1528.75375 C229.523234,1527.54468 228.906547,1526.52395 228.013414,1525.84651 L261.025915,1503.08681 C261.344891,1502.86505 261.621337,1502.60075 261.858291,1502.29696 L355.570414,1380.8157 C356.132419,1380.49065 356.636705,1380.07446 356.97087,1379.49726 L370.249387,1356.39125 C371.166823,1354.7994 370.771901,1352.76707 369.325876,1351.63091 L369.325876,1351.63091 Z M337.507256,1383.9204 L328.065565,1396.163 C327.333439,1397.10778 326.233732,1397.60903 325.12491,1397.60903 C324.332027,1397.60903 323.536106,1397.35688 322.861699,1396.83437 C321.239478,1395.58581 320.938729,1393.25576 322.19033,1391.63051 L331.625946,1379.3879 C332.877547,1377.76568 335.207591,1377.46189 336.829812,1378.71653 C338.458109,1379.96206 338.75582,1382.29818 337.507256,1383.9204 L337.507256,1383.9204 Z M317.302402,1404.04627 C318.924623,1405.29483 319.225372,1407.62791 317.973771,1409.2471 L300.460467,1431.96427 C299.734417,1432.90904 298.634709,1433.41029 297.52285,1433.41029 C296.729967,1433.41029 295.940121,1433.15815 295.259639,1432.6326 C293.637418,1431.38707 293.336669,1429.05703 294.58827,1427.43177 L312.095498,1404.7146 C313.350137,1403.09845 315.677144,1402.79467 317.302402,1404.04627 L317.302402,1404.04627 Z M286.850823,1443.54462 C288.470006,1444.79622 288.770755,1447.12626 287.519154,1448.74848 L261.751965,1482.18021 C261.019839,1483.12499 259.920131,1483.62623 258.808272,1483.62623 C258.012351,1483.62623 257.222506,1483.37409 256.542023,1482.85158 C254.919802,1481.60301 254.622091,1479.27297 255.873693,1477.64771 L281.646957,1444.21598 C282.892482,1442.59376 285.222526,1442.28998 286.850823,1443.54462 L286.850823,1443.54462 Z M183.858016,1510.964 C190.416771,1510.964 195.754303,1516.29849 195.754303,1522.85725 C195.754303,1529.416 190.416771,1534.75354 183.858016,1534.75354 C177.299261,1534.75354 171.964766,1529.416 171.964766,1522.85725 C171.964766,1516.29849 177.299261,1510.964 183.858016,1510.964 L183.858016,1510.964 Z M183.858016,1542.17201 C194.511816,1542.17201 203.17885,1533.50801 203.17885,1522.85725 C203.17885,1512.20345 194.511816,1503.53945 183.858016,1503.53945 C173.210292,1503.53945 164.540219,1512.20345 164.540219,1522.85725 C164.540219,1533.50801 173.210292,1542.17201 183.858016,1542.17201 L183.858016,1542.17201 Z M168.255531,1468.13615 L181.913781,1468.13615 L181.913781,1460.71768 L168.255531,1460.71768 L168.255531,1468.13615 Z M193.248063,1468.13615 L231.810748,1468.13615 L231.810748,1460.71768 L193.248063,1460.71768 L193.248063,1468.13615 Z M168.255531,1443.4231 L181.913781,1443.4231 L181.913781,1436.00463 L168.255531,1436.00463 L168.255531,1443.4231 Z M193.248063,1443.4231 L258.920673,1443.4231 L258.920673,1436.00463 L193.248063,1436.00463 L193.248063,1443.4231 Z M168.255531,1418.71005 L181.913781,1418.71005 L181.913781,1411.29158 L168.255531,1411.29158 L168.255531,1418.71005 Z M193.248063,1418.71005 L245.827466,1418.71005 L245.827466,1411.29158 L193.248063,1411.29158 L193.248063,1418.71005 Z M199.290381,1382.84499 L239.733505,1382.84499 L239.733505,1375.42652 L199.290381,1375.42652 L199.290381,1382.84499 Z M148.111434,1377.02444 L174.02444,1350.756 L174.02444,1377.02444 L148.111434,1377.02444 Z M296.423142,1471.82108 C294.372582,1471.82108 292.710869,1473.4828 292.710869,1475.53336 L292.710869,1559.77341 L142.424547,1559.77341 L142.424547,1384.44291 L177.733676,1384.44291 C179.784236,1384.44291 181.442912,1382.78424 181.442912,1380.73368 L181.442912,1345.42455 L292.710869,1345.42455 L292.710869,1386.06209 C292.710869,1388.10962 294.372582,1389.77133 296.423142,1389.77133 C298.470664,1389.77133 300.132378,1388.10962 300.132378,1386.06209 L300.132378,1341.70924 C300.132378,1339.66475 298.470664,1338 296.423142,1338 L177.733676,1338 C177.651654,1338 177.578745,1338.04253 177.49976,1338.04861 C177.168633,1338.06987 176.852695,1338.13367 176.539794,1338.23999 C176.41828,1338.28252 176.302841,1338.3129 176.184364,1338.36454 C175.795517,1338.54682 175.424897,1338.77466 175.108959,1339.09059 L175.093769,1339.10275 C175.093769,1339.10275 175.093769,1339.10275 175.093769,1339.10275 L175.072504,1339.12401 L136.087556,1378.10896 C135.28556,1378.91399 134.911902,1380.02585 135.027341,1381.12252 C135.027341,1381.17113 135,1381.2167 135,1381.2653 L135,1563.48264 C135,1565.53017 136.664751,1567.19188 138.709236,1567.19188 L296.423142,1567.19188 C298.470664,1567.19188 300.132378,1565.53017 300.132378,1563.48264 L300.132378,1475.53336 C300.132378,1473.4828 298.470664,1471.82108 296.423142,1471.82108 L296.423142,1471.82108 Z" transform="translate(-135 -1338)"/>
</svg>
