<svg xmlns="http://www.w3.org/2000/svg" width="247" height="164" viewBox="0 0 247 164">
  <path fill-rule="evenodd" d="M733.722358,1330.93668 C734.445884,1330.26492 735.390381,1329.8899 736.381598,1329.8899 C737.480145,1329.8899 738.495353,1330.33563 739.239082,1331.13745 C740.706336,1332.71708 740.61921,1335.1907 739.042101,1336.65796 C737.514238,1338.08102 734.945912,1337.98632 733.525377,1336.45719 C732.058123,1334.88134 732.146512,1332.40519 733.722358,1330.93668 L733.722358,1330.93668 Z M736.381598,1343.02827 C738.723902,1343.02827 740.95635,1342.14817 742.667305,1340.55464 C746.393524,1337.0898 746.604394,1331.23972 743.139553,1327.51224 C741.399557,1325.64093 738.933509,1324.56763 736.381598,1324.56763 C734.045609,1324.56763 731.809372,1325.44647 730.097155,1327.03999 C726.370936,1330.5061 726.160065,1336.35617 729.626169,1340.08239 C731.364903,1341.95497 733.828425,1343.02827 736.381598,1343.02827 L736.381598,1343.02827 Z M546.398714,1338.22118 C544.870851,1339.64424 542.298736,1339.54575 540.88199,1338.02041 C539.418524,1336.44456 539.50565,1333.96715 541.082759,1332.50368 C541.807547,1331.82814 542.752045,1331.45438 543.739474,1331.45438 C544.836758,1331.45438 545.853229,1331.89885 546.600746,1332.70319 C547.312907,1333.4646 547.680352,1334.46087 547.643733,1335.50385 C547.605853,1336.54558 547.163909,1337.51154 546.398714,1338.22118 L546.398714,1338.22118 Z M543.739474,1326.12959 C541.402222,1326.12959 539.171036,1327.00969 537.453768,1328.60321 C533.727548,1332.06805 533.516678,1337.91813 536.981519,1341.64561 C538.721516,1343.51693 541.187563,1344.59022 543.743262,1344.59022 C546.080514,1344.59022 548.315488,1343.71391 550.027706,1342.12039 C551.8321,1340.43974 552.873825,1338.15931 552.967265,1335.69705 C553.054391,1333.22974 552.178079,1330.87986 550.499954,1329.07546 C548.76122,1327.20414 546.29391,1326.12959 543.739474,1326.12959 L543.739474,1326.12959 Z M734.637814,1354.42789 L689.971165,1301.25193 L712.194635,1282.63599 L756.865071,1335.81195 L734.637814,1354.42789 Z M543.186413,1355.36987 L523.425203,1334.15403 L574.319473,1286.89506 L594.080683,1308.1109 L543.186413,1355.36987 Z M654.902278,1333.11104 C654.649739,1332.45318 654.157287,1331.94305 653.546141,1331.65768 L653.265823,1331.35716 L653.110511,1331.5011 C652.706448,1331.39377 652.273343,1331.36852 651.835187,1331.46827 C651.169745,1331.62106 635.434014,1335.28288 628.374274,1341.82997 L616.263746,1353.06418 C614.431573,1354.76377 611.55136,1354.66149 609.849245,1352.83311 C609.023441,1351.95048 608.595386,1350.80143 608.639581,1349.59555 C608.685038,1348.39347 609.193905,1347.27472 610.080318,1346.45396 C610.128301,1346.40851 610.172495,1346.36557 610.219215,1346.31759 C610.335383,1346.19511 621.760267,1333.94821 631.11559,1325.27222 C641.4293,1315.70476 653.200162,1309.36602 660.597042,1309.57058 C663.412857,1309.63371 667.762848,1310.59589 671.96763,1311.5265 C680.777468,1313.47484 688.41426,1315.1517 692.184674,1312.16795 L723.594265,1349.56146 C722.331567,1350.11831 714.63164,1353.62987 709.149009,1358.76652 C704.816696,1362.82104 697.961513,1371.60563 694.740373,1375.83187 L654.902278,1333.11104 Z M580.093787,1387.85023 C580.425876,1387.26181 580.822363,1386.70875 581.332493,1386.23776 L586.499449,1381.51275 C587.733105,1380.37506 589.343043,1379.74623 591.027481,1379.74623 C592.900061,1379.74623 594.633744,1380.49375 595.90023,1381.84863 C597.102317,1383.13658 597.734928,1384.80839 597.669268,1386.55722 C597.604871,1388.31111 596.853566,1389.93494 595.570666,1391.12061 L590.403709,1395.84941 C589.167528,1396.9871 587.560115,1397.61592 585.874414,1397.61592 C584.003097,1397.61592 582.274465,1396.86841 581.000403,1395.50975 C580.360216,1394.82663 579.898069,1394.02986 579.601335,1393.17628 L580.093787,1387.85023 Z M603.773146,1409.13299 C602.542016,1410.27699 600.94723,1410.90707 599.265317,1410.90707 C597.402839,1410.90707 595.68052,1410.15577 594.414035,1408.79332 C593.210685,1407.50284 592.579336,1405.81714 592.642471,1404.05063 C592.706868,1402.28412 593.458173,1400.65019 594.752438,1399.44684 L603.388023,1391.41987 C604.621679,1390.27839 606.221516,1389.64704 607.89964,1389.64704 C609.762119,1389.64704 611.484437,1390.39709 612.750923,1391.75954 C613.95301,1393.0538 614.585622,1394.73571 614.521224,1396.50223 C614.456826,1398.25359 613.715623,1399.87236 612.440299,1401.07571 L611.370795,1402.07577 L603.773146,1409.13299 Z M607.714024,1421.87107 C605.226511,1419.18405 605.375509,1414.96412 608.054952,1412.46398 L618.914147,1402.31568 C620.137701,1401.17168 621.735013,1400.54033 623.406824,1400.54033 C625.261726,1400.54033 626.976469,1401.29037 628.240428,1402.65535 C630.726679,1405.34363 630.573893,1409.5623 627.8995,1412.06371 L617.039042,1422.21074 C615.812963,1423.35474 614.219439,1423.98735 612.547628,1423.98735 C610.692726,1423.98735 608.974196,1423.23605 607.714024,1421.87107 L607.714024,1421.87107 Z M628.388164,1434.61043 C626.516847,1434.61043 624.784426,1433.86291 623.51289,1432.50425 C622.310803,1431.22008 621.683242,1429.54827 621.746377,1427.79944 C621.808249,1426.04681 622.558291,1424.42298 623.84498,1423.23352 L629.013199,1418.50851 C630.246854,1417.36956 631.853005,1416.742 633.537443,1416.742 C635.410023,1416.742 637.139918,1417.48825 638.413979,1418.84818 C639.616067,1420.13234 640.24489,1421.80289 640.17923,1423.55299 C640.11862,1425.30561 639.367315,1426.92944 638.080627,1428.11511 L632.916196,1432.84391 C631.680015,1433.9816 630.072602,1434.61043 628.388164,1434.61043 L628.388164,1434.61043 Z M672.645698,1378.19059 L659.969482,1364.51179 L659.927813,1364.55094 L659.913923,1364.53705 L656.093002,1368.10164 L656.062697,1368.12942 L656.021028,1368.16857 L668.332325,1381.3688 L677.020944,1390.74433 C679.346832,1393.25583 679.207935,1397.19671 676.705269,1399.52639 C675.499394,1400.65397 673.922285,1401.24239 672.278253,1401.18431 C670.687255,1401.12496 669.21495,1400.45952 668.106302,1399.32309 L647.148055,1376.70819 L647.135428,1376.71955 L647.01926,1376.59581 L643.112475,1380.21343 L664.07451,1402.82834 C664.126281,1402.8839 664.183102,1402.93314 664.236135,1402.98744 C666.520354,1405.49642 666.370093,1409.40447 663.883843,1411.72278 C662.674179,1412.85037 661.114748,1413.45141 659.454301,1413.3807 C657.806482,1413.31883 656.281143,1412.61929 655.158606,1411.4071 L634.199096,1388.79093 L630.292311,1392.40982 L640.449447,1403.36877 L640.407778,1403.40918 L651.009383,1414.79997 C652.138234,1416.00963 652.725388,1417.58548 652.664779,1419.23582 C652.606695,1420.89122 651.905898,1422.41908 650.693709,1423.54415 C649.230243,1424.90155 647.238969,1425.41041 645.368915,1425.08211 C645.435838,1424.64017 645.48382,1424.19444 645.500235,1423.74365 C645.616404,1420.56671 644.477451,1417.53245 642.296773,1415.2053 C640.270144,1413.03851 637.480846,1411.7152 634.529923,1411.46897 C636.098193,1407.33869 635.338049,1402.48994 632.147213,1399.03772 C629.897087,1396.60956 626.711302,1395.21554 623.406824,1395.21554 C622.178219,1395.21554 620.976132,1395.41252 619.830865,1395.77365 C619.717223,1392.92627 618.6111,1390.23799 616.647606,1388.13054 C614.398742,1385.71248 611.209169,1384.32351 607.89964,1384.32351 C606.172271,1384.32351 604.495409,1384.70485 602.956181,1385.40438 C602.752887,1382.72367 601.656866,1380.20712 599.786811,1378.2108 C597.53416,1375.80157 594.339536,1374.4227 591.027481,1374.4227 C587.998271,1374.4227 585.106694,1375.55156 582.895712,1377.59207 L581.352696,1379.00251 C578.371468,1374.94672 572.290319,1366.83642 568.340602,1362.61775 C562.851658,1356.7601 554.676956,1352.55532 554.334765,1352.37854 C554.310774,1352.36591 554.286783,1352.36212 554.264054,1352.35076 L590.603215,1318.60518 C594.64132,1320.32623 601.371496,1319.34386 608.956518,1318.22763 C613.219383,1317.59881 617.642611,1316.95736 620.445799,1317.08994 C622.933312,1317.2099 625.944845,1318.13924 629.260688,1319.77696 C628.650805,1320.31108 628.057337,1320.84268 627.490386,1321.36796 C618.359823,1329.84066 607.3188,1341.62541 606.384404,1342.62168 C604.501722,1344.40461 603.412015,1346.80626 603.321101,1349.40236 C603.225136,1352.03256 604.159531,1354.53901 605.955087,1356.46463 C607.893327,1358.54429 610.532364,1359.59738 613.175189,1359.59738 C615.580627,1359.59738 617.989853,1358.72738 619.885161,1356.96844 L631.99569,1345.73296 C636.797727,1341.27817 647.242757,1338.17446 651.331371,1337.08854 L692.33746,1381.05818 C693.468837,1382.27037 694.059779,1383.85 693.997907,1385.50792 C693.939823,1387.16206 693.2365,1388.69876 692.021786,1389.82635 C689.497654,1392.1636 685.546675,1392.01713 683.201846,1389.51067 L672.645698,1378.19059 Z M762.657063,1334.4293 L714.562192,1277.17608 C713.617695,1276.05102 711.93957,1275.90455 710.81577,1276.85031 L684.507475,1298.88437 C683.964515,1299.33642 683.623587,1299.98797 683.562978,1300.69129 C683.502368,1301.39462 683.722077,1302.09415 684.177911,1302.63458 L688.757714,1308.08565 C686.833363,1309.35213 677.956602,1307.39874 673.115422,1306.32924 C668.457332,1305.29888 664.059358,1304.32407 660.725837,1304.24579 C660.583153,1304.24326 660.44173,1304.23947 660.299046,1304.23947 C652.022066,1304.23947 641.867456,1309.86353 633.730635,1316.11766 C628.898294,1313.42938 624.51926,1311.95834 620.707177,1311.7702 C617.378708,1311.60984 612.907497,1312.26518 608.182484,1312.9584 C604.625467,1313.48115 598.919338,1314.31832 595.34338,1314.20468 L599.655491,1310.20067 C600.171934,1309.71832 600.478769,1309.05161 600.505286,1308.34576 C600.529277,1307.63865 600.27295,1306.95301 599.791862,1306.43278 L576.40166,1281.32026 C575.399079,1280.24444 573.717166,1280.18635 572.645137,1281.18515 L517.850395,1332.06553 C517.331426,1332.54662 517.029642,1333.21332 517.001862,1333.91917 C516.975346,1334.62628 517.232936,1335.31192 517.715286,1335.82963 L541.1017,1360.94467 C541.628244,1361.50531 542.33788,1361.79068 543.051304,1361.79068 C543.696542,1361.79068 544.348094,1361.55582 544.862012,1361.08105 L550.650215,1355.70574 C550.877501,1356.29669 551.306818,1356.81187 551.915438,1357.12123 C551.989937,1357.16163 559.593899,1361.07221 564.45402,1366.25558 C568.331763,1370.39596 574.642723,1378.86108 577.415606,1382.63655 C575.271547,1384.77051 574.022739,1387.58001 573.912884,1390.61048 C573.797979,1393.78995 574.935669,1396.82043 577.11761,1399.15136 C579.368999,1401.5568 582.56236,1402.93819 585.874414,1402.93819 C586.39212,1402.93819 586.904775,1402.894 587.412379,1402.8296 C587.37071,1403.16927 587.335355,1403.51146 587.323991,1403.85744 C587.207822,1407.04322 588.341725,1410.08758 590.517352,1412.42105 C592.764953,1414.84038 595.958314,1416.22934 599.265317,1416.22934 C599.745142,1416.22934 600.221179,1416.19146 600.693428,1416.13464 C600.363864,1419.44038 601.381598,1422.8686 603.807239,1425.4887 C606.057365,1427.91813 609.239362,1429.31089 612.547628,1429.31089 C613.889875,1429.31089 615.199292,1429.07476 616.439261,1428.64418 C616.580683,1431.44106 617.686806,1434.07378 619.627571,1436.14586 C621.882748,1438.5513 625.076109,1439.93396 628.388164,1439.93396 C631.416112,1439.93396 634.306425,1438.80637 636.518671,1436.76459 L641.684365,1432.03579 C642.327077,1431.44232 642.886452,1430.78698 643.376379,1430.08744 C644.384011,1430.36271 645.419423,1430.50792 646.45736,1430.50792 C649.29464,1430.50792 652.124344,1429.47882 654.315124,1427.44714 C656.570301,1425.35107 657.872142,1422.50495 657.987047,1419.43028 C657.997149,1419.14365 657.987047,1418.85954 657.976946,1418.5767 C658.399949,1418.63983 658.826741,1418.68529 659.259846,1418.70044 C659.406319,1418.70423 659.545216,1418.70675 659.6879,1418.70675 C662.603468,1418.70675 665.367512,1417.61957 667.514097,1415.61567 C670.140507,1413.1673 671.362798,1409.76181 671.149402,1406.4245 C671.458763,1406.46112 671.770649,1406.49269 672.085061,1406.50405 C672.227745,1406.50784 672.369168,1406.51163 672.511852,1406.51163 C675.42742,1406.51163 678.191464,1405.42066 680.339312,1403.41928 C682.460643,1401.43937 683.656417,1398.83316 683.926634,1396.14362 C685.169128,1396.57925 686.468444,1396.81032 687.774072,1396.81032 C690.594938,1396.81032 693.417066,1395.79133 695.639413,1393.72934 C697.902166,1391.63327 699.21032,1388.77957 699.318912,1385.69859 C699.392149,1383.75404 698.975459,1381.86504 698.131977,1380.1705 C700.725557,1376.74228 708.377501,1366.78591 712.791891,1362.64805 C717.955059,1357.81066 725.782519,1354.41779 725.859543,1354.3837 C726.304013,1354.19303 726.658831,1353.88999 726.929048,1353.53012 L732.270257,1359.8878 C732.799327,1360.51662 733.549369,1360.83987 734.310775,1360.83987 C734.911819,1360.83987 735.520439,1360.63531 736.015416,1360.21736 L762.327499,1338.1833 C762.871721,1337.73125 763.211387,1337.0797 763.271996,1336.37638 C763.332606,1335.67179 763.111634,1334.97226 762.657063,1334.4293 L762.657063,1334.4293 Z" transform="translate(-517 -1276)"/>
</svg>
