<svg xmlns="http://www.w3.org/2000/svg" width="218" height="214" viewBox="0 0 218 214">
  <path fill-rule="evenodd" d="M1297.30744,3050.09439 C1297.30744,3056.51804 1294.72622,3062.55561 1290.03993,3067.09665 L1283.28168,3073.64532 C1276.1355,3080.56352 1272.20116,3089.76695 1272.20116,3099.56054 L1272.20116,3141.42641 L1199.74297,3141.42641 L1199.74297,3119.67719 C1203.40338,3118.22479 1210.39696,3113.81795 1224.13409,3100.43014 C1232.03771,3092.72691 1240.23366,3083.88933 1246.83197,3076.0335 L1246.83197,3084.44639 C1246.83197,3086.45401 1248.51234,3088.08107 1250.5843,3088.08107 C1252.65627,3088.08107 1254.33664,3086.45401 1254.33664,3084.44639 L1254.33664,3074.79069 C1254.33664,3070.33605 1256.12732,3066.14616 1259.38143,3062.99316 L1274.65369,3048.19524 C1280.27209,3042.75333 1283.36441,3035.51524 1283.36441,3027.81752 L1283.36441,3007.0813 C1283.36441,3005.27775 1284.09061,3003.58083 1285.40696,3002.30493 C1286.72515,3001.02902 1288.47355,3000.32672 1290.33593,3000.32672 C1294.18019,3000.32672 1297.30744,3003.35654 1297.30744,3007.0813 L1297.30744,3050.09439 Z M1196.33994,3113.11381 C1193.46272,3112.79392 1181.69093,3104.41229 1164.2603,3086.59741 C1146.73774,3068.68694 1138.49951,3056.66879 1138.2458,3053.85408 C1138.2219,3053.59118 1138.16859,3053.33195 1138.08769,3053.08192 C1137.25118,3050.49517 1136.82649,3047.79628 1136.82649,3045.06246 C1136.82649,3033.95069 1143.85317,3024.40346 1153.82692,3020.36248 C1153.93723,3020.37167 1154.04754,3020.37903 1154.16153,3020.37903 C1155.16901,3020.37903 1156.0809,3019.99111 1156.75562,3019.36602 C1159.19896,3018.67843 1161.77835,3018.30154 1164.44782,3018.30154 C1178.76775,3018.30154 1190.86127,3029.121 1191.97907,3042.93167 C1192.13901,3044.88597 1193.86167,3046.36595 1195.86745,3046.27954 C1197.81992,3046.29976 1199.50397,3044.85288 1199.66024,3042.92983 C1200.77803,3029.11916 1212.8734,3018.30154 1227.19332,3018.30154 C1242.42329,3018.30154 1254.81281,3030.30682 1254.81281,3045.06246 C1254.81281,3047.61244 1254.44327,3050.13116 1253.71524,3052.55243 C1253.32548,3053.85592 1252.82725,3055.13918 1252.23342,3056.36728 C1251.23329,3058.10832 1249.77721,3060.26854 1247.90196,3062.79277 C1241.22276,3071.78662 1229.97126,3084.38572 1219.23821,3094.88896 C1205.01022,3108.81177 1198.08834,3112.884 1196.35833,3113.11381 C1196.35281,3113.11381 1196.34546,3113.11381 1196.33994,3113.11381 L1196.33994,3113.11381 Z M1192.06731,3141.42641 L1119.60913,3141.42641 L1119.60913,3099.56054 C1119.60913,3089.76695 1115.67478,3080.56352 1108.53044,3073.64532 L1101.77035,3067.09665 C1097.08406,3062.55561 1094.50284,3056.51804 1094.50284,3050.09439 L1094.50284,3007.0813 C1094.50284,3003.35654 1097.63193,3000.32672 1101.47436,3000.32672 C1103.33674,3000.32672 1105.08697,3001.02902 1106.40332,3002.30493 C1107.72151,3003.58083 1108.44587,3005.27775 1108.44587,3007.0813 L1108.44587,3027.81752 C1108.44587,3035.51524 1111.54004,3042.75333 1117.15659,3048.19524 L1132.42885,3062.99316 C1135.68296,3066.14616 1137.47548,3070.33605 1137.47548,3074.79069 L1137.47548,3084.44639 C1137.47548,3086.45401 1139.15401,3088.08107 1141.22598,3088.08107 C1143.29978,3088.08107 1144.97832,3086.45401 1144.97832,3084.44639 L1144.97832,3076.53541 C1149.15718,3081.42025 1154.03467,3086.72794 1159.18058,3091.97313 C1166.56208,3099.49435 1173.97115,3106.34637 1180.04181,3111.26614 C1185.72823,3115.87337 1189.46586,3118.1917 1192.06731,3119.33339 L1192.06731,3141.42641 Z M1115.95055,3021.04272 C1116.03512,3020.74121 1116.08292,3020.42499 1116.08292,3020.0959 L1116.08292,2959.09328 C1116.08292,2955.25454 1119.09067,2952.13096 1122.7897,2952.13096 C1126.48688,2952.13096 1129.49463,2955.25454 1129.49463,2959.09328 L1129.49463,3011.87606 C1129.49463,3013.88368 1131.17501,3015.51073 1133.24697,3015.51073 C1135.31894,3015.51073 1136.99931,3013.88368 1136.99931,3011.87606 L1136.99931,3008.67894 C1136.99931,3008.67342 1136.99931,3008.66975 1136.99931,3008.66607 L1136.99931,2949.23719 C1136.99931,2945.39477 1140.00707,2942.27119 1143.70425,2942.27119 C1145.46368,2942.27119 1147.12566,2942.97349 1148.38686,2944.25491 C1149.69034,2945.57494 1150.40919,2947.3454 1150.40919,2949.23719 L1150.40919,2959.09145 L1150.40919,3013.87632 C1138.01048,3019.13621 1129.32366,3031.1323 1129.32366,3045.06246 C1129.32366,3046.74467 1129.45051,3048.41585 1129.70238,3050.06865 L1122.46245,3043.05484 C1118.26336,3038.98629 1115.95055,3033.5738 1115.95055,3027.81752 L1115.95055,3021.04272 Z M1157.91203,2959.09145 C1157.91203,2955.2527 1160.92162,2952.12912 1164.6188,2952.12912 C1166.37823,2952.12912 1168.04205,2952.83326 1169.30325,2954.11284 C1170.60857,2955.43471 1171.32558,2957.20333 1171.32558,2959.09145 L1171.32558,2981.3297 L1171.32558,3011.69037 C1169.08079,3011.25833 1166.77902,3011.03035 1164.44782,3011.03035 C1162.21407,3011.03035 1160.03179,3011.24362 1157.91203,3011.63154 L1157.91203,2959.09145 Z M1178.83026,2981.3297 C1178.83026,2977.49096 1181.83801,2974.36738 1185.53519,2974.36738 C1187.29278,2974.36738 1188.9566,2975.07152 1190.21229,2976.34191 C1191.30802,2977.45603 1191.98826,2978.8643 1192.1813,2980.42701 C1192.21991,2980.72668 1192.24013,2981.03003 1192.24013,2981.3297 L1192.24013,3024.26006 C1191.06718,3022.79111 1189.76921,3021.4049 1188.34439,3020.12164 C1185.50394,3017.56615 1182.29028,3015.51257 1178.83026,3014.00685 L1178.83026,2981.3297 Z M1201.59064,2976.34926 C1202.85552,2975.07152 1204.51934,2974.36738 1206.27509,2974.36738 C1209.97227,2974.36738 1212.98003,2977.49096 1212.98003,2981.3297 L1212.98003,3013.93515 C1209.4575,3015.44638 1206.18317,3017.52387 1203.29675,3020.1198 C1202.00798,3021.27988 1200.82583,3022.52453 1199.74297,3023.83537 L1199.74297,2981.3297 C1199.74297,2980.91789 1199.71907,2980.50607 1199.6823,2980.09608 C1199.92498,2978.6731 1200.57764,2977.37881 1201.59064,2976.34926 L1201.59064,2976.34926 Z M1220.4847,2981.3297 L1220.4847,2959.09145 C1220.4847,2957.20149 1221.20355,2955.43287 1222.50703,2954.11284 C1223.77007,2952.83326 1225.43389,2952.12912 1227.19332,2952.12912 C1230.8905,2952.12912 1233.89826,2955.2527 1233.89826,2959.09145 L1233.89826,3011.66095 C1231.72701,3011.25097 1229.4859,3011.03035 1227.19332,3011.03035 C1224.92096,3011.03035 1222.67801,3011.24362 1220.4847,3011.65544 L1220.4847,2981.3297 Z M1241.40293,2959.09145 L1241.40293,2949.23719 C1241.40293,2947.3454 1242.11994,2945.57494 1243.4271,2944.25123 C1244.68462,2942.97349 1246.34661,2942.27119 1248.10787,2942.27119 C1251.80506,2942.27119 1254.81281,2945.39477 1254.81281,2949.23719 L1254.81281,3008.66607 C1254.81281,3008.66975 1254.81281,3008.67342 1254.81281,3008.67894 L1254.81281,3011.87606 C1254.81281,3013.88368 1256.49318,3015.51073 1258.56515,3015.51073 C1260.63712,3015.51073 1262.31565,3013.88368 1262.31565,3011.87606 L1262.31565,2959.09328 C1262.31565,2955.25454 1265.32524,2952.13096 1269.02242,2952.13096 C1272.71961,2952.13096 1275.72736,2955.25454 1275.72736,2959.09328 L1275.72736,3020.0959 C1275.72736,3020.42499 1275.777,3020.74121 1275.86157,3021.04272 L1275.86157,3027.81752 C1275.86157,3033.5738 1273.54692,3038.98629 1269.34784,3043.05484 L1261.90199,3050.26904 C1262.17408,3048.55374 1262.31565,3046.8127 1262.31565,3045.06246 C1262.31565,3031.19665 1253.70788,3019.24836 1241.40293,3013.9517 L1241.40293,2959.09145 Z M1290.33593,2993.05553 C1287.80618,2993.05553 1285.37571,2993.68429 1283.23204,2994.85908 L1283.23204,2959.09328 C1283.23204,2951.24481 1276.85619,2944.85977 1269.02242,2944.85977 C1266.50187,2944.85977 1264.13574,2945.52346 1262.08216,2946.67987 C1260.87612,2940.04663 1255.0702,2935 1248.10787,2935 C1244.27648,2935 1240.68776,2936.50388 1238.00175,2939.2285 C1235.96471,2941.29312 1234.63549,2943.87618 1234.12991,2946.67803 C1232.07632,2945.52162 1229.71204,2944.85977 1227.19332,2944.85977 C1223.3656,2944.85977 1219.77505,2946.35997 1217.08352,2949.08827 C1214.43794,2951.76878 1212.98003,2955.32072 1212.98003,2959.09145 L1212.98003,2968.78575 C1210.98344,2967.71024 1208.70005,2967.09803 1206.27509,2967.09803 C1202.45289,2967.09803 1198.86601,2968.59639 1196.16529,2971.32653 C1196.0752,2971.41846 1195.99431,2971.51957 1195.90606,2971.61517 C1195.81414,2971.51774 1195.7314,2971.41478 1195.63764,2971.31918 C1192.94427,2968.59639 1189.35739,2967.09803 1185.53519,2967.09803 C1183.11208,2967.09803 1180.82868,2967.71024 1178.83026,2968.78575 L1178.83026,2959.09145 C1178.83026,2955.32072 1177.37234,2951.76878 1174.72677,2949.08827 C1172.03523,2946.35997 1168.44468,2944.85977 1164.6188,2944.85977 C1162.10008,2944.85977 1159.73396,2945.52162 1157.68222,2946.67803 C1157.17663,2943.87618 1155.84741,2941.29312 1153.81221,2939.23218 C1151.12436,2936.50388 1147.5338,2935 1143.70425,2935 C1136.74009,2935 1130.93416,2940.04663 1129.72996,2946.67987 C1127.67454,2945.52346 1125.30842,2944.85977 1122.7897,2944.85977 C1114.95409,2944.85977 1108.58008,2951.24481 1108.58008,2959.09328 L1108.58008,2994.85908 C1106.43458,2993.68429 1104.00594,2993.05553 1101.47436,2993.05553 C1093.49351,2993.05553 1087,2999.34681 1087,3007.0813 L1087,3050.09439 C1087,3058.45947 1090.36074,3066.32265 1096.4645,3072.23704 L1103.22459,3078.78755 C1108.95146,3084.3324 1112.10629,3091.71023 1112.10629,3099.56054 L1112.10629,3145.06109 C1112.10629,3147.06871 1113.78666,3148.69576 1115.85863,3148.69576 L1195.81965,3148.69576 L1195.99247,3148.69576 L1275.9535,3148.69576 C1278.02546,3148.69576 1279.70583,3147.06871 1279.70583,3145.06109 L1279.70583,3099.56054 C1279.70583,3091.71023 1282.85883,3084.3324 1288.58569,3078.78755 L1295.34579,3072.23704 C1301.44954,3066.32265 1304.81028,3058.45947 1304.81028,3050.09439 L1304.81028,3007.0813 C1304.81028,2999.34681 1298.31677,2993.05553 1290.33593,2993.05553 L1290.33593,2993.05553 Z" transform="translate(-1087 -2935)"/>
</svg>
