<svg xmlns="http://www.w3.org/2000/svg" width="125" height="127" viewBox="0 0 125 127">
  <path fill-rule="evenodd" d="M120.382185,43.384619 C119.25534,45.5857872 116.540088,47.4113403 113.479461,48.028877 L113.47787,48.028877 C112.74733,48.1721201 112.034298,48.2453332 111.357873,48.2453332 C108.228808,48.2453332 104.961275,46.5996297 101.800378,45.0080402 C98.5965084,43.3941685 95.5708968,41.8710174 92.5102703,41.8710174 C90.4316545,41.8710174 88.6490743,42.5904158 87.0527101,43.5262704 C86.0929816,44.0865099 85.2016915,44.7263289 84.3517827,45.3359077 C83.8886302,45.6685499 83.4302524,45.9948257 82.9718747,46.303594 C81.6269816,47.2139832 80.2804969,47.9652134 78.7844028,48.1816696 C78.4979167,48.2230509 78.2066558,48.2453332 77.9090286,48.2453332 C75.6346473,48.2453332 73.7915867,46.854284 71.6588568,45.2451871 C69.2300913,43.4132676 66.4798247,41.3378349 62.6886586,41.3378349 C58.9977627,41.3378349 56.2856942,43.3273218 53.8919437,45.0844365 C51.5793642,46.7794793 49.583511,48.2453332 46.8539351,48.2453332 C44.2771518,48.2453332 42.5614183,46.8176774 40.5735231,45.164016 C38.2657184,43.2445591 35.6523285,41.0704479 31.4568987,41.0704479 C27.3999372,41.0704479 24.1037554,43.1665712 21.1943299,45.0175898 C18.5841232,46.6776176 16.1187511,48.2453332 13.4034995,48.2453332 C12.9021488,48.2453332 12.4278551,48.2182762 11.9869849,48.1641621 C8.61122362,47.7598984 6.1235693,45.9661771 5.15906609,43.2413759 C4.80732482,42.2529989 4.65612382,41.1532106 4.70546309,39.9563353 C5.72885512,40.1711999 7.01167622,40.3542327 8.40113381,40.3542327 C11.579538,40.3542327 14.2518167,39.4342939 16.3463484,37.619882 C16.6678495,37.3397622 16.971843,37.042135 17.2455964,36.7413246 C18.1830426,35.7147494 18.9565551,34.4780844 19.5549927,33.0520202 L106.170883,33.0520202 C106.240913,33.1554735 106.310942,33.26211 106.384156,33.3703381 C107.008059,34.3030095 107.783163,35.4616867 108.790639,36.5455591 C108.809738,36.5678413 108.828837,36.588532 108.849528,36.6092227 C111.160516,39.0682284 113.882134,40.2635121 117.167174,40.2635121 C118.295611,40.2635121 119.497261,40.1139026 120.754617,39.8194586 C121.095217,41.0402077 120.971073,42.2354914 120.382185,43.384619 M102.557975,114.813562 C97.9296324,120.013285 91.8529439,122.648957 84.4950258,122.648957 L41.1369458,122.648957 C33.7885773,122.648957 27.7182551,120.019651 23.0915045,114.83107 C9.1730547,99.2191687 11.7371053,66.2828165 12.8544011,56.5582049 C13.0262928,55.0637024 13.2172835,53.5962569 13.4257817,52.1797423 C13.6836192,52.1797423 13.9303156,52.1495021 14.1817867,52.1319946 C14.3966513,52.1160787 14.6162906,52.1160787 14.8247889,52.0906133 C15.0683021,52.0603731 15.3006741,52.0046675 15.5362294,51.960103 C15.7479108,51.9203132 15.9643669,51.8932562 16.169682,51.8423254 C16.3909129,51.7882113 16.6025943,51.7149982 16.8174589,51.649743 C17.0307319,51.5860795 17.2487796,51.533557 17.4572778,51.4587523 C17.6641845,51.3871308 17.8631331,51.2964102 18.065265,51.2152391 C18.2753548,51.1324765 18.4886278,51.0560802 18.6939428,50.963768 C18.883342,50.8794137 19.0663748,50.7823268 19.2509991,50.6916062 C19.4642721,50.5881529 19.6807283,50.4910659 19.8908181,50.3812462 C20.0117789,50.3159911 20.1311481,50.2443695 20.2521089,50.1791144 C21.2977832,49.6061422 22.3100341,48.971098 23.3063691,48.3360538 C26.00093,46.6235035 28.5458816,45.004857 31.4568987,45.004857 C34.2294475,45.004857 36.0040698,46.4802605 38.0572202,48.1896276 C40.3061361,50.0597452 42.8542708,52.1797423 46.8539351,52.1797423 C47.3552858,52.1797423 47.839129,52.1463189 48.3070563,52.0858385 C51.576181,51.6624757 54.0256372,49.8655713 56.2188475,48.2564743 C56.4910093,48.055934 56.7599879,47.8585769 57.0241918,47.6675862 C58.3499858,46.7126325 59.5993835,45.8993303 60.9713336,45.5125741 C61.5188404,45.3581899 62.0870378,45.2722441 62.6886586,45.2722441 C65.1619887,45.2722441 67.0734876,46.7142241 69.2889801,48.3853931 C71.6461241,50.1631985 74.3168112,52.1797423 77.9090286,52.1797423 C81.5601348,52.1797423 84.2610621,50.242778 86.6452632,48.5334109 C88.6856808,47.0691486 90.449162,45.8054265 92.5102703,45.8054265 C94.6350422,45.8054265 97.2563901,47.1248542 100.03053,48.5222697 C103.43494,50.2364116 107.294545,52.1797423 111.357873,52.1797423 C111.637992,52.1797423 111.919704,52.1701928 112.20619,52.1526853 C112.405139,53.5103111 112.589763,54.9109098 112.755288,56.3385656 C113.891683,66.0918258 116.517806,99.1300397 102.557975,114.813562 M14.8741281,27.8411563 C14.6449393,27.4448506 14.5287532,27.0151214 14.5287532,26.56311 C14.5287532,25.1577365 15.6683313,24.0165669 17.06893,24.0133837 C17.0705216,24.0133837 17.0721132,24.0149753 17.0737048,24.0149753 L108.563042,24.0149753 C108.564633,24.0149753 108.566225,24.0133837 108.567816,24.0133837 C109.237876,24.0149753 109.87292,24.2807707 110.356763,24.7662055 C110.842198,25.2516403 111.109585,25.8898677 111.109585,26.56311 C111.109585,27.0135298 110.993399,27.4416674 110.759435,27.8395647 C110.30424,28.6274015 109.46229,29.1176111 108.564633,29.1176111 L107.192683,29.1176111 L18.3103698,29.1176111 L18.1957753,29.1176111 C18.1910006,29.1176111 18.1878174,29.1144279 18.1830426,29.1144279 C18.1782679,29.1144279 18.1734931,29.1176111 18.1687183,29.1176111 L17.0737048,29.1176111 C16.3988708,29.1176111 15.7606435,28.8502241 15.2768003,28.3647893 C15.1160497,28.2024471 14.9823562,28.0305555 14.8741281,27.8411563 M27.9569935,4.61668296 L97.6797529,4.61668296 C103.095932,4.61668296 106.595837,8.12136295 106.595837,13.5439082 L106.595837,20.0789745 L19.0409093,20.0789745 L19.0409093,13.5439082 C19.0409093,8.12136295 22.5408146,4.61668296 27.9569935,4.61668296 M123.603562,36.499403 C123.145184,35.6781428 122.167948,35.2977529 121.275067,35.5890138 C119.774198,36.0792234 118.392698,36.3291029 117.167174,36.3291029 C115.016937,36.3291029 113.296429,35.5762811 111.758953,33.9608178 C111.72553,33.9226197 111.693698,33.8891963 111.666641,33.8605477 C111.3149,33.4817494 110.999765,33.0758941 110.698955,32.6700387 C112.132977,32.1639133 113.3776,31.1707615 114.15907,29.819502 C114.738409,28.8327166 115.043994,27.7058712 115.043994,26.56311 C115.043994,24.8394186 114.367568,23.2144058 113.140453,21.9856987 C112.397181,21.2408349 111.497933,20.728343 110.530246,20.4163915 L110.530246,13.5439082 C110.530246,5.97112559 105.246169,0.682273825 97.6797529,0.682273825 L27.9569935,0.682273825 C20.3905772,0.682273825 15.1065002,5.97112559 15.1065002,13.5439082 L15.1065002,20.4163915 C12.4994767,21.2567507 10.5943441,23.6775583 10.5943441,26.56311 C10.5943441,27.6995049 10.8967461,28.8215754 11.4601688,29.7972198 C11.7355137,30.281063 12.0824802,30.734666 12.4931103,31.145296 C13.2841303,31.936316 14.2502251,32.4710901 15.2927162,32.7703089 C15.0046385,33.2573353 14.6910954,33.7045719 14.3377625,34.0913281 C14.1626877,34.2839105 13.9748801,34.4669432 13.7663819,34.6467929 C12.4103477,35.8245691 10.6054852,36.4198235 8.40113381,36.4198235 C5.88642247,36.4198235 3.77756644,35.6303951 3.76165055,35.6240288 C3.22369331,35.4155306 2.62207249,35.4537287 2.11435546,35.7290737 C1.60663842,36.0044187 1.24534761,36.4882619 1.12756999,37.0532761 C0.54823143,39.8003595 0.658051103,42.3246204 1.45066265,44.5560288 C2.70324356,48.0973154 5.66200836,50.6565912 9.53116233,51.6799832 C9.32107252,53.1219633 9.12053225,54.5925919 8.947049,56.1093767 C7.78200552,66.2446184 5.14792496,100.616584 20.155022,117.450826 C25.5600598,123.511599 32.618759,126.583366 41.1369458,126.583366 L84.4950258,126.583366 C93.0243537,126.583366 100.089419,123.503641 105.496049,117.430135 C120.546119,100.522681 117.848374,66.0456697 116.66264,55.883371 C116.484382,54.3474872 116.279067,52.8561678 116.062611,51.3966803 C119.540234,50.2539191 122.451251,47.9779462 123.883682,45.1783403 C125.292238,42.4312569 125.19356,39.3483481 123.603562,36.499403"/>
</svg>
