<svg xmlns="http://www.w3.org/2000/svg" width="516" height="800" viewBox="0 0 516 800">
  <path fill-rule="evenodd" d="M273.078753,661.05163 C245.645967,661.05163 223.47133,652.058054 206.554842,634.070902 C189.626457,616.08375 181.168213,591.577445 181.168213,560.587675 C181.168213,528.515346 189.531287,503.85439 206.281228,486.569117 C223.019272,469.295741 244.932191,460.647157 272.019986,460.647157 C299.083988,460.647157 320.913633,469.295741 337.48513,486.569117 C354.04473,503.85439 362.32453,528.515346 362.32453,560.587675 C362.32453,591.946229 354.128004,616.523911 337.746847,634.33262 C321.353795,652.153224 299.80966,661.05163 273.078753,661.05163 Z M271.484654,138.936474 C296.407328,138.936474 315.203426,146.954556 327.861052,162.990721 C340.494885,179.026886 346.835594,200.927909 346.835594,228.717583 C346.835594,256.507257 340.685225,278.955508 328.396384,296.05044 C316.107542,313.157269 297.668332,321.710683 273.078753,321.710683 C248.144183,321.710683 229.264811,313.157269 216.440638,296.05044 C203.616464,278.955508 197.204378,256.507257 197.204378,228.717583 C197.204378,200.582917 203.521294,178.574828 216.167024,162.717107 C228.812753,146.871282 247.251963,138.936474 271.484654,138.936474 Z M422.186533,388.508208 C454.960742,371.056388 480.704259,347.894361 499.405187,319.034023 C518.106115,290.173685 527.456579,256.876041 527.456579,219.105401 C527.456579,151.415655 504.484892,97.977635 458.517725,58.7794433 C412.562455,19.5931478 350.214133,0 271.484654,0 C193.457054,0 131.46562,19.5931478 85.5103498,58.7794433 C39.5550797,97.977635 16.5714966,151.415655 16.5714966,219.105401 C16.5714966,256.876041 26.0052344,290.173685 44.8965025,319.034023 C63.7758744,347.894361 89.7811087,371.056388 122.912206,388.508208 C83.7140138,407.042589 53.4499167,432.334047 32.0723293,464.39448 C10.6947419,496.454913 0,533.333333 0,575.017844 C0,644.135142 24.3992386,698.91744 73.2215084,739.340947 C122.019986,779.788246 188.650964,800 273.078753,800 C357.161551,800 423.162027,779.87152 471.080181,739.614561 C518.986438,699.357602 542.957411,644.49203 542.957411,575.017844 C542.957411,531.917678 532.084226,494.5872 510.361646,463.062099 C488.627171,431.525101 459.231501,406.673804 422.186533,388.508208 Z"/>
</svg>
