<svg xmlns="http://www.w3.org/2000/svg" width="89" height="125" viewBox="0 0 89 125">
  <path fill-rule="evenodd" d="M84.6426323,110.314605 C84.6426323,116.01141 80.0144223,120.645304 74.3261433,120.645304 L14.2659882,120.645304 C8.57628822,120.645304 3.94807819,116.01141 3.94807819,110.314605 L3.94807819,105.383721 L84.6426323,105.383721 L84.6426323,110.314605 Z M3.94807819,44.2933378 C3.94807819,40.0487989 6.62240772,36.170879 10.6040609,34.6432997 C11.7721262,34.1928414 13.0027157,33.9640598 14.2645672,33.9640598 L74.3275643,33.9640598 C80.0158433,33.9640598 84.6426323,38.5979538 84.6426323,44.2933378 L84.6426323,51.6782956 L3.94807819,51.6782956 L3.94807819,44.2933378 Z M14.8542839,30.0790348 L73.7335846,30.0790348 L73.7335846,25.1254149 L14.8542839,25.1254149 L14.8542839,30.0790348 Z M8.31766549,21.244653 L12.8734043,21.244653 L12.8734043,4.18123693 L8.31766549,4.18123693 L8.31766549,21.244653 Z M75.7173062,21.244653 L80.274466,21.244653 L80.274466,4.18123693 L75.7173062,4.18123693 L75.7173062,21.244653 Z M67.2935945,21.244653 L71.8351233,21.244653 L71.8351233,4.18123693 L67.2935945,4.18123693 L67.2935945,21.244653 Z M58.8713038,21.244653 L63.4128326,21.244653 L63.4128326,4.18123693 L58.8713038,4.18123693 L58.8713038,21.244653 Z M50.4475921,21.244653 L54.9876998,21.244653 L54.9876998,4.18123693 L50.4475921,4.18123693 L50.4475921,21.244653 Z M42.0253014,21.244653 L46.5668301,21.244653 L46.5668301,4.18123693 L42.0253014,4.18123693 L42.0253014,21.244653 Z M33.6015897,21.244653 L38.1431184,21.244653 L38.1431184,4.18123693 L33.6015897,4.18123693 L33.6015897,21.244653 Z M25.179299,21.244653 L29.7208277,21.244653 L29.7208277,4.18123693 L25.179299,4.18123693 L25.179299,21.244653 Z M16.7555872,21.244653 L21.297116,21.244653 L21.297116,4.18123693 L16.7555872,4.18123693 L16.7555872,21.244653 Z M3.92107912,101.501538 L84.6426323,101.501538 L84.6426323,55.5604785 L3.92107912,55.5604785 L3.92107912,101.501538 Z M88.5248152,53.0779846 C88.5248152,53.0751425 88.5248152,53.0737215 88.5248152,53.0708795 L88.5248152,44.2933378 C88.5248152,37.591883 83.8610801,31.9732332 77.6157675,30.4826 L77.6157675,25.1268359 L82.2155575,25.1268359 C83.2869945,25.1268359 84.1552279,24.2571814 84.1552279,23.1857444 L84.1552279,2.24014547 C84.1552279,1.16728745 83.2869945,0.299054004 82.2155575,0.299054004 L6.37657403,0.299054004 C5.30513701,0.299054004 4.43548257,1.16728745 4.43548257,2.24014547 L4.43548257,23.1857444 C4.43548257,24.2571814 5.30513701,25.1268359 6.37657403,25.1268359 L10.97068,25.1268359 L10.97068,30.485442 C10.3752793,30.6289634 9.78556262,30.7980628 9.21147701,31.0197395 C3.74061161,33.1185624 0.0658952676,38.4530114 0.0658952676,44.2933378 L0.0658952676,52.8534659 C0.0531062316,52.9458312 0.0374751876,53.0381964 0.0374751876,53.1348247 L0.0374751876,105.383721 C0.0374751876,105.480349 0.0531062316,105.572714 0.0658952676,105.66508 L0.0658952676,110.314605 C0.0658952676,118.151442 6.4362562,124.527487 14.2659882,124.527487 L74.3261433,124.527487 C82.1544543,124.527487 88.5248152,118.151442 88.5248152,110.314605 L88.5248152,104.418859 C88.5248152,104.416017 88.5248152,104.414596 88.5248152,104.411754 L88.5248152,53.0779846 Z M60.2908868,79.2528782 C59.4354424,79.6607064 58.3284803,79.8496999 57.157573,80.0514825 C56.0292958,80.244739 54.8626515,80.4451006 53.7713204,80.8685598 C53.4928036,80.9765561 53.2142869,81.0802894 52.9286651,81.1854437 C51.1580941,81.8433685 48.9555379,82.6618668 45.6957547,84.9425782 C43.8470285,86.2371129 42.7699075,87.4407033 41.903095,88.408407 C41.0135465,89.4031098 40.3698317,90.1207168 39.1264532,90.7132755 C37.0787864,91.6866632 34.8847563,92.2010667 32.7830914,92.2010667 C29.0685869,92.2010667 26.1157406,90.6507513 24.8851511,88.055998 C22.8758515,83.8185641 25.9921132,78.110391 31.8281767,75.3309072 C33.9213156,74.3362044 35.7330957,74.195525 38.2397467,74.0008474 C38.6731529,73.9667433 39.1207692,73.9326393 39.5797535,73.8914301 C42.5652829,73.6356494 45.8961163,71.6732429 48.1015145,70.3730242 C48.6258649,70.0646664 49.0791652,69.7975176 49.4287322,69.6113661 C50.5385363,69.0188074 51.3627186,68.2798853 52.0888517,67.6262235 C52.7652496,67.0180338 53.3507032,66.4936833 54.0796783,66.1469583 C55.8488283,65.305724 57.7444476,64.8623707 59.5590697,64.8623707 C62.7321716,64.8623707 65.2459277,66.1711154 66.2861026,68.3665666 C67.9998335,71.9816008 65.3112939,76.8641705 60.2908868,79.2528782 L60.2908868,79.2528782 Z M69.7945615,66.7039919 C68.0950407,63.1202198 64.269698,60.9801878 59.5590697,60.9801878 C57.171783,60.9801878 54.700657,61.5542734 52.4142616,62.6399205 C51.1751461,63.2282161 50.2827556,64.0310834 49.4940984,64.7387434 C48.8503836,65.317092 48.294771,65.8158644 47.6041631,66.1853254 C47.1821249,66.4098441 46.6947205,66.6968869 46.1305819,67.0294018 C44.2278576,68.149153 41.3545875,69.8429897 39.2458175,70.0248783 C38.7953593,70.0632454 38.3605321,70.0973495 37.9384939,70.1300325 C35.2371653,70.3403411 32.9038767,70.5222297 30.161339,71.8252903 C22.3927101,75.5227427 18.452266,83.5514153 21.3781133,89.7199937 C23.2680486,93.7044889 27.5310606,96.0832496 32.7830914,96.0832496 C35.4574209,96.0832496 38.2283787,95.4381138 40.7932909,94.2188923 C42.7429084,93.2909767 43.7859253,92.1257535 44.7948382,90.9974763 C45.6048104,90.0937177 46.4417818,89.1586971 47.921047,88.1227852 C50.773002,86.1276956 52.554941,85.4655077 54.2800399,84.8260559 C54.5827137,84.7123756 54.8797035,84.6029583 55.1752724,84.487857 C55.9042474,84.2050772 56.832163,84.0459247 57.8140768,83.8768252 C59.1938717,83.6409386 60.6205597,83.3951049 61.9591455,82.7570741 C68.910697,79.4518188 72.4248399,72.2501705 69.7945615,66.7039919 L69.7945615,66.7039919 Z"/>
</svg>
