<svg xmlns="http://www.w3.org/2000/svg" width="244" height="426" viewBox="0 0 244 426">
  <path fill-rule="evenodd" d="M282.359102,5659.78802 L317.358014,5659.78802 L317.358014,5648.47128 L282.359102,5648.47128 L282.359102,5659.78802 Z M255.742123,5659.78802 L268.318796,5659.78802 L268.318796,5648.47128 L255.742123,5648.47128 L255.742123,5659.78802 Z M399.110163,5658.0641 C399.110163,5646.62288 389.804028,5637.31674 378.362801,5637.31674 L199.064104,5637.31674 C187.626649,5637.31674 178.316743,5646.62288 178.316743,5658.0641 L178.316743,6018.93994 C178.316743,6030.38116 187.626649,6039.69107 199.064104,6039.69107 L378.362801,6039.69107 C389.804028,6039.69107 399.110163,6030.38116 399.110163,6018.93994 L399.110163,5658.0641 Z M410.426905,5658.0641 L410.426905,6018.93994 C410.426905,6036.62046 396.043326,6051.00781 378.362801,6051.00781 L199.064104,6051.00781 C181.387352,6051.00781 167,6036.62046 167,6018.93994 L167,5658.0641 C167,5640.38358 181.387352,5626 199.064104,5626 L378.362801,5626 C396.043326,5626 410.426905,5640.38358 410.426905,5658.0641 L410.426905,5658.0641 Z M302.887673,6004.38661 C302.887673,5997.27969 297.101045,5991.49684 289.997903,5991.49684 C282.890989,5991.49684 277.108133,5997.27969 277.108133,6004.38661 C277.108133,6011.49352 282.890989,6017.27638 289.997903,6017.27638 C297.101045,6017.27638 302.887673,6011.49352 302.887673,6004.38661 L302.887673,6004.38661 Z M314.204415,6004.38661 C314.204415,6017.73659 303.344115,6028.59312 289.997903,6028.59312 C276.647919,6028.59312 265.791391,6017.73659 265.791391,6004.38661 C265.791391,5991.03662 276.647919,5980.18009 289.997903,5980.18009 C303.344115,5980.18009 314.204415,5991.03662 314.204415,6004.38661 L314.204415,6004.38661 Z M204.869593,5958.6896 L372.436601,5958.6896 L372.436601,5683.83987 L204.869593,5683.83987 L204.869593,5958.6896 Z M193.55285,5970.00634 L383.753343,5970.00634 L383.753343,5672.52313 L193.55285,5672.52313 L193.55285,5970.00634 Z M233.719742,5807.99585 L233.719742,5807.99585 C235.926507,5810.20639 239.510142,5810.20639 241.720679,5807.99585 L319.466701,5730.24983 C321.677238,5728.0393 321.677238,5724.45566 319.466701,5722.2489 L319.466701,5722.2489 C317.256164,5720.03836 313.676301,5720.03836 311.465764,5722.2489 L233.719742,5799.99492 C231.509205,5802.20545 231.509205,5805.78532 233.719742,5807.99585 L233.719742,5807.99585 Z M278.888634,5732.35097 L248.567308,5762.6723 C246.356771,5764.88284 242.776908,5764.88284 240.566371,5762.6723 L240.566371,5762.6723 C238.355834,5760.46554 238.355834,5756.8819 240.566371,5754.67136 L270.887697,5724.35004 C273.098234,5722.1395 276.678097,5722.1395 278.888634,5724.35004 L278.888634,5724.35004 C281.099171,5726.56057 281.099171,5730.14421 278.888634,5732.35097 L278.888634,5732.35097 Z" transform="translate(-167 -5626)"/>
</svg>
