<svg xmlns="http://www.w3.org/2000/svg" width="65" height="65" viewBox="0 0 65 65">
  <g fill-rule="evenodd">
    <path d="M40.8496094,24.8867188 C40.8496094,26.3580803 40.4199262,27.6764265 39.5605469,28.8417969 C38.7011676,30.0071673 37.5683664,30.8632785 36.1621094,31.4101562 C37.8027426,31.9700549 39.1178336,32.8749938 40.1074219,34.125 C41.0970102,35.3750062 41.5917969,36.8203043 41.5917969,38.4609375 C41.5917969,40.8958455 40.7649822,42.8261647 39.1113281,44.2519531 C37.457674,45.6777415 35.2701959,46.390625 32.5488281,46.390625 C29.8014186,46.390625 27.6041749,45.6809967 25.9570312,44.2617188 C24.3098876,42.8424408 23.4863281,40.9088664 23.4863281,38.4609375 C23.4863281,36.8463461 23.9615838,35.4075584 24.9121094,34.1445312 C25.862635,32.8815041 27.1647053,31.9700549 28.8183594,31.4101562 C27.4121023,30.8632785 26.2923219,30.0071673 25.4589844,28.8417969 C24.6256469,27.6764265 24.2089844,26.3580803 24.2089844,24.8867188 C24.2089844,22.5299361 24.9674403,20.6549549 26.484375,19.2617188 C28.0013097,17.8684826 30.0097531,17.171875 32.5097656,17.171875 C35.0097781,17.171875 37.0247319,17.874993 38.5546875,19.28125 C40.0846431,20.687507 40.8496094,22.5559779 40.8496094,24.8867188 Z M39.2480469,38.4804688 C39.2480469,36.7096266 38.6165428,35.254563 37.3535156,34.1152344 C36.0904885,32.9759058 34.4759213,32.40625 32.5097656,32.40625 C30.54361,32.40625 28.9355531,32.9661402 27.6855469,34.0859375 C26.4355406,35.2057348 25.8105469,36.6705639 25.8105469,38.4804688 C25.8105469,40.2903736 26.4160096,41.7324165 27.6269531,42.8066406 C28.8378967,43.8808647 30.4785053,44.4179688 32.5488281,44.4179688 C34.5670674,44.4179688 36.1881449,43.8841199 37.4121094,42.8164062 C38.6360738,41.7486926 39.2480469,40.3033945 39.2480469,38.4804688 Z M38.5058594,24.8671875 C38.5058594,23.2395752 37.942714,21.8821669 36.8164062,20.7949219 C35.6900985,19.7076769 34.254566,19.1640625 32.5097656,19.1640625 C30.7389234,19.1640625 29.3033909,19.6881458 28.203125,20.7363281 C27.1028591,21.7845104 26.5527344,23.1614498 26.5527344,24.8671875 C26.5527344,26.5338625 27.1028591,27.8749949 28.203125,28.890625 C29.3033909,29.9062551 30.7454338,30.4140625 32.5292969,30.4140625 C34.2871182,30.4140625 35.7226507,29.9029999 36.8359375,28.8808594 C37.9492243,27.8587188 38.5058594,26.5208416 38.5058594,24.8671875 Z"/>
    <path d="M46.091,3.085 C45.137,2.634 44.151,2.226 43.158,1.871 L42.486,3.755 C43.416,4.087 44.341,4.47 45.237,4.894 L46.091,3.085 Z M51.528,6.346 C50.681,5.718 49.794,5.125 48.891,4.583 L47.862,6.297 C48.709,6.806 49.542,7.363 50.337,7.953 L51.528,6.346 Z M40.119,0.954 C39.099,0.699 38.051,0.493 37.005,0.34 L36.716,2.319 C37.697,2.462 38.679,2.656 39.635,2.894 L40.119,0.954 Z M64.594,32.296 C64.594,31.778 64.582,31.262 64.558,30.75 L62.56,30.843 C62.583,31.325 62.594,31.809 62.594,32.296 L62.594,32.296 C62.594,49.002 49.003,62.593 32.297,62.593 C15.591,62.593 2,49.002 2,32.296 C2,15.591 15.591,2 32.297,2 C32.784,2 33.269,2.011 33.75,2.034 L33.844,0.036 C33.331,0.012 32.816,0 32.297,0 C14.488,0 0,14.488 0,32.296 C0,50.105 14.488,64.593 32.297,64.593 C50.106,64.593 64.594,50.105 64.594,32.296 Z M54.742,11.946 L56.224,10.603 C55.517,9.823 54.762,9.068 53.98,8.36 L52.637,9.842 C53.371,10.507 54.079,11.215 54.742,11.946 L54.742,11.946 Z M62.272,27.857 L64.25,27.567 C64.097,26.524 63.89,25.477 63.635,24.454 L61.695,24.938 C61.934,25.897 62.128,26.879 62.272,27.857 L62.272,27.857 Z M60.003,15.689 C59.459,14.785 58.865,13.898 58.238,13.053 L56.633,14.247 C57.221,15.039 57.779,15.871 58.288,16.719 L60.003,15.689 Z M60.833,22.09 L62.716,21.416 C62.36,20.422 61.951,19.436 61.501,18.486 L59.693,19.342 C60.115,20.233 60.499,21.158 60.833,22.09 L60.833,22.09 Z"/>
  </g>
</svg>
