<svg xmlns="http://www.w3.org/2000/svg" width="357" height="356" viewBox="0 0 357 356">
  <path fill-rule="evenodd" d="M197.415552,7646.29308 L204.556344,7653.43387 L176.276311,7681.7163 L169.135519,7674.57311 L197.415552,7646.29308 Z M169.193106,7710.04912 L215.562666,7663.68436 L222.703458,7670.82515 L176.333898,7717.19231 L169.193106,7710.04912 Z M267.323811,7716.20134 L274.464603,7723.34453 L246.184571,7751.62456 L239.043779,7744.48377 L267.323811,7716.20134 Z M257.078118,7705.19981 L210.708559,7751.56457 L203.567766,7744.42378 L249.937326,7698.05662 L257.078118,7705.19981 Z M241.380852,7686.52002 L174.140792,7753.75768 L167,7746.61689 L234.24006,7679.37683 L241.380852,7686.52002 Z M345.476614,7521.51877 L399.19092,7575.23068 L392.047728,7582.37147 L338.333423,7528.65956 L345.476614,7521.51877 Z M438.153347,7504.24266 C438.153347,7510.04935 435.900255,7515.49853 431.809176,7519.59201 C427.718097,7523.68308 422.266524,7525.93378 416.462231,7525.93378 C410.655539,7525.93378 405.203966,7523.68308 401.112887,7519.59201 C392.654792,7511.12911 392.654792,7497.35861 401.112887,7488.89812 C405.206366,7484.80704 410.655539,7482.55155 416.462231,7482.55155 C422.266524,7482.55155 427.718097,7484.80704 431.809176,7488.89812 C435.900255,7492.9868 438.153347,7498.44077 438.153347,7504.24266 L438.153347,7504.24266 Z M393.972095,7481.75493 C381.571687,7494.15533 381.571687,7514.32999 393.972095,7526.7328 C399.973144,7532.73145 407.958546,7536.0355 416.462231,7536.0355 C424.965917,7536.0355 432.953718,7532.73145 438.949968,7526.7328 C444.951017,7520.73175 448.255073,7512.74635 448.255073,7504.24266 C448.255073,7495.73898 444.951017,7487.75357 438.949968,7481.75493 C432.953718,7475.75388 424.965917,7472.44982 416.462231,7472.44982 C407.958546,7472.44982 399.973144,7475.75388 393.972095,7481.75493 L393.972095,7481.75493 Z M443.758485,7531.53652 C436.468927,7538.83087 426.775109,7542.84517 416.462231,7542.84517 C406.154152,7542.84517 396.460335,7538.82847 389.168377,7531.53652 C374.118965,7516.4871 374.118965,7492.00062 389.168377,7476.94881 C396.460335,7469.65925 406.154152,7465.64495 416.462231,7465.64495 C426.775109,7465.64495 436.468927,7469.65925 443.758485,7476.94881 C458.807897,7492.00062 458.807897,7516.4871 443.758485,7531.53652 L443.758485,7531.53652 Z M382.027585,7469.80562 C363.03826,7488.79494 363.04066,7519.69518 382.027585,7538.67971 C391.227113,7547.87924 403.45476,7552.9469 416.462231,7552.9469 C429.474501,7552.9469 441.702148,7547.87924 450.899277,7538.67971 C469.883803,7519.69518 469.888602,7488.79494 450.899277,7469.80562 C441.702148,7460.61089 429.474501,7455.54323 416.462231,7455.54323 C403.45476,7455.54323 391.227113,7460.61089 382.027585,7469.80562 L382.027585,7469.80562 Z M498.876475,7470.05276 L449.694749,7420.86863 C469.934191,7414.04937 491.030242,7409.51199 512.62058,7408.33146 C510.681817,7429.51869 505.78212,7450.19963 498.876475,7470.05276 L498.876475,7470.05276 Z M393.753744,7632.32342 L288.295089,7526.86717 C321.24447,7494.54645 375.510652,7448.87993 439.187514,7424.64538 L495.03494,7480.49521 C470.154942,7544.59678 425.409817,7599.1101 393.753744,7632.32342 L393.753744,7632.32342 Z M450.630538,7649.79149 L383.551241,7716.86599 C381.974796,7718.44483 380.688686,7719.00391 380.062427,7719.00391 C379.455364,7719.00391 378.586759,7717.65781 378.142859,7715.39272 L374.634849,7665.38798 C380.09362,7660.3875 387.848674,7653.01636 396.928229,7643.70406 C397.129784,7643.55529 397.331339,7643.40653 397.513698,7643.22417 C397.744046,7642.99382 397.943201,7642.74428 398.120761,7642.48274 C414.842596,7625.22822 435.900255,7601.47117 455.868559,7573.16474 L458.39279,7626.62711 C458.399989,7626.76148 458.409586,7626.89345 458.426383,7627.02062 C459.335778,7634.22859 455.765382,7644.65425 450.630538,7649.79149 L450.630538,7649.79149 Z M361.166682,7663.87392 L257.229284,7559.93652 C261.28917,7555.1664 269.509719,7545.8133 281.144699,7534.00076 L386.723327,7639.57699 C375.090746,7651.37753 365.888818,7659.72285 361.166682,7663.87392 L361.166682,7663.87392 Z M304.222703,7711.36883 L214.480509,7621.62663 L273.396844,7590.38807 L335.45647,7652.45249 L304.222703,7711.36883 Z M205.760873,7543.01313 C203.128665,7542.49965 202.272058,7541.56386 202.178479,7541.26633 C202.080101,7540.96159 202.26486,7539.63229 204.290004,7537.60475 L271.364501,7470.52785 C276.391369,7465.50578 286.716245,7461.78422 294.135374,7462.72961 C294.262546,7462.74641 294.394516,7462.756 294.528886,7462.7632 L344.689592,7465.13387 C301.97201,7496.14449 270.181568,7529.73452 255.42729,7546.49715 L205.760873,7543.01313 Z M521.740927,7399.55183 C520.759548,7398.52966 519.401453,7397.9298 517.964177,7398.00658 C458.474372,7399.62622 403.183621,7425.34363 358.217746,7455.6608 L295.191137,7452.68307 C284.895055,7451.49294 271.388496,7456.21987 264.223709,7463.38466 L197.149212,7530.46156 C192.818187,7534.79258 191.138565,7539.83625 192.542249,7544.29924 C193.945933,7548.75984 198.212172,7551.93432 204.242015,7553.00208 C204.414776,7553.03568 204.592336,7553.05487 204.769896,7553.06927 L247.290722,7556.0518 C246.894811,7556.53649 246.609275,7556.88921 246.448511,7557.09316 C244.843273,7559.10151 245.004037,7562.00006 246.822827,7563.81645 L265.922527,7582.91855 L203.711734,7615.90152 C202.296053,7616.65015 201.317073,7618.02744 201.081926,7619.61349 C200.84438,7621.19713 201.372261,7622.80237 202.504806,7623.93251 L301.914423,7723.34453 C302.869408,7724.29711 304.157918,7724.8226 305.484819,7724.8226 C305.736762,7724.8226 305.986306,7724.8034 306.23585,7724.76741 C307.819493,7724.52986 309.199183,7723.55328 309.947814,7722.1376 L342.928388,7659.92441 L357.339543,7674.33316 C358.318523,7675.31694 359.614231,7675.81363 360.909939,7675.81363 C362.047283,7675.81363 363.189426,7675.43212 364.125215,7674.65709 C364.190001,7674.6043 364.535523,7674.31397 365.101796,7673.82928 L368.089123,7716.3861 C368.10112,7716.56366 368.120316,7716.74122 368.153908,7716.91398 C369.749549,7725.90235 375.352288,7729.10323 380.062427,7729.10323 C382.591458,7729.10323 386.485781,7728.22023 390.694433,7724.00678 L457.77133,7656.93228 C464.998503,7649.70511 469.67505,7636.14816 468.47532,7625.96485 L465.303234,7558.85437 C480.501412,7535.66119 494.576643,7509.88139 505.093475,7482.37399 C505.678943,7481.58696 506.00287,7480.67757 506.070055,7479.74418 C515.135214,7455.41606 521.390606,7429.77543 523.142211,7403.39097 C523.233391,7401.97049 522.727105,7400.5788 521.740927,7399.55183 L521.740927,7399.55183 Z" transform="translate(-167 -7398)"/>
</svg>
