<svg xmlns="http://www.w3.org/2000/svg" width="413" height="409" viewBox="0 0 413 409">
  <path fill-rule="evenodd" d="M291.084806,4816.82243 L212.807199,4816.82243 C206.853466,4816.82243 201.677803,4821.26301 200.77937,4827.15226 C200.74498,4827.38869 200.689097,4827.62082 200.616018,4827.84436 L200.616018,4841.20049 L291.084806,4841.20049 L291.084806,4816.82243 Z M299.856351,4812.43558 L299.856351,4845.58734 C299.856351,4848.00967 297.896133,4849.97419 295.471653,4849.97419 L196.229171,4849.97419 C193.804691,4849.97419 191.844473,4848.00967 191.844473,4845.58734 L191.844473,4826.48811 C191.844473,4825.72723 192.035766,4825.0115 192.379664,4824.38818 C194.507532,4814.83642 202.877147,4808.05088 212.807199,4808.05088 L295.471653,4808.05088 C297.896133,4808.05088 299.856351,4810.01325 299.856351,4812.43558 L299.856351,4812.43558 Z M391.395521,4650.36081 C391.395521,4645.16795 389.708272,4640.37057 386.877562,4636.45229 L375.778258,4647.55159 C375.773959,4647.55589 375.77181,4647.56234 375.767511,4647.56664 L353.646279,4669.68357 C357.566715,4672.51213 362.361941,4674.19938 367.5548,4674.19938 C380.700296,4674.19938 391.395521,4663.5063 391.395521,4650.36081 L391.395521,4650.36081 Z M348.62537,4662.30051 L380.534795,4630.39109 C376.797055,4627.95156 372.343578,4626.52009 367.5548,4626.52009 C354.409303,4626.52009 343.714079,4637.21531 343.714079,4650.36081 C343.714079,4655.14743 345.145553,4659.60091 347.585079,4663.3408 L348.62537,4662.30051 Z M390.224118,4626.96285 C396.345501,4632.89509 400.169215,4641.18303 400.169215,4650.36081 C400.169215,4668.34237 385.53636,4682.97092 367.5548,4682.97092 C349.573239,4682.97092 334.942533,4668.34237 334.942533,4650.36081 C334.942533,4632.3771 349.573239,4617.74639 367.5548,4617.74639 C376.304851,4617.74639 384.242444,4621.22836 390.105903,4626.85753 C390.135995,4626.88333 390.168235,4626.90267 390.196177,4626.93061 C390.206923,4626.94136 390.213372,4626.95211 390.224118,4626.96285 L390.224118,4626.96285 Z M291.74466,4650.36081 C291.74466,4645.59997 290.326081,4641.17014 287.912348,4637.44314 L254.990573,4670.36922 C258.717566,4672.78295 263.147401,4674.19938 267.908237,4674.19938 C281.053734,4674.19938 291.74466,4663.5063 291.74466,4650.36081 L291.74466,4650.36081 Z M248.628462,4664.32736 L281.872641,4631.08103 C277.941458,4628.22453 273.126888,4626.52009 267.908237,4626.52009 C254.762741,4626.52009 244.065367,4637.21531 244.065367,4650.36081 C244.065367,4655.57946 245.77196,4660.39618 248.628462,4664.32736 L248.628462,4664.32736 Z M300.516205,4650.36081 C300.516205,4668.34237 285.889798,4682.97092 267.908237,4682.97092 C259.370972,4682.97092 251.616075,4679.64801 245.795603,4674.26171 C245.625804,4674.1349 245.453855,4674.01023 245.299101,4673.85763 C245.245367,4673.80175 245.206678,4673.73726 245.155094,4673.67923 C239.080997,4667.75344 235.293822,4659.49559 235.293822,4650.36081 C235.293822,4632.3771 249.926677,4617.74639 267.908237,4617.74639 C285.889798,4617.74639 300.516205,4632.3771 300.516205,4650.36081 L300.516205,4650.36081 Z M571.080017,4803.15464 C571.080017,4790.00914 560.386942,4779.31607 547.241445,4779.31607 C534.095949,4779.31607 523.400724,4790.00914 523.400724,4803.15464 C523.400724,4816.30013 534.095949,4826.99321 547.241445,4826.99321 C560.386942,4826.99321 571.080017,4816.30013 571.080017,4803.15464 L571.080017,4803.15464 Z M290.822584,4783.07315 C293.388921,4783.07315 295.469504,4785.15373 295.469504,4787.72007 L402.090745,4787.72007 C414.116424,4785.37727 422.801995,4774.83465 422.801995,4762.51021 L422.801995,4729.5132 C422.801995,4715.30807 411.285715,4703.79179 397.080582,4703.79179 L269.122627,4703.79179 C257.150682,4703.79179 246.685439,4712.1786 244.065367,4723.783 L244.065367,4783.07315 L290.822584,4783.07315 Z M230.608213,4783.07315 L235.293822,4783.07315 L235.293822,4727.63466 L230.608213,4727.63466 L230.608213,4783.07315 Z M530.433436,4831.04905 C520.982692,4825.33175 514.629179,4814.98258 514.629179,4803.15464 C514.629179,4801.2503 514.82692,4799.3954 515.140727,4797.57919 L473.999793,4742.02894 C449.823771,4732.87051 432.58589,4709.4876 432.58589,4682.14342 C432.58589,4646.8423 461.305662,4618.12468 496.60893,4618.12468 C508.989254,4618.12468 520.550671,4621.66683 530.358208,4627.77746 C529.569393,4614.29666 518.386263,4603.56275 504.712024,4603.56275 L226.221365,4603.56275 C212.039876,4603.56275 200.499953,4615.10268 200.499953,4629.28416 L200.499953,4693.14385 C200.499953,4694.26367 200.57733,4695.38564 200.727785,4696.48181 C200.757876,4696.6817 200.770772,4696.88374 200.770772,4697.08578 L200.555836,4758.28026 L221.746394,4721.07696 C222.524463,4719.70781 223.98173,4718.86312 225.557213,4718.86312 L236.312619,4718.86312 C240.849922,4704.85358 254.113633,4695.0181 269.122627,4695.0181 L397.080582,4695.0181 C416.098136,4695.0181 431.573541,4710.49135 431.573541,4729.51105 L431.573541,4762.51021 C431.573541,4779.21075 419.670375,4793.47391 403.275043,4796.42284 C403.01712,4796.46797 402.761346,4796.49162 402.499124,4796.49162 L201.501555,4796.49162 C187.320066,4796.49162 175.780143,4808.02939 175.780143,4822.21088 L175.780143,4855.97305 L530.433436,4855.97305 L530.433436,4831.04905 Z M175.780143,4877.29687 L530.433436,4877.29687 L530.433436,4864.7446 L175.780143,4864.7446 L175.780143,4877.29687 Z M175.780143,4916.93755 L530.433436,4916.93755 L530.433436,4886.06842 L175.780143,4886.06842 L175.780143,4916.93755 Z M265.644959,4569.83067 L265.644959,4566.1746 L247.813854,4575.13314 L247.813854,4578.78921 L265.644959,4569.83067 Z M247.813854,4565.31486 L265.644959,4556.35632 L265.644959,4552.69596 L247.813854,4561.6545 L247.813854,4565.31486 Z M247.813854,4551.83621 L265.644959,4542.87767 L265.644959,4539.22161 L247.813854,4548.18015 L247.813854,4551.83621 Z M247.813854,4538.36186 L251.530101,4536.49407 L247.813854,4536.49407 L247.813854,4538.36186 Z M265.644959,4579.64895 L264.948566,4579.9993 L265.644959,4579.9993 L265.644959,4579.64895 Z M340.659835,4569.83067 L340.659835,4566.1746 L322.82873,4575.13314 L322.82873,4578.78921 L340.659835,4569.83067 Z M322.82873,4565.31486 L340.659835,4556.35632 L340.659835,4552.69596 L322.82873,4561.6545 L322.82873,4565.31486 Z M322.82873,4551.83621 L340.659835,4542.87767 L340.659835,4539.22161 L322.82873,4548.18015 L322.82873,4551.83621 Z M322.82873,4538.36186 L326.544977,4536.49407 L322.82873,4536.49407 L322.82873,4538.36186 Z M340.659835,4579.64895 L339.961293,4579.9993 L340.659835,4579.9993 L340.659835,4579.64895 Z M542.760026,4726.44177 C531.101888,4738.58351 514.72805,4746.16431 496.60893,4746.16431 C493.511699,4746.16431 490.470352,4745.93003 487.491337,4745.50446 L518.622693,4787.53952 C524.165897,4777.42248 534.914856,4770.54237 547.241445,4770.54237 C548.06895,4770.54237 548.881408,4770.60685 549.693867,4770.66703 L542.760026,4726.44177 Z M496.60893,4626.89622 C466.141726,4626.89622 441.357435,4651.68051 441.357435,4682.14342 C441.357435,4712.60847 466.141726,4737.39276 496.60893,4737.39276 C527.071834,4737.39276 551.856125,4712.60847 551.856125,4682.14342 C551.856125,4651.68051 527.071834,4626.89622 496.60893,4626.89622 L496.60893,4626.89622 Z M579.851563,4803.15464 C579.851563,4821.1362 565.223006,4835.7669 547.241445,4835.7669 C544.46447,4835.7669 541.782066,4835.38002 539.207131,4834.72231 L539.207131,4860.35775 L539.207131,4881.68372 L539.207131,4921.32655 C539.207131,4923.74888 537.242614,4925.71125 534.820284,4925.71125 L171.395445,4925.71125 L171.386847,4925.71125 C168.964517,4925.71125 167,4923.74888 167,4921.32655 L167,4881.68372 L167,4860.35775 C167,4860.32766 167.008597,4860.30187 167.008597,4860.27178 L167.008597,4822.21088 C167.008597,4806.50979 177.568412,4793.25038 191.949792,4789.09351 L186.43238,4789.09351 C183.749976,4789.09351 182.406625,4785.85013 184.304512,4783.95439 L184.304512,4783.95439 C184.867645,4783.38911 185.634967,4783.07315 186.43238,4783.07315 L221.836667,4783.07315 L221.836667,4738.64584 L199.926073,4777.11512 C198.937367,4778.84321 196.919116,4779.6922 194.982541,4779.18281 C193.058862,4778.66911 191.71981,4776.92168 191.728407,4774.92922 L191.997078,4697.3695 C191.818681,4695.98531 191.728407,4694.56458 191.728407,4693.14385 L191.728407,4629.28416 C191.728407,4610.23437 207.171572,4594.79121 226.221365,4594.79121 L252.346858,4594.79121 L252.346858,4588.77299 L247.231377,4588.77299 C246.881031,4588.85897 246.528536,4588.9084 246.17819,4588.9084 C245.838591,4588.9084 245.507589,4588.84822 245.180886,4588.77299 L243.427007,4588.77299 L235.147665,4588.77299 C232.482456,4588.77299 230.373932,4586.3958 230.823149,4583.64891 C231.173495,4581.4931 233.198194,4579.9993 235.381945,4579.9993 L239.042309,4579.9993 L239.042309,4536.49407 L235.147665,4536.49407 C232.482456,4536.49407 230.373932,4534.11902 230.821,4531.36999 C231.173495,4529.21418 233.196044,4527.72252 235.379796,4527.72252 L243.427007,4527.72252 L252.346858,4527.72252 L252.346858,4521.3862 C252.346858,4518.72314 254.715455,4516.61462 257.464488,4517.05954 C259.622448,4517.40773 261.118404,4519.43243 261.118404,4521.61833 L261.118404,4527.72252 L270.031807,4527.72252 L278.311149,4527.72252 C280.978507,4527.72252 283.084881,4530.09757 282.637814,4532.8466 C282.285318,4535.00241 280.262769,4536.49407 278.079017,4536.49407 L274.418654,4536.49407 L274.418654,4579.9993 L278.311149,4579.9993 C280.978507,4579.9993 283.084881,4582.37649 282.637814,4585.12338 C282.287468,4587.27919 280.262769,4588.77299 278.079017,4588.77299 L270.031807,4588.77299 L261.118404,4588.77299 L261.118404,4594.79121 L327.355286,4594.79121 L327.355286,4588.77299 L322.246253,4588.77299 C321.895907,4588.85897 321.543412,4588.9084 321.193066,4588.9084 C320.853466,4588.9084 320.520315,4588.84822 320.193612,4588.77299 L318.441883,4588.77299 L310.162541,4588.77299 C307.495183,4588.77299 305.388808,4586.3958 305.835876,4583.64891 C306.188371,4581.4931 308.21092,4579.9993 310.394672,4579.9993 L314.057184,4579.9993 L314.057184,4536.49407 L310.162541,4536.49407 C307.495183,4536.49407 305.388808,4534.11902 305.835876,4531.36999 C306.188371,4529.21418 308.21092,4527.72252 310.394672,4527.72252 L318.441883,4527.72252 L327.355286,4527.72252 L327.355286,4521.3862 C327.355286,4518.72314 329.726032,4516.61462 332.475066,4517.05954 C334.633025,4517.40773 336.128981,4519.43243 336.128981,4521.61833 L336.128981,4527.72252 L345.046683,4527.72252 L353.326024,4527.72252 C355.993382,4527.72252 358.099757,4530.09757 357.65269,4532.8466 C357.300194,4535.00241 355.277645,4536.49407 353.093893,4536.49407 L349.431381,4536.49407 L349.431381,4579.9993 L353.326024,4579.9993 C355.991233,4579.9993 358.099757,4582.37649 357.65269,4585.12338 C357.302344,4587.27919 355.277645,4588.77299 353.093893,4588.77299 L345.046683,4588.77299 L336.128981,4588.77299 L336.128981,4594.79121 L504.712024,4594.79121 C523.763967,4594.79121 539.207131,4610.23437 539.207131,4629.28416 L539.207131,4634.40609 C552.339732,4646.13946 560.627671,4663.1882 560.627671,4682.14342 C560.627671,4695.04819 556.776014,4707.06527 550.181772,4717.13073 L558.901733,4772.73472 C571.133751,4777.44182 579.851563,4789.28481 579.851563,4803.15464 L579.851563,4803.15464 Z M496.60893,4665.5353 C487.450499,4665.5353 479.998662,4672.98499 479.998662,4682.14342 C479.998662,4691.304 487.450499,4698.75369 496.60893,4698.75369 C505.76736,4698.75369 513.214899,4691.304 513.214899,4682.14342 C513.214899,4672.98499 505.76736,4665.5353 496.60893,4665.5353 L496.60893,4665.5353 Z M496.60893,4656.76161 C510.601275,4656.76161 521.986444,4668.14677 521.986444,4682.14342 C521.986444,4696.14006 510.601275,4707.52738 496.60893,4707.52738 C482.610136,4707.52738 471.224967,4696.14006 471.224967,4682.14342 C471.224967,4668.14677 482.610136,4656.76161 496.60893,4656.76161 L496.60893,4656.76161 Z M442.064575,4910.99242 C447.304719,4910.99242 451.551858,4906.74528 451.551858,4901.50513 C451.551858,4896.26499 447.304719,4892.01785 442.064575,4892.01785 C436.824431,4892.01785 432.577292,4896.26499 432.577292,4901.50513 C432.577292,4906.74528 436.824431,4910.99242 442.064575,4910.99242 L442.064575,4910.99242 Z M472.172835,4910.99242 C477.412979,4910.99242 481.660118,4906.74528 481.660118,4901.50513 C481.660118,4896.26499 477.412979,4892.01785 472.172835,4892.01785 C466.932691,4892.01785 462.685552,4896.26499 462.685552,4901.50513 C462.685552,4906.74528 466.932691,4910.99242 472.172835,4910.99242 L472.172835,4910.99242 Z M492.791663,4901.50513 C492.791663,4896.26499 497.038802,4892.01785 502.278946,4892.01785 C507.51909,4892.01785 511.766229,4896.26499 511.766229,4901.50513 C511.766229,4906.74528 507.51909,4910.99242 502.278946,4910.99242 C497.038802,4910.99242 492.791663,4906.74528 492.791663,4901.50513 L492.791663,4901.50513 Z" transform="translate(-167 -4517)"/>
</svg>
