<svg xmlns="http://www.w3.org/2000/svg" width="294" height="352" viewBox="0 0 294 352">
  <path fill-rule="evenodd" d="M806.819459,1168.99888 C731.617887,1168.99888 670.43467,1107.81783 670.43467,1032.61409 C670.43467,957.412523 731.617887,896.231473 806.819459,896.231473 C882.023198,896.231473 943.206415,957.412523 943.206415,1032.61409 C943.206415,1107.81783 882.023198,1168.99888 806.819459,1168.99888 L806.819459,1168.99888 Z M696.419226,908.080656 L710.552432,922.213862 L696.419226,936.349235 L682.28602,922.216029 L696.419226,908.080656 Z M796.827399,866.491498 L816.813686,866.491498 L816.813686,886.859177 C813.506836,886.635975 810.182651,886.479951 806.819459,886.479951 C803.456267,886.479951 800.132082,886.635975 796.827399,886.859177 L796.827399,866.491498 Z M781.955245,847.506368 L781.955245,836.751522 L831.683673,836.751522 L831.683673,847.506368 C831.683673,852.596662 827.542527,856.739976 822.450065,856.739976 L821.689447,856.739976 L791.951638,856.739976 L791.19102,856.739976 C786.098558,856.739976 781.955245,852.596662 781.955245,847.506368 L781.955245,847.506368 Z M917.219692,908.080656 L931.352898,922.216029 L917.219692,936.349235 L903.086486,922.213862 L917.219692,908.080656 Z M938.248307,929.109272 L945.31491,936.178042 C946.268393,937.129357 947.51442,937.606098 948.762615,937.606098 C950.01081,937.606098 951.256838,937.129357 952.21032,936.178042 C954.115117,934.273245 954.115117,931.187429 952.21032,929.282632 L941.706847,918.779159 C941.702513,918.774825 941.700346,918.770491 941.696012,918.766157 L920.667396,897.737542 C920.663062,897.735375 920.658728,897.733208 920.656561,897.728874 L910.153089,887.225401 C908.248291,885.320603 905.162476,885.320603 903.257679,887.225401 C901.352882,889.130198 901.352882,892.213846 903.257679,894.118643 L910.324282,901.187413 L895.185586,916.323943 C875.585026,901.393279 852.116363,891.318873 826.565208,887.851665 L826.565208,866.029926 C835.059867,864.142464 841.435196,856.560114 841.435196,847.506368 L841.435196,831.875761 C841.435196,829.184341 839.250855,827 836.559435,827 L777.079484,827 C774.388063,827 772.203722,829.184341 772.203722,831.875761 L772.203722,847.506368 C772.203722,856.560114 778.581218,864.142464 787.075877,866.029926 L787.075877,887.849498 C761.524722,891.318873 738.056059,901.393279 718.453332,916.32611 L703.314636,901.187413 L710.381239,894.118643 C712.286036,892.213846 712.286036,889.130198 710.381239,887.225401 C708.476442,885.320603 705.390627,885.320603 703.485829,887.225401 L692.982357,897.728874 C692.98019,897.733208 692.975856,897.735375 692.971522,897.737542 L671.942906,918.766157 C671.938572,918.770491 671.936405,918.774825 671.932071,918.779159 L661.428598,929.282632 C659.523801,931.187429 659.523801,934.273245 661.428598,936.178042 C662.38208,937.129357 663.628108,937.606098 664.876303,937.606098 C666.124498,937.606098 667.370525,937.129357 668.324008,936.178042 L675.390611,929.109272 L690.529307,944.247968 C671.821554,968.808802 660.683148,999.430748 660.683148,1032.61409 C660.683148,1113.19417 726.239381,1178.75041 806.819459,1178.75041 C887.401704,1178.75041 952.957937,1113.19417 952.957937,1032.61409 C952.957937,999.428581 941.819531,968.806635 923.109611,944.247968 L938.248307,929.109272 Z M843.992261,1109.5211 C834.383762,1109.5211 826.565208,1101.70255 826.565208,1092.09405 C826.565208,1082.48338 834.383762,1074.66483 843.992261,1074.66483 C853.602928,1074.66483 861.421482,1082.48338 861.421482,1092.09405 C861.421482,1101.70255 853.602928,1109.5211 843.992261,1109.5211 L843.992261,1109.5211 Z M843.992261,1064.9133 C829.005255,1064.9133 816.813686,1077.10704 816.813686,1092.09405 C816.813686,1107.08105 829.005255,1119.27262 843.992261,1119.27262 C858.979267,1119.27262 871.173004,1107.08105 871.173004,1092.09405 C871.173004,1077.10704 858.979267,1064.9133 843.992261,1064.9133 L843.992261,1064.9133 Z M769.646657,1109.5211 C760.03599,1109.5211 752.217436,1101.70255 752.217436,1092.09405 C752.217436,1082.48338 760.03599,1074.66483 769.646657,1074.66483 C779.255156,1074.66483 787.075877,1082.48338 787.075877,1092.09405 C787.075877,1101.70255 779.255156,1109.5211 769.646657,1109.5211 L769.646657,1109.5211 Z M769.646657,1064.9133 C754.659651,1064.9133 742.465914,1077.10704 742.465914,1092.09405 C742.465914,1107.08105 754.659651,1119.27262 769.646657,1119.27262 C784.633663,1119.27262 796.827399,1107.08105 796.827399,1092.09405 C796.827399,1077.10704 784.633663,1064.9133 769.646657,1064.9133 L769.646657,1064.9133 Z M704.508656,1032.61409 C704.508656,1035.30768 702.324315,1037.48986 699.632895,1037.48986 L684.762907,1037.48986 C682.071487,1037.48986 679.887146,1035.30768 679.887146,1032.61409 C679.887146,1029.92267 682.071487,1027.73833 684.762907,1027.73833 L699.632895,1027.73833 C702.324315,1027.73833 704.508656,1029.92267 704.508656,1032.61409 L704.508656,1032.61409 Z M909.130262,1032.61409 C909.130262,1029.92267 911.314603,1027.73833 914.006023,1027.73833 L928.876011,1027.73833 C931.567431,1027.73833 933.751772,1029.92267 933.751772,1032.61409 C933.751772,1035.30768 931.567431,1037.48986 928.876011,1037.48986 L914.006023,1037.48986 C911.314603,1037.48986 909.130262,1035.30768 909.130262,1032.61409 L909.130262,1032.61409 Z M811.69522,1139.80066 L811.69522,1154.67281 C811.69522,1157.36423 809.510879,1159.54857 806.819459,1159.54857 C804.128039,1159.54857 801.943698,1157.36423 801.943698,1154.67281 L801.943698,1139.80066 C801.943698,1137.10924 804.128039,1134.9249 806.819459,1134.9249 C809.510879,1134.9249 811.69522,1137.10924 811.69522,1139.80066 L811.69522,1139.80066 Z M801.943698,925.429697 L801.943698,910.557543 C801.943698,907.866123 804.128039,905.681782 806.819459,905.681782 C809.510879,905.681782 811.69522,907.866123 811.69522,910.557543 L811.69522,925.429697 C811.69522,928.121118 809.510879,930.305458 806.819459,930.305458 C804.128039,930.305458 801.943698,928.121118 801.943698,925.429697 L801.943698,925.429697 Z M806.819459,1022.61987 C812.330153,1022.61987 816.813686,1027.10557 816.813686,1032.61409 C816.813686,1038.12479 812.330153,1042.60832 806.819459,1042.60832 C801.308766,1042.60832 796.827399,1038.12479 796.827399,1032.61409 C796.827399,1027.10557 801.308766,1022.61987 806.819459,1022.61987 L806.819459,1022.61987 Z M806.819459,1052.35984 C817.706492,1052.35984 826.565208,1043.50329 826.565208,1032.61409 C826.565208,1023.41299 820.228885,1015.68329 811.69522,1013.50328 L811.69522,943.398502 C811.69522,940.704915 809.510879,938.522741 806.819459,938.522741 C804.128039,938.522741 801.943698,940.704915 801.943698,943.398502 L801.943698,1013.50328 C793.4122,1015.68329 787.075877,1023.41299 787.075877,1032.61409 C787.075877,1043.50329 795.932426,1052.35984 806.819459,1052.35984 L806.819459,1052.35984 Z" transform="translate(-660 -827)"/>
</svg>
