<svg xmlns="http://www.w3.org/2000/svg" width="344" height="313" viewBox="0 0 344 313">
  <path fill-rule="evenodd" d="M477.827133,5954.8486 L476.214152,5950.8291 C476.212975,5950.82792 476.212975,5950.82556 476.211798,5950.82439 C476.211798,5950.82203 476.21062,5950.82085 476.209443,5950.8185 L453.903218,5895.24602 C453.902041,5895.24367 453.902041,5895.24249 453.902041,5895.24014 C453.900864,5895.23896 453.899686,5895.23661 453.898509,5895.23543 L452.28906,5891.22535 L471.429369,5883.54309 L496.967442,5947.16633 L477.827133,5954.8486 Z M405.869367,5972.70912 C399.915467,5964.6136 390.330596,5959.34728 379.534223,5959.34728 C363.49272,5959.34728 350.12382,5970.97016 347.381753,5986.23343 L334.074076,5953.08374 C334.071721,5953.07903 334.071721,5953.07432 334.069366,5953.06961 C334.068189,5953.0649 334.064657,5953.06137 334.06348,5953.05666 L332.896718,5950.15211 L445.167222,5905.08874 L463.092497,5949.74593 L405.869367,5972.70912 Z M379.534223,6012.92767 C368.007888,6012.92767 358.630232,6003.55001 358.630232,5992.02485 C358.630232,5980.49852 368.007888,5971.12086 379.534223,5971.12086 C391.060558,5971.12086 400.437037,5980.49852 400.437037,5992.02485 C400.437037,6003.55001 391.060558,6012.92767 379.534223,6012.92767 L379.534223,6012.92767 Z M259.860492,6021.60479 L257.951995,6016.84827 C257.94964,6016.84356 257.94964,6016.83885 257.947285,6016.83414 C257.946108,6016.82943 257.942576,6016.8259 257.941398,6016.82119 L250.578201,5998.47913 C250.577024,5998.47442 250.575847,5998.46971 250.574669,5998.465 C250.572315,5998.46147 250.56996,5998.45676 250.567605,5998.45323 L248.659108,5993.69552 L325.33337,5962.91938 L336.535931,5990.82748 L259.860492,6021.60479 Z M207.488076,6030.74462 L204.501119,6023.30254 L241.83985,6008.31478 L244.826808,6015.75686 L207.488076,6030.74462 Z M189.818287,6046.92506 L180.543061,6023.8194 L190.429336,6019.85171 L199.703385,6042.95736 L189.818287,6046.92506 Z M510.085565,5948.24362 L480.163011,5873.69449 C479.581396,5872.24516 478.448778,5871.08664 477.013578,5870.47323 C475.577202,5869.86101 473.95598,5869.84099 472.507829,5870.42379 L442.441638,5882.49288 C439.42407,5883.70321 437.959436,5887.1305 439.170938,5890.14806 L440.782741,5894.16286 L323.046941,5941.41847 C321.597613,5942.00009 320.439093,5943.13388 319.825689,5944.57026 C319.212286,5946.00664 319.194626,5947.62668 319.777418,5949.07601 L320.947712,5951.9935 L238.810508,5984.96188 C235.79294,5986.17338 234.328306,5989.60067 235.539808,5992.61824 L237.454192,5997.3889 L200.11546,6012.37549 L199.162978,6010.00311 C197.951476,6006.98436 194.520655,6005.52208 191.506619,6006.73241 L170.694461,6015.08576 C169.245133,6015.66738 168.086613,6016.80117 167.47321,6018.23637 C166.859806,6019.67275 166.842146,6021.29279 167.423761,6022.74212 L181.084646,6056.77366 C182.007694,6059.07304 184.216418,6060.47056 186.549941,6060.47056 C187.279903,6060.47056 188.021639,6060.33281 188.739827,6060.04436 L209.553162,6051.691 C211.00249,6051.10939 212.16101,6049.97559 212.773236,6048.54039 C213.38664,6047.10401 213.405477,6045.48397 212.822685,6044.03582 L211.873735,6041.67051 L249.212466,6026.68274 L251.12685,6031.45339 C252.049899,6033.7516 254.258622,6035.14912 256.592146,6035.14912 C257.322108,6035.14912 258.063844,6035.01137 258.783209,6034.72292 L340.92159,6001.75336 L342.085997,6004.65555 C342.666435,6006.10488 343.80023,6007.26457 345.23543,6007.87798 C345.974811,6008.19469 346.762463,6008.35245 347.550116,6008.35245 C348.294206,6008.35245 349.038296,6008.21117 349.742356,6007.92978 L350.77019,6007.51653 C353.005993,6011.65023 356.108331,6015.24824 359.829959,6018.07037 L281.944196,6174.00084 C280.491336,6176.91009 281.671049,6180.44569 284.5803,6181.89855 C285.424466,6182.32005 286.321613,6182.5202 287.205809,6182.5202 C289.366261,6182.5202 291.446652,6181.32636 292.47684,6179.26245 L370.341412,6023.37554 C371.384551,6023.68165 372.45006,6023.93714 373.534407,6024.13965 L373.534407,6177.102 C373.534407,6180.35386 376.170511,6182.98879 379.421197,6182.98879 C382.673059,6182.98879 385.307987,6180.35386 385.307987,6177.102 L385.307987,6024.17968 C386.439428,6023.97717 387.550854,6023.71697 388.638732,6023.40027 L466.483288,6179.26127 C467.514654,6181.32636 469.593868,6182.5202 471.75432,6182.5202 C472.638516,6182.5202 473.535663,6182.32005 474.379829,6181.89855 C477.28908,6180.44569 478.468793,6176.91009 477.015933,6174.00201 L399.16549,6018.12806 C407.082045,6012.15885 412.210617,6002.68112 412.210617,5992.02485 C412.210617,5989.01199 411.792655,5986.09803 411.026195,5983.32535 L467.478156,5960.67181 L469.093491,5964.6972 C470.01654,5966.9954 472.225263,5968.39292 474.558787,5968.39292 C475.288749,5968.39292 476.030484,5968.25635 476.748673,5967.9679 L506.816041,5955.89998 C508.264192,5955.31718 509.422712,5954.18457 510.036116,5952.74937 C510.649519,5951.31299 510.667179,5949.69295 510.085565,5948.24362 L510.085565,5948.24362 Z" transform="matrix(-1 0 0 1 510.51 -5870)"/>
</svg>
