<svg xmlns="http://www.w3.org/2000/svg" width="406" height="353" viewBox="0 0 406 353">
  <path fill-rule="evenodd" d="M210.978188,2667.61341 L496.1223,2667.61341 L496.1223,2655.79553 L210.978188,2655.79553 L210.978188,2667.61341 Z M486.6848,2784.46198 C470.397412,2784.46198 457.145706,2797.70528 457.145706,2814.00107 L457.145706,2841.68907 C457.145706,2857.97646 470.397412,2871.21976 486.6848,2871.21976 L560.843384,2871.21976 L560.843384,2784.46198 L486.6848,2784.46198 Z M560.843384,2932.07623 L560.843384,2883.03764 L486.6848,2883.03764 C463.880776,2883.03764 445.325028,2864.49309 445.325028,2841.68907 L445.325028,2814.00107 C445.325028,2791.19705 463.880776,2772.6413 486.6848,2772.6413 L560.843384,2772.6413 L560.843384,2731.00708 C560.843384,2714.72249 547.591678,2701.46799 531.30429,2701.46799 L208.642617,2701.46799 C197.256008,2701.46799 186.922366,2696.90606 179.39477,2689.51849 L179.39477,2932.07623 C179.39477,2948.36362 192.640874,2961.60972 208.928263,2961.60972 L531.30429,2961.60972 C547.591678,2961.60972 560.843384,2948.36362 560.843384,2932.07623 L560.843384,2932.07623 Z M178.9579,2659.47531 C179.243546,2660.16142 179.39477,2660.91474 179.39477,2661.71287 L179.39477,2665.91074 C182.116802,2679.43409 194.197922,2689.65011 208.642617,2689.65011 L521.460726,2689.65011 L521.460726,2662.34857 C521.460726,2646.06118 508.20902,2632.81788 491.921632,2632.81788 L208.356972,2632.81788 C193.035737,2632.81788 180.40573,2644.53494 178.9579,2659.47531 L178.9579,2659.47531 Z M572.664062,2731.00708 L572.664062,2932.07623 C572.664062,2954.88026 554.108314,2973.4276 531.30429,2973.4276 L208.928263,2973.4276 C186.124239,2973.4276 167.576892,2954.88026 167.576892,2932.07623 L167.576892,2667.00011 C167.322051,2665.47107 167.145623,2663.92802 167.06441,2662.34857 L167,2662.34857 L167.06441,2660.11101 C168.229395,2638.34596 186.306268,2621 208.356972,2621 L491.921632,2621 C514.725656,2621 533.273003,2639.54735 533.273003,2662.34857 L533.273003,2689.70052 C555.169683,2690.73388 572.664062,2708.86396 572.664062,2731.00708 L572.664062,2731.00708 Z M487.973005,2825.40728 C487.973005,2831.1986 492.688954,2835.90895 498.483075,2835.90895 C504.274395,2835.90895 508.984743,2831.1986 508.984743,2825.40728 C508.984743,2819.61596 504.274395,2814.89721 498.483075,2814.89721 C492.688954,2814.89721 487.973005,2819.61596 487.973005,2825.40728 L487.973005,2825.40728 Z M498.483075,2803.08773 C510.79103,2803.08773 520.802621,2813.09933 520.802621,2825.40728 C520.802621,2837.71524 510.79103,2847.72683 498.483075,2847.72683 C486.175119,2847.72683 476.160728,2837.71524 476.160728,2825.40728 C476.160728,2813.09933 486.175119,2803.08773 498.483075,2803.08773 L498.483075,2803.08773 Z M342.26305,2940.0267 L365.893205,2940.0267 L365.893205,2928.20882 L342.26305,2928.20882 L342.26305,2940.0267 Z M295.00274,2940.0267 L318.632895,2940.0267 L318.632895,2928.20882 L295.00274,2928.20882 L295.00274,2940.0267 Z M389.52056,2940.0267 L413.150715,2940.0267 L413.150715,2928.20882 L389.52056,2928.20882 L389.52056,2940.0267 Z M484.046781,2940.0267 L507.676936,2940.0267 L507.676936,2928.20882 L484.046781,2928.20882 L484.046781,2940.0267 Z M436.78087,2940.0267 L460.411025,2940.0267 L460.411025,2928.20882 L436.78087,2928.20882 L436.78087,2940.0267 Z M527.366864,2910.32518 C527.366864,2915.24836 525.82942,2919.77388 523.042977,2923.0504 L532.038007,2930.70961 C536.647539,2925.29075 539.184742,2918.0572 539.184742,2910.32518 L539.184742,2904.57866 L527.366864,2904.57866 L527.366864,2910.32518 Z M247.74243,2940.0267 L271.372585,2940.0267 L271.372585,2928.20882 L247.74243,2928.20882 L247.74243,2940.0267 Z M200.47652,2940.0267 L224.106675,2940.0267 L224.106675,2928.20882 L200.47652,2928.20882 L200.47652,2940.0267 Z M436.78087,2739.16478 L460.411025,2739.16478 L460.411025,2727.3469 L436.78087,2727.3469 L436.78087,2739.16478 Z M541.159056,2758.86031 C541.159056,2750.98266 538.431423,2743.93954 533.474635,2738.49267 L524.734446,2745.95026 C527.702918,2749.22118 529.34958,2750.98266 529.34958,2758.86031 L541.159056,2758.86031 Z M484.049581,2739.16478 L507.679736,2739.16478 L507.679736,2727.3469 L484.049581,2727.3469 L484.049581,2739.16478 Z M295.00274,2739.16478 L318.632895,2739.16478 L318.632895,2727.3469 L295.00274,2727.3469 L295.00274,2739.16478 Z M247.73683,2739.16478 L271.366985,2739.16478 L271.366985,2727.3469 L247.73683,2727.3469 L247.73683,2739.16478 Z M389.52336,2739.16478 L413.153515,2739.16478 L413.153515,2727.3469 L389.52336,2727.3469 L389.52336,2739.16478 Z M200.47652,2739.16478 L224.106675,2739.16478 L224.106675,2727.3469 L200.47652,2727.3469 L200.47652,2739.16478 Z M342.26305,2739.16478 L365.893205,2739.16478 L365.893205,2727.3469 L342.26305,2727.3469 L342.26305,2739.16478 Z" transform="translate(-167 -2621)"/>
</svg>
