<svg xmlns="http://www.w3.org/2000/svg" width="284" height="416" viewBox="0 0 284 416">
  <path fill-rule="evenodd" d="M431.159018,4561.70692 C422.044102,4561.70692 408.313357,4556.63759 392.490223,4547.42838 C381.125764,4540.8414 369.415567,4532.5347 358.616862,4523.40183 C332.587716,4501.38683 320.9314,4482.64962 321.429802,4473.36408 L398.022034,4494.28798 L436.098135,4561.01545 C434.908257,4561.41955 433.314269,4561.70692 431.159018,4561.70692 L431.159018,4561.70692 Z M394.156052,4696.63012 C394.156052,4729.73568 372.046769,4778.98765 311.142968,4778.98765 C250.243658,4778.98765 228.138865,4729.73568 228.138865,4696.63012 C228.138865,4676.3977 233.944572,4660.73172 239.561695,4645.57762 C244.586124,4632.0175 249.336656,4619.2162 249.336656,4604.63234 C249.336656,4598.09025 248.501496,4590.34033 246.844647,4581.51278 L288.140154,4581.51278 L288.171585,4581.51278 L308.884445,4581.51278 C308.897915,4581.51727 308.906895,4581.51727 308.915876,4581.51278 L375.45027,4581.51278 C373.793421,4590.34033 372.953771,4598.09025 372.953771,4604.63234 C372.953771,4619.2162 377.699813,4632.0175 382.728732,4645.57762 C388.345855,4660.73172 394.156052,4676.3977 394.156052,4696.63012 L394.156052,4696.63012 Z M234.020904,4534.85609 L267.710171,4534.85609 L276.12463,4559.75373 L279.0881,4568.5229 L244.02037,4568.5229 C240.783004,4555.24117 236.764359,4542.80357 234.020904,4534.85609 L234.020904,4534.85609 Z M267.422804,4475.43851 L268.563291,4479.51553 L265.114889,4484.34688 L263.731937,4479.40327 L267.422804,4475.43851 Z M273.686502,4494.70556 L283.259409,4521.86172 L277.036121,4521.86172 L269.730719,4500.25533 L273.686502,4494.70556 Z M299.706668,4568.5229 L292.805375,4568.5229 L287.668693,4553.32389 L281.427445,4534.85609 L287.839317,4534.85609 L299.706668,4568.5229 Z M352.061306,4534.85609 C353.983072,4536.45007 355.945248,4538.00365 357.911915,4539.54376 C358.302554,4539.84908 358.679723,4540.16788 359.070362,4540.47321 C361.791367,4542.57907 364.548292,4544.61309 367.323178,4546.59322 C368.126907,4547.16796 368.935126,4547.70677 369.747835,4548.26803 C371.732462,4549.6465 373.717089,4551.00251 375.710696,4552.30464 C376.71648,4552.96468 377.717773,4553.5933 378.723557,4554.2264 C379.67995,4554.83257 380.631852,4555.47016 381.583755,4556.05388 C380.357956,4560.3554 379.2489,4564.52222 378.274547,4568.5229 L313.482314,4568.5229 L301.619453,4534.85609 L352.061306,4534.85609 Z M253.903094,4470.89452 L180.916417,4464.39734 L181.477681,4460.54932 L256.835134,4467.74247 L253.903094,4470.89452 Z M450.183598,4559.48432 L407.972109,4485.50982 C407.118989,4484.01461 405.704606,4482.91903 404.043266,4482.46553 L319.24761,4459.30107 C316.70172,4458.59612 313.976225,4459.52108 312.373258,4461.62694 C299.221736,4478.86446 320.958341,4505.45487 337.670516,4521.86172 L297.035055,4521.86172 L281.854005,4478.79262 L276.811616,4460.77831 C276.784676,4460.67953 276.721814,4460.59422 276.690383,4460.49544 C276.663443,4460.40563 276.663443,4460.31134 276.627522,4460.21705 C276.56466,4460.04643 276.447918,4459.91172 276.371586,4459.75008 C276.232392,4459.45822 276.088709,4459.17535 275.909105,4458.91043 C275.756441,4458.68592 275.585817,4458.47938 275.406213,4458.27732 C275.199668,4458.04384 274.988633,4457.82382 274.755148,4457.62177 C274.544113,4457.44216 274.328587,4457.2895 274.099592,4457.13684 C273.843656,4456.9707 273.57874,4456.81804 273.300353,4456.68783 C273.044417,4456.56659 272.792971,4456.4723 272.523565,4456.3825 C272.375391,4456.3376 272.240688,4456.25229 272.088024,4456.21637 C271.926381,4456.17595 271.764737,4456.18943 271.603093,4456.16248 C271.454919,4456.14003 271.324706,4456.07268 271.172043,4456.05921 L176.556524,4447.02961 C173.112613,4446.70183 170.014439,4449.13098 169.511548,4452.55693 L167.06893,4469.32299 C166.808504,4471.09209 167.293435,4472.88813 168.398001,4474.28904 C169.507057,4475.68996 171.141456,4476.57451 172.919538,4476.73166 L251.447006,4483.71827 L256.2604,4500.92884 C256.27387,4500.97374 256.300811,4501.00967 256.314281,4501.05457 C256.336732,4501.12641 256.336732,4501.19825 256.359182,4501.2656 L263.323337,4521.86172 L224.780265,4521.86172 C222.642975,4521.86172 220.640387,4522.91689 219.428059,4524.67702 C218.21573,4526.44163 217.950814,4528.68668 218.714132,4530.68478 C218.799444,4530.90928 227.380037,4553.43166 232.525698,4576.43447 C232.525698,4576.43896 232.525698,4576.43896 232.525698,4576.43896 C232.525698,4576.43896 232.525698,4576.44345 232.530189,4576.44794 C235.058118,4587.6777 236.342289,4597.15631 236.342289,4604.63234 C236.342289,4616.88135 232.18894,4628.08865 227.380037,4641.06057 C221.646171,4656.53348 215.144497,4674.06734 215.144497,4696.63012 C215.144497,4742.35737 245.865804,4788.60995 304.654765,4791.78894 L304.654765,4849.75173 L242.583536,4849.75173 C238.995941,4849.75173 236.086353,4852.66132 236.086353,4856.24891 C236.086353,4859.8365 238.995941,4862.74609 242.583536,4862.74609 L379.720361,4862.74609 C383.307956,4862.74609 386.213054,4859.8365 386.213054,4856.24891 C386.213054,4852.66132 383.307956,4849.75173 379.720361,4849.75173 L317.644642,4849.75173 L317.644642,4791.78894 C376.429113,4788.60546 407.14593,4742.35288 407.14593,4696.63012 C407.14593,4674.06734 400.644256,4656.53348 394.91039,4641.06057 C390.101486,4628.08865 385.948138,4616.88135 385.948138,4604.63234 C385.948138,4597.15631 387.232309,4587.6777 389.764728,4576.44794 C389.764728,4576.44345 389.764728,4576.43896 389.764728,4576.43896 L389.764728,4576.43447 C390.730101,4572.10601 391.94243,4567.45426 393.262521,4562.67678 C404.945778,4568.82374 419.197375,4574.6968 431.159018,4574.6968 C441.41442,4574.6968 446.90582,4570.31895 449.707647,4566.64155 C451.283674,4564.56712 451.472258,4561.75182 450.183598,4559.48432 L450.183598,4559.48432 Z" transform="translate(-167 -4447)"/>
</svg>
