<svg xmlns="http://www.w3.org/2000/svg" width="413" height="218" viewBox="0 0 413 218">
  <path fill-rule="evenodd" d="M943.098046,2423.15635 L922.41991,2393.28935 L922.41991,2395.99872 C922.41991,2396.28787 922.38157,2396.57542 922.309682,2396.85499 L907.317075,2454.33011 L926.354571,2424.71552 C926.977598,2423.74423 928.054318,2423.15635 929.209316,2423.15635 L943.098046,2423.15635 Z M870.957806,2424.71552 L889.995302,2454.33011 L875.002695,2396.85499 C874.92921,2396.57542 874.894065,2396.28787 874.894065,2395.99872 L874.894065,2393.28775 L854.212734,2423.15635 L868.104658,2423.15635 C869.256461,2423.15635 870.334778,2423.74423 870.957806,2424.71552 L870.957806,2424.71552 Z M874.894065,2372.01854 L874.894065,2366.2132 C864.724332,2354.81338 864.709955,2335.7695 864.709955,2324.70995 L864.709955,2317.92055 C864.709955,2308.56395 872.323675,2300.94703 881.683471,2300.94703 L887.108606,2300.94703 C885.705995,2297.1194 885.078174,2293.54738 885.078174,2290.76292 L891.867581,2290.76292 C891.867581,2298.92139 900.717772,2321.31525 929.209316,2321.31525 C931.083193,2321.31525 932.60402,2322.83448 932.60402,2324.70995 C932.60402,2335.7695 932.586447,2354.81338 922.41991,2366.2132 L922.41991,2372.01854 C929.915415,2371.19263 940.460561,2368.135 945.540635,2366.56465 C943.751426,2358.86626 939.393426,2338.67377 939.393426,2324.70995 L939.393426,2304.34174 C939.393426,2287.49442 925.68841,2273.78941 908.841097,2273.78941 L888.472878,2273.78941 C871.623967,2273.78941 857.920548,2287.49442 857.920548,2304.34174 L857.920548,2324.70995 C857.920548,2338.67377 853.559353,2358.86626 851.770145,2366.56465 C856.855011,2368.135 867.39856,2371.19103 874.894065,2372.01854 L874.894065,2372.01854 Z M883.451912,2402.35201 L898.656987,2460.62748 L913.858868,2402.35041 C909.766054,2404.75466 904.487889,2406.18283 898.656987,2406.18283 C892.824488,2406.18283 887.546323,2404.75466 883.451912,2402.35201 L883.451912,2402.35201 Z M925.79065,2328.012 C907.235602,2326.97203 896.155291,2317.51318 890.345156,2307.73644 L881.683471,2307.73644 C876.066635,2307.73644 871.499361,2312.30531 871.499361,2317.92055 L871.499361,2324.70995 C871.499361,2351.95544 876.039477,2368.8411 898.656987,2368.8411 C920.34315,2368.8411 925.408846,2353.31332 925.79065,2328.012 L925.79065,2328.012 Z M915.630503,2371.67028 C911.214993,2374.14642 905.668447,2375.6305 898.656987,2375.6305 C891.642332,2375.6305 886.097384,2374.14642 881.683471,2371.67028 L881.683471,2389.20932 C881.683471,2394.7303 889.456942,2399.39343 898.656987,2399.39343 C907.853837,2399.39343 915.630503,2394.7303 915.630503,2389.20932 L915.630503,2371.67028 Z M990.313974,2446.91927 L990.313974,2484.26101 L983.524568,2484.26101 L983.524568,2446.91927 C983.524568,2429.13742 975.607321,2419.56994 955.29182,2412.79811 L954.846115,2412.6144 L938.343864,2404.36327 L952.368381,2424.61967 C953.087259,2425.65645 953.17033,2427.00954 952.582447,2428.12619 C951.996162,2429.24764 950.839567,2429.94576 949.577536,2429.94576 L931.062425,2429.94576 L901.510135,2475.91403 L901.50694,2475.91084 C900.893498,2476.86295 899.832753,2477.4716 898.656987,2477.4716 C897.476429,2477.4716 896.417282,2476.86295 895.805437,2475.91084 L895.802242,2475.91403 L866.25155,2429.94576 L847.736439,2429.94576 C846.47281,2429.94576 845.314618,2429.24764 844.728332,2428.12619 C844.142047,2427.00954 844.22352,2425.65645 844.943996,2424.61967 L858.984488,2404.34091 L842.020557,2412.79811 C821.705056,2419.56994 813.789406,2429.13742 813.789406,2446.91927 L813.789406,2484.26101 L807,2484.26101 L807,2446.91927 C807,2426.24114 816.765563,2414.12085 839.641869,2406.43524 L866.583831,2392.96346 L866.700449,2393.1935 L874.894065,2381.35916 L874.894065,2378.84149 C863.882446,2377.76797 847.42812,2372.31727 846.661316,2372.06167 C844.980739,2371.50095 844.012649,2369.7389 844.443976,2368.01838 C844.509474,2367.75 851.131142,2341.06364 851.131142,2324.70995 L851.131142,2304.34174 C851.131142,2283.75146 867.881007,2267 888.472878,2267 L908.841097,2267 C929.429772,2267 946.182832,2283.75146 946.182832,2304.34174 L946.182832,2324.70995 C946.182832,2341.07802 952.801306,2367.75 952.868401,2368.01838 C953.299728,2369.7389 952.330041,2371.50095 950.651061,2372.06167 C949.88266,2372.31727 933.428333,2377.76797 922.41991,2378.84149 L922.41991,2381.35916 L930.611928,2393.1935 L930.726948,2392.96346 L957.668911,2406.43524 C980.545217,2414.12085 990.313974,2426.24114 990.313974,2446.91927 L990.313974,2446.91927 Z M949.577536,2484.26101 L956.366942,2484.26101 L956.366942,2457.10338 L949.577536,2457.10338 L949.577536,2484.26101 Z M840.947032,2484.26101 L847.736439,2484.26101 L847.736439,2457.10338 L840.947032,2457.10338 L840.947032,2484.26101 Z M1158.52192,2392.49219 L1147.79306,2386.05424 L1124.57169,2391.85958 L1124.57169,2394.59292 L1135.34528,2405.36651 L1158.52192,2392.49219 Z M1117.78229,2394.59292 L1117.78229,2391.85958 L1094.55932,2386.05424 L1083.83206,2392.49219 L1107.0087,2405.36651 L1117.78229,2394.59292 Z M1104.20347,2381.4662 L1121.17699,2385.71078 L1138.1505,2381.4662 L1138.1505,2371.33001 C1133.44105,2374.01542 1127.81783,2375.6305 1121.17699,2375.6305 C1114.53296,2375.6305 1108.91133,2374.01542 1104.20347,2371.33001 L1104.20347,2381.4662 Z M1121.17699,2368.8411 C1143.43346,2368.8411 1151.72932,2345.93763 1151.72932,2331.49936 C1151.72932,2330.59996 1152.08556,2329.73571 1152.72297,2329.09991 L1155.12402,2326.69885 L1155.12402,2321.31525 C1149.50718,2321.31525 1144.93991,2316.74798 1144.93991,2311.13114 L1144.93991,2304.34174 C1144.93991,2302.47105 1143.41908,2300.94703 1141.54521,2300.94703 C1139.66814,2300.94703 1138.1505,2299.4278 1138.1505,2297.55233 L1138.1505,2296.25675 L1129.48403,2300.58919 C1129.01276,2300.82562 1128.49357,2300.94703 1127.96639,2300.94703 L1100.80877,2300.94703 C1098.93489,2300.94703 1097.41407,2302.47105 1097.41407,2304.34174 L1097.41407,2311.13114 C1097.41407,2316.74798 1092.84519,2321.31525 1087.22996,2321.31525 L1087.22996,2326.69885 L1089.62941,2329.09991 C1090.26522,2329.73571 1090.62466,2330.59996 1090.62466,2331.49936 C1090.62466,2345.93763 1098.91892,2368.8411 1121.17699,2368.8411 L1121.17699,2368.8411 Z M1087.22996,2314.52585 C1089.10383,2314.52585 1090.62466,2313.00342 1090.62466,2311.13114 L1090.62466,2304.34174 C1090.62466,2298.7265 1095.19193,2294.15763 1100.80877,2294.15763 L1127.16445,2294.15763 L1140.02598,2287.72766 C1141.07714,2287.20208 1142.32639,2287.25639 1143.32803,2287.87463 C1144.32966,2288.49446 1144.93991,2289.58716 1144.93991,2290.76292 L1144.93991,2294.73912 C1148.89055,2296.14013 1151.72932,2299.91664 1151.72932,2304.34174 L1151.72932,2311.13114 C1151.72932,2313.00342 1153.25014,2314.52585 1155.12402,2314.52585 L1155.12402,2283.97352 C1155.12402,2278.35828 1150.55515,2273.78941 1144.93991,2273.78941 L1107.59818,2273.78941 C1103.85522,2273.78941 1100.80877,2276.83426 1100.80877,2280.57881 C1100.80877,2282.45429 1099.28954,2283.97352 1097.41407,2283.97352 L1094.01936,2283.97352 C1090.2764,2283.97352 1087.22996,2287.01837 1087.22996,2290.76292 L1087.22996,2314.52585 Z M1219.62338,2443.52457 L1219.62338,2484.26101 L1212.83398,2484.26101 L1212.83398,2443.52457 C1212.83398,2427.79072 1202.36072,2417.58584 1177.81182,2409.405 C1177.57699,2409.32673 1177.35174,2409.22129 1177.13927,2409.09349 L1160.54117,2399.13463 L1136.40283,2412.54411 C1135.88684,2412.83326 1135.31812,2412.97224 1134.7558,2412.97224 C1133.87717,2412.97224 1133.00813,2412.63037 1132.35475,2411.97859 L1121.17699,2400.79923 L1109.99763,2411.97859 C1109.34425,2412.63037 1108.47521,2412.97224 1107.59818,2412.97224 C1107.03426,2412.97224 1106.46714,2412.83326 1105.94955,2412.54411 L1081.81121,2399.13463 L1065.21311,2409.09349 C1065.00224,2409.22129 1064.77539,2409.32673 1064.54056,2409.405 C1039.99166,2417.58584 1029.52,2427.79072 1029.52,2443.52457 L1029.52,2484.26101 L1022.73059,2484.26101 L1022.73059,2443.52457 C1022.73059,2419.44694 1043.65475,2409.25005 1062.03726,2403.08207 L1075.02021,2395.29262 C1074.1927,2394.668 1073.66712,2393.71429 1073.65114,2392.66153 C1073.63038,2391.44902 1074.25979,2390.31639 1075.29817,2389.69496 L1092.27169,2379.51085 C1093.04329,2379.04757 1093.96824,2378.91019 1094.84048,2379.12585 L1097.41407,2379.76965 L1097.41407,2366.15728 C1088.2252,2357.14255 1084.19309,2343.43594 1083.85762,2332.92913 L1081.4342,2330.50571 C1080.79679,2329.86831 1080.44055,2329.00405 1080.44055,2328.10466 L1080.44055,2317.92055 L1080.44055,2290.76292 C1080.44055,2283.27541 1086.52865,2277.18411 1094.01936,2277.18411 L1094.44909,2277.18411 C1095.95874,2271.33564 1101.28323,2267 1107.59818,2267 L1144.93991,2267 C1154.29811,2267 1161.91343,2274.61692 1161.91343,2283.97352 L1161.91343,2317.92055 L1161.91343,2328.10466 C1161.91343,2329.00405 1161.55399,2329.86831 1160.91818,2330.50571 L1158.49476,2332.92913 C1158.15769,2343.43594 1154.12718,2357.14255 1144.93991,2366.15728 L1144.93991,2379.76965 L1147.5119,2379.12585 C1148.38733,2378.90699 1149.3059,2379.04438 1150.08069,2379.51085 L1167.05421,2389.69496 C1168.09259,2390.31639 1168.722,2391.44902 1168.70283,2392.66153 C1168.68526,2393.71429 1168.15968,2394.668 1167.33057,2395.29262 L1180.31511,2403.08207 C1198.69763,2409.25005 1219.62338,2419.44694 1219.62338,2443.52457 L1219.62338,2443.52457 Z M1117.78229,2463.89279 L1124.57169,2463.89279 L1124.57169,2457.10338 L1117.78229,2457.10338 L1117.78229,2463.89279 Z M1117.78229,2450.31397 L1124.57169,2450.31397 L1124.57169,2443.52457 L1117.78229,2443.52457 L1117.78229,2450.31397 Z M1117.78229,2423.15635 L1124.57169,2423.15635 L1124.57169,2416.36694 L1117.78229,2416.36694 L1117.78229,2423.15635 Z M1117.78229,2436.73516 L1124.57169,2436.73516 L1124.57169,2429.94576 L1117.78229,2429.94576 L1117.78229,2436.73516 Z M1172.09754,2484.26101 L1178.88694,2484.26101 L1178.88694,2457.10338 L1172.09754,2457.10338 L1172.09754,2484.26101 Z M1063.46703,2484.26101 L1070.25644,2484.26101 L1070.25644,2457.10338 L1063.46703,2457.10338 L1063.46703,2484.26101 Z" transform="translate(-807 -2267)"/>
</svg>
