<svg xmlns="http://www.w3.org/2000/svg" width="505" height="291" viewBox="0 0 505 291">
  <path fill-rule="evenodd" d="M988.393342,3026.78431 C986.291308,3024.68227 982.879311,3024.68227 980.775373,3026.78431 L975.756386,3031.8052 L970.739304,3026.78431 C968.633462,3024.68227 965.223369,3024.68227 963.121335,3026.78431 C961.017397,3028.88824 961.017397,3032.29834 963.121335,3034.40228 L968.138418,3039.42317 L963.121335,3044.44025 C961.017397,3046.54419 961.017397,3049.95428 963.121335,3052.05822 C965.223369,3054.16216 968.633462,3054.16216 970.739304,3052.05822 L975.756386,3047.03923 L980.775373,3052.05822 C982.879311,3054.16216 986.291308,3054.16216 988.393342,3052.05822 C990.495376,3049.95428 990.49728,3046.54419 988.393342,3044.44025 L983.374355,3039.42126 L988.393342,3034.40228 C990.495376,3032.29834 990.49728,3028.88824 988.393342,3026.78431 L988.393342,3026.78431 Z M938.285348,2968.72514 L938.283444,2968.72514 C934.056528,2972.95206 925.387542,2972.8797 915.659923,2968.54236 C912.940988,2967.3295 909.755569,2968.55188 908.544615,2971.27081 C907.333661,2973.98784 908.554135,2977.16945 911.271166,2978.38231 C915.926486,2980.45769 920.450428,2981.75813 924.700192,2982.30839 L916.910862,2990.09772 C916.908958,2990.09772 916.908958,2990.09772 916.908958,2990.09963 C910.282982,2996.72751 891.56079,2992.77667 875.296684,2976.51257 C859.030674,2960.24656 855.077936,2941.52627 861.707721,2934.89649 L869.557979,2927.04623 C870.759414,2936.48063 875.607039,2947.11646 883.826677,2957.02306 C884.891022,2958.30827 886.425659,2958.97277 887.975528,2958.97277 C889.186482,2958.97277 890.405053,2958.56531 891.410373,2957.72945 C893.700905,2955.82924 894.016971,2952.43438 892.118667,2950.14575 C880.509881,2936.15314 876.540007,2920.06991 883.076494,2913.52581 L915.640883,2880.96332 C917.103168,2892.30364 923.873849,2905.31759 935.181801,2916.62555 C946.484041,2927.92779 959.494184,2934.7118 970.830697,2936.17598 L938.285348,2968.72514 Z M887.678501,3019.33008 C881.052525,3025.95416 862.332238,3022.00713 846.064324,3005.74112 C838.324498,2997.99939 832.780003,2989.10192 830.457103,2980.68617 C828.457886,2973.4452 829.19474,2967.40947 832.47536,2964.12885 L848.130181,2948.47403 C849.59437,2959.81244 856.372667,2972.82449 867.676811,2984.12863 C878.979051,2995.43087 891.991098,3002.21488 903.327611,3003.67907 L887.678501,3019.33008 Z M832.52296,3038.71868 C829.925882,3041.31385 826.475805,3042.74187 822.804862,3042.74187 C819.133919,3042.74187 815.683841,3041.31385 813.088667,3038.71868 C810.491589,3036.1216 809.063577,3032.67153 809.063577,3029.00058 C809.063577,3025.32964 810.491589,3021.87956 813.088667,3019.28439 C815.824738,3016.54832 825.228674,3013.0335 835.283784,3010.01183 C836.296721,3011.14091 837.347737,3012.25857 838.446355,3013.35718 C839.546876,3014.45771 840.666438,3015.4992 841.797423,3016.51214 C838.773846,3026.57296 835.259032,3035.98071 832.52296,3038.71868 L832.52296,3038.71868 Z M984.412044,2922.59464 C977.787972,2929.22252 959.06578,2925.27549 942.79977,2909.00948 C926.53376,2892.74347 922.582926,2874.02128 929.210807,2867.3934 C931.31284,2865.29137 931.31284,2861.87937 929.210807,2859.77733 C927.106869,2857.6734 923.696776,2857.6734 921.592838,2859.77733 L824.857391,2956.51088 C815.179277,2966.18899 817.035693,2984.04295 828.210364,3000.8954 C818.907341,3003.8828 809.469132,3007.66608 805.472602,3011.66832 C800.840131,3016.29508 798.290653,3022.45267 798.290653,3029.00058 C798.290653,3035.5504 800.840131,3041.70608 805.472602,3046.33475 C810.101266,3050.96341 816.25695,3053.51479 822.804862,3053.51479 C829.354678,3053.51479 835.508458,3050.96341 840.139025,3046.33475 C844.137459,3042.33631 847.922643,3032.90382 850.906237,3023.6027 C860.376813,3029.88214 870.159648,3033.21798 878.634425,3033.21798 C885.243265,3033.21798 891.054322,3031.1883 895.294566,3026.94805 L992.030013,2930.21261 C994.133951,2928.11057 994.133951,2924.70048 992.030013,2922.59464 C989.926075,2920.4926 986.515982,2920.4926 984.412044,2922.59464 L984.412044,2922.59464 Z M1023.76806,2988.02806 C1020.26657,2991.52574 1014.57166,2991.52574 1011.07017,2988.02806 C1010.01916,2986.97704 1008.64065,2986.44963 1007.26214,2986.44963 C1005.88554,2986.44963 1004.50513,2986.97704 1003.45221,2988.02806 C1001.35017,2990.132 1001.35208,2993.54209 1003.45411,2995.64603 C1011.15395,3003.34396 1023.68238,3003.34396 1031.38412,2995.64603 C1033.48997,2993.54209 1033.48997,2990.132 1031.38412,2988.02806 C1029.28399,2985.92412 1025.872,2985.92412 1023.76806,2988.02806 L1023.76806,2988.02806 Z M1006.83564,2888.31854 C996.226464,2888.31854 986.253228,2892.45025 978.753308,2899.95398 C976.647466,2902.05601 976.647466,2905.46611 978.753308,2907.57195 C980.855342,2909.67398 984.265435,2909.67398 986.371277,2907.57195 C991.837707,2902.10552 999.103433,2899.09337 1006.83564,2899.09337 C1014.56595,2899.09337 1021.83167,2902.10552 1027.30001,2907.57195 C1028.35103,2908.62106 1029.72953,2909.14847 1031.10995,2909.14847 C1032.48655,2909.14847 1033.86506,2908.62106 1034.91798,2907.57195 C1037.02192,2905.46611 1037.02192,2902.05601 1034.91798,2899.95398 C1027.41615,2892.45025 1017.44292,2888.31854 1006.83564,2888.31854 L1006.83564,2888.31854 Z M1150.0348,3042.74187 C1145.08245,3042.74187 1141.05736,3038.71678 1141.05736,3033.76443 C1141.05736,3028.81399 1145.08245,3024.78699 1150.0348,3024.78699 C1154.98524,3024.78699 1159.01033,3028.81399 1159.01033,3033.76443 C1159.01033,3038.71678 1154.98524,3042.74187 1150.0348,3042.74187 L1150.0348,3042.74187 Z M1150.0348,3014.01407 C1139.14382,3014.01407 1130.28253,3022.87346 1130.28253,3033.76443 C1130.28253,3044.6554 1139.14382,3053.51479 1150.0348,3053.51479 C1160.92386,3053.51479 1169.78516,3044.6554 1169.78516,3033.76443 C1169.78516,3022.87346 1160.92386,3014.01407 1150.0348,3014.01407 L1150.0348,3014.01407 Z M954.379997,2897.42735 C955.431014,2898.47837 956.809521,2899.00578 958.188029,2899.00578 C959.566537,2899.00578 960.945044,2898.47837 961.997965,2897.42735 L1013.33786,2846.08555 C1015.43989,2843.98352 1015.43989,2840.57152 1013.33786,2838.46949 C1011.23202,2836.36365 1007.82192,2836.36365 1005.71989,2838.46949 L954.379997,2889.80938 C952.274155,2891.91142 952.274155,2895.32341 954.379997,2897.42735 L954.379997,2897.42735 Z M875.201483,2784.54775 C881.142014,2784.54775 885.974407,2779.71536 885.974407,2773.77483 C885.974407,2767.8343 881.142014,2763 875.201483,2763 C869.260953,2763 864.42856,2767.8343 864.42856,2773.77483 C864.42856,2779.71536 869.260953,2784.54775 875.201483,2784.54775 L875.201483,2784.54775 Z M741.590955,2887.95106 C739.485113,2890.0531 739.485113,2893.46509 741.590955,2895.56903 C743.692989,2897.67107 747.104986,2897.67107 749.20702,2895.57094 C752.708506,2892.06945 758.403418,2892.06945 761.904904,2895.57094 C762.955921,2896.62195 764.334429,2897.14746 765.712936,2897.14746 C767.091444,2897.14746 768.469952,2896.62195 769.522873,2895.56903 C771.624907,2893.46319 771.624907,2890.0531 769.522873,2887.95106 C761.821127,2880.25122 749.292701,2880.25313 741.590955,2887.95106 L741.590955,2887.95106 Z M944.235398,2873.05404 C945.286415,2874.10506 946.664923,2874.63247 948.045335,2874.63247 C949.421938,2874.63247 950.80235,2874.10506 951.853367,2873.05404 C959.355191,2865.55222 963.485002,2855.57898 963.485002,2844.97171 C963.485002,2834.36062 959.355191,2824.38929 951.853367,2816.88937 C949.749429,2814.78543 946.339336,2814.78543 944.235398,2816.88937 C942.13146,2818.9914 942.13146,2822.4015 944.235398,2824.50543 C949.701829,2829.97377 952.712078,2837.2395 952.712078,2844.97171 C952.712078,2852.70011 949.701829,2859.96964 944.235398,2865.43798 C942.13146,2867.5381 942.13146,2870.9501 944.235398,2873.05404 L944.235398,2873.05404 Z M695.357634,2827.79557 L688.259462,2827.79557 L688.259462,2820.6974 C688.259462,2817.72143 685.847073,2815.31094 682.871096,2815.31094 C679.897023,2815.31094 677.486538,2817.72143 677.486538,2820.6974 L677.486538,2827.79557 L670.386462,2827.79557 C667.412389,2827.79557 665,2830.20606 665,2833.18013 C665,2836.15611 667.412389,2838.56659 670.386462,2838.56659 L677.486538,2838.56659 L677.486538,2845.66667 C677.486538,2848.64074 679.897023,2851.05313 682.871096,2851.05313 C685.847073,2851.05313 688.259462,2848.64074 688.259462,2845.66667 L688.259462,2838.56659 L695.357634,2838.56659 C698.331707,2838.56659 700.744096,2836.15611 700.744096,2833.18013 C700.744096,2830.20606 698.331707,2827.79557 695.357634,2827.79557 L695.357634,2827.79557 Z" transform="translate(-665 -2763)"/>
</svg>
