<svg xmlns="http://www.w3.org/2000/svg" width="280" height="318" viewBox="0 0 280 318">
  <path fill-rule="evenodd" d="M1376.20595,4637.58295 L1321.16565,4637.58295 L1268.98961,4747.78151 L1376.20595,4637.58295 Z M1128.44534,4637.58295 L1241.16903,4749.71682 L1190.4712,4637.58295 L1128.44534,4637.58295 Z M1126.07505,4629.19659 L1187.16827,4629.19659 L1165.28264,4569.8728 L1126.07505,4629.19659 Z M1245.38985,4564.84468 L1172.37142,4564.84468 L1194.6183,4625.17114 L1245.38985,4564.84468 Z M1254.48029,4567.07489 L1202.19735,4629.19659 L1309.21831,4629.19659 L1254.48029,4567.07489 Z M1316.80843,4625.11585 L1336.64815,4564.84468 L1263.6887,4564.84468 L1316.80843,4625.11585 Z M1254.48767,4758.80358 L1311.87246,4637.58295 L1199.68698,4637.58295 L1254.48767,4758.80358 Z M1343.57104,4570.65799 L1324.29901,4629.19659 L1378.72001,4629.19659 L1343.57104,4570.65799 Z M1389.99643,4631.75489 C1390.64891,4633.3142 1390.31346,4635.10944 1389.14121,4636.31486 L1257.4146,4771.7241 C1257.2524,4771.88998 1257.03122,4771.97477 1256.84322,4772.11116 C1256.69945,4772.22175 1256.57412,4772.31759 1256.41561,4772.40606 C1255.80736,4772.7452 1255.14751,4772.9885 1254.43606,4772.99219 L1254.40288,4772.99219 L1254.37339,4772.99219 C1254.34759,4772.99219 1254.32915,4772.97376 1254.30704,4772.97376 C1253.6177,4772.95532 1252.97996,4772.72677 1252.38647,4772.39501 C1252.21321,4772.29916 1252.06945,4772.19963 1251.91462,4772.08167 C1251.76348,4771.96739 1251.58285,4771.90473 1251.44646,4771.77202 L1115.31839,4636.36278 C1114.11297,4635.16842 1113.7554,4633.35844 1114.4005,4631.78807 C1114.50372,4631.5374 1114.66591,4631.3236 1114.80968,4631.10242 L1114.77282,4631.07661 L1162.85336,4558.33096 C1163.62749,4557.15872 1164.95087,4556.56522 1166.35904,4556.55416 L1166.35904,4556.45463 L1254.32178,4556.45463 C1254.33284,4556.45463 1254.3439,4556.45095 1254.35496,4556.45095 L1254.40657,4556.45095 C1254.41763,4556.45095 1254.42868,4556.45463 1254.43974,4556.45463 L1342.4504,4556.45463 L1342.4504,4556.55785 C1343.92124,4556.56154 1345.28517,4557.22507 1346.04455,4558.48948 L1389.73102,4631.22775 L1389.69047,4631.25356 C1389.79369,4631.41944 1389.91902,4631.57058 1389.99643,4631.75489 L1389.99643,4631.75489 Z M1390.42036,4494.8527 C1388.60669,4493.40767 1385.97467,4493.69889 1384.52963,4495.50886 L1355.13868,4532.24295 C1353.68996,4534.05292 1353.98118,4536.69232 1355.79116,4538.14104 C1356.5616,4538.75666 1357.48686,4539.05893 1358.41213,4539.05893 C1359.64335,4539.05893 1360.85984,4538.52073 1361.68926,4537.48119 L1391.07284,4500.74711 C1392.51787,4498.93713 1392.23034,4496.29773 1390.42036,4494.8527 L1390.42036,4494.8527 Z M1145.583,4539.05893 C1146.50089,4539.05893 1147.42984,4538.75666 1148.20397,4538.14104 C1150.01026,4536.69232 1150.30148,4534.05292 1148.85644,4532.24295 L1119.46549,4495.50886 C1118.02783,4493.69889 1115.38843,4493.40398 1113.57108,4494.8527 C1111.76479,4496.29773 1111.47357,4498.93713 1112.9186,4500.74711 L1142.30218,4537.48119 C1143.13529,4538.52073 1144.34809,4539.05893 1145.583,4539.05893 L1145.583,4539.05893 Z M1248.09192,4506.73368 L1248.09192,4459.19871 C1248.09192,4456.87265 1249.97194,4455 1252.28694,4455 C1254.60194,4455 1256.48565,4456.87265 1256.48565,4459.19871 L1256.48565,4506.73368 C1256.48565,4509.05237 1254.60194,4510.93239 1252.28694,4510.93239 C1249.97194,4510.93239 1248.09192,4509.05237 1248.09192,4506.73368 L1248.09192,4506.73368 Z" transform="translate(-1112 -4455)"/>
</svg>
