<svg xmlns="http://www.w3.org/2000/svg" width="213" height="180" viewBox="0 0 213 180">
  <g fill-rule="evenodd">
    <path d="M106.155454,178.797099 L103.775432,176.398865 C93.1766962,165.725885 79.6684216,156.539194 65.3672732,146.81318 C33.2292627,124.961519 0,102.36181 0,61.0847364 C0,34.1172166 12.4044147,12.9029358 33.1858368,4.33961708 C55.645462,-4.91711611 83.3624297,2.76927842 106.152653,24.389802 C129.356122,2.29579539 156.435709,-5.32335894 179.119468,4.02302784 C199.903692,12.5891482 212.310908,33.9210994 212.310908,61.0847364 C212.310908,102.364611 179.081646,124.961519 146.943635,146.814581 C132.642487,156.540595 119.134212,165.727286 108.535477,176.398865 L106.155454,178.797099 Z M53.0987397,7.19032109 C47.0611307,7.19032109 41.2154364,8.28857757 35.7409641,10.5453265 C17.5622978,18.0370047 6.70861006,36.9314988 6.70861006,61.0847364 C6.70861006,98.810687 38.445981,120.394789 69.1383273,141.265864 C82.0946719,150.075731 95.4600611,159.164363 106.155454,169.341447 C116.850847,159.164363 130.216236,150.075731 143.169779,141.267265 C173.864927,120.394789 205.602298,98.8134886 205.602298,61.0847364 C205.602298,36.7339807 194.74721,17.7218163 176.56294,10.2287373 C155.690464,1.62059179 130.263865,9.56333955 108.535477,31.4458198 L106.155454,33.8440533 L103.775432,31.4458198 C88.1308801,15.6906021 69.8877753,7.19032109 53.0987397,7.19032109 L53.0987397,7.19032109 Z" transform="translate(0 .273)"/>
    <path d="M132.485453 129.172119C131.412411 129.172119 130.35618 128.660813 129.708993 127.704041 128.66677 126.171525 129.064608 124.085678 130.595723 123.043455 163.350102 100.771542 183.23779 85.5052167 183.23779 61.3589834 183.23779 41.7220454 174.048297 29.5263555 159.252653 29.5263555 157.400746 29.5263555 155.899048 28.0246579 155.899048 26.1727509 155.899048 24.3194431 157.400746 22.8163446 159.252653 22.8163446 177.899199 22.8163446 189.949202 37.9439871 189.949202 61.3589834 189.949202 88.8167962 168.95065 105.079117 134.369579 128.590771 133.791033 128.984406 133.135441 129.172119 132.485453 129.172119M38.2449608 90.0963211C37.3120032 90.0963211 36.3860497 89.7138925 35.7220528 88.9574403 27.176945 79.2328274 23.1943644 69.3205024 23.1943644 57.7621934 23.1943644 35.3684076 36.1282956 20.3192119 55.3786024 20.3192119 57.2319103 20.3192119 58.7336079 21.8223104 58.7336079 23.6728166 58.7336079 25.5261244 57.2319103 27.0292228 55.3786024 27.0292228 39.6654099 27.0292228 29.9043753 38.8060624 29.9043753 57.7621934 29.9043753 67.5960716 33.3546377 76.0991543 40.7636664 84.5265918 41.9865974 85.9190241 41.8479145 88.038491 40.456883 89.2628228 39.819502 89.8231578 39.0322314 90.0963211 38.2449608 90.0963211"/>
  </g>
</svg>
