<svg xmlns="http://www.w3.org/2000/svg" width="375" height="377" viewBox="0 0 375 377">
  <g fill-rule="evenodd">
    <path d="M132.532843,19.1995047 L45.2239882,125.893783 C41.3978847,129.6366 36.3578262,131.690986 30.9921955,131.690986 C25.5483266,131.690986 20.4325537,129.573505 16.581212,125.722163 C12.7399656,121.870822 10.6149134,116.755049 10.6149134,111.31118 C10.6149134,105.945549 12.6768702,100.892872 16.4272593,97.0642443 L121.465915,9.51310286 C123.714634,7.64043214 124.020016,4.28880586 122.13725,2.04008671 C120.262055,-0.211156244 116.910429,-0.514014041 114.66171,1.35865667 L9.43629181,89.0662747 C9.31010106,89.1747987 9.19400557,89.2782751 9.07538627,89.3943706 C3.22518316,95.2445737 -0.000252381498,103.033067 -0.000252381498,111.31118 C-0.000252381498,119.591817 3.22518316,127.370215 9.07538627,133.227989 C14.9255894,139.078192 22.7140824,142.303628 30.9921955,142.303628 C39.2728324,142.303628 47.0588016,139.078192 52.9090048,133.227989 C53.0351955,133.104322 53.151291,132.97056 53.2699103,132.836798 L140.750385,25.9254716 C142.607913,23.6515143 142.272245,20.3074595 140.008383,18.4575031 C137.734426,16.58988 134.392895,16.9331189 132.532843,19.1995047" transform="translate(0 234.526)"/>
    <path d="M234.653381,182.31421 C214.291242,219.048337 175.525444,241.871196 133.48121,241.871196 C114.017549,241.871196 94.6851266,236.848804 77.5559944,227.35926 C21.8326836,196.467764 1.62702086,125.990231 32.5185162,70.2618726 C52.8806554,33.5277456 91.6540248,10.7124582 133.690687,10.7124582 C153.149301,10.7124582 172.486771,15.7272786 189.608332,25.2168229 C216.610628,40.1830457 236.160099,64.7700512 244.667879,94.4349724 C253.173136,124.107465 249.619604,155.319485 234.653381,182.31421 L234.653381,182.31421 Z M45.9452118,249.238212 L15.3111457,218.604145 L32.3393253,201.575966 L32.3443729,201.522966 C40.8319627,212.983609 51.3764617,223.131869 63.8087742,231.374649 L45.9452118,249.238212 Z M254.876711,91.5149185 C245.5815,59.1141818 224.235073,32.2784572 194.756914,15.9367552 C176.057969,5.57144714 154.943733,0.0897210151 133.690687,0.0897210151 C87.7875403,0.0897210151 45.4606393,25.0048225 23.230877,65.11329 C0.355018111,106.380189 3.16654799,155.029246 26.3023599,192.60128 L0.299494181,218.604145 L45.9452118,264.249863 L73.1620325,237.033042 C91.6767392,247.125778 112.508308,252.486361 133.48121,252.486361 C179.376786,252.486361 221.711258,227.568736 243.94102,187.460269 C260.280199,157.984633 264.161826,123.913131 254.876711,91.5149185 L254.876711,91.5149185 Z" transform="translate(114.348 .346)"/>
    <path d="M247.82904,217.444957 C232.559959,217.444957 217.381736,213.500234 203.917183,206.03479 C160.128993,181.765785 144.259245,126.40338 168.525726,82.6151897 C184.529237,53.7553655 214.991683,35.8287077 248.038517,35.8287077 C263.310121,35.8287077 278.493392,39.7658591 291.942802,47.2338276 C313.157991,58.9872339 328.520452,78.3045138 335.208562,101.611945 C341.886577,124.919376 339.097761,149.435715 327.334259,170.650904 C311.33832,199.510728 280.868302,217.444957 247.82904,217.444957 Z M248.038517,25.2059705 C211.140342,25.2059705 177.109221,45.2349661 159.248182,77.4767025 C132.134838,126.37057 149.867162,188.216656 198.768601,215.319905 C213.80549,223.653542 230.770575,228.060123 247.82904,228.060123 C284.734786,228.060123 318.750765,208.033651 336.621899,175.796962 C349.750784,152.108435 352.875267,124.722519 345.407298,98.6817959 C337.941854,72.6486444 320.779912,51.075074 297.098956,37.9461885 C282.072162,29.6125515 265.107077,25.2059705 248.038517,25.2059705 Z"/>
    <path d="M282.923192,66.3711594 C255.726562,46.2260683 217.218193,51.9753188 197.090769,79.1643775 C190.233563,88.4293023 186.132364,99.3649926 185.233886,110.790303 C184.999171,113.712881 187.179747,116.266981 190.099801,116.501696 C190.248706,116.509268 190.39004,116.516839 190.52885,116.516839 C193.272237,116.516839 195.591622,114.40693 195.808671,111.625686 C196.560767,102.184094 199.950251,93.1463125 205.621263,85.4840102 C222.273394,62.9968188 254.108796,58.246999 276.603559,74.901654 C278.955755,76.6430864 282.282143,76.1509424 284.023575,73.7911754 C285.767532,71.4415037 285.275388,68.1125918 282.923192,66.3711594"/>
  </g>
</svg>
