<svg xmlns="http://www.w3.org/2000/svg" width="568" height="800" viewBox="0 0 568 800">
  <path fill-rule="evenodd" d="M187.887201,324.910778 L273.244847,324.910778 C340.880893,324.910778 374.698916,291.958125 374.698916,226.040923 C374.698916,200.392577 366.64473,179.467047 350.536357,163.252439 C334.439934,147.049726 311.699405,138.936474 282.362568,138.936474 C258.379256,138.936474 237.53875,145.883892 219.8291,159.778729 C202.1075,173.673567 193.252675,190.958839 193.252675,211.62265 L12.3561258,211.62265 C12.3561258,170.651915 23.8040643,134.130383 46.7118913,102.06995 C69.6077684,69.9976207 101.370421,44.9797764 141.987898,26.9807281 C182.605375,8.99357602 227.249945,0 275.921609,0 C362.892483,0 431.233569,19.7715917 480.980717,59.3147752 C530.715916,98.8579586 555.595465,153.188199 555.595465,222.305496 C555.595465,255.793481 545.30666,287.425648 524.729051,317.16631 C504.151441,346.918867 474.181263,371.056388 434.818518,389.578872 C476.332233,404.532477 508.895524,427.254342 532.520341,457.708779 C556.133208,488.175113 567.951591,525.850583 567.951591,570.735189 C567.951591,640.209374 541.112269,695.788722 487.421677,737.473233 C433.743034,779.157744 363.239028,800 275.921609,800 C224.740481,800 177.227951,790.280752 133.395969,770.866048 C89.5520372,751.451344 56.3673551,724.565786 33.8180231,690.173685 C11.2806409,655.793481 0,616.690459 0,572.876517 L181.983984,572.876517 C181.983984,596.75232 191.639448,617.416131 210.974275,634.867951 C230.297152,652.319772 254.089267,661.05163 282.362568,661.05163 C314.208869,661.05163 339.614211,652.236498 358.590543,634.594337 C377.554926,616.964073 387.043092,594.432548 387.043092,566.999762 C387.043092,527.813467 377.196431,500.023793 357.515058,483.63074 C337.833686,467.249584 310.62392,459.041161 275.921609,459.041161 L187.887201,459.041161 L187.887201,324.910778 Z"/>
</svg>
