<svg xmlns="http://www.w3.org/2000/svg" width="543" height="800" viewBox="0 0 543 800">
  <path d="M362.788256,360.183202 C345.696697,394.039971 317.543795,410.95646 278.365233,410.95646 C248.08332,410.95646 224.224123,398.929336 206.775747,374.875089 C189.315476,350.832739 180.597235,318.498691 180.597235,277.884844 C180.597235,239.412325 189.137068,206.638116 206.24052,179.550321 C223.332079,152.486319 244.527039,138.936474 269.8254,138.936474 C298.311332,138.936474 320.921668,150.880324 337.680197,174.74423 C354.414938,198.620033 362.788256,235.498453 362.788256,285.367595 L362.788256,360.183202 Z M507.049575,148.286938 C483.892118,101.094456 451.564452,64.5729241 410.078469,38.7342374 C368.568699,12.9193433 322.182423,0 270.883959,0 C220.311024,0 174.091263,12.4672853 132.236569,37.4018558 C90.3818751,62.3483226 57.8758,96.1931953 34.7302376,138.936474 C11.5727812,181.691649 0,228.015703 0,277.884844 C0,357.696883 20.6478399,421.460861 61.9792014,469.200571 C103.298669,516.952177 159.223867,540.816084 229.7429,540.816084 C277.830007,540.816084 321.290379,523.364264 360.112124,488.436831 C346.220029,593.540328 277.306674,649.119676 153.348272,655.174875 L119.15326,655.710207 L119.15326,800 L130.369224,800 C213.364977,800 286.024915,783.083512 348.360934,749.226743 C410.685059,715.38187 458.688908,666.928384 492.360587,603.866286 C526.020372,540.816084 542.850265,466.357364 542.850265,380.490126 L542.850265,311.551273 C542.124736,249.916726 530.195137,195.503212 507.049575,148.286938 L507.049575,148.286938 Z"/>
</svg>
