<svg xmlns="http://www.w3.org/2000/svg" width="541" height="800" viewBox="0 0 541 800">
  <path fill-rule="evenodd" d="M566.547099,800 L16.2411454,800 L16.2411454,680.83798 L269.733233,414.360211 C332.189902,343.222306 363.430294,286.721929 363.430294,244.822909 C363.430294,210.893745 356.027129,185.067069 341.232856,167.366993 C326.414469,149.678975 304.940467,140.828937 276.77468,140.828937 C248.958553,140.828937 226.399397,152.669179 209.073097,176.301432 C191.73474,199.9578 183.065561,229.486059 183.065561,264.862095 L0,264.862095 C0,216.476262 12.0934439,171.792012 36.2803316,130.809344 C60.4672193,89.838734 94.0467219,57.7784476 137.030897,34.6646571 C179.990957,11.5629239 228.027129,0 281.10324,0 C366.324039,0 431.951771,19.6895252 477.986436,59.0444612 C524.033157,98.4114544 547.05049,154.911831 547.05049,228.569706 C547.05049,259.641296 541.262999,289.868877 529.712133,319.300678 C518.149209,348.732479 500.195931,379.611153 475.828184,411.912585 C451.44838,444.238131 412.177845,487.475509 358.016579,541.636775 L256.192916,659.171063 L566.547099,659.171063 L566.547099,800 Z"/>
</svg>
