<svg xmlns="http://www.w3.org/2000/svg" width="180" height="180" viewBox="0 0 180 180">
  <path fill-rule="evenodd" d="M1254.67635,1764.27052 C1254.07696,1760.89427 1252.2065,1758.59418 1249.98815,1757.17431 C1247.68073,1758.06606 1246.23257,1760.56943 1246.23257,1763.80631 C1246.27763,1766.54441 1247.68597,1767.81653 1248.8575,1768.39391 C1250.41149,1769.15467 1252.33854,1769.05826 1253.54359,1768.16128 C1254.5988,1767.37328 1254.98023,1766.06553 1254.67635,1764.27052 M1229.42361,1769.40825 C1229.42361,1740.05833 1201.77543,1716.17935 1167.78971,1716.17935 C1159.26315,1716.17935 1151.01742,1717.65476 1143.28201,1720.56471 C1142.46781,1720.87174 1141.5593,1720.78162 1140.82265,1720.32684 C1134.22732,1716.25061 1127.21075,1712.52122 1119.08448,1708.79288 C1121.61091,1716.23699 1123.65636,1722.48547 1125.2376,1728.9016 C1125.49014,1729.93062 1125.14329,1731.01097 1124.33853,1731.70048 C1117.5965,1737.47636 1112.43362,1744.61868 1109.40945,1752.35933 C1109.06261,1753.24583 1108.28823,1753.89656 1107.35352,1754.08518 L1101.10609,1755.34577 C1100.92376,1755.38245 1100.73934,1755.40131 1100.55282,1755.40131 C1099.00825,1755.40131 1097.7508,1756.65666 1097.7508,1758.20228 L1097.7508,1780.61528 C1097.7508,1782.16089 1099.00825,1783.41624 1100.55282,1783.41624 C1100.73934,1783.41624 1100.92376,1783.43511 1101.10609,1783.47073 L1107.35352,1784.73238 C1108.28823,1784.92099 1109.06261,1785.57277 1109.40841,1786.45927 C1113.15141,1796.02427 1119.94374,1804.43661 1129.04977,1810.78674 C1129.66907,1811.21846 1130.08822,1811.88177 1130.21082,1812.62576 L1133.74006,1833.8337 L1145.79796,1833.84522 L1147.62964,1822.90646 C1147.75643,1822.13836 1148.19864,1821.4562 1148.84832,1821.02971 C1149.498,1820.59799 1150.2902,1820.46072 1151.05305,1820.64409 C1162.85631,1823.51108 1175.49997,1823.26273 1187.11147,1819.97031 C1187.36401,1819.9001 1187.62074,1819.86448 1187.87642,1819.86448 C1188.40245,1819.86448 1188.92325,1820.01118 1189.37698,1820.29934 C1190.04971,1820.72583 1190.51078,1821.42057 1190.64071,1822.20648 L1192.57299,1833.8337 L1204.62984,1833.84522 L1208.59081,1810.2146 C1208.70398,1809.53348 1209.06654,1808.91733 1209.6083,1808.4856 C1222.20166,1798.44696 1229.42361,1784.20425 1229.42361,1769.40825 M1269.73745,1773.10516 C1268.31758,1773.70978 1266.66823,1773.04228 1266.0657,1771.61717 C1264.03072,1766.80428 1261.80609,1763.37354 1259.62546,1761.03364 C1259.86647,1761.77239 1260.05928,1762.53419 1260.1976,1763.31591 C1260.85462,1767.20667 1259.64746,1770.59864 1256.8926,1772.65352 C1255.23381,1773.88792 1253.18522,1774.51874 1251.08842,1774.51874 C1249.49775,1774.51874 1247.88088,1774.15617 1246.38556,1773.41952 C1242.79868,1771.65804 1240.70189,1768.16967 1240.63063,1763.85242 C1240.63063,1760.50656 1241.64602,1757.54002 1243.40436,1755.32482 C1240.19262,1755.37302 1236.60679,1756.68705 1234.20611,1760.23935 C1234.74262,1763.22894 1235.0266,1766.28978 1235.0266,1769.40825 C1235.0266,1785.58639 1227.35615,1801.11799 1213.94126,1812.1846 L1210.16681,1834.75583 C1209.72461,1837.46877 1207.39518,1839.44716 1204.62984,1839.44716 L1192.58347,1839.44716 C1189.81918,1839.44716 1187.48975,1837.46877 1187.04545,1834.7443 L1185.61615,1826.15172 C1174.92364,1828.70959 1163.52066,1828.92545 1152.66992,1826.73958 L1151.33493,1834.75268 C1150.89168,1837.46877 1148.5612,1839.44716 1145.79796,1839.44716 L1133.75159,1839.44716 C1130.98624,1839.44716 1128.65682,1837.46877 1128.21147,1834.7443 L1124.87609,1814.69321 C1115.78787,1808.11361 1108.87504,1799.59438 1104.77261,1789.92774 L1100.24474,1789.01399 C1095.7525,1788.85262 1092.14781,1785.14629 1092.14781,1780.61528 L1092.14781,1758.20228 C1092.14781,1753.67232 1095.7525,1749.96494 1100.24474,1749.80356 L1104.77261,1748.88982 C1107.97177,1741.35769 1112.98375,1734.39771 1119.38103,1728.60086 C1117.64261,1721.91961 1115.34776,1715.19226 1112.49964,1706.8386 L1111.71163,1704.53013 C1111.35536,1703.48225 1111.65086,1702.31911 1112.46506,1701.56988 C1113.27821,1700.81751 1114.46126,1700.61527 1115.4756,1701.05538 C1125.91453,1705.56438 1134.57522,1709.9665 1142.60613,1714.84646 C1150.59618,1712.013 1159.06091,1710.57637 1167.78971,1710.57637 C1198.66429,1710.57637 1224.72808,1728.88588 1232.58714,1753.74252 C1236.3553,1750.52974 1241.40606,1749.08682 1246.59618,1749.97541 C1248.09569,1750.23319 1249.51766,1750.6733 1250.83903,1751.27583 C1256.93032,1750.67016 1265.18339,1755.15192 1271.22543,1769.4334 C1271.82901,1770.85851 1271.16256,1772.50263 1269.73745,1773.10516 M1153.78276,1679.75942 C1153.78276,1687.4833 1160.06687,1693.76741 1167.78971,1693.76741 C1175.51254,1693.76741 1181.7977,1687.4833 1181.7977,1679.75942 C1181.7977,1672.03553 1175.51254,1665.75142 1167.78971,1665.75142 C1160.06687,1665.75142 1153.78276,1672.03553 1153.78276,1679.75942 M1148.17873,1679.75942 C1148.17873,1668.94639 1156.97669,1660.14844 1167.78971,1660.14844 C1178.60273,1660.14844 1187.40068,1668.94639 1187.40068,1679.75942 C1187.40068,1690.57139 1178.60273,1699.36935 1167.78971,1699.36935 C1156.97669,1699.36935 1148.17873,1690.57139 1148.17873,1679.75942 M1182.56579,1722.04536 C1172.69271,1719.68659 1161.94361,1719.75994 1152.10931,1722.2696 C1150.6098,1722.64998 1149.70443,1724.17569 1150.08586,1725.6752 C1150.40965,1726.94208 1151.54974,1727.78562 1152.79986,1727.78562 C1153.02829,1727.78562 1153.26092,1727.75732 1153.49355,1727.69759 C1162.44764,1725.41323 1172.27042,1725.34512 1181.26223,1727.49431 C1182.77222,1727.85373 1184.27906,1726.92531 1184.63849,1725.42161 C1184.99895,1723.91581 1184.06949,1722.40687 1182.56579,1722.04536 M1131.36977,1749.79728 C1131.36977,1752.88746 1128.85696,1755.40131 1125.76573,1755.40131 C1122.6766,1755.40131 1120.16379,1752.88746 1120.16379,1749.79728 C1120.16379,1746.70919 1122.6766,1744.19534 1125.76573,1744.19534 C1128.85696,1744.19534 1131.36977,1746.70919 1131.36977,1749.79728" transform="translate(-1092 -1660)"/>
</svg>
