<svg xmlns="http://www.w3.org/2000/svg" width="65" height="65" viewBox="0 0 65 65">
  <g fill-rule="evenodd">
    <path d="M29.1204427,31.5117188 L31.5423177,31.5117188 C32.8834703,31.5117188 34.0553336,31.2740909 35.0579427,30.7988281 C36.0605519,30.3235653 36.8255182,29.6725302 37.3528646,28.8457031 C37.880211,28.0188761 38.1438802,27.0651096 38.1438802,25.984375 C38.1438802,24.1614492 37.6295625,22.7356822 36.6009115,21.7070312 C35.5722605,20.6783803 34.0944107,20.1640625 32.1673177,20.1640625 C30.344392,20.1640625 28.8502663,20.7011665 27.6848959,21.7753906 C26.5195255,22.8496147 25.936849,24.2656162 25.936849,26.0234375 L23.593099,26.0234375 C23.593099,24.552076 23.964189,23.2076884 24.7063802,21.9902344 C25.4485715,20.7727804 26.477207,19.8320346 27.7923177,19.1679688 C29.1074285,18.5039029 30.5657472,18.171875 32.1673177,18.171875 C34.7454556,18.171875 36.7766853,18.874993 38.2610677,20.28125 C39.7454502,21.687507 40.4876302,23.6145711 40.4876302,26.0625 C40.4876302,27.4296943 40.0546919,28.6894474 39.1888021,29.8417969 C38.3229124,30.9941464 37.1347732,31.856768 35.624349,32.4296875 C37.3951912,32.9244816 38.7363236,33.7740825 39.6477865,34.9785156 C40.5592494,36.1829487 41.014974,37.6184813 41.014974,39.2851562 C41.014974,41.7200643 40.2207111,43.6796801 38.6321615,45.1640625 C37.0436119,46.6484449 34.9212373,47.390625 32.264974,47.390625 C30.5722572,47.390625 29.0195384,47.0520867 27.6067709,46.375 C26.1940034,45.6979133 25.1002643,44.7506571 24.3255209,43.5332031 C23.5507774,42.3157491 23.1634115,40.8997477 23.1634115,39.2851562 L25.5071615,39.2851562 C25.5071615,41.0950611 26.1386656,42.5696558 27.4016927,43.7089844 C28.6647199,44.848313 30.2857974,45.4179688 32.264974,45.4179688 C34.2832133,45.4179688 35.8554632,44.9003958 36.9817709,43.8652344 C38.1080786,42.8300729 38.671224,41.3294369 38.671224,39.3632812 C38.671224,37.4622301 38.0625061,36.0104217 36.8450521,35.0078125 C35.6275981,34.0052033 33.8339963,33.5039062 31.4641927,33.5039062 L29.1204427,33.5039062 L29.1204427,31.5117188 Z"/>
    <path d="M46.091,3.085 C45.137,2.634 44.151,2.226 43.158,1.871 L42.486,3.755 C43.416,4.087 44.341,4.47 45.237,4.894 L46.091,3.085 Z M51.528,6.346 C50.681,5.718 49.794,5.125 48.891,4.583 L47.862,6.297 C48.709,6.806 49.542,7.363 50.337,7.953 L51.528,6.346 Z M40.119,0.954 C39.099,0.699 38.051,0.493 37.005,0.34 L36.716,2.319 C37.697,2.462 38.679,2.656 39.635,2.894 L40.119,0.954 Z M64.594,32.296 C64.594,31.778 64.582,31.262 64.558,30.75 L62.56,30.843 C62.583,31.325 62.594,31.809 62.594,32.296 L62.594,32.296 C62.594,49.002 49.003,62.593 32.297,62.593 C15.591,62.593 2,49.002 2,32.296 C2,15.591 15.591,2 32.297,2 C32.784,2 33.269,2.011 33.75,2.034 L33.844,0.036 C33.331,0.012 32.816,0 32.297,0 C14.488,0 0,14.488 0,32.296 C0,50.105 14.488,64.593 32.297,64.593 C50.106,64.593 64.594,50.105 64.594,32.296 Z M54.742,11.946 L56.224,10.603 C55.517,9.823 54.762,9.068 53.98,8.36 L52.637,9.842 C53.371,10.507 54.079,11.215 54.742,11.946 L54.742,11.946 Z M62.272,27.857 L64.25,27.567 C64.097,26.524 63.89,25.477 63.635,24.454 L61.695,24.938 C61.934,25.897 62.128,26.879 62.272,27.857 L62.272,27.857 Z M60.003,15.689 C59.459,14.785 58.865,13.898 58.238,13.053 L56.633,14.247 C57.221,15.039 57.779,15.871 58.288,16.719 L60.003,15.689 Z M60.833,22.09 L62.716,21.416 C62.36,20.422 61.951,19.436 61.501,18.486 L59.693,19.342 C60.115,20.233 60.499,21.158 60.833,22.09 L60.833,22.09 Z"/>
  </g>
</svg>
