<svg xmlns="http://www.w3.org/2000/svg" width="65" height="65" viewBox="0 0 65 65">
  <g fill-rule="evenodd">
    <polygon points="41.611 18.91 29.463 46 27.021 46 39.092 19.555 22.92 19.555 22.92 17.563 41.611 17.563"/>
    <path d="M46.091,3.085 C45.137,2.634 44.151,2.226 43.158,1.871 L42.486,3.755 C43.416,4.087 44.341,4.47 45.237,4.894 L46.091,3.085 Z M51.528,6.346 C50.681,5.718 49.794,5.125 48.891,4.583 L47.862,6.297 C48.709,6.806 49.542,7.363 50.337,7.953 L51.528,6.346 Z M40.119,0.954 C39.099,0.699 38.051,0.493 37.005,0.34 L36.716,2.319 C37.697,2.462 38.679,2.656 39.635,2.894 L40.119,0.954 Z M64.594,32.296 C64.594,31.778 64.582,31.262 64.558,30.75 L62.56,30.843 C62.583,31.325 62.594,31.809 62.594,32.296 L62.594,32.296 C62.594,49.002 49.003,62.593 32.297,62.593 C15.591,62.593 2,49.002 2,32.296 C2,15.591 15.591,2 32.297,2 C32.784,2 33.269,2.011 33.75,2.034 L33.844,0.036 C33.331,0.012 32.816,0 32.297,0 C14.488,0 0,14.488 0,32.296 C0,50.105 14.488,64.593 32.297,64.593 C50.106,64.593 64.594,50.105 64.594,32.296 Z M54.742,11.946 L56.224,10.603 C55.517,9.823 54.762,9.068 53.98,8.36 L52.637,9.842 C53.371,10.507 54.079,11.215 54.742,11.946 L54.742,11.946 Z M62.272,27.857 L64.25,27.567 C64.097,26.524 63.89,25.477 63.635,24.454 L61.695,24.938 C61.934,25.897 62.128,26.879 62.272,27.857 L62.272,27.857 Z M60.003,15.689 C59.459,14.785 58.865,13.898 58.238,13.053 L56.633,14.247 C57.221,15.039 57.779,15.871 58.288,16.719 L60.003,15.689 Z M60.833,22.09 L62.716,21.416 C62.36,20.422 61.951,19.436 61.501,18.486 L59.693,19.342 C60.115,20.233 60.499,21.158 60.833,22.09 L60.833,22.09 Z"/>
  </g>
</svg>
