<svg xmlns="http://www.w3.org/2000/svg" width="83" height="256" viewBox="0 0 83 256">
  <path fill-rule="evenodd" d="M74.4460711,251.46078 L7.78577269,251.46078 C3.9713115,247.816761 4.06192652,241.130666 4.15685655,234.054064 L4.16117156,233.646297 C4.17411656,232.699154 4.18490406,231.749853 4.18490406,230.811341 L4.18490406,228.873905 L78.0490972,228.873905 L78.0490972,230.811341 C78.0490972,231.747696 78.0598847,232.694839 78.0728297,233.639824 L78.0771447,234.049749 C78.1699173,241.126351 78.2583748,247.816761 74.4460711,251.46078 L74.4460711,251.46078 Z M4.18490406,224.746606 L78.0490972,224.746606 L78.0490972,129.471376 L4.18490406,129.471376 L4.18490406,224.746606 Z M4.18490406,118.077615 C4.17843156,109.313848 4.17627406,105.689246 12.5128567,99.3375645 C21.9670246,92.1487722 26.1094259,88.239381 26.1094259,80.9729187 C26.1094259,79.0570581 25.8224783,77.5403351 25.4902232,75.7819721 C25.0544081,73.4928638 24.5279779,67.2296394 24.4006854,61.37634 L57.8333159,61.37634 C57.7060233,67.2296394 57.1795932,73.4928638 56.743778,75.7819721 C56.4115229,77.5403351 56.1245754,79.0570581 56.1245754,80.9729187 C56.1245754,88.235066 60.2669767,92.1444572 69.7189871,99.339722 C78.0577272,105.680616 78.0555697,109.30306 78.0490972,118.066828 L78.0490972,125.344078 L4.18490406,125.344078 L4.18490406,118.077615 Z M28.5215117,40.9146036 C29.1191394,39.1648706 29.6865621,37.5122251 29.9929272,36.2802922 L30.0274472,36.2090947 L30.0274472,36.1832046 C30.0360772,36.1573146 30.0425497,36.1292671 30.0490222,36.1033771 C30.1180622,35.822902 30.1741572,35.5596869 30.2151497,35.3180469 C30.2324097,35.2533219 30.2561422,35.1540768 30.2712447,35.0354143 C30.3359698,34.6578517 30.3640173,34.3234391 30.3640173,34.0106015 L30.3640173,30.6837354 L51.865669,30.6837354 L51.865669,34.0106015 C51.865669,34.3126516 51.8980315,34.6578517 51.956284,35.0289418 C51.9670715,35.0979818 51.9864891,35.1842818 52.0080641,35.2921569 C52.0512141,35.5402694 52.1073091,35.7948545 52.1763491,36.0904321 C52.1914516,36.1573146 52.2065541,36.2177247 52.2281291,36.2781347 L52.2302866,36.2824497 C52.5560692,37.5316426 53.0824994,39.0785706 53.6930721,40.8692961 L53.9476572,40.7829961 L53.7168046,40.9383361 C55.2184251,45.3439525 57.2680507,51.3547494 57.7448584,57.2490412 L24.4869854,57.2490412 C24.9594781,51.3418044 27.0155762,45.3266925 28.5215117,40.9146036 L28.5215117,40.9146036 Z M27.7793315,7.82717325 C27.7793315,4.91238984 35.0565812,4.68800976 37.2874369,4.68800976 L44.9400918,4.68800976 C47.16879,4.68800976 54.4438823,4.91238984 54.4438823,7.82717325 L54.4438823,25.2576212 C54.4438823,26.0127465 53.6024571,26.282434 53.442802,26.3277416 C53.1882169,26.3881516 52.9638369,26.5024991 52.7588743,26.6427367 C52.6186368,26.6125316 52.4870292,26.5564366 52.3381617,26.5564366 L29.8958396,26.5564366 C29.7448146,26.5564366 29.6153645,26.6125316 29.4729695,26.6427367 C29.2701644,26.5003416 29.0436269,26.3881516 28.7890418,26.3255841 L28.7264743,26.5866416 L28.7868843,26.3234266 C28.7782543,26.321269 27.7793315,26.0645265 27.7793315,25.2576212 L27.7793315,7.82717325 Z M82.2044435,233.991497 L81.9347559,233.991497 L82.2044435,233.987182 L82.2001285,233.592359 C82.1871835,232.662476 82.176396,231.732593 82.176396,230.811341 L82.176396,118.066828 C82.1828685,108.75937 82.1871835,103.633148 72.2173729,96.0538484 C63.091145,89.1088537 60.2518741,86.1207153 60.2518741,80.9729187 C60.2518741,79.4475657 60.4935142,78.1703253 60.8020368,76.5457273 C61.302577,73.8920015 61.9908197,65.6719239 61.9908197,58.8326467 C61.9908197,58.7377167 61.9476697,58.6557317 61.9347247,58.5629592 C61.6930846,51.6007045 59.3586689,44.6967023 57.6110933,39.5704807 C57.0134656,37.8229052 56.4999805,36.3148122 56.2151904,35.2036993 C56.2087179,35.1734943 56.1979304,35.1432893 56.1893004,35.1109268 L56.1741979,35.0656193 C56.1288904,34.8714442 56.0943703,34.7031592 56.0641653,34.5348741 L56.0339603,34.3816916 C56.0015978,34.1832015 55.9929678,34.068854 55.9929678,34.0106015 L55.9929678,29.6653951 C57.0156231,29.0461924 58.5711811,27.704227 58.5711811,25.2576212 L58.5711811,7.82717325 C58.5711811,4.51325221 56.2065604,0.56071097 44.9400918,0.56071097 L37.2874369,0.56071097 C26.0188109,0.56071097 23.6520327,4.51325221 23.6520327,7.82717325 L23.6520327,25.2576212 C23.6520327,27.704227 25.2119057,29.0505074 26.2367185,29.6697101 L26.2367185,34.0106015 C26.2367185,34.0710115 26.230246,34.181044 26.2021985,34.3601166 L26.1590485,34.5499766 C26.1310009,34.7139467 26.1007959,34.8757592 26.0619609,35.0397293 C26.0382284,35.1152418 26.0209684,35.1864393 26.0080234,35.2425343 C25.7275483,36.3234422 25.2334807,37.7711251 24.661743,39.4496607 L24.6164355,39.5834257 C22.8753324,44.6729698 20.5344442,51.581287 20.2971191,58.5651167 C20.2841741,58.6578892 20.2431816,58.7377167 20.2431816,58.8326467 C20.2431816,65.6719239 20.9292668,73.8920015 21.4319645,76.5521998 C21.7383296,78.1703253 21.9821271,79.4475657 21.9821271,80.9729187 C21.9821271,86.1271878 19.1385413,89.1131687 10.0144709,96.0538484 C0.0468177647,103.639621 0.051132766,108.768 0.0576052681,118.079773 L0.0576052681,230.811341 C0.0576052681,231.868516 0.044660264,232.934321 0.0295577593,233.997969 C-0.0783172746,242.034659 -0.19266481,250.343194 5.70809954,255.126373 C6.07271715,255.424108 6.5322648,255.588078 7.00691495,255.588078 L75.2206138,255.588078 C75.6931065,255.588078 76.1548116,255.424108 76.5237443,255.126373 C82.4180361,250.343194 82.3101611,242.030344 82.2044435,233.991497 L82.2044435,233.991497 Z M62.4072173,208.545934 C62.4072173,210.213682 61.0523069,211.568592 59.3867164,211.568592 L22.8472849,211.568592 C21.1816944,211.568592 19.826784,210.213682 19.826784,208.545934 L19.826784,145.672049 C19.826784,144.004301 21.1816944,142.649391 22.8472849,142.649391 L59.3867164,142.649391 C61.0523069,142.649391 62.4072173,144.004301 62.4072173,145.672049 L62.4072173,208.545934 Z M59.3867164,138.522092 L22.8472849,138.522092 C18.9055312,138.522092 15.6994852,141.730295 15.6994852,145.672049 L15.6994852,208.545934 C15.6994852,212.489845 18.9055312,215.695891 22.8472849,215.695891 L59.3867164,215.695891 C63.3284701,215.695891 66.5345161,212.489845 66.5345161,208.545934 L66.5345161,145.672049 C66.5345161,141.730295 63.3284701,138.522092 59.3867164,138.522092 L59.3867164,138.522092 Z" transform="translate(0 .036)"/>
</svg>
