<svg xmlns="http://www.w3.org/2000/svg" width="307" height="448" viewBox="0 0 307 448">
  <path fill-rule="evenodd" d="M575.918672,558.960162 C574.794123,561.059319 572.635615,562.255713 570.405261,562.255713 C569.41191,562.255713 568.399816,562.018308 567.459569,561.512262 C558.881764,556.914108 550.76315,551.36946 543.328636,545.034505 C540.704689,542.794779 540.389191,538.852612 542.625793,536.228666 C544.862395,533.595349 548.807685,533.289222 551.431631,535.5227 C558.191416,541.282886 565.569703,546.321488 573.366572,550.501059 C576.402852,552.12853 577.546143,555.917634 575.918672,558.960162 L575.918672,558.960162 Z M828.970164,330.842405 C828.35791,342.80635 823.81286,353.954997 816.040982,362.826434 L745.875412,285.101401 C767.338667,269.891884 797.373479,272.812586 815.450594,292.820176 C824.884305,303.269104 829.685502,316.773056 828.970164,330.842405 L828.970164,330.842405 Z M824.72187,284.442291 C800.612803,257.756133 759.291899,255.650729 732.618237,279.741054 C730.059889,282.052625 729.856846,286.004163 732.171541,288.562511 L811.196053,376.105476 C812.429932,377.470553 814.12925,378.167148 815.837938,378.167148 C817.327965,378.167148 818.827363,377.636111 820.020633,376.555295 C832.946692,364.888106 840.55926,348.878911 841.446403,331.479649 C842.336671,314.07414 836.398431,297.374597 824.72187,284.442291 L824.72187,284.442291 Z M638.012483,434.8069 L750.414214,434.8069 C753.865953,434.8069 756.661705,437.602652 756.661705,441.054391 C756.661705,444.503006 753.865953,447.301882 750.414214,447.301882 L631.764992,447.301882 C628.313253,447.301882 625.517501,444.503006 625.517501,441.054391 L625.517501,318.719149 C625.517501,315.26741 628.313253,312.471658 631.764992,312.471658 C635.213607,312.471658 638.012483,315.26741 638.012483,318.719149 L638.012483,434.8069 Z M533.679386,516.942662 C535.794162,519.669692 535.297486,523.593116 532.570456,525.704768 C531.433413,526.591912 530.083955,527.016741 528.743868,527.016741 C526.882116,527.016741 525.035982,526.188948 523.805227,524.598962 C505.090868,500.464905 495.20109,471.576507 495.20109,441.054391 C495.210461,400.11146 513.415649,361.65503 545.149779,335.543642 C547.814334,333.344525 551.750253,333.731869 553.943123,336.396424 C556.135992,339.060979 555.754895,342.996898 553.087216,345.186644 C524.248799,368.920862 507.705443,403.866202 507.696072,441.054391 C507.696072,468.780755 516.679963,495.020217 533.679386,516.942662 L533.679386,516.942662 Z M631.764992,592.406104 C548.314133,592.406104 480.42265,524.511497 480.42265,441.054391 C480.42265,357.603532 548.314133,289.715173 631.764992,289.715173 C715.218975,289.715173 783.110458,357.603532 783.110458,441.054391 C783.110458,524.511497 715.218975,592.406104 631.764992,592.406104 L631.764992,592.406104 Z M696.223479,631.234259 C696.851352,632.199497 697.063766,633.352159 696.823238,634.482955 C696.58271,635.61375 695.911104,636.588359 694.936496,637.219356 C692.949794,638.518834 690.250878,637.937817 688.938905,635.932372 L666.469804,601.16821 C669.471723,600.515347 672.436157,599.775019 675.375602,598.962845 L696.223479,631.234259 Z M574.59108,635.93862 C573.291602,637.93157 570.605181,638.509462 568.593489,637.219356 C566.58492,635.916754 566.007027,633.227209 567.303382,631.221764 L588.166877,598.965969 C591.106322,599.778143 594.07388,600.521594 597.075799,601.171333 L574.59108,635.93862 Z M622.331281,277.220191 L641.198703,277.220191 L641.198703,265.684199 L622.331281,265.684199 L622.331281,277.220191 Z M589.316416,253.186094 C591.831031,231.988357 609.908145,215.494982 631.764992,215.494982 C653.63121,215.494982 671.714572,231.988357 674.232311,253.186094 L647.446194,253.186094 L616.08379,253.186094 L589.316416,253.186094 Z M653.693685,278.72896 L653.693685,265.681076 L680.776558,265.681076 C684.228296,265.681076 687.024049,262.885323 687.024049,259.433585 L687.024049,258.259056 C687.024049,227.78692 662.237129,203 631.764992,203 C601.305351,203 576.521554,227.78692 576.521554,258.259056 L576.521554,259.433585 C576.521554,262.885323 579.32043,265.681076 582.769045,265.681076 L609.836299,265.681076 L609.836299,278.72896 C529.834055,289.484016 467.927669,358.153311 467.927669,441.054391 C467.927669,511.757245 512.943964,572.139244 575.818712,595.05504 L556.810721,624.436989 C551.775243,632.224487 554.014969,642.664044 561.811837,647.712016 C564.632579,649.530036 567.790686,650.395314 570.920679,650.395314 C576.443461,650.395314 581.856912,647.693274 585.074369,642.732766 C585.077493,642.732766 585.077493,642.729642 585.080617,642.726519 L608.511831,606.500443 C609.149075,605.510216 609.664493,604.47938 610.073704,603.42043 C617.177101,604.366925 624.405448,604.901085 631.764992,604.901085 C639.130784,604.901085 646.368502,604.363801 653.478147,603.417306 C653.890481,604.485627 654.405899,605.522711 655.040019,606.506691 L678.452491,642.726519 C678.455615,642.732766 678.458739,642.739014 678.464986,642.742137 C681.691815,647.699521 687.105266,650.398437 692.618677,650.398437 C695.751793,650.398437 698.916147,649.530036 701.727518,647.705769 C705.50725,645.256753 708.106206,641.486392 709.04333,637.085035 C709.980454,632.693048 709.146414,628.194855 706.706768,624.440113 L687.720644,595.051916 C750.589144,572.132996 795.605439,511.754121 795.605439,441.054391 C795.605439,358.156435 733.699053,289.484016 653.693685,278.72896 L653.693685,278.72896 Z M447.498374,362.826434 C439.717124,353.958121 435.175198,342.80635 434.566068,330.842405 C433.847606,316.776179 438.65505,303.269104 448.098133,292.817052 C458.48771,281.30605 472.844444,275.452151 487.251158,275.452151 C497.887511,275.452151 508.548854,278.644619 517.670191,285.101401 L447.498374,362.826434 Z M532.979667,284.05807 C532.89845,282.405609 532.154998,280.853107 530.927366,279.741054 C504.244333,255.650729 462.920305,257.749886 438.823733,284.442291 C427.144049,297.371473 421.199561,314.07414 422.086705,331.479649 C422.973848,348.878911 430.586416,364.888106 443.518722,376.558419 C444.715117,377.636111 446.211391,378.167148 447.701417,378.167148 C449.410106,378.167148 451.109423,377.470553 452.340179,376.105476 L531.377186,288.562511 C532.489239,287.334879 533.064008,285.713655 532.979667,284.05807 L532.979667,284.05807 Z" transform="translate(-422 -203)"/>
</svg>
