<svg xmlns="http://www.w3.org/2000/svg" width="177" height="177" viewBox="0 0 177 177">
  <path fill-rule="evenodd" d="M941.00439,611.931044 C934.758426,611.931044 929.679669,606.852288 929.679669,600.606323 C929.679669,594.360359 934.758426,589.281602 941.00439,589.281602 C947.250355,589.281602 952.329111,594.360359 952.329111,600.606323 C952.329111,606.852288 947.250355,611.931044 941.00439,611.931044 L941.00439,611.931044 Z M956.644112,600.606323 C956.644112,591.982793 949.62792,584.966601 941.00439,584.966601 C932.38086,584.966601 925.364668,591.982793 925.364668,600.606323 C925.364668,609.229854 932.38086,616.246046 941.00439,616.246046 C949.62792,616.246046 956.644112,609.229854 956.644112,600.606323 L956.644112,600.606323 Z M1065.60005,676.666852 L897.315001,676.666852 L897.315001,670.190035 L911.340913,670.190035 L1008.42844,670.190035 L1051.5763,670.190035 L1065.60005,670.190035 L1065.60005,676.666852 Z M1010.10698,698.237544 L983.612871,698.237544 L983.612871,680.981854 L1006.65498,680.981854 L1010.10698,698.237544 Z M952.805919,698.237544 L956.25792,680.981854 L979.29787,680.981854 L979.29787,698.237544 L952.805919,698.237544 Z M913.498414,573.09819 L1049.4188,573.09819 L1049.4188,659.907387 L1047.63455,656.785483 L1018.32921,605.499535 C1015.79199,601.059399 1012.27527,598.612793 1008.42844,598.612793 L1008.42629,598.612793 C1004.57946,598.612793 1001.06274,601.059399 998.527673,605.499535 L979.259035,639.214798 L969.381996,630.43377 C964.1479,625.792986 955.625772,625.786514 950.38736,630.435928 L913.498414,663.227781 L913.498414,573.09819 Z M1009.24829,665.875034 L1005.30007,662.36478 L982.553538,642.144684 L983.459688,640.561078 L1002.27525,607.639776 C1004.00988,604.602015 1006.19543,602.927794 1008.42629,602.927794 C1010.66146,602.927794 1012.84701,604.602015 1014.58164,607.639776 L1035.96247,645.055152 L1047.85677,665.875034 L1009.24829,665.875034 Z M953.252521,633.661391 C956.849075,630.470448 962.924597,630.47692 966.516836,633.659234 L978.378774,644.207255 L995.936515,659.814614 L1002.75422,665.875034 L917.01514,665.875034 L953.252521,633.661391 Z M1067.75755,665.875034 L1053.7338,665.875034 L1053.7338,570.940689 C1053.7338,569.747591 1052.7694,568.783188 1051.5763,568.783188 L983.612871,568.783188 L983.612871,560.157501 C983.612871,558.964403 982.648468,558 981.45537,558 C980.262272,558 979.29787,558.964403 979.29787,560.157501 L979.29787,568.783188 L911.340913,568.783188 C910.147815,568.783188 909.183413,569.747591 909.183413,570.940689 L909.183413,665.875034 L895.157501,665.875034 C893.964403,665.875034 893,666.839437 893,668.032535 L893,678.824353 C893,680.017451 893.964403,680.981854 895.157501,680.981854 L951.856618,680.981854 L941.589073,732.334685 C941.558868,732.47708 941.545923,732.617317 941.545923,732.759712 C941.545923,733.767265 942.253583,734.6691 943.280553,734.871905 C943.422948,734.90211 943.565343,734.915055 943.705581,734.915055 C944.713134,734.915055 945.614969,734.207395 945.817774,733.180425 L951.942918,702.552545 L979.29787,702.552545 L979.29787,732.757555 C979.29787,733.950653 980.262272,734.915055 981.45537,734.915055 C982.648468,734.915055 983.612871,733.950653 983.612871,732.757555 L983.612871,702.552545 L1010.97214,702.552545 L1017.09944,733.180425 C1017.30224,734.207395 1018.20408,734.915055 1019.21163,734.915055 C1019.34971,734.915055 1019.49426,734.90211 1019.63666,734.871905 C1020.66363,734.6691 1021.37129,733.767265 1021.37129,732.759712 C1021.37129,732.617317 1021.35835,732.47708 1021.32814,732.334685 L1011.05628,680.981854 L1067.75755,680.981854 C1068.95065,680.981854 1069.91506,680.017451 1069.91506,678.824353 L1069.91506,668.032535 C1069.91506,666.839437 1068.95065,665.875034 1067.75755,665.875034 L1067.75755,665.875034 Z" transform="translate(-893 -558)"/>
</svg>
