<svg xmlns="http://www.w3.org/2000/svg" width="266" height="455" viewBox="0 0 266 455">
  <path fill-rule="evenodd" d="M204.818077,3182.91396 L168.602245,3146.6906 C166.465918,3144.5618 166.465918,3141.09545 168.602245,3138.95536 C170.74234,3136.81526 174.208691,3136.81526 176.348786,3138.95536 L212.572153,3175.17873 C214.712248,3177.31882 214.712248,3180.77387 212.572153,3182.91396 C211.483267,3183.98401 210.092959,3184.51903 208.70265,3184.51903 C207.297271,3184.51903 205.906963,3183.98401 204.818077,3182.91396 L204.818077,3182.91396 Z M431.151952,3146.6906 L394.939888,3182.91396 C393.851002,3183.98401 392.460694,3184.51903 391.051547,3184.51903 C389.661239,3184.51903 388.25586,3183.98401 387.185812,3182.91396 C385.045717,3180.77387 385.045717,3177.30752 387.185812,3175.17873 L423.409179,3138.95536 C425.549274,3136.81526 429.015625,3136.81526 431.151952,3138.95536 C433.292047,3141.09545 433.292047,3144.5618 431.151952,3146.6906 L431.151952,3146.6906 Z M294.408177,3144.70121 L294.408177,3093.47081 C294.408177,3090.44905 296.857229,3088 299.886518,3088 C302.896968,3088 305.349789,3090.44905 305.349789,3093.47081 L305.349789,3144.70121 C305.349789,3147.72297 302.896968,3150.17202 299.886518,3150.17202 C296.857229,3150.17202 294.408177,3147.72297 294.408177,3144.70121 L294.408177,3144.70121 Z M281.070261,3299.31553 C281.070261,3296.29378 283.526849,3293.84473 286.559906,3293.84473 L313.861187,3293.84473 C316.875405,3293.84473 319.324458,3296.29378 319.324458,3299.31553 C319.324458,3302.33729 316.875405,3304.78634 313.861187,3304.78634 L286.559906,3304.78634 C283.526849,3304.78634 281.070261,3302.33729 281.070261,3299.31553 L281.070261,3299.31553 Z M347.156995,3303.30937 C349.108701,3305.60771 348.829886,3309.06653 346.512706,3311.01824 L319.324458,3334.06193 L319.324458,3401.49376 C319.324458,3404.51552 316.875405,3406.96457 313.861187,3406.96457 C310.831898,3406.96457 308.382846,3404.51552 308.382846,3401.49376 L308.382846,3331.52245 C308.382846,3329.91738 309.094955,3328.3839 310.334552,3327.35153 L339.448132,3302.66885 C341.746473,3300.71714 345.212824,3300.99973 347.156995,3303.30937 L347.156995,3303.30937 Z M287.629953,3327.35153 C288.850712,3328.3839 289.562821,3329.91738 289.562821,3331.52245 L289.562821,3401.49376 C289.562821,3404.51552 287.110001,3406.96457 284.09955,3406.96457 C281.070261,3406.96457 278.621209,3404.51552 278.621209,3401.49376 L278.621209,3334.06193 L251.432961,3311.01824 C249.130852,3309.06653 248.836965,3305.60771 250.807511,3303.30937 C252.751681,3300.99973 256.199193,3300.71714 258.516374,3302.66885 L287.629953,3327.35153 Z M375.697873,3324.10371 C347.955762,3370.52267 344.756923,3396.60696 344.756923,3412.18293 L344.756923,3430.25317 L254.997274,3430.25317 L254.997274,3412.18293 C254.997274,3388.09556 244.598221,3358.4658 224.018647,3324.04343 C215.386679,3310.04238 210.823906,3293.91255 210.823906,3277.39086 C210.823906,3228.29302 250.773601,3188.34332 299.890286,3188.34332 C348.980597,3188.34332 388.930291,3228.29302 388.930291,3277.39086 C388.930291,3293.91255 384.367518,3310.04238 375.697873,3324.10371 L375.697873,3324.10371 Z M254.895544,3464.084 L343.973227,3464.084 L343.973227,3441.19855 L254.895544,3441.19855 L254.895544,3464.084 Z M334.079056,3497.91483 L331.407705,3497.91483 L267.476137,3497.91483 L264.778412,3497.91483 L264.778412,3475.02938 L334.079056,3475.02938 L334.079056,3497.91483 Z M272.939408,3531.7419 L325.91806,3531.7419 L325.91806,3508.85645 L272.939408,3508.85645 L272.939408,3531.7419 Z M299.890286,3177.40171 C244.748932,3177.40171 199.878527,3222.25705 199.878527,3277.39086 C199.878527,3295.94714 204.995162,3314.05129 214.655731,3329.71769 C234.169026,3362.36167 244.051894,3390.10002 244.051894,3412.18293 L244.051894,3435.20402 C244.036823,3435.38488 243.946396,3435.54312 243.946396,3435.72774 L243.946396,3469.55481 C243.946396,3472.57656 246.406752,3475.02561 249.409667,3475.02561 L253.851871,3475.02561 L253.851871,3503.38564 C253.851871,3506.40363 256.285852,3508.85645 259.315141,3508.85645 L261.997796,3508.85645 L261.997796,3537.2127 C261.997796,3540.23069 264.446848,3542.68351 267.476137,3542.68351 L331.407705,3542.68351 C334.418155,3542.68351 336.870975,3540.23069 336.870975,3537.2127 L336.870975,3508.85645 L339.553629,3508.85645 C342.582919,3508.85645 345.031971,3506.40363 345.031971,3503.38564 L345.031971,3475.02561 L349.455336,3475.02561 C352.465786,3475.02561 354.918606,3472.57656 354.918606,3469.55481 L354.918606,3438.38026 C355.370739,3437.58149 355.702303,3436.71113 355.702303,3435.72774 L355.702303,3412.18293 C355.702303,3403.08376 355.702303,3378.91727 385.064556,3329.78174 C394.759035,3314.05129 399.875671,3295.93584 399.875671,3277.39086 C399.875671,3222.25705 355.024104,3177.40171 299.890286,3177.40171 L299.890286,3177.40171 Z" transform="translate(-167 -3088)"/>
</svg>
