<svg xmlns="http://www.w3.org/2000/svg" width="130" height="117" viewBox="0 0 130 117">
  <path fill-rule="evenodd" d="M489.80264,672.608924 C493.360359,672.608924 496.255725,675.502133 496.255725,679.062009 C496.255725,682.61757 493.360359,685.510778 489.80264,685.510778 C486.244922,685.510778 483.349556,682.61757 483.349556,679.062009 C483.349556,675.502133 486.244922,672.608924 489.80264,672.608924 L489.80264,672.608924 Z M489.80264,689.392122 C495.5006,689.392122 500.134911,684.757811 500.134911,679.062009 C500.134911,673.36405 495.5006,668.727581 489.80264,668.727581 C484.104681,668.727581 479.47037,673.36405 479.47037,679.062009 C479.47037,684.757811 484.104681,689.392122 489.80264,689.392122 L489.80264,689.392122 Z M461.448766,705.245437 C465.006485,705.245437 467.899693,708.138646 467.899693,711.698522 C467.899693,715.254083 465.006485,718.149449 461.448766,718.149449 C457.891048,718.149449 454.997839,715.254083 454.997839,711.698522 C454.997839,708.138646 457.891048,705.245437 461.448766,705.245437 L461.448766,705.245437 Z M451.116496,711.698522 C451.116496,717.394323 455.750807,722.028635 461.448766,722.028635 C467.146726,722.028635 471.781037,717.394323 471.781037,711.698522 C471.781037,706.000562 467.146726,701.364093 461.448766,701.364093 C455.750807,701.364093 451.116496,706.000562 451.116496,711.698522 L451.116496,711.698522 Z M417.407705,702.803146 C422.311704,702.803146 426.30308,706.794523 426.30308,711.698522 C426.30308,716.602521 422.311704,720.593897 417.407705,720.593897 C412.501549,720.593897 408.51233,716.602521 408.51233,711.698522 C408.51233,706.794523 412.501549,702.803146 417.407705,702.803146 L417.407705,702.803146 Z M417.407705,724.473083 C424.451945,724.473083 430.184424,718.742761 430.184424,711.698522 C430.184424,704.652124 424.451945,698.921803 417.407705,698.921803 C410.363465,698.921803 404.630986,704.652124 404.630986,711.698522 C404.630986,718.742761 410.363465,724.473083 417.407705,724.473083 L417.407705,724.473083 Z M396.846724,731.43318 L517.153276,731.43318 L517.153276,653.113748 L396.846724,653.113748 L396.846724,731.43318 Z M431.530705,623.130961 L440.51238,626.218345 C439.522087,631.547372 442.130505,636.835406 446.984882,638.803046 C448.231917,639.307901 449.545835,639.562487 450.892116,639.562487 C455.045304,639.562487 458.969798,637.079203 461.025896,633.269057 L507.476886,649.232405 L400.25989,649.232405 L431.530705,623.130961 Z M521.002258,651.012343 C520.989313,650.863475 520.961265,650.725395 520.915958,650.585158 C520.885753,650.492385 520.855548,650.40177 520.812398,650.313312 C520.74983,650.188177 520.667845,650.078145 520.579387,649.968112 C520.51682,649.8926 520.46504,649.817087 520.391685,649.750205 C520.290282,649.657432 520.169462,649.588392 520.046485,649.517195 C519.958027,649.467572 519.880357,649.40932 519.785427,649.372642 C519.763852,649.364012 519.746592,649.346752 519.725017,649.338122 L460.577136,629.012308 C459.560953,628.660636 458.462785,629.197853 458.11327,630.209721 C458.072278,630.324069 458.039915,630.442731 458.007553,630.585126 C456.771305,633.633675 453.912617,635.681143 450.892116,635.681143 C450.046375,635.681143 449.22221,635.523645 448.441195,635.206493 C444.937414,633.786857 443.286926,629.573258 444.680671,625.614245 C444.853271,625.12665 444.820909,624.591589 444.596529,624.123412 C444.372149,623.657392 443.970853,623.301404 443.481101,623.135276 L431.7594,619.107223 C431.116464,618.882843 430.404489,619.016608 429.884531,619.452423 L393.662253,649.683322 C393.636363,649.704897 393.62126,649.735102 393.597528,649.756677 C393.541433,649.810615 393.498283,649.868867 393.446503,649.929277 C393.3451,650.04794 393.2588,650.173075 393.18976,650.311155 C393.15524,650.380195 393.122877,650.447077 393.096987,650.52259 C393.03442,650.69519 392.9999,650.874263 392.989112,651.059808 C392.984797,651.098643 392.96538,651.133163 392.96538,651.174155 L392.96538,733.372773 C392.96538,734.445051 393.834853,735.312367 394.904973,735.312367 L519.095027,735.264902 C520.165147,735.264902 521.03462,734.395429 521.03462,733.323151 L521.03462,651.174155 C521.03462,651.115903 521.006573,651.068438 521.002258,651.012343 L521.002258,651.012343 Z M439.248084,665.944405 C445.973014,665.944405 451.442278,671.415827 451.442278,678.138599 C451.442278,684.861371 445.973014,690.332792 439.248084,690.332792 C432.525312,690.332792 427.053891,684.861371 427.053891,678.138599 C427.053891,671.415827 432.525312,665.944405 439.248084,665.944405 L439.248084,665.944405 Z M439.248084,694.214136 C448.113255,694.214136 455.323622,687.003769 455.323622,678.138599 C455.323622,669.273428 448.113255,662.063061 439.248084,662.063061 C430.385072,662.063061 423.174704,669.273428 423.174704,678.138599 C423.174704,687.003769 430.385072,694.214136 439.248084,694.214136 L439.248084,694.214136 Z" transform="translate(-392 -619)"/>
</svg>
