<svg xmlns="http://www.w3.org/2000/svg" width="352" height="165" viewBox="0 0 352 165">
  <path fill-rule="evenodd" d="M1102.32161,2361.75977 C1102.32161,2358.61335 1100.67401,2356.08751 1097.37881,2354.17862 C1094.07997,2352.27698 1087.81981,2350.29913 1078.59106,2348.24507 C1069.36231,2346.19827 1061.74487,2343.50549 1055.73874,2340.17037 C1049.73261,2336.83887 1045.15634,2332.79608 1042.0063,2328.03109 C1038.85626,2323.27337 1037.28124,2317.81523 1037.28124,2311.66031 C1037.28124,2300.74767 1041.78493,2291.75844 1050.79593,2284.69262 C1059.80331,2277.61954 1071.59419,2274.08845 1086.17221,2274.08845 C1101.8462,2274.08845 1114.44274,2277.64132 1123.96545,2284.74343 C1133.48452,2291.84916 1138.24588,2301.19042 1138.24588,2312.75993 L1101.11313,2312.75993 C1101.11313,2303.24085 1096.09411,2298.47949 1086.06333,2298.47949 C1082.18022,2298.47949 1078.9213,2299.55733 1076.28296,2301.71663 C1073.64825,2303.87957 1072.32727,2306.57234 1072.32727,2309.79497 C1072.32727,2313.09017 1073.93858,2315.7648 1077.1612,2317.81523 C1080.38382,2319.86566 1085.52986,2321.54956 1092.59931,2322.86691 C1099.66513,2324.18427 1105.87448,2325.76292 1111.22012,2327.59198 C1129.08971,2333.74327 1138.02813,2344.76841 1138.02813,2360.66016 C1138.02813,2371.50385 1133.21234,2380.32614 1123.58077,2387.13792 C1113.94919,2393.94971 1101.47967,2397.35741 1086.17221,2397.35741 C1075.98901,2397.35741 1066.90905,2395.52473 1058.92507,2391.86299 C1050.9411,2388.20124 1044.71359,2383.22215 1040.24982,2376.92206 C1035.7788,2370.62198 1033.54691,2363.99528 1033.54691,2357.0347 L1068.15382,2357.0347 C1068.29899,2362.52913 1070.13167,2366.53564 1073.64825,2369.06873 C1077.1612,2371.59094 1081.66852,2372.85749 1087.15932,2372.85749 C1092.21462,2372.85749 1096.00338,2371.83046 1098.53285,2369.78003 C1101.05869,2367.73323 1102.32161,2365.05497 1102.32161,2361.75977 L1102.32161,2361.75977 Z M987.726147,2295.84115 C987.726147,2284.34423 986.223708,2275.75419 983.222458,2270.07468 C980.21758,2264.40243 975.456227,2261.56449 968.942028,2261.56449 C962.569363,2261.56449 957.935027,2264.1992 955.04265,2269.47226 C952.150273,2274.74531 950.593398,2282.73292 950.372024,2293.42419 L950.372024,2334.29489 C950.372024,2346.23456 951.874463,2354.96613 954.879342,2360.49685 C957.880591,2366.02756 962.641944,2368.78929 969.159772,2368.78929 C975.456227,2368.78929 980.108707,2366.09652 983.113586,2360.71822 C986.114835,2355.33267 987.653565,2346.89142 987.726147,2335.39087 L987.726147,2295.84115 Z M1024.75002,2329.78757 C1024.75002,2351.39874 1019.89794,2368.05985 1010.19378,2379.77815 C1000.48962,2391.49645 986.811619,2397.35741 969.159772,2397.35741 C951.362763,2397.35741 937.590404,2391.46379 927.849952,2379.66928 C918.109501,2367.8784 913.239275,2351.24995 913.239275,2329.78757 L913.239275,2300.56622 C913.239275,2278.9623 918.091356,2262.29756 927.795516,2250.57564 C937.499677,2238.86096 951.213971,2233 968.942028,2233 C986.662826,2233 1000.3989,2238.89726 1010.13935,2250.68814 C1019.8798,2262.48265 1024.75002,2279.14013 1024.75002,2300.67509 L1024.75002,2329.78757 Z M790.075551,2317.02047 L799.855922,2235.19559 L893.348287,2235.19559 L893.348287,2263.76008 L829.959142,2263.76008 L826.333691,2295.75768 C828.968403,2294.2117 832.430546,2292.85442 836.71649,2291.67497 C840.998804,2290.49552 845.190392,2289.90761 849.294882,2289.90761 C865.186624,2289.90761 877.398479,2294.61452 885.934076,2304.02836 C894.466043,2313.43856 898.733842,2326.64116 898.733842,2343.63251 C898.733842,2353.88829 896.443892,2363.17148 891.867622,2371.4857 C887.287723,2379.7963 880.860622,2386.18711 872.586319,2390.6545 C864.308387,2395.1219 854.531644,2397.35741 843.252463,2397.35741 C833.218056,2397.35741 823.804222,2395.28521 815.018219,2391.15532 C806.228587,2387.02179 799.340592,2381.34591 794.361494,2374.13856 C789.382396,2366.93121 786.925509,2358.79118 787.00172,2349.71485 L824.134469,2349.71485 C824.501006,2355.5613 826.366353,2360.20289 829.737768,2363.63963 C833.105555,2367.07637 837.540291,2368.78929 843.031089,2368.78929 C855.482464,2368.78929 861.709965,2359.57869 861.709965,2341.16111 C861.709965,2324.13346 854.092526,2315.61601 838.857647,2315.61601 C830.213178,2315.61601 823.767931,2318.39589 819.521908,2323.94838 L790.075551,2317.02047 Z" transform="translate(-787 -2233)"/>
</svg>
