<svg xmlns="http://www.w3.org/2000/svg" width="353" height="165" viewBox="0 0 353 165">
  <path fill-rule="evenodd" d="M615.99051,694.569552 C615.99051,691.43053 614.346778,688.910624 611.059313,687.006211 C607.768228,685.10904 601.52277,683.135837 592.315697,681.086603 C583.108624,679.04461 575.509077,676.358157 569.517058,673.030867 C563.525038,669.707196 558.959517,665.673897 555.816875,660.920108 C552.674233,656.173559 551.102912,650.728244 551.102912,644.587781 C551.102912,633.70077 555.596021,624.732654 564.585861,617.683432 C573.57208,610.626969 585.335265,607.104168 599.879038,607.104168 C615.516217,607.104168 628.083166,610.648692 637.583504,617.73412 C647.080222,624.823168 651.830391,634.142478 651.830391,645.68481 L614.784865,645.68481 C614.784865,636.188092 609.777637,631.437923 599.770421,631.437923 C595.896426,631.437923 592.645167,632.513228 590.013023,634.667459 C587.3845,636.82531 586.066618,639.511762 586.066618,642.726816 C586.066618,646.01428 587.674144,648.68263 590.889198,650.728244 C594.104251,652.773858 599.238199,654.453795 606.291042,655.768057 C613.340263,657.082319 619.535034,658.657261 624.868113,660.482021 C642.695729,666.618863 651.613157,677.618111 651.613157,693.472524 C651.613157,704.290744 646.80868,713.092315 637.199725,719.888098 C627.590771,726.683881 615.150541,730.083583 599.879038,730.083583 C589.719758,730.083583 580.661128,728.255202 572.695906,724.602062 C564.730683,720.948921 558.51781,715.981518 554.064526,709.696234 C549.604002,703.410949 547.37736,696.799815 547.37736,689.855589 L581.902979,689.855589 C582.047801,695.33711 583.876181,699.334204 587.3845,701.861351 C590.889198,704.377638 595.385928,705.641211 600.863829,705.641211 C605.907263,705.641211 609.687123,704.616594 612.21065,702.57098 C614.730557,700.528987 615.99051,697.857017 615.99051,694.569552 L615.99051,694.569552 Z M501.664224,628.805779 C501.664224,617.335859 500.165314,608.766004 497.171114,603.099834 C494.173294,597.440905 489.423125,594.609631 482.924228,594.609631 C476.566532,594.609631 471.943082,597.238154 469.0575,602.498822 C466.171917,607.759489 464.618698,615.728332 464.397844,626.394489 L464.397844,667.169187 C464.397844,679.080815 465.896755,687.791872 468.894575,693.309599 C471.888774,698.827326 476.638943,701.582569 483.141461,701.582569 C489.423125,701.582569 494.064678,698.896116 497.062498,693.530453 C500.056697,688.157548 501.591813,679.736136 501.664224,668.262595 L501.664224,628.805779 Z M538.601133,662.672457 C538.601133,684.232866 533.76045,700.854837 524.079084,712.545611 C514.397718,724.236385 500.751844,730.083583 483.141461,730.083583 C465.386256,730.083583 451.646247,724.2038 441.928676,712.436994 C432.211105,700.673809 427.352319,684.084423 427.352319,662.672457 L427.352319,633.519743 C427.352319,611.966575 432.193002,595.340983 441.874368,583.646588 C451.555734,571.959435 465.237813,566.112237 482.924228,566.112237 C500.603401,566.112237 514.307204,571.99564 524.024776,583.758826 C533.742347,595.525631 538.601133,612.143982 538.601133,633.628359 L538.601133,662.672457 Z M413.648516,727.889526 L302.287465,727.889526 L302.287465,703.776625 L353.583497,649.848449 C366.222857,635.45674 372.544347,624.023025 372.544347,615.543684 C372.544347,608.67549 371.045437,603.451028 368.051238,599.870298 C365.053418,596.289569 360.708751,594.497394 355.009996,594.497394 C349.380032,594.497394 344.814511,596.890581 341.306193,601.680576 C337.801495,606.46333 336.045526,612.437247 336.045526,619.598706 L299,619.598706 C299,609.808724 301.447496,600.764576 306.342487,592.473503 C311.237478,584.17881 318.033261,577.694395 326.729836,573.016637 C335.42279,568.3425 345.143982,566 355.886171,566 C373.127257,566 386.411075,569.986232 395.726765,577.947834 C405.042455,585.913056 409.70211,597.346771 409.70211,612.256219 C409.70211,618.541504 408.532671,624.656622 406.193792,630.616057 C403.854913,636.56825 400.219875,642.81733 395.288678,649.356053 C390.357481,655.894777 382.410361,664.64566 371.450939,675.608702 L350.842737,699.392132 L413.648516,699.392132 L413.648516,727.889526 Z" transform="translate(-299 -566)"/>
</svg>
