<svg xmlns="http://www.w3.org/2000/svg" width="329" height="409" viewBox="0 0 329 409">
  <path fill-rule="evenodd" d="M216.399904,171.072156 C188.546489,180.786151 160.163857,191.977326 133.515666,203.556186 C160.884288,128.35324 198.30996,58.6733145 217.663072,34.1040233 C216.017478,59.5997823 213.782792,113.627173 216.399904,171.072156 M322.838154,348.152767 C270.229367,360.870825 251.461484,272.349406 244.241731,180.088318 C252.96222,177.040517 261.819841,174.324734 270.706435,171.698416 C278.694905,169.338508 286.565556,166.68038 294.807046,165.101806 C301.290918,163.859226 307.894539,163.133559 314.519407,162.938722 C318.494327,162.821423 325.443678,164.308543 326.036632,159.282554 C327.411824,147.610252 312.771446,139.606047 289.060987,146.74144 C285.526437,147.807077 281.856685,149.039716 278.07491,150.421466 C269.924198,152.916567 249.856451,160.03009 242.982427,162.211067 C239.41311,105.605074 239.641021,49.9613357 238.53237,17.7357618 C238.115177,5.61414276 232.575783,0.568272787 225.533723,0.0493712648 C216.635541,-0.604722991 208.592991,5.29604221 201.761458,14.4473974 C184.247086,37.8973723 136.043932,128.426801 102.830748,217.419406 C55.7227251,239.567157 18.0247183,261.559833 5.05504334,276.043349 C-0.291205393,282.011711 -7.0937661,299.336262 18.0942504,303.272756 C35.9833241,306.070053 13.4220771,296.996235 39.6530757,277.085128 C52.1920377,267.565969 70.8961825,256.474201 93.0460309,244.945044 C71.4485767,309.06815 60.3369549,368.594704 77.4244775,396.921558 C90.4038097,418.435096 114.83663,403.593717 115.924035,394.786308 C116.685026,388.646967 103.711488,396.130283 101.316492,372.256836 C97.3010114,332.233823 107.95488,280.526579 124.634867,229.290521 C153.942663,215.411396 186.389062,201.637642 217.431298,189.867922 C223.534674,284.465061 244.17413,380.899231 303.091027,369.576839 C331.612724,364.097557 333.750837,345.514521 322.838154,348.152767"/>
</svg>
