<svg xmlns="http://www.w3.org/2000/svg" width="369" height="408" viewBox="0 0 369 408">
  <path fill-rule="evenodd" d="M516.451035,1353.92085 C512.279996,1415.24728 506.926487,1430.36021 503.249493,1432.2068 L503.132056,1440.90119 L503.132056,1432.223 C499.438864,1432.223 490.14919,1425.20917 481.969093,1419.00526 C470.107953,1410.0436 455.347334,1398.89113 436.350882,1390.06311 C390.837959,1368.90014 385.245526,1333.993 383.196453,1297.05298 C382.305551,1281.13014 382.277204,1255.88928 384.403219,1227.04836 C387.007082,1228.52645 389.643341,1230.02478 392.328194,1231.55146 L401.395143,1279.65205 C402.172657,1283.81904 405.817254,1286.71852 409.899203,1286.71852 C410.441843,1286.71852 410.984484,1286.66588 411.527124,1286.56464 C416.236753,1285.68184 419.338711,1281.14229 418.43971,1276.43266 L412.094061,1242.76468 C427.992605,1251.77493 441.643647,1259.49338 445.077668,1261.43716 C446.434268,1262.19848 447.892107,1262.55484 449.349946,1262.55484 C452.362813,1262.55484 455.310888,1260.95932 456.906411,1258.14893 C459.263251,1253.98194 457.785164,1248.67702 453.618175,1246.32018 C444.838744,1241.35948 430.859688,1233.45475 416.398736,1225.26656 L454.245855,1199.38182 C458.194169,1196.67267 459.210607,1191.26651 456.517654,1187.3182 C453.788256,1183.36989 448.398301,1182.38584 444.449987,1185.0464 L399.576894,1215.73796 C394.887511,1213.08145 390.360111,1210.51809 386.136428,1208.12075 C388.857727,1181.8999 393.36083,1153.88914 400.799858,1127.43341 C400.852503,1127.23094 406.934931,1107.11681 418.540949,1107.11681 C423.777021,1107.11681 430.418287,1110.93149 437.776324,1118.11539 L442.502152,1122.72378 C481.932647,1161.069 526.63566,1204.51665 516.451035,1353.92085 M319.108231,1297.05298 C317.042959,1334.01325 311.434329,1368.91634 265.953802,1390.06311 C246.941152,1398.91138 232.196731,1410.0598 220.335591,1419.00526 C212.135246,1425.20917 202.849622,1432.223 199.172628,1432.223 L199.103786,1432.223 C195.357949,1430.36021 190.020639,1415.24728 185.853649,1353.92085 C175.652826,1204.54905 220.335591,1161.08925 259.766086,1122.73998 L264.512161,1118.11539 C271.866149,1110.93149 278.507416,1107.11681 283.743487,1107.11681 C295.353555,1107.11681 301.435983,1127.23094 301.488627,1127.41722 C308.866912,1153.64617 313.361916,1181.4423 316.091314,1207.50117 C311.576063,1210.07264 306.765195,1212.81418 301.82474,1215.62862 L257.121728,1185.0464 C253.226058,1182.38584 247.803707,1183.36989 245.05811,1187.3182 C242.365157,1191.26651 243.381595,1196.67267 247.329909,1199.38182 L285.047443,1225.18557 C265.253229,1236.46357 247.921144,1246.33638 247.921144,1246.33638 L256.530493,1261.42097 C256.530493,1261.42097 271.517888,1252.88046 289.493852,1242.63104 L283.136054,1276.43266 C282.253252,1281.14229 285.334961,1285.68184 290.048641,1286.56464 C290.591281,1286.66588 291.133921,1286.71852 291.676561,1286.71852 C295.75851,1286.71852 299.403108,1283.81904 300.180622,1279.65205 L309.267818,1231.35709 C312.171347,1229.70487 315.04653,1228.06885 317.84882,1226.46928 C320.015331,1255.54506 319.995083,1281.0046 319.108231,1297.05298 M454.602216,1110.28761 L449.908784,1105.71161 C439.096479,1095.13823 428.555493,1089.76447 418.540949,1089.76447 C398.633348,1089.76447 387.517325,1110.49009 384.091404,1122.70759 C377.182867,1147.28837 372.582575,1173.43633 369.610203,1198.74604 C364.904623,1196.06928 361.709526,1194.24698 360.927962,1193.78938 C360.211191,1192.74055 359.352686,1188.88943 359.13401,1185.81177 L359.13401,1050.67414 C359.13401,1045.87947 355.250489,1042 350.455819,1042 C345.661148,1042 341.781677,1045.87947 341.781677,1050.67414 L341.781677,1186.18028 C341.781677,1186.21672 341.797875,1186.24507 341.797875,1186.27746 C341.797875,1186.31391 341.781677,1186.35036 341.781677,1186.3868 C341.830272,1188.80844 341.340276,1192.74055 341.866718,1192.82559 C340.825983,1193.41683 337.379813,1195.37681 332.60539,1198.09406 C329.62492,1172.97873 325.040826,1147.06565 318.193032,1122.72378 C314.77116,1110.49009 303.655138,1089.76447 283.743487,1089.76447 C273.728943,1089.76447 263.192007,1095.13823 252.379701,1105.71161 L247.666022,1110.30381 C205.542574,1151.27718 157.790249,1197.7215 168.533712,1355.10737 C173.07731,1421.71846 178.32958,1449.55914 199.15238,1449.57533 L199.172628,1449.57533 C208.680978,1449.57533 217.946354,1442.56151 230.791536,1432.85068 C241.992599,1424.39521 255.939258,1413.85423 273.271344,1405.79157 C327.409814,1380.61145 334.156369,1338.75527 336.428168,1298.02082 C337.610638,1276.62704 337.343367,1247.93595 334.609919,1216.91638 C342.887205,1212.19865 348.953435,1208.74438 350.423422,1207.90613 C350.544909,1207.83728 350.589454,1207.70365 350.706891,1207.63076 C350.731188,1207.6429 350.739288,1207.67125 350.759535,1207.68745 C352.330762,1208.68364 358.793848,1212.42543 367.621873,1217.47522 C364.93297,1248.30446 364.689997,1276.77282 365.876516,1298.02082 C368.132117,1338.73908 374.858424,1380.61145 429.03334,1405.79157 C446.365426,1413.85423 460.295887,1424.39521 471.4929,1432.85068 C484.342131,1442.56151 493.623706,1449.57533 503.132056,1449.57533 C523.958906,1449.57533 529.227374,1421.71846 533.766922,1355.10737 C544.494187,1197.6891 496.741862,1151.26098 454.602216,1110.28761" transform="translate(-167 -1042)"/>
</svg>
