<svg xmlns="http://www.w3.org/2000/svg" width="61" height="47" viewBox="0 0 61 47">
  <path fill-rule="evenodd" d="M152.03757,226.677895 C156.915924,226.677895 162.031445,227.729507 165.525995,229.376213 L165.525995,191.304384 C162.453515,189.530977 157.040249,188.318218 152.03757,188.318218 C147.037267,188.318218 141.62598,189.530581 138.553104,191.303196 L138.553104,229.375026 C142.047654,227.729111 147.161987,226.677895 152.03757,226.677895 L152.03757,226.677895 Z M122.774176,226.676707 C127.64184,226.676707 132.747067,227.727527 136.23647,229.373442 L136.23647,191.302404 C133.169137,189.529393 127.766957,188.316634 122.774176,188.316634 C117.78496,188.316634 112.384363,189.528997 109.31703,191.301612 L109.31703,229.37265 C112.805641,227.727527 117.909284,226.676707 122.774176,226.676707 L122.774176,226.676707 Z M167.843025,231.321062 L167.843025,231.332148 C167.843025,231.354321 167.837878,231.374909 167.836295,231.396686 C167.833523,231.449742 167.830751,231.502401 167.820457,231.554665 C167.812934,231.593467 167.799472,231.629893 167.78799,231.667112 C167.7773,231.701954 167.769777,231.736797 167.755919,231.770847 C167.734142,231.823903 167.705635,231.873 167.676731,231.9217 C167.667229,231.937537 167.661686,231.954167 167.651787,231.969608 C167.650995,231.970796 167.649808,231.971588 167.649016,231.97238 C167.599919,232.046816 167.540925,232.113334 167.475991,232.173913 C167.45659,232.192522 167.435209,232.207963 167.41462,232.224989 C167.367108,232.26379 167.31722,232.298633 167.264164,232.329912 C167.23922,232.344166 167.214276,232.35842 167.18854,232.370694 C167.131921,232.398409 167.07253,232.41979 167.011159,232.438003 C166.988591,232.444734 166.96721,232.453445 166.944246,232.458988 C166.860703,232.477993 166.773992,232.490663 166.68451,232.490663 C166.68451,232.490663 166.684114,232.490267 166.684114,232.490267 C166.683719,232.490267 166.683719,232.490663 166.683323,232.490663 C166.614033,232.490663 166.544744,232.481952 166.475455,232.469282 C166.456846,232.466115 166.438633,232.46176 166.420024,232.457404 C166.36974,232.445526 166.319851,232.430085 166.270755,232.411079 C166.253334,232.404349 166.235517,232.398805 166.218491,232.391283 C166.159892,232.365547 166.102085,232.335455 166.04705,232.299029 C163.096123,230.353389 157.335223,228.994925 152.03757,228.994925 C146.743085,228.994925 140.983768,230.352993 138.032445,232.297841 C138.01344,232.310511 137.992456,232.318034 137.972659,232.32912 C137.948111,232.343374 137.924354,232.356836 137.899014,232.36911 C137.877238,232.3798 137.857441,232.392074 137.834872,232.401181 C137.797258,232.417019 137.758456,232.425729 137.72005,232.436815 C137.697878,232.443546 137.676893,232.451861 137.65472,232.457404 C137.642446,232.460176 137.630568,232.464135 137.618294,232.466511 C137.563259,232.477201 137.508223,232.480369 137.453188,232.48314 C137.433391,232.483932 137.414782,232.489079 137.394985,232.489079 C137.394589,232.489079 137.394589,232.489079 137.394193,232.489079 C137.394193,232.489079 137.393797,232.489079 137.393797,232.489079 C137.391817,232.489079 137.390234,232.488683 137.38865,232.488683 C137.378751,232.488683 137.368853,232.486704 137.358559,232.486704 C137.300752,232.484724 137.242945,232.478389 137.185534,232.468095 C137.184346,232.467699 137.183554,232.467699 137.182366,232.467699 C137.164945,232.464531 137.147919,232.460176 137.130498,232.45582 C137.081006,232.444338 137.032306,232.429293 136.984397,232.410684 C136.972123,232.406328 136.959453,232.403953 136.947575,232.399201 C136.94124,232.39643 136.935301,232.39247 136.928966,232.389699 C136.869971,232.363963 136.812164,232.333872 136.756337,232.297049 C136.755545,232.296653 136.754357,232.295861 136.753565,232.295466 C136.752773,232.29507 136.751981,232.294278 136.751189,232.293882 C133.80343,230.350617 128.057971,228.993737 122.774176,228.993737 C117.498696,228.993737 111.759969,230.348242 108.809437,232.288339 C108.742128,232.334267 108.669275,232.372278 108.592859,232.403161 C108.577022,232.409496 108.560788,232.412267 108.544951,232.41781 C108.489519,232.437607 108.434088,232.45582 108.375489,232.467303 C108.350149,232.472054 108.324809,232.471658 108.299469,232.474826 C108.252748,232.480369 108.20682,232.489079 108.158515,232.489079 C108.154556,232.489079 108.150992,232.487891 108.147429,232.487891 C108.142678,232.487891 108.137926,232.486704 108.133175,232.486308 C107.740404,232.477993 107.395542,232.275273 107.192822,231.969212 C107.192426,231.968421 107.191634,231.968025 107.191238,231.967233 C107.186091,231.959314 107.183319,231.950207 107.178172,231.941893 C107.14333,231.886461 107.111655,231.82905 107.08671,231.76768 C107.074436,231.737589 107.067705,231.706705 107.058203,231.676218 C107.045533,231.635041 107.030487,231.595051 107.022173,231.551894 C107.012274,231.501214 107.009898,231.450534 107.007127,231.399457 C107.005543,231.376097 107,231.354321 107,231.330564 L107,231.318686 L107,231.317102 L107,190.654253 C107,190.652273 107.000396,190.65069 107.000396,190.64871 C107.000792,190.573482 107.008315,190.498649 107.022964,190.425005 C107.02336,190.423421 107.02336,190.421837 107.023756,190.42065 C107.038802,190.346609 107.06137,190.274548 107.09067,190.204467 C107.096213,190.191005 107.104924,190.179523 107.110863,190.166457 C107.189654,189.9966 107.310811,189.845351 107.469979,189.726966 C107.484628,189.716276 107.496902,189.702814 107.511948,189.692519 C107.515116,189.69054 107.517491,189.687768 107.520263,189.685788 C110.860793,187.481205 116.990708,186 122.774176,186 C128.210803,186 133.950719,187.307784 137.395381,189.294997 C140.845586,187.308972 146.593816,186.001584 152.03757,186.001584 C157.834897,186.001584 163.977085,187.483184 167.322367,189.687768 C167.323951,189.688956 167.325138,189.69054 167.326722,189.691727 C167.377006,189.725382 167.422539,189.764976 167.466884,189.805758 C167.512021,189.847331 167.551615,189.892072 167.588833,189.939189 C167.607442,189.962549 167.628823,189.983534 167.645848,190.008478 C167.670396,190.0453 167.68861,190.08529 167.708802,190.124488 C167.723056,190.152204 167.740873,190.178335 167.752752,190.207239 C167.775716,190.261878 167.791158,190.319289 167.805411,190.3767 C167.810163,190.396101 167.816894,190.414315 167.820853,190.433716 C167.834711,190.504984 167.842234,190.577441 167.84263,190.650294 C167.84263,190.651877 167.843025,190.653461 167.843025,190.655441 L167.843025,231.319478 L167.843025,231.321062 Z M161.972054,206.168298 C158.872255,204.935743 155.344446,204.256709 152.03757,204.256709 C148.706542,204.256709 145.158936,204.944057 142.04805,206.19245 C141.454539,206.430805 141.1659,207.105088 141.404255,207.698995 C141.58599,208.151552 142.020334,208.426333 142.479623,208.426333 C142.623348,208.426333 142.76945,208.39941 142.910799,208.34279 C145.754031,207.202093 148.995181,206.573739 152.03757,206.573739 C155.057786,206.573739 158.281911,207.194174 161.116036,208.32141 C161.710735,208.558577 162.384226,208.267562 162.620601,207.672863 C162.856976,207.07856 162.566754,206.404673 161.972054,206.168298 L161.972054,206.168298 Z M161.972054,201.012391 C158.872255,199.77944 155.344446,199.100802 152.03757,199.100802 C148.706146,199.100802 145.15854,199.788151 142.04805,201.036544 C141.454143,201.275294 141.1659,201.949577 141.404255,202.543484 C141.58599,202.995646 142.020334,203.270823 142.479623,203.270823 C142.623348,203.270823 142.76945,203.243503 142.910799,203.18728 C145.753635,202.04579 148.994785,201.417436 152.03757,201.417436 C155.057786,201.417436 158.281911,202.038267 161.116036,203.165107 C161.710735,203.402274 162.384226,203.11126 162.620601,202.516956 C162.856976,201.922653 162.566754,201.24837 161.972054,201.012391 L161.972054,201.012391 Z M141.404255,197.387182 C141.1659,196.793274 141.454539,196.118992 142.04805,195.880637 C145.159728,194.631848 148.707334,193.944499 152.03757,193.944499 C155.344841,193.944499 158.87265,194.623533 161.97245,195.856485 C162.566754,196.093256 162.856976,196.766746 162.620601,197.361446 C162.38383,197.956145 161.710735,198.24518 161.11564,198.009596 C158.281911,196.88236 155.058182,196.261529 152.03757,196.261529 C148.995577,196.261529 145.754823,196.889883 142.910799,198.030977 C142.76945,198.087596 142.623348,198.11452 142.479623,198.11452 C142.020334,198.11452 141.58599,197.839739 141.404255,197.387182 L141.404255,197.387182 Z" transform="translate(-107 -186)"/>
</svg>
