<svg xmlns="http://www.w3.org/2000/svg" width="964" height="800" viewBox="0 0 964 800">
  <g fill-rule="evenodd">
    <polygon points="344.031 11.907 .819 129.97 .819 266.726 179.133 214.901 179.133 789.717 360.674 789.717 360.674 11.907"/>
    <path d="M782.111203,306.015165 C782.111203,250.111613 774.770143,208.347461 760.088024,180.746495 C745.405905,153.15742 722.127334,139.339099 690.264267,139.339099 C659.118567,139.339099 636.461714,152.158505 622.329576,177.80921 C608.173527,203.448022 600.569433,242.274888 599.505338,294.266025 L599.505338,492.990607 C599.505338,551.034691 606.834441,593.512353 621.51656,620.399809 C636.198679,647.287265 659.465294,660.725047 691.340318,660.725047 C722.127334,660.725047 744.86788,647.64402 759.549999,621.458183 C774.232118,595.284237 781.752519,554.245488 782.111203,498.330044 L782.111203,306.015165 Z M963.114947,471.085833 C963.114947,576.150262 939.382043,657.169386 891.952103,714.143204 C844.498252,771.128914 777.627656,799.621769 691.340318,799.621769 C604.335612,799.621769 537.010684,770.962429 489.401402,713.608072 C441.768209,656.277498 417.963568,575.436752 417.963568,471.085833 L417.963568,328.990205 C417.963568,223.937667 441.67256,142.906651 489.126412,85.9209414 C536.568307,28.9471234 603.606288,0.454268389 690.264267,0.454268389 C776.910289,0.454268389 844.055875,29.125501 891.677113,86.4560744 C939.286394,143.79854 963.114947,224.817663 963.114947,329.525338 L963.114947,471.085833 Z"/>
  </g>
</svg>
