<svg xmlns="http://www.w3.org/2000/svg" width="292" height="292" viewBox="0 0 292 292">
  <path fill-rule="evenodd" d="M1116.83014,1349.22803 C1094.78425,1346.82564 1073.36092,1356.74741 1060.93767,1375.14579 C1059.63645,1377.06957 1060.14311,1379.68509 1062.06876,1380.98443 C1062.79228,1381.47239 1063.61115,1381.70609 1064.42067,1381.70609 C1065.77049,1381.70609 1067.09601,1381.05548 1067.90927,1379.85335 C1078.58074,1364.0518 1096.96977,1355.51537 1115.91592,1357.59246 C1118.23418,1357.8355 1120.30192,1356.1772 1120.55431,1353.86642 C1120.8067,1351.5575 1119.13905,1349.48042 1116.83014,1349.22803 L1116.83014,1349.22803 Z M1296.93828,1396.17277 C1296.70459,1394.3649 1295.77916,1392.75708 1294.33585,1391.64282 C1291.42494,1389.39747 1286.99221,1389.99012 1284.76556,1392.8786 L1254.6151,1431.9693 L1271.85435,1431.9693 L1295.5735,1401.21498 C1296.68589,1399.77168 1297.17198,1397.98064 1296.93828,1396.17277 L1296.93828,1396.17277 Z M1302.23476,1406.35254 L1277.25365,1438.7446 C1276.45535,1439.7766 1275.22704,1440.38234 1273.92209,1440.38234 L1246.05998,1440.38234 C1244.4559,1440.38234 1242.99203,1439.46999 1242.2872,1438.03043 C1241.57677,1436.59086 1241.74877,1434.8746 1242.73029,1433.60704 L1278.1043,1387.74104 C1281.01334,1383.97013 1285.41429,1381.80891 1290.17607,1381.80891 C1293.56746,1381.80891 1296.78124,1382.90448 1299.47341,1384.98156 C1302.69841,1387.46808 1304.76054,1391.05951 1305.28215,1395.0959 C1305.80375,1399.13229 1304.72128,1403.13128 1302.23476,1406.35254 L1302.23476,1406.35254 Z M1115.61679,1428.15539 L1138.1469,1342.63595 C1131.42208,1341.16086 1124.55892,1340.41304 1117.6864,1340.41304 C1067.46432,1340.41304 1026.52648,1378.61383 1022.65462,1428.15539 L1115.61679,1428.15539 Z M1118.86049,1436.56843 L1018.20693,1436.56843 C1017.06836,1436.56843 1015.97467,1436.10665 1015.18384,1435.28591 C1014.38928,1434.46704 1013.96489,1433.36026 1014.00228,1432.21982 C1015.89801,1376.02261 1061.44245,1332 1117.6864,1332 C1126.68087,1332 1135.66599,1333.17596 1144.38564,1335.49421 C1146.62911,1336.08874 1147.96585,1338.38643 1147.3732,1340.63177 L1122.92679,1433.43504 C1122.4407,1435.28217 1120.77118,1436.56843 1118.86049,1436.56843 L1118.86049,1436.56843 Z M1269.42392,1457.27197 L1028.36239,1457.27197 L1028.36239,1458.74145 C1028.36239,1485.97538 1050.51672,1508.13158 1077.75065,1508.13158 L1220.03566,1508.13158 C1247.26772,1508.13158 1269.42392,1485.97538 1269.42392,1458.74145 L1269.42392,1457.27197 Z M1277.83695,1453.06546 L1277.83695,1458.74145 C1277.83695,1490.61377 1251.90611,1516.54462 1220.03566,1516.54462 L1077.75065,1516.54462 C1045.87834,1516.54462 1019.94936,1490.61377 1019.94936,1458.74145 L1019.94936,1453.06546 C1019.94936,1450.74159 1021.83201,1448.85894 1024.15588,1448.85894 L1273.63044,1448.85894 C1275.95243,1448.85894 1277.83695,1450.74159 1277.83695,1453.06546 L1277.83695,1453.06546 Z M1227.54569,1571.70422 C1225.01057,1571.005 1222.48852,1572.86148 1222.48852,1575.49196 L1222.48852,1576.04161 C1222.48852,1577.85695 1223.75048,1579.3526 1225.49104,1579.86673 C1230.57065,1581.36799 1234.07608,1586.57286 1232.86647,1592.34046 C1232.02517,1596.34881 1228.78522,1599.58876 1224.77874,1600.43006 C1219.00927,1601.64341 1213.80253,1598.13798 1212.30127,1593.05651 C1211.78714,1591.31594 1210.28962,1590.05399 1208.47615,1590.05399 L1207.92649,1590.05399 C1205.29602,1590.05399 1203.43767,1592.57603 1204.13876,1595.11303 C1206.6608,1604.24771 1215.84223,1610.65097 1226.10987,1608.74775 C1233.68908,1607.34371 1239.78199,1601.24893 1241.18416,1593.66785 C1243.08364,1583.40208 1236.68225,1574.22439 1227.54569,1571.70422 L1227.54569,1571.70422 Z M1247.92768,1590.05399 C1247.92768,1576.02478 1236.51586,1564.61297 1222.48852,1564.61297 C1214.40453,1564.61297 1207.20484,1568.41379 1202.54215,1574.31039 L1223.02322,1583.38899 C1225.14517,1584.32938 1226.10426,1586.8159 1225.162,1588.93973 C1224.46652,1590.50829 1222.926,1591.44307 1221.31444,1591.44307 C1220.74422,1591.44307 1220.16653,1591.32529 1219.61314,1591.08038 L1198.48146,1581.71199 C1197.56724,1584.32938 1197.0475,1587.12812 1197.0475,1590.05399 C1197.0475,1604.08319 1208.45932,1615.49501 1222.48852,1615.49501 C1236.51586,1615.49501 1247.92768,1604.08319 1247.92768,1590.05399 L1247.92768,1590.05399 Z M1108.73306,1581.80173 L1087.8033,1591.08038 C1087.24991,1591.32529 1086.67221,1591.44307 1086.10199,1591.44307 C1084.28104,1591.44307 1082.55356,1590.25029 1082.02822,1588.29847 C1081.48417,1586.26999 1082.65078,1584.16112 1084.57082,1583.31047 L1104.69854,1574.38891 C1099.30111,1567.51079 1090.4693,1563.45384 1080.79243,1564.90462 C1069.78444,1566.55731 1060.9788,1575.50317 1059.49063,1586.53547 C1057.27893,1602.93715 1070.8127,1616.88409 1087.09847,1615.38283 C1098.13451,1614.36579 1107.35145,1606.00697 1109.60615,1595.15603 C1110.59141,1590.40733 1110.13897,1585.88486 1108.73306,1581.80173 L1108.73306,1581.80173 Z M1256.34071,1590.05399 C1256.34071,1608.71971 1241.15425,1623.90804 1222.48852,1623.90804 C1203.8228,1623.90804 1188.63447,1608.71971 1188.63447,1590.05399 C1188.63447,1585.91664 1189.41595,1581.96625 1190.7826,1578.29817 L1153.70915,1561.86284 L1116.43192,1578.38791 C1117.77614,1582.03169 1118.5464,1585.95029 1118.5464,1590.05399 C1118.5464,1608.71971 1103.36181,1623.90804 1084.69608,1623.90804 C1066.02849,1623.90804 1050.84016,1608.71971 1050.84016,1590.05399 C1050.84016,1571.38639 1066.02849,1556.19993 1084.69608,1556.19993 C1096.25372,1556.19993 1106.46528,1562.02923 1112.57688,1570.89657 L1143.32933,1557.26184 L1082.98917,1530.514 C1080.86722,1529.57361 1079.90813,1527.08709 1080.85039,1524.96326 C1081.78891,1522.83944 1084.26608,1521.87661 1086.40113,1522.82261 L1153.70915,1552.66085 L1221.01531,1522.82261 C1223.14287,1521.87661 1225.62378,1522.83944 1226.56604,1524.96326 C1227.5083,1527.08709 1226.55109,1529.57361 1224.42726,1530.514 L1164.0871,1557.26184 L1194.66381,1570.81805 C1200.78102,1561.99745 1210.9664,1556.19993 1222.48852,1556.19993 C1241.15425,1556.19993 1256.34071,1571.38639 1256.34071,1590.05399 L1256.34071,1590.05399 Z M1103.04398,1595.11116 C1100.52194,1604.24958 1091.34051,1610.65284 1081.07287,1608.74775 C1073.49179,1607.34184 1067.39888,1601.24893 1065.99671,1593.66785 C1064.09723,1583.40208 1070.50236,1574.22439 1079.63891,1571.70422 C1082.17404,1571.005 1084.69608,1572.86148 1084.69608,1575.49196 L1084.69608,1576.04161 C1084.69608,1577.85695 1083.43226,1579.3526 1081.69169,1579.86673 C1076.61209,1581.36799 1073.10479,1586.57286 1074.3144,1592.34046 C1075.1557,1596.34694 1078.39565,1599.58689 1082.404,1600.43006 C1088.17347,1601.64341 1093.38021,1598.13798 1094.88147,1593.05651 C1095.39373,1591.31594 1096.89125,1590.05399 1098.70659,1590.05399 L1099.25624,1590.05399 C1101.88672,1590.05399 1103.7432,1592.57603 1103.04398,1595.11116 L1103.04398,1595.11116 Z" transform="translate(-1014 -1332)"/>
</svg>
