<svg xmlns="http://www.w3.org/2000/svg" width="209" height="40" viewBox="0 0 209 40">
  <path fill-rule="evenodd" d="M819.322864,699.626759 C815.09632,705.911558 807.797495,709.229794 800.293708,708.289124 L788.360572,706.798291 C778.731646,705.596563 768.936593,705.367868 759.238627,706.114363 L750.455442,706.796133 L755.005611,699.609499 L819.335809,699.609499 L819.322864,699.626759 Z M730.543868,731.484414 L648.916988,731.484414 L628.724939,699.609499 L674.511418,699.609499 L678.407865,704.196345 C680.787588,706.996781 684.259006,708.601961 687.93323,708.601961 L691.527626,708.601961 C695.204007,708.601961 698.673268,706.996781 701.050834,704.196345 L704.949438,699.609499 L750.735917,699.609499 L730.543868,731.484414 Z M700.213724,699.609499 L698.300021,701.859772 C696.610698,703.851145 694.142517,704.992463 691.527626,704.992463 L687.93323,704.992463 C685.320497,704.992463 682.850158,703.851145 681.158678,701.859772 L679.247132,699.609499 L700.213724,699.609499 Z M824.31532,696.95793 C824.002483,696.366775 823.389753,696 822.723085,696 L754.015318,696 L625.445538,696 L617.805828,696 C616.809063,696 616,696.809063 616,697.805828 C616,698.802593 616.809063,699.609499 617.805828,699.609499 L624.453088,699.609499 L646.399185,734.254644 C646.73144,734.774602 647.303177,735.091755 647.92238,735.091755 L731.538476,735.091755 C732.155521,735.091755 732.729417,734.774602 733.061672,734.254644 L748.043356,710.601965 L759.519103,709.713074 C768.96464,708.979524 778.518053,709.203904 787.913969,710.379742 L799.847105,711.870575 C800.841713,711.99571 801.834163,712.05612 802.817984,712.05612 C810.602246,712.05612 817.888126,708.226556 822.317475,701.641864 L824.22039,698.811223 C824.59148,698.256746 824.628158,697.54477 824.31532,696.95793 L824.31532,696.95793 Z" transform="translate(-616 -696)"/>
</svg>
