<svg xmlns="http://www.w3.org/2000/svg" width="342" height="341" viewBox="0 0 342 341">
  <path fill-rule="evenodd" d="M1293.22619,3221.38129 C1302.14125,3218.33157 1308.61084,3209.96065 1308.61084,3200.01426 C1308.61084,3187.52432 1298.44932,3177.35963 1285.95938,3177.35963 C1273.45678,3177.35963 1263.2921,3187.52432 1263.2921,3200.01426 C1263.2921,3209.96382 1269.76801,3218.33473 1278.69256,3221.38129 L1278.69256,3230.87846 C1264.6746,3227.57565 1254.18089,3215.03509 1254.18089,3200.01426 C1254.18089,3182.49734 1268.4298,3168.24843 1285.95938,3168.24843 C1303.47313,3168.24843 1317.72521,3182.49734 1317.72521,3200.01426 C1317.72521,3215.03192 1307.23783,3227.57248 1293.22619,3230.87529 L1293.22619,3221.38129 Z M1277.82889,3200.01426 C1277.82889,3195.54407 1281.47654,3191.89643 1285.95938,3191.89643 C1290.43273,3191.89643 1294.08037,3195.54407 1294.08037,3200.01426 C1294.08037,3204.50026 1290.43273,3208.1479 1285.95938,3208.1479 C1281.47654,3208.1479 1277.82889,3204.50026 1277.82889,3200.01426 Z M1067.68912,3128.15281 C1067.68912,3132.15161 1060.43496,3132.15161 1060.43496,3128.15281 C1060.43496,3126.15024 1062.05473,3124.53047 1064.0573,3124.53047 C1066.0567,3124.53047 1067.68912,3126.15024 1067.68912,3128.15281 Z M1131.28722,3124.53047 C1133.28978,3124.53047 1134.92537,3126.15024 1134.92537,3128.15281 C1134.92537,3132.15161 1127.67121,3132.15161 1127.67121,3128.15281 C1127.67121,3126.15024 1129.29098,3124.53047 1131.28722,3124.53047 Z M1239.6441,3200.01426 C1239.6441,3223.06117 1256.6232,3242.07448 1278.69256,3245.59242 L1278.69256,3356.24608 C1278.69256,3399.63502 1241.58972,3436.29812 1197.67562,3436.29812 L1188.51696,3436.29812 C1143.64112,3436.29812 1104.27946,3398.88208 1104.27946,3356.24608 L1104.27946,3329.17821 C1158.84228,3323.8064 1204.36033,3253.38439 1204.36033,3195.16128 C1204.36033,3158.32418 1184.91044,3133.48033 1148.36756,3122.75885 C1146.03281,3115.42559 1139.39872,3110 1131.28722,3110 C1121.28387,3110 1113.13757,3118.1463 1113.13757,3128.15281 C1113.13757,3138.17197 1121.28387,3146.32143 1131.28722,3146.32143 C1137.86753,3146.32143 1143.37854,3142.6295 1146.56746,3137.39055 C1175.51768,3146.56503 1189.8267,3165.43281 1189.8267,3195.16128 C1189.8267,3245.67783 1150.24042,3309.00386 1104.21302,3314.61611 C1104.03586,3310.75966 1100.91654,3307.67514 1097.01581,3307.67514 C1093.15304,3307.67514 1090.07168,3310.70272 1089.83441,3314.50854 C1044.37014,3307.86812 1005.53363,3245.20013 1005.53363,3195.16128 C1005.53363,3165.43281 1019.84265,3146.56503 1048.79287,3137.39055 C1051.98179,3142.6295 1057.48964,3146.32143 1064.0573,3146.32143 C1074.07645,3146.32143 1082.22592,3138.17197 1082.22592,3128.15281 C1082.22592,3118.1463 1074.07645,3110 1064.0573,3110 C1055.96161,3110 1049.32435,3115.42559 1046.99277,3122.75885 C1010.45305,3133.48033 991,3158.32418 991,3195.16128 C991,3252.90985 1035.7746,3322.69597 1089.74583,3329.07381 L1089.74583,3356.24608 C1089.74583,3406.63293 1135.90293,3450.83175 1188.51696,3450.83175 L1197.67562,3450.83175 C1249.46711,3450.83175 1293.22619,3407.51241 1293.22619,3356.24608 L1293.22619,3245.59242 C1315.29872,3242.07448 1332.262,3223.06117 1332.262,3200.01426 C1332.262,3174.48074 1311.49289,3153.71479 1285.95938,3153.71479 C1260.42586,3153.71479 1239.6441,3174.48074 1239.6441,3200.01426 Z" transform="translate(-991 -3110)"/>
</svg>
