<svg xmlns="http://www.w3.org/2000/svg" width="297" height="270" viewBox="0 0 297 270">
  <path fill-rule="evenodd" d="M283.698289,38.7546576 L266.809973,33.7482512 C265.209541,33.274477 264.074216,31.8473768 263.967328,30.1805005 L262.808892,12.3099696 L250.282765,22.2418942 C250.516763,22.7070018 250.664096,23.2269978 250.698762,23.7845491 L251.92653,42.7441829 L273.503478,46.8348185 L283.698289,38.7546576 Z M265.244207,53.3838798 L247.402565,50.0010166 C247.275455,49.9779057 247.177233,49.8970174 247.055901,49.862351 C246.784347,49.7814627 246.535905,49.6803524 246.29324,49.5474645 C246.085242,49.4376876 245.891687,49.3221329 245.709689,49.1776895 C245.498802,49.0130241 245.322581,48.8281366 245.149249,48.6230271 C244.999028,48.4439173 244.860362,48.2705853 244.741918,48.0683646 C244.609031,47.843033 244.519476,47.6032571 244.43281,47.3519256 C244.351921,47.1150385 244.282589,46.8868181 244.245033,46.6325978 C244.233478,46.5314874 244.1757,46.4448214 244.169923,46.3408222 L242.985487,28.0282947 L225.649397,41.7706347 L227.610937,61.7182609 L246.585016,68.1748786 L265.244207,53.3838798 Z M294.664428,40.2366464 L249.834991,75.7754875 C249.121441,76.3417054 248.246114,76.6392587 247.359232,76.6392587 C246.928791,76.6392587 246.495461,76.567037 246.076575,76.4254825 L224.707626,69.1484267 L121.482633,153.266454 C120.743083,153.867339 119.856201,154.162003 118.969318,154.162003 C117.810883,154.162003 116.661114,153.662229 115.875342,152.697348 C114.485797,150.984249 114.742906,148.476713 116.450226,147.087168 L219.718553,62.9286962 L217.502792,40.3897563 C217.369904,39.0377666 217.933233,37.7175544 218.999225,36.8768941 L263.822885,1.33805299 C264.98132,0.413615573 266.567308,0.220061488 267.916409,0.820945812 C269.274176,1.4160524 270.18417,2.72759799 270.279502,4.203809 L271.744158,26.8958588 L293.321105,33.297588 C294.748205,33.7135848 295.817086,34.8980203 296.097306,36.3568981 C296.383304,37.8186647 295.828641,39.3122089 294.664428,40.2366464 L294.664428,40.2366464 Z M118.96643,138.752787 C119.67998,138.752787 120.39353,138.819231 121.089747,138.952119 C123.270841,139.353671 125.33927,137.938126 125.743711,135.774365 C126.156819,133.610604 124.729719,131.527731 122.568847,131.1204 C121.384411,130.89218 120.171087,130.779514 118.96643,130.779514 C108.271844,130.779514 99.5705769,139.48367 99.5705769,150.175367 C99.5705769,160.869952 108.271844,169.571219 118.96643,169.571219 C128.751022,169.571219 137.024737,162.256608 138.217839,152.550015 C138.483615,150.366032 136.929404,148.38138 134.745421,148.106938 C132.613437,147.841162 130.573897,149.395373 130.299455,151.582245 C129.59746,157.290646 124.723941,161.600835 118.96643,161.600835 C112.665811,161.600835 107.540961,156.475985 107.540961,150.175367 C107.540961,143.874748 112.665811,138.752787 118.96643,138.752787 L118.96643,138.752787 Z M152.662174,114.968745 C154.051719,113.255647 153.794609,110.748111 152.087289,109.358566 C142.750471,101.772401 130.987005,97.5893217 118.96643,97.5893217 C89.9679832,97.5893217 66.3803846,121.179809 66.3803846,150.175367 C66.3803846,179.173813 89.9679832,202.761412 118.96643,202.761412 C147.961987,202.761412 171.552474,179.173813 171.552474,150.175367 C171.552474,143.268086 170.226485,136.55147 167.614949,130.210407 C166.780066,128.176645 164.454528,127.205986 162.409211,128.043757 C160.372559,128.87864 159.4019,131.209955 160.245449,133.243718 C162.458321,138.61701 163.579202,144.316745 163.579202,150.175367 C163.579202,174.774069 143.565132,194.788139 118.96643,194.788139 C94.3619498,194.788139 74.3536573,174.774069 74.3536573,150.175367 C74.3536573,125.576665 94.3619498,105.562595 118.96643,105.562595 C129.16413,105.562595 139.136498,109.110123 147.060661,115.549408 C148.765092,116.936064 151.272629,116.673177 152.662174,114.968745 L152.662174,114.968745 Z M176.709102,92.1640296 C178.179535,90.5375975 178.052425,88.0127278 176.425993,86.5394057 C160.623891,72.2626253 140.219824,64.4020183 118.96643,64.4020183 C71.6727888,64.4020183 33.1901923,102.881726 33.1901923,150.175367 C33.1901923,197.471896 71.6727888,235.951604 118.96643,235.951604 C166.26007,235.951604 204.742667,197.471896 204.742667,150.175367 C204.742667,136.690136 201.686246,123.771123 195.660069,111.779436 C194.672077,109.812118 192.274317,109.020568 190.306999,110.005672 C188.33968,110.999442 187.545242,113.397202 188.539012,115.358742 C193.998971,126.229549 196.769394,137.943904 196.769394,150.175367 C196.769394,193.07793 161.866104,227.978331 118.96643,227.978331 C76.0638666,227.978331 41.163465,193.07793 41.163465,150.175367 C41.163465,107.275693 76.0638666,72.3724022 118.96643,72.3724022 C138.24095,72.3724022 156.744143,79.5050147 171.0787,92.4558052 C172.705132,93.9262385 175.230002,93.8049061 176.709102,92.1640296 L176.709102,92.1640296 Z M221.812981,90.3469323 C232.354457,108.434128 237.92997,129.124193 237.92997,150.175367 C237.92997,215.772868 184.563931,269.141796 118.96643,269.141796 C53.3689279,269.141796 0,215.772868 0,150.175367 C0,84.577865 53.3689279,31.211826 118.96643,31.211826 C149.351532,31.211826 178.280646,42.6690723 200.415144,63.4631366 C202.015576,64.9682362 202.093576,67.4959948 200.588476,69.099316 C199.083376,70.6997483 196.555618,70.7835254 194.952297,69.272648 C174.305565,49.8710176 147.314881,39.1850988 118.96643,39.1850988 C57.7657834,39.1850988 7.97327276,88.9776094 7.97327276,150.175367 C7.97327276,211.376013 57.7657834,261.168523 118.96643,261.168523 C180.164187,261.168523 229.956697,211.376013 229.956697,150.175367 C229.956697,130.53396 224.756737,111.23344 214.920145,94.3624574 C213.81082,92.4615829 214.457926,90.0204904 216.358801,88.9082766 C218.259675,87.7989517 220.703657,88.4402801 221.812981,90.3469323 L221.812981,90.3469323 Z"/>
</svg>
