<svg xmlns="http://www.w3.org/2000/svg" width="163" height="133" viewBox="0 0 163 133">
  <g fill-rule="evenodd">
    <path d="M157.93949,89.8795822 C157.93949,91.2039579 157.491874,92.4345474 156.642113,93.4463022 C155.610464,94.6868387 154.102779,95.4001827 152.492782,95.4357078 L152.492782,75.7917485 C152.492782,74.6151572 151.537867,73.6602425 150.361276,73.6602425 L147.992462,73.6602425 L147.992462,13.0316859 L12.9970821,13.0316859 L12.9970821,88.3448979 L122.651698,88.3448979 L122.651698,95.4499179 L91.7121776,95.4499179 L70.3104364,95.4499179 L10.0413938,95.4499179 C6.97060413,95.4499179 4.4710581,92.9517928 4.4710581,89.8795822 L4.4710581,10.0759976 C4.4710581,7.00378693 6.97060413,4.5056619 10.0413938,4.5056619 L152.369154,4.5056619 C154.026045,4.5056619 155.583465,5.23605795 156.649218,6.51638256 C157.491874,7.52103238 157.93949,8.75162185 157.93949,10.0759976 L157.93949,89.8795822 Z M148.22977,127.422508 L126.91471,127.422508 L126.91471,97.621212 C126.91471,97.6084229 126.918973,97.5956339 126.918973,97.5814239 C126.918973,97.5672138 126.91471,97.5544248 126.91471,97.5402148 L126.91471,86.25318 C126.91471,86.2403909 126.918973,86.2276019 126.918973,86.2133919 C126.918973,86.1991818 126.91471,86.1863928 126.91471,86.1721828 L126.91471,77.9232545 L145.814063,77.9232545 C145.829694,77.9246755 145.845325,77.9289386 145.860956,77.9289386 C145.876587,77.9289386 145.892218,77.9246755 145.907849,77.9232545 L148.22977,77.9232545 L148.22977,127.422508 Z M143.72945,73.6602425 L124.783204,73.6602425 C123.606612,73.6602425 122.651698,74.6151572 122.651698,75.7917485 L122.651698,84.0818859 L17.2600941,84.0818859 L17.2600941,17.2946979 L143.72945,17.2946979 L143.72945,73.6602425 Z M94.5115555,115.343974 L67.5323736,115.343974 L71.926118,99.7129299 L90.0993381,99.7129299 L94.5115555,115.343974 Z M112.467362,124.104464 L112.467362,128.13301 L47.1011781,128.13301 L47.1011781,124.104464 C47.1011781,122.079533 49.900556,119.606986 53.1674442,119.606986 L107.076073,119.606986 C110.252017,119.606986 112.467362,121.977221 112.467362,124.104464 L112.467362,124.104464 Z M159.92037,3.78237086 C158.047486,1.53292153 155.296423,0.242649898 152.369154,0.242649898 L10.0413938,0.242649898 C4.61884251,0.242649898 0.208046098,4.65344631 0.208046098,10.0759976 L0.208046098,89.8795822 C0.208046098,95.3007124 4.61884251,99.7129299 10.0413938,99.7129299 L67.4968485,99.7129299 L63.1031041,115.343974 L53.1674442,115.343974 C47.7619449,115.343974 42.8381661,119.518884 42.8381661,124.104464 L42.8381661,130.264516 C42.8381661,131.442528 43.7930808,132.396022 44.9696721,132.396022 L114.598868,132.396022 C115.775459,132.396022 116.730374,131.442528 116.730374,130.264516 L116.730374,124.104464 C116.730374,119.355468 112.309631,115.343974 107.076073,115.343974 L98.940825,115.343974 L94.5271866,99.7129299 L122.651698,99.7129299 L122.651698,129.554014 C122.651698,130.732026 123.606612,131.68552 124.783204,131.68552 L150.361276,131.68552 C151.537867,131.68552 152.492782,130.732026 152.492782,129.554014 L152.492782,99.7058248 C155.373157,99.6702997 158.074485,98.3913961 159.913265,96.1817349 C161.389688,94.423953 162.202502,92.1872927 162.202502,89.8795822 L162.202502,10.0759976 C162.202502,7.76828708 161.389688,5.53162678 159.92037,3.78237086 L159.92037,3.78237086 Z"/>
    <path d="M134.492924 79.7000779C133.316333 79.7000779 132.361418 80.6535716 132.361418 81.8315839L132.361418 84.4362843 131.177722 84.4362843C130.00113 84.4362843 129.046216 85.391199 129.046216 86.5677903 129.046216 87.7458026 130.00113 88.6992963 131.177722 88.6992963L134.492924 88.6992963C135.669515 88.6992963 136.62443 87.7458026 136.62443 86.5677903L136.62443 81.8315839C136.62443 80.6535716 135.669515 79.7000779 134.492924 79.7000779M143.789132 79.7000779C142.612541 79.7000779 141.657626 80.6535716 141.657626 81.8315839L141.657626 84.4362843 140.472509 84.4362843C139.295918 84.4362843 138.341003 85.391199 138.341003 86.5677903 138.341003 87.7458026 139.295918 88.6992963 140.472509 88.6992963L143.789132 88.6992963C144.965724 88.6992963 145.920638 87.7458026 145.920638 86.5677903L145.920638 81.8315839C145.920638 80.6535716 144.965724 79.7000779 143.789132 79.7000779M134.492924 90.7128589C133.316333 90.7128589 132.361418 91.6663526 132.361418 92.8443649L132.361418 95.4490653 131.177722 95.4490653C130.00113 95.4490653 129.046216 96.40398 129.046216 97.5805713 129.046216 98.7585836 130.00113 99.7120773 131.177722 99.7120773L134.492924 99.7120773C135.669515 99.7120773 136.62443 98.7585836 136.62443 97.5805713L136.62443 92.8443649C136.62443 91.6663526 135.669515 90.7128589 134.492924 90.7128589M143.789132 90.7128589C142.612541 90.7128589 141.657626 91.6663526 141.657626 92.8443649L141.657626 95.4490653 140.472509 95.4490653C139.295918 95.4490653 138.341003 96.40398 138.341003 97.5805713 138.341003 98.7585836 139.295918 99.7120773 140.472509 99.7120773L143.789132 99.7120773C144.965724 99.7120773 145.920638 98.7585836 145.920638 97.5805713L145.920638 92.8443649C145.920638 91.6663526 144.965724 90.7128589 143.789132 90.7128589M134.492924 101.72564C133.316333 101.72564 132.361418 102.679134 132.361418 103.857146L132.361418 106.461846 131.177722 106.461846C130.00113 106.461846 129.046216 107.416761 129.046216 108.593352 129.046216 109.771365 130.00113 110.724858 131.177722 110.724858L134.492924 110.724858C135.669515 110.724858 136.62443 109.771365 136.62443 108.593352L136.62443 103.857146C136.62443 102.679134 135.669515 101.72564 134.492924 101.72564M143.789132 101.72564C142.612541 101.72564 141.657626 102.679134 141.657626 103.857146L141.657626 106.461846 140.472509 106.461846C139.295918 106.461846 138.341003 107.416761 138.341003 108.593352 138.341003 109.771365 139.295918 110.724858 140.472509 110.724858L143.789132 110.724858C144.965724 110.724858 145.920638 109.771365 145.920638 108.593352L145.920638 103.857146C145.920638 102.679134 144.965724 101.72564 143.789132 101.72564M134.492924 112.738421C133.316333 112.738421 132.361418 113.691915 132.361418 114.869927L132.361418 117.474627 131.177722 117.474627C130.00113 117.474627 129.046216 118.429542 129.046216 119.606133 129.046216 120.784146 130.00113 121.737639 131.177722 121.737639L134.492924 121.737639C135.669515 121.737639 136.62443 120.784146 136.62443 119.606133L136.62443 114.869927C136.62443 113.691915 135.669515 112.738421 134.492924 112.738421M143.789132 112.738421C142.612541 112.738421 141.657626 113.691915 141.657626 114.869927L141.657626 117.474627 140.472509 117.474627C139.295918 117.474627 138.341003 118.429542 138.341003 119.606133 138.341003 120.784146 139.295918 121.737639 140.472509 121.737639L143.789132 121.737639C144.965724 121.737639 145.920638 120.784146 145.920638 119.606133L145.920638 114.869927C145.920638 113.691915 144.965724 112.738421 143.789132 112.738421M30.7596321 39.8051064C31.3052976 39.8051064 31.8509632 39.5962189 32.2658963 39.1812857L44.3444303 27.1027517C45.1771387 26.2700434 45.1771387 24.9200896 44.3444303 24.0873812 43.513143 23.2546729 42.1631892 23.2546729 41.3304808 24.0873812L29.2519468 36.1659152C28.4192385 36.9986236 28.4192385 38.3485774 29.2519468 39.1812857 29.668301 39.5962189 30.2139666 39.8051064 30.7596321 39.8051064M28.6016954 54.089465C29.147361 54.089465 29.6930265 53.8805774 30.1093807 53.4642232L57.1340347 26.4395691C57.9667431 25.6068608 57.9667431 24.256907 57.1340347 23.4256196 56.3013264 22.5929113 54.9527936 22.5929113 54.1200852 23.4256196L27.0954312 50.4502737C26.2627228 51.2829821 26.2627228 52.6329359 27.0954312 53.4642232 27.5103643 53.8805774 28.0560299 54.089465 28.6016954 54.089465M78.6171995 78.9951179C79.162865 78.9951179 79.7085306 78.7862303 80.1248847 78.3712971L112.36036 46.1344004C113.193069 45.303113 113.193069 43.9517382 112.36036 43.1204509 111.527652 42.2877425 110.179119 42.2877425 109.346411 43.1204509L77.1095142 75.3559266C76.2768059 76.188635 76.2768059 77.5385888 77.1095142 78.3712971 77.5258684 78.7862303 78.071534 78.9951179 78.6171995 78.9951179M83.4547234 61.4198562C84.0003889 61.4198562 84.5460545 61.2123896 84.9624086 60.7960354L117.197884 28.5591387C118.030593 27.7264304 118.030593 26.3764766 117.197884 25.5437682 116.365176 24.7110599 115.016643 24.7110599 114.183935 25.5437682L81.9470382 57.7820859C81.1143298 58.6133733 81.1143298 59.9633271 81.9470382 60.7960354 82.3633923 61.2123896 82.9090579 61.4198562 83.4547234 61.4198562"/>
  </g>
</svg>
