<svg xmlns="http://www.w3.org/2000/svg" width="251" height="282" viewBox="0 0 251 282">
  <path fill-rule="evenodd" d="M1181.88381,3392.95302 C1181.88381,3395.07483 1180.21081,3396.79688 1178.14943,3396.79688 C1146.10512,3396.79688 1116.7562,3417.9159 1106.77129,3448.15256 C1106.2435,3449.75503 1104.79124,3450.76126 1103.23608,3450.76126 C1102.83774,3450.76126 1102.43277,3450.69634 1102.03444,3450.55626 C1100.0826,3449.8729 1099.03697,3447.6913 1099.70086,3445.68053 C1110.69654,3412.3722 1142.95662,3389.10916 1178.14943,3389.10916 C1180.21081,3389.10916 1181.88381,3390.83121 1181.88381,3392.95302 L1181.88381,3392.95302 Z M1272.42846,3464.37536 C1260.43031,3464.37536 1249.12924,3470.1104 1241.77168,3479.65343 C1234.41577,3470.1104 1223.11471,3464.37536 1211.11655,3464.37536 C1199.39889,3464.37536 1188.53765,3469.66451 1181.15519,3478.75994 C1173.77108,3469.66451 1162.90984,3464.37536 1151.19218,3464.37536 C1139.38323,3464.37536 1128.18009,3469.97544 1120.81423,3479.29296 C1113.44671,3469.97544 1102.24356,3464.37536 1090.43462,3464.37536 C1082.15923,3464.37536 1074.27221,3467.05923 1067.76443,3471.8222 C1084.81147,3424.54784 1128.34772,3380.48354 1180.8747,3380.48354 C1234.29959,3380.48354 1276.60433,3424.7426 1293.59991,3470.7835 C1287.37594,3466.65776 1280.04992,3464.37536 1272.42846,3464.37536 L1272.42846,3464.37536 Z M1204.99217,3601.88818 L1210.77465,3601.88818 C1220.04753,3601.88818 1227.58933,3594.12529 1227.58933,3584.58056 C1227.58933,3581.15867 1230.29302,3578.37743 1233.61579,3578.37743 C1236.9369,3578.37743 1239.64059,3581.15867 1239.64059,3584.58056 C1239.64059,3600.96395 1226.69141,3614.29275 1210.77465,3614.29275 L1204.99217,3614.29275 C1189.0754,3614.29275 1176.12457,3600.96395 1176.12457,3584.58056 L1176.12457,3484.65557 C1176.77518,3485.5183 1177.42081,3486.38958 1177.99342,3487.32748 C1179.35937,3489.57058 1182.94936,3489.57058 1184.31531,3487.32748 C1185.4406,3485.48584 1186.76341,3483.83555 1188.17583,3482.29288 L1188.17583,3584.58056 C1188.17583,3594.12529 1195.71928,3601.88818 1204.99217,3601.88818 L1204.99217,3601.88818 Z M1176.12457,3353.89086 C1176.12457,3350.47068 1178.82826,3347.68772 1182.15103,3347.68772 C1185.47214,3347.68772 1188.17583,3350.47068 1188.17583,3353.89086 L1188.17583,3373.08453 C1185.76259,3372.91369 1183.33441,3372.79582 1180.8747,3372.79582 C1179.28136,3372.79582 1177.70131,3372.85732 1176.12457,3372.93249 L1176.12457,3353.89086 Z M1305.12505,3482.56622 C1292.51611,3433.52539 1250.84539,3381.88954 1195.6446,3373.89601 L1195.6446,3353.89086 C1195.6446,3346.23047 1189.59158,3340 1182.15103,3340 C1174.70882,3340 1168.6558,3346.23047 1168.6558,3353.89086 L1168.6558,3373.55775 C1112.11893,3380.46645 1067.50386,3434.25487 1055.70321,3486.38616 C1055.27998,3488.26196 1056.2642,3490.16852 1058.01189,3490.85358 C1058.44673,3491.02442 1058.89652,3491.10471 1059.33967,3491.10471 C1060.67243,3491.10471 1061.95041,3490.36669 1062.6226,3489.09736 C1068.1694,3478.5891 1078.8265,3472.06308 1090.43462,3472.06308 C1101.50664,3472.06308 1111.9181,3478.14834 1117.6093,3487.94591 C1118.28315,3489.10761 1119.50138,3489.8183 1120.81423,3489.8183 C1122.12707,3489.8183 1123.34365,3489.10761 1124.0175,3487.94591 C1129.795,3478.00142 1139.95252,3472.06308 1151.19218,3472.06308 C1157.54726,3472.06308 1163.56211,3474.03797 1168.6558,3477.52307 L1168.6558,3584.58056 C1168.6558,3605.20415 1184.95762,3621.98047 1204.99217,3621.98047 L1210.77465,3621.98047 C1230.81085,3621.98047 1247.10935,3605.20415 1247.10935,3584.58056 C1247.10935,3576.92018 1241.05468,3570.6897 1233.61579,3570.6897 C1226.17358,3570.6897 1220.12056,3576.92018 1220.12056,3584.58056 C1220.12056,3589.88509 1215.9281,3594.20046 1210.77465,3594.20046 L1204.99217,3594.20046 C1199.83872,3594.20046 1195.6446,3589.88509 1195.6446,3584.58056 L1195.6446,3476.21445 C1200.28519,3473.534 1205.57971,3472.06308 1211.11655,3472.06308 C1222.38775,3472.06308 1232.89381,3478.31918 1238.53687,3488.3918 C1239.20574,3489.58254 1240.43726,3490.31544 1241.77168,3490.31544 C1243.10776,3490.31544 1244.33927,3489.58254 1245.00814,3488.3918 C1250.65121,3478.31918 1261.15727,3472.06308 1272.42846,3472.06308 C1282.89469,3472.06308 1292.67047,3477.38299 1298.57909,3486.29732 C1299.29277,3487.37531 1300.46288,3487.97325 1301.66618,3487.97325 L1301.71929,3487.97325 C1303.77901,3487.97154 1305.44703,3486.2512 1305.44703,3484.12939 C1305.44703,3483.57416 1305.33251,3483.04286 1305.12505,3482.56622 L1305.12505,3482.56622 Z" transform="translate(-1055 -3340)"/>
</svg>
