<svg xmlns="http://www.w3.org/2000/svg" width="106" height="113" viewBox="0 0 106 113">
  <path fill-rule="evenodd" d="M1545.79,311.263 C1545.5,311.788 1544.96,312.087 1544.41,312.087 C1544.16,312.087 1543.91,312.028 1543.67,311.902 C1541.53,310.752 1539.5,309.366 1537.64,307.781 C1536.98,307.222 1536.9,306.235 1537.46,305.58 C1538.02,304.921 1539.01,304.845 1539.66,305.403 C1541.35,306.843 1543.2,308.104 1545.15,309.149 C1545.91,309.556 1546.19,310.503 1545.79,311.263 Z M1609.06,254.225 C1608.9,257.217 1607.77,260.004 1605.83,262.223 L1588.28,242.789 C1593.65,238.985 1601.16,239.715 1605.68,244.718 C1608.04,247.332 1609.24,250.708 1609.06,254.225 Z M1608,242.624 C1601.97,235.951 1591.64,235.425 1584.97,241.448 C1584.33,242.026 1584.28,243.014 1584.85,243.654 L1604.61,265.543 C1604.92,265.885 1605.35,266.059 1605.77,266.059 C1606.15,266.059 1606.52,265.926 1606.82,265.656 C1610.05,262.738 1611.96,258.735 1612.18,254.385 C1612.4,250.033 1610.92,245.857 1608,242.624 Z M1561.31,280.22 L1589.42,280.22 C1590.28,280.22 1590.98,280.92 1590.98,281.782 C1590.98,282.645 1590.28,283.345 1589.42,283.345 L1559.75,283.345 C1558.89,283.345 1558.19,282.645 1558.19,281.782 L1558.19,251.194 C1558.19,250.332 1558.89,249.632 1559.75,249.632 C1560.61,249.632 1561.31,250.332 1561.31,251.194 L1561.31,280.22 Z M1535.22,300.757 C1535.75,301.44 1535.63,302.42 1534.95,302.949 C1534.66,303.17 1534.33,303.277 1533.99,303.277 C1533.52,303.277 1533.06,303.069 1532.76,302.672 C1528.08,296.638 1525.6,289.415 1525.6,281.782 C1525.61,271.545 1530.16,261.93 1538.09,255.4 C1538.76,254.852 1539.74,254.948 1540.29,255.614 C1540.84,256.28 1540.74,257.265 1540.08,257.813 C1532.87,263.747 1528.73,272.484 1528.73,281.782 C1528.73,288.715 1530.97,295.276 1535.22,300.757 Z M1559.75,319.626 C1538.88,319.626 1521.91,302.65 1521.91,281.782 C1521.91,260.917 1538.88,243.942 1559.75,243.942 C1580.62,243.942 1597.59,260.917 1597.59,281.782 C1597.59,302.65 1580.62,319.626 1559.75,319.626 Z M1575.87,329.335 C1576.02,329.576 1576.08,329.865 1576.02,330.147 C1575.96,330.43 1575.79,330.673 1575.54,330.831 C1575.05,331.156 1574.37,331.011 1574.04,330.509 L1568.43,321.816 C1569.18,321.654 1569.92,321.468 1570.65,321.265 L1575.87,329.335 Z M1545.45,330.511 C1545.13,331.009 1544.46,331.154 1543.95,330.831 C1543.45,330.505 1543.31,329.834 1543.63,329.332 L1548.85,321.266 C1549.58,321.469 1550.33,321.655 1551.08,321.817 L1545.45,330.511 Z M1557.39,240.817 L1562.11,240.817 L1562.11,237.933 L1557.39,237.933 L1557.39,240.817 Z M1549.14,234.809 C1549.76,229.508 1554.28,225.384 1559.75,225.384 C1565.22,225.384 1569.74,229.508 1570.37,234.809 L1549.14,234.809 Z M1565.23,241.195 L1565.23,237.933 L1572,237.933 C1572.87,237.933 1573.57,237.233 1573.57,236.371 L1573.57,236.077 C1573.57,228.458 1567.37,222.26 1559.75,222.26 C1552.13,222.26 1545.94,228.458 1545.94,236.077 L1545.94,236.371 C1545.94,237.233 1546.64,237.933 1547.5,237.933 L1554.27,237.933 L1554.27,241.195 C1534.26,243.884 1518.78,261.054 1518.78,281.782 C1518.78,299.461 1530.04,314.559 1545.76,320.288 L1541.01,327.635 C1539.75,329.583 1540.31,332.192 1542.26,333.455 C1542.96,333.909 1543.75,334.126 1544.54,334.126 C1545.92,334.126 1547.27,333.45 1548.07,332.21 C1548.08,332.21 1548.08,332.209 1548.08,332.209 L1553.93,323.15 C1554.09,322.903 1554.22,322.645 1554.33,322.38 C1556.1,322.616 1557.91,322.751 1559.75,322.751 C1561.59,322.751 1563.4,322.616 1565.18,322.38 C1565.28,322.647 1565.41,322.905 1565.57,323.151 L1571.42,332.209 C1571.42,332.21 1571.42,332.211 1571.43,332.212 C1572.23,333.452 1573.59,334.127 1574.97,334.127 C1575.75,334.127 1576.54,333.909 1577.24,333.453 C1578.19,332.841 1578.84,331.898 1579.07,330.797 C1579.31,329.699 1579.1,328.575 1578.49,327.636 L1573.74,320.288 C1589.46,314.557 1600.72,299.46 1600.72,281.782 C1600.72,261.055 1585.24,243.884 1565.23,241.195 Z M1513.68,262.223 C1511.73,260.005 1510.59,257.217 1510.44,254.225 C1510.26,250.708 1511.46,247.332 1513.83,244.717 C1516.42,241.84 1520.01,240.376 1523.62,240.376 C1526.27,240.376 1528.94,241.174 1531.22,242.789 L1513.68,262.223 Z M1535.05,242.528 C1535.03,242.114 1534.84,241.726 1534.54,241.448 C1527.86,235.425 1517.53,235.95 1511.51,242.624 C1508.59,245.857 1507.1,250.033 1507.32,254.385 C1507.54,258.735 1509.45,262.738 1512.68,265.656 C1512.98,265.926 1513.35,266.059 1513.73,266.059 C1514.15,266.059 1514.58,265.885 1514.89,265.543 L1534.65,243.654 C1534.93,243.347 1535.07,242.942 1535.05,242.528 L1535.05,242.528 Z" transform="translate(-1507 -222)"/>
</svg>
