<svg xmlns="http://www.w3.org/2000/svg" width="116" height="116" viewBox="0 0 116 116">
  <path fill-rule="evenodd" d="M252.57,404.79 C248.517,404.79 245.22,401.493 245.22,397.44 C245.22,393.388 248.517,390.091 252.57,390.091 C256.622,390.091 259.919,393.388 259.919,397.44 C259.919,401.493 256.622,404.79 252.57,404.79 Z M262.719,397.44 C262.719,391.844 258.166,387.291 252.57,387.291 C246.973,387.291 242.42,391.844 242.42,397.44 C242.42,403.037 246.973,407.59 252.57,407.59 C258.166,407.59 262.719,403.037 262.719,397.44 Z M224.217,446.8 L333.427,446.8 L333.427,442.597 L224.217,442.597 L224.217,446.8 Z M297.415,460.799 L280.221,460.799 L280.221,449.601 L295.175,449.601 L297.415,460.799 Z M260.229,460.799 L262.468,449.601 L277.42,449.601 L277.42,460.799 L260.229,460.799 Z M234.719,379.588 L322.926,379.588 L322.926,435.925 L302.75,400.615 C301.104,397.734 298.822,396.147 296.325,396.147 L296.324,396.147 C293.827,396.147 291.545,397.734 289.9,400.615 L277.395,422.495 L270.986,416.797 C267.588,413.785 262.059,413.781 258.658,416.799 L234.719,438.08 L234.719,379.588 Z M296.857,439.797 L279.534,424.397 L292.332,402.004 C293.458,400.033 294.876,398.947 296.324,398.947 C297.774,398.947 299.192,400.033 300.318,402.004 L321.913,439.797 L296.857,439.797 Z M260.518,418.892 C262.852,416.821 266.795,416.825 269.126,418.891 L292.643,439.797 L237.001,439.797 L260.518,418.892 Z M334.827,439.797 L325.727,439.797 L325.727,378.189 C325.727,377.415 325.1,376.789 324.326,376.789 L280.221,376.789 L280.221,371.19 C280.221,370.417 279.595,369.791 278.821,369.791 C278.047,369.791 277.42,370.417 277.42,371.19 L277.42,376.789 L233.319,376.789 C232.545,376.789 231.919,377.415 231.919,378.189 L231.919,439.797 L222.817,439.797 C222.043,439.797 221.417,440.423 221.417,441.197 L221.417,448.201 C221.417,448.974 222.043,449.601 222.817,449.601 L259.613,449.601 L252.948,482.926 C252.929,483.019 252.921,483.111 252.921,483.202 C252.921,483.856 253.38,484.441 254.046,484.574 C254.139,484.593 254.232,484.601 254.323,484.601 C254.976,484.601 255.561,484.142 255.694,483.476 L259.669,463.599 L277.42,463.599 L277.42,483.201 C277.42,483.975 278.047,484.601 278.821,484.601 C279.595,484.601 280.221,483.975 280.221,483.201 L280.221,463.599 L297.975,463.599 L301.952,483.476 C302.084,484.142 302.669,484.601 303.323,484.601 C303.413,484.601 303.506,484.593 303.599,484.574 C304.265,484.441 304.725,483.856 304.725,483.202 C304.725,483.111 304.716,483.019 304.697,482.926 L298.03,449.601 L334.827,449.601 C335.601,449.601 336.227,448.974 336.227,448.201 L336.227,441.197 C336.227,440.423 335.601,439.797 334.827,439.797 L334.827,439.797 Z" transform="translate(-221 -369)"/>
</svg>
