<svg xmlns="http://www.w3.org/2000/svg" width="83" height="98" viewBox="0 0 83 98">
  <path fill-rule="evenodd" d="M1512.98,119.378 C1512.98,119.415 1512.98,119.451 1512.98,119.487 C1512.97,119.52 1512.97,119.552 1512.96,119.584 L1512.95,119.617 C1512.94,119.659 1512.93,119.7 1512.92,119.724 C1512.91,119.739 1512.9,119.754 1512.9,119.769 C1512.85,119.853 1512.8,119.932 1512.74,119.998 C1512.7,120.04 1512.66,120.076 1512.62,120.109 C1512.62,120.112 1512.61,120.115 1512.61,120.119 C1512.59,120.129 1512.57,120.141 1512.55,120.156 L1512.42,120.224 C1512.4,120.233 1512.38,120.241 1512.36,120.248 C1512.35,120.252 1512.34,120.256 1512.32,120.261 C1512.32,120.263 1512.31,120.265 1512.3,120.267 C1512.3,120.268 1512.29,120.27 1512.29,120.272 C1512.26,120.276 1512.24,120.281 1512.22,120.286 C1512.17,120.295 1512.12,120.299 1512.07,120.299 L1510.27,120.299 C1509.76,120.299 1509.35,119.886 1509.35,119.378 L1509.35,81.542 C1509.35,81.034 1509.76,80.622 1510.27,80.622 L1512.07,80.622 C1512.12,80.622 1512.17,80.626 1512.22,80.635 C1512.25,80.641 1512.28,80.647 1512.3,80.652 L1512.31,80.653 L1512.3,80.652 L1512.3,80.651 C1512.3,80.653 1512.31,80.655 1512.31,80.656 L1512.32,80.659 C1512.34,80.664 1512.35,80.669 1512.37,80.675 C1512.39,80.681 1512.41,80.687 1512.42,80.693 L1512.53,80.747 C1512.55,80.764 1512.58,80.78 1512.6,80.796 C1512.61,80.801 1512.61,80.807 1512.62,80.813 C1512.66,80.844 1512.7,80.88 1512.74,80.918 C1512.79,80.97 1512.83,81.027 1512.87,81.094 C1512.87,81.109 1512.88,81.126 1512.89,81.144 C1512.9,81.161 1512.9,81.163 1512.91,81.179 C1512.93,81.22 1512.94,81.261 1512.95,81.282 L1512.96,81.334 C1512.97,81.367 1512.97,81.4 1512.98,81.433 C1512.98,81.468 1512.98,81.505 1512.98,81.542 L1512.98,119.378 Z M1515.89,80.651 C1515.88,80.581 1515.86,80.516 1515.83,80.424 C1515.79,80.295 1515.75,80.169 1515.7,80.057 C1515.67,79.979 1515.64,79.896 1515.6,79.817 C1515.56,79.734 1515.51,79.655 1515.47,79.583 C1515.33,79.339 1515.16,79.109 1514.97,78.898 C1514.81,78.716 1514.63,78.551 1514.43,78.406 C1514.38,78.36 1514.32,78.319 1514.26,78.281 C1514.18,78.226 1514.1,78.176 1514.02,78.13 C1513.98,78.112 1513.95,78.092 1513.9,78.064 C1513.88,78.054 1513.86,78.044 1513.84,78.035 L1513.7,77.966 C1513.58,77.909 1513.45,77.86 1513.32,77.816 C1513.27,77.799 1513.22,77.784 1513.17,77.769 C1513.12,77.753 1513.08,77.74 1513.03,77.729 C1512.99,77.719 1512.96,77.711 1512.92,77.704 C1512.87,77.692 1512.82,77.681 1512.77,77.672 C1512.54,77.63 1512.31,77.608 1512.07,77.608 L1510.27,77.608 C1508.1,77.608 1506.34,79.373 1506.34,81.542 L1506.34,119.378 C1506.34,121.547 1508.1,123.312 1510.27,123.312 L1512.07,123.312 C1512.3,123.312 1512.53,123.291 1512.77,123.249 C1512.82,123.239 1512.88,123.228 1512.93,123.214 C1512.96,123.208 1512.99,123.201 1513.02,123.193 C1513.07,123.182 1513.11,123.17 1513.16,123.155 C1513.17,123.153 1513.19,123.145 1513.2,123.144 C1513.24,123.131 1513.28,123.118 1513.32,123.104 C1513.45,123.06 1513.58,123.011 1513.69,122.957 C1513.74,122.936 1513.78,122.915 1513.84,122.885 C1513.86,122.876 1513.91,122.852 1513.92,122.842 L1514,122.798 C1514.09,122.75 1514.17,122.698 1514.26,122.64 C1514.32,122.603 1514.37,122.562 1514.43,122.516 C1514.63,122.37 1514.81,122.203 1514.98,122.016 C1515.23,121.74 1515.43,121.435 1515.6,121.106 C1515.64,121.026 1515.67,120.944 1515.7,120.876 C1515.75,120.751 1515.79,120.625 1515.84,120.478 C1515.86,120.407 1515.88,120.34 1515.89,120.269 C1515.93,120.123 1515.95,119.974 1515.97,119.826 C1515.99,119.679 1516,119.528 1516,119.378 L1516,81.542 C1516,81.392 1515.99,81.241 1515.97,81.094 C1515.95,80.947 1515.93,80.798 1515.89,80.651 Z M1499.14,119.378 C1499.14,119.877 1498.72,120.299 1498.22,120.299 L1496.42,120.299 C1496.08,120.299 1495.85,120.108 1495.75,119.997 C1495.69,119.93 1495.64,119.857 1495.59,119.764 C1495.54,119.646 1495.51,119.516 1495.51,119.378 L1495.51,81.542 C1495.51,81.403 1495.54,81.273 1495.6,81.14 C1495.64,81.063 1495.69,80.99 1495.75,80.926 C1495.85,80.813 1496.08,80.622 1496.42,80.622 L1498.22,80.622 C1498.72,80.622 1499.14,81.043 1499.14,81.542 L1499.14,119.378 Z M1498.22,77.608 L1496.42,77.608 C1495.32,77.608 1494.27,78.077 1493.52,78.897 C1493.26,79.182 1493.04,79.501 1492.89,79.829 C1492.63,80.363 1492.49,80.939 1492.49,81.542 L1492.49,119.378 C1492.49,119.981 1492.63,120.558 1492.88,121.075 C1493.04,121.419 1493.26,121.738 1493.52,122.026 C1494.27,122.843 1495.33,123.312 1496.42,123.312 L1498.22,123.312 C1500.39,123.312 1502.15,121.547 1502.15,119.378 L1502.15,81.542 C1502.15,79.373 1500.39,77.608 1498.22,77.608 Z M1485.29,119.378 C1485.29,119.623 1485.2,119.854 1485.02,120.029 C1484.85,120.203 1484.62,120.299 1484.38,120.299 L1482.58,120.299 C1482.07,120.299 1481.66,119.886 1481.66,119.378 L1481.66,81.542 C1481.66,81.034 1482.07,80.622 1482.58,80.622 L1484.38,80.622 C1484.62,80.622 1484.85,80.717 1485.02,80.892 C1485.2,81.067 1485.29,81.297 1485.29,81.542 L1485.29,119.378 Z M1484.38,77.608 L1482.58,77.608 C1480.41,77.608 1478.65,79.373 1478.65,81.542 L1478.65,119.378 C1478.65,121.547 1480.41,123.312 1482.58,123.312 L1484.38,123.312 C1485.43,123.312 1486.41,122.902 1487.16,122.158 C1487.9,121.414 1488.31,120.427 1488.31,119.378 L1488.31,81.542 C1488.31,80.493 1487.9,79.506 1487.16,78.763 C1486.41,78.018 1485.43,77.608 1484.38,77.608 Z M1529.7,63.475 C1529.69,63.483 1529.66,63.521 1529.66,63.529 C1529.4,63.843 1529.11,64.126 1528.77,64.371 C1528.21,64.781 1528,65.523 1528.27,66.167 C1528.38,66.431 1528.46,66.705 1528.53,66.989 C1528.6,67.325 1528.64,67.674 1528.64,68.026 C1528.64,68.116 1528.64,68.205 1528.63,68.283 C1528.58,69.273 1528.23,70.206 1527.61,70.991 C1527.59,71.009 1527.58,71.027 1527.56,71.045 C1526.66,72.163 1525.31,72.804 1523.87,72.804 C1523.69,72.804 1523.53,72.796 1523.37,72.776 C1521.55,72.589 1519.98,71.352 1519.37,69.621 C1519.19,69.109 1519.1,68.572 1519.1,68.026 C1519.1,67.936 1519.1,67.847 1519.11,67.759 C1519.16,67.106 1518.79,66.494 1518.18,66.245 C1518.1,66.21 1518.01,66.185 1517.92,66.166 C1517.89,66.161 1517.87,66.158 1517.84,66.154 C1517.78,66.145 1517.71,66.138 1517.65,66.136 C1517.64,66.136 1517.62,66.132 1517.61,66.132 C1517.59,66.132 1517.58,66.136 1517.56,66.137 C1517.49,66.139 1517.41,66.147 1517.33,66.162 C1517.31,66.166 1517.29,66.167 1517.27,66.172 C1517.18,66.193 1517.09,66.224 1517,66.262 C1516.98,66.272 1516.96,66.285 1516.94,66.296 C1516.87,66.329 1516.8,66.368 1516.74,66.411 C1516.72,66.428 1516.7,66.444 1516.67,66.462 C1516.6,66.522 1516.52,66.589 1516.46,66.665 C1516.46,66.665 1516.46,66.666 1516.46,66.667 C1515.69,67.574 1514.57,68.094 1513.38,68.094 C1511.93,68.094 1510.59,67.309 1509.88,66.045 L1509.88,66.044 C1509.88,66.043 1509.88,66.041 1509.88,66.04 C1509.84,65.971 1509.79,65.907 1509.75,65.847 C1509.41,65.424 1508.87,65.21 1508.33,65.298 C1508.32,65.3 1508.31,65.3 1508.29,65.302 C1508.23,65.314 1508.17,65.318 1508.1,65.318 C1508.01,65.318 1507.92,65.309 1507.84,65.289 C1507.59,65.231 1507.36,65.09 1507.2,64.881 C1507.07,64.722 1506.92,64.597 1506.75,64.504 C1506.25,64.226 1505.62,64.252 1505.13,64.606 C1505.12,64.619 1505.1,64.627 1505.08,64.64 C1505.02,64.685 1504.96,64.72 1504.9,64.759 C1504.55,64.985 1504.15,65.111 1503.73,65.111 C1502.52,65.111 1501.54,64.128 1501.54,62.92 C1501.54,62.848 1501.55,62.774 1501.55,62.697 C1501.56,62.62 1501.57,62.54 1501.59,62.458 C1501.67,62.053 1501.58,61.634 1501.34,61.298 C1501.1,60.963 1500.73,60.739 1500.33,60.681 C1499.41,60.548 1498.68,59.847 1498.5,58.935 C1498.5,58.932 1498.5,58.93 1498.5,58.928 C1498.49,58.87 1498.48,58.807 1498.46,58.758 C1498.35,58.347 1498.06,58.005 1497.68,57.816 C1497.29,57.627 1496.85,57.611 1496.45,57.77 L1496.42,57.78 C1496.4,57.788 1496.38,57.795 1496.35,57.803 C1496.19,57.86 1496.03,57.908 1495.86,57.953 C1494.53,58.31 1493.1,58.277 1491.78,57.856 C1491.72,57.837 1491.66,57.823 1491.6,57.803 C1491.44,57.747 1491.28,57.718 1491.11,57.718 L1474.69,57.718 C1473.64,57.718 1472.75,57.912 1472.03,58.295 C1471.6,58.525 1471.23,58.823 1470.92,59.189 C1470.6,59.575 1470.49,60.096 1470.63,60.579 C1470.69,60.776 1470.72,60.983 1470.72,61.195 C1470.72,61.405 1470.69,61.603 1470.63,61.796 C1470.61,61.862 1470.58,61.922 1470.56,61.984 C1470.53,62.046 1470.51,62.11 1470.48,62.169 C1470.47,62.189 1470.45,62.206 1470.44,62.225 C1470.39,62.323 1470.33,62.418 1470.26,62.508 C1469.86,63.006 1469.26,63.292 1468.63,63.292 C1467.47,63.292 1466.54,62.351 1466.54,61.194 C1466.54,61.001 1466.56,60.813 1466.62,60.622 C1466.73,60.21 1466.97,59.847 1467.3,59.571 C1467.65,59.284 1467.85,58.856 1467.85,58.403 C1467.85,57.951 1467.65,57.523 1467.3,57.238 C1467.11,57.081 1466.95,56.894 1466.82,56.68 C1466.82,56.676 1466.8,56.648 1466.8,56.645 L1466.79,56.615 C1466.62,56.311 1466.54,55.977 1466.54,55.621 C1466.54,54.464 1467.47,53.524 1468.63,53.524 C1468.74,53.524 1468.85,53.534 1468.98,53.555 C1469.04,53.564 1469.1,53.576 1469.16,53.59 C1469.62,53.704 1470.12,53.586 1470.48,53.276 C1470.85,52.965 1471.05,52.497 1471.02,52.018 C1471.02,51.956 1471.02,51.897 1471.02,51.841 C1471.11,50.348 1472.35,49.179 1473.85,49.179 C1474.47,49.179 1475.06,49.377 1475.55,49.752 C1475.93,50.039 1476.41,50.131 1476.87,50.004 C1477.32,49.876 1477.69,49.541 1477.87,49.1 C1478.63,47.144 1480.48,45.88 1482.58,45.88 C1483.78,45.88 1484.94,46.303 1485.85,47.073 C1486.17,47.345 1486.59,47.47 1487.01,47.416 C1487.43,47.362 1487.81,47.134 1488.05,46.789 C1489.41,44.857 1491.63,43.705 1493.98,43.705 C1496.2,43.705 1498.27,44.706 1499.65,46.452 C1500.16,47.1 1501.1,47.216 1501.75,46.712 C1502.56,46.091 1503.52,45.763 1504.55,45.763 C1505.84,45.763 1507.03,46.285 1507.91,47.234 C1508.22,47.573 1508.67,47.75 1509.14,47.711 C1509.6,47.674 1510.02,47.428 1510.27,47.043 C1511.28,45.518 1512.98,44.606 1514.81,44.606 C1516.37,44.606 1517.86,45.278 1518.9,46.449 C1519.31,46.913 1519.96,47.079 1520.54,46.867 C1521.12,46.655 1521.74,46.547 1522.38,46.547 C1525.39,46.547 1527.84,49.001 1527.84,52.018 C1527.84,52.801 1527.68,53.551 1527.37,54.247 C1527.04,54.987 1527.35,55.857 1528.08,56.216 C1529.72,57.026 1530.74,58.667 1530.74,60.501 C1530.74,61.598 1530.38,62.629 1529.7,63.475 Z M1521.7,130.122 C1521.7,130.307 1521.7,130.49 1521.69,130.668 C1521.68,130.839 1521.66,131.006 1521.64,131.154 C1521.6,131.398 1521.56,131.61 1521.51,131.81 C1521.47,131.933 1521.43,132.055 1521.39,132.177 C1521.37,132.223 1521.36,132.266 1521.32,132.343 C1521.23,132.55 1521.12,132.733 1521,132.902 C1520.4,133.702 1519.33,134.09 1517.74,134.09 L1476.9,134.09 C1474.09,134.09 1472.94,132.941 1472.94,130.122 L1472.94,126.268 C1472.94,126.258 1472.94,126.25 1472.94,126.24 L1472.94,119.727 C1472.94,119.717 1472.94,119.708 1472.94,119.699 L1472.94,74.292 C1472.94,74.282 1472.94,74.273 1472.94,74.264 L1472.94,68.026 C1472.94,68.016 1472.94,68.007 1472.94,67.998 L1472.94,63.928 C1472.96,63.904 1472.97,63.878 1472.98,63.854 C1473.07,63.707 1473.15,63.556 1473.23,63.401 C1473.25,63.351 1473.27,63.301 1473.3,63.251 C1473.38,63.06 1473.46,62.865 1473.52,62.662 C1473.66,62.188 1473.73,61.694 1473.73,61.194 C1473.73,61.078 1473.73,60.961 1473.72,60.845 C1474.04,60.751 1474.43,60.731 1474.69,60.731 L1490.86,60.731 C1491.15,60.825 1491.45,60.901 1491.75,60.967 C1493.17,61.282 1494.66,61.297 1496.08,61.001 C1496.59,61.945 1497.39,62.705 1498.35,63.179 C1498.42,63.21 1498.48,63.244 1498.54,63.272 C1498.72,65.978 1500.98,68.124 1503.73,68.124 C1503.76,68.124 1503.79,68.119 1503.83,68.118 C1504.43,68.107 1505.01,67.993 1505.56,67.787 C1505.66,67.75 1505.75,67.716 1505.85,67.673 C1506.42,68.043 1507.08,68.266 1507.78,68.319 C1509.09,70.059 1511.17,71.107 1513.38,71.107 C1514.46,71.107 1515.51,70.861 1516.46,70.402 C1516.47,70.445 1516.49,70.487 1516.5,70.53 C1516.51,70.564 1516.52,70.596 1516.53,70.63 C1516.59,70.793 1516.66,70.954 1516.72,71.112 C1516.75,71.161 1516.77,71.208 1516.79,71.255 C1516.84,71.364 1516.89,71.473 1516.95,71.579 C1516.97,71.636 1517.01,71.692 1517.04,71.747 C1517.09,71.842 1517.14,71.937 1517.2,72.03 C1517.23,72.086 1517.27,72.143 1517.3,72.199 C1517.36,72.289 1517.42,72.377 1517.48,72.465 C1517.52,72.519 1517.55,72.572 1517.59,72.625 C1517.66,72.717 1517.73,72.807 1517.8,72.896 C1517.84,72.939 1517.87,72.984 1517.91,73.027 C1518.01,73.151 1518.12,73.271 1518.23,73.387 C1518.28,73.443 1518.34,73.494 1518.39,73.547 C1518.45,73.61 1518.52,73.673 1518.58,73.734 C1518.65,73.795 1518.71,73.853 1518.78,73.912 C1518.84,73.96 1518.89,74.009 1518.95,74.056 C1519.03,74.117 1519.1,74.176 1519.18,74.234 C1519.23,74.273 1519.28,74.311 1519.33,74.348 C1519.42,74.409 1519.5,74.47 1519.59,74.527 C1519.63,74.554 1519.67,74.58 1519.71,74.606 C1520.18,74.901 1520.67,75.147 1521.19,75.339 C1521.23,75.351 1521.26,75.364 1521.29,75.376 C1521.4,75.414 1521.52,75.45 1521.63,75.484 C1521.65,75.492 1521.68,75.501 1521.7,75.509 L1521.7,130.122 Z M1463.41,124.734 C1458.11,124.734 1454.11,112.868 1454.11,97.133 C1454.11,89.664 1455.05,82.724 1456.74,77.593 C1457.73,74.583 1459.92,69.532 1463.41,69.532 L1469.93,69.532 L1469.93,72.757 L1464.65,72.757 C1461.48,72.757 1460.22,77.511 1459.54,81.087 C1458.74,85.299 1458.3,90.949 1458.3,96.995 C1458.3,103.042 1458.74,108.691 1459.54,112.903 C1460.22,116.479 1461.48,121.233 1464.65,121.233 L1469.93,121.233 L1469.93,124.734 L1463.41,124.734 Z M1469.93,118.22 L1464.68,118.22 C1463.53,117.74 1461.31,110.872 1461.31,96.995 C1461.31,83.118 1463.53,76.25 1464.68,75.77 L1469.93,75.77 L1469.93,118.22 Z M1530.57,54.214 C1530.76,53.505 1530.86,52.77 1530.86,52.018 C1530.86,47.34 1527.05,43.535 1522.38,43.535 C1521.73,43.535 1521.08,43.608 1520.46,43.754 C1518.92,42.371 1516.91,41.594 1514.81,41.594 C1512.54,41.594 1510.4,42.499 1508.83,44.073 C1507.57,43.22 1506.08,42.75 1504.55,42.75 C1503.33,42.75 1502.16,43.031 1501.1,43.572 C1499.2,41.728 1496.67,40.692 1493.98,40.692 C1491.15,40.692 1488.46,41.87 1486.54,43.899 C1485.33,43.227 1483.97,42.867 1482.58,42.867 C1479.8,42.867 1477.29,44.255 1475.82,46.509 C1475.2,46.283 1474.53,46.167 1473.85,46.167 C1471.15,46.167 1468.85,48.008 1468.19,50.529 C1465.58,50.75 1463.52,52.949 1463.52,55.621 C1463.52,56.474 1463.74,57.317 1464.14,58.057 C1464.15,58.068 1464.16,58.102 1464.17,58.112 L1464.21,58.184 C1464.26,58.26 1464.3,58.334 1464.35,58.406 C1464.07,58.836 1463.85,59.308 1463.72,59.807 C1463.59,60.255 1463.52,60.722 1463.52,61.194 C1463.52,64.012 1465.81,66.305 1468.63,66.305 C1469.07,66.305 1469.51,66.242 1469.93,66.131 L1469.93,66.519 L1463.41,66.519 C1460.58,66.519 1456.64,68.277 1453.88,76.65 C1452.09,82.077 1451.1,89.352 1451.1,97.133 C1451.1,112.371 1454.91,127.747 1463.41,127.747 L1469.93,127.747 L1469.93,130.122 C1469.93,134.624 1472.4,137.103 1476.9,137.103 L1517.74,137.103 C1520.31,137.103 1522.22,136.298 1523.41,134.71 C1523.67,134.357 1523.9,133.967 1524.07,133.584 C1524.12,133.471 1524.16,133.358 1524.21,133.242 C1524.29,133.031 1524.36,132.812 1524.42,132.598 C1524.5,132.282 1524.57,131.949 1524.62,131.566 C1524.66,131.328 1524.68,131.088 1524.69,130.858 C1524.71,130.622 1524.72,130.374 1524.72,130.122 L1524.72,75.771 C1526.73,75.553 1528.58,74.563 1529.88,72.977 C1529.9,72.946 1529.93,72.917 1529.95,72.893 C1530.97,71.616 1531.56,70.077 1531.64,68.432 C1531.65,68.298 1531.65,68.163 1531.65,68.026 C1531.65,67.452 1531.59,66.881 1531.47,66.338 C1531.45,66.251 1531.43,66.164 1531.41,66.077 C1531.62,65.867 1531.82,65.644 1532.01,65.41 C1532.02,65.401 1532.04,65.375 1532.05,65.366 C1533.15,63.993 1533.75,62.265 1533.75,60.501 C1533.75,57.971 1532.56,55.664 1530.57,54.214 L1530.57,54.214 Z" transform="translate(-1451 -40)"/>
</svg>
