<svg xmlns="http://www.w3.org/2000/svg" width="51" height="147" viewBox="0 0 51 147">
  <path fill-rule="evenodd" d="M2233.09,310.839 L2276.17,310.839 L2276.17,332.973 C2276.17,342.804 2273.63,344.29 2264.89,344.29 L2244.37,344.29 C2235.63,344.29 2233.09,342.804 2233.09,332.973 L2233.09,310.839 Z M2233.09,307.604 L2276.17,307.604 L2276.17,273.346 L2233.09,273.346 L2233.09,307.604 Z M2233.09,251.831 C2233.09,245.523 2233.09,242.357 2238.77,237.962 L2238.96,237.819 L2270.31,237.819 L2270.49,237.962 C2276.17,242.357 2276.17,245.523 2276.17,251.831 L2276.17,270.11 L2233.09,270.11 L2233.09,251.831 Z M2243.35,233.503 C2245.07,231.083 2246.15,228.176 2246.67,224.619 L2246.75,224.034 L2262.51,224.034 L2262.59,224.618 C2263.11,228.177 2264.2,231.084 2265.92,233.503 L2266.69,234.583 L2242.58,234.583 L2243.35,233.503 Z M2262.23,220.797 L2247.03,220.797 L2247.06,220.087 C2247.08,219.398 2247.1,218.709 2247.11,218.027 L2247.12,217.353 L2262.14,217.353 L2262.15,218.027 C2262.16,218.71 2262.18,219.398 2262.21,220.087 L2262.23,220.797 Z M2243.58,214.118 L2243.58,206.577 L2243.93,206.381 C2245.22,205.644 2249.12,204.852 2254.61,204.852 C2260.1,204.852 2264,205.644 2265.3,206.381 L2265.64,206.577 L2265.64,214.118 L2243.58,214.118 Z M2244.37,347.526 L2264.89,347.526 C2274.52,347.526 2279.41,345.274 2279.41,332.973 L2279.41,251.831 C2279.41,245.028 2279.41,240.528 2271.86,234.938 L2271.68,234.804 C2268.5,232.409 2266.73,229.337 2265.93,224.838 L2265.79,224.035 L2267.26,224.035 C2268.15,224.035 2268.88,223.309 2268.88,222.418 C2268.88,221.524 2268.15,220.799 2267.26,220.799 L2265.5,220.799 L2265.46,219.982 C2265.43,219.335 2265.41,218.695 2265.4,218.045 L2265.39,217.353 L2267.26,217.353 C2268.15,217.353 2268.88,216.627 2268.88,215.735 L2268.88,206.43 C2268.88,202.242 2259.94,201.617 2254.61,201.617 C2249.28,201.617 2240.34,202.242 2240.34,206.43 L2240.34,215.735 C2240.34,216.627 2241.07,217.353 2241.96,217.353 L2243.87,217.353 L2243.86,218.045 C2243.85,218.713 2243.82,219.37 2243.8,220.035 L2243.77,220.69 L2243.11,220.799 L2241.96,220.799 C2241.07,220.799 2240.34,221.524 2240.34,222.418 C2240.34,223.309 2241.07,224.035 2241.96,224.035 L2243.48,224.035 L2243.33,224.837 C2242.53,229.394 2240.72,232.497 2237.46,234.899 C2229.85,240.508 2229.85,245.012 2229.85,251.831 L2229.85,332.973 C2229.85,345.274 2234.74,347.526 2244.37,347.526 L2244.37,347.526 Z" transform="translate(-2229 -201)"/>
</svg>
