<svg xmlns="http://www.w3.org/2000/svg" width="41" height="87" viewBox="0 0 41 87">
  <path fill-rule="evenodd" d="M1617.32,505.124 L1615.98,499.558 L1584.29,499.558 L1583.61,505.124 L1617.32,505.124 Z M1585.64,447.734 L1600.26,452.192 C1600.47,452.2 1600.66,452.263 1600.83,452.366 L1614.38,456.498 L1614.38,423.935 L1585.64,423.935 L1585.64,447.734 Z M1584.45,496.795 L1615.69,496.795 L1615.69,459.767 L1610.28,458.12 L1610.28,489.299 C1610.28,490.062 1609.71,490.681 1609.01,490.681 L1591.42,490.681 C1590.72,490.681 1590.15,490.062 1590.15,489.299 L1590.15,451.979 L1584.45,450.238 L1584.45,496.795 Z M1592.69,487.918 L1607.74,487.918 L1607.74,457.345 L1601.49,455.437 L1601.49,478.886 C1601.49,479.649 1600.92,480.268 1600.22,480.268 C1599.52,480.268 1598.95,479.649 1598.95,478.886 L1598.95,454.662 L1592.69,452.754 L1592.69,487.918 Z M1620.24,506.505 C1620.24,507.268 1619.68,507.887 1618.97,507.887 L1582.16,507.887 C1581.79,507.887 1581.44,507.715 1581.2,507.415 C1580.96,507.116 1580.85,506.718 1580.9,506.323 L1581.91,498.086 L1581.91,448.417 C1581.91,447.984 1582.09,447.577 1582.41,447.315 C1582.61,447.148 1582.85,447.062 1583.1,447.046 L1583.1,422.553 C1583.1,421.79 1583.67,421.172 1584.37,421.172 L1615.65,421.172 C1616.35,421.172 1616.92,421.79 1616.92,422.553 L1616.92,457.274 L1617.3,457.391 C1617.85,457.559 1618.23,458.102 1618.23,458.721 L1618.23,497.999 L1620.16,506.022 C1620.22,506.172 1620.24,506.335 1620.24,506.505 Z M1609.01,446.182 C1609.72,446.182 1610.28,445.564 1610.28,444.801 C1610.28,444.038 1609.72,443.419 1609.01,443.419 L1591.42,443.419 C1590.72,443.419 1590.15,444.038 1590.15,444.801 C1590.15,445.564 1590.72,446.182 1591.42,446.182 L1609.01,446.182 Z M1590.15,433.402 C1590.15,432.64 1590.72,432.021 1591.42,432.021 L1609.01,432.021 C1609.72,432.021 1610.28,432.64 1610.28,433.402 C1610.28,434.166 1609.72,434.784 1609.01,434.784 L1591.42,434.784 C1590.72,434.784 1590.15,434.166 1590.15,433.402 L1590.15,433.402 Z" transform="translate(-1580 -421)"/>
</svg>
