<svg xmlns="http://www.w3.org/2000/svg" width="345" height="162" viewBox="0 0 345 162">
  <path fill-rule="evenodd" d="M310.51577,127.586887 C310.51577,124.496246 308.897372,122.015178 305.660576,120.140117 C302.420216,118.272187 296.271016,116.329396 287.205848,114.311746 C278.14068,112.301225 270.658263,109.656178 264.758596,106.380169 C258.858929,103.107726 254.363775,99.1365905 251.26957,94.4560694 C248.175364,89.7826777 246.628261,84.4212887 246.628261,78.375467 C246.628261,67.6562536 251.05212,58.8263595 259.903402,51.8857848 C268.75112,44.9380805 280.333004,41.4695754 294.652618,41.4695754 C310.048788,41.4695754 322.422047,44.959469 331.775959,51.9356913 C341.126307,58.9154784 345.803264,68.0911535 345.803264,79.4555872 L309.328708,79.4555872 C309.328708,70.1052392 304.398654,65.4282828 294.545675,65.4282828 C290.731389,65.4282828 287.530241,66.4870145 284.938665,68.6080428 C282.350654,70.7326358 281.053084,73.3776828 281.053084,76.5431837 C281.053084,79.7799798 282.635834,82.407203 285.801335,84.4212887 C288.966836,86.4353743 294.021657,88.0894199 300.965796,89.3834253 C307.906371,90.6774308 314.005664,92.2280985 319.256546,94.0247342 C336.809391,100.066991 345.589379,110.896712 345.589379,126.506767 C345.589379,137.15825 340.858951,145.824165 331.398096,152.515207 C321.93724,159.206249 309.688748,162.553553 294.652618,162.553553 C284.64992,162.553553 275.730907,160.753352 267.88845,157.156516 C260.045992,153.55968 253.928876,148.668838 249.544229,142.480427 C245.152453,136.292015 242.96013,129.782775 242.96013,122.945578 L276.953618,122.945578 C277.096208,128.342615 278.896408,132.278102 282.350654,134.7663 C285.801335,137.243804 290.228759,138.487903 295.622231,138.487903 C300.587932,138.487903 304.309535,137.479078 306.794168,135.464992 C309.275236,133.454471 310.51577,130.823683 310.51577,127.586887 L310.51577,127.586887 Z M197.951554,62.8367071 C197.951554,51.5435684 196.475746,43.1057972 193.527695,37.5269582 C190.576079,31.9552487 185.899123,29.1676116 179.50039,29.1676116 C173.240683,29.1676116 168.688493,31.7556225 165.847385,36.9352092 C163.006276,42.1147958 161.476997,49.9608179 161.259547,60.4625813 L161.259547,100.608834 C161.259547,112.336872 162.735355,120.913669 165.686971,126.346353 C168.635022,131.779037 173.311978,134.491814 179.714275,134.491814 C185.899123,134.491814 190.469136,131.846767 193.420752,126.563803 C196.368803,121.273709 197.880259,112.982093 197.951554,101.685389 L197.951554,62.8367071 Z M234.319167,96.18141 C234.319167,117.409516 229.553092,133.775299 220.020942,145.285887 C210.488791,156.796476 197.053236,162.553553 179.714275,162.553553 C162.232725,162.553553 148.704486,156.764393 139.136688,145.178945 C129.56889,133.597061 124.784991,117.263361 124.784991,96.18141 L124.784991,67.4780159 C124.784991,46.2570392 129.551066,29.8876918 139.083217,18.3735384 C148.615367,6.8665146 162.08657,1.10943793 179.50039,1.10943793 C196.907081,1.10943793 210.399672,6.90216213 219.96747,18.4840458 C229.535268,30.0694942 234.319167,46.4317121 234.319167,67.5849585 L234.319167,96.18141 Z M56.6839428,82.4784981 C51.8643962,82.4784981 47.8362249,83.5871364 44.5994289,85.8079777 C41.3626328,88.0323838 38.9492948,90.7522906 37.3665443,93.9748277 L37.3665443,104.829502 C37.3665443,124.606753 44.2393888,134.491814 57.981513,134.491814 C63.517575,134.491814 68.1410601,132.02144 71.8484036,127.077127 C75.5521823,122.136379 77.4058541,115.933708 77.4058541,108.486939 C77.4058541,100.819154 75.5165348,94.5665767 71.741461,89.7327712 C67.9628224,84.8954009 62.9436497,82.4784981 56.6839428,82.4784981 L56.6839428,82.4784981 Z M89.4939327,0.998930574 L89.4939327,29.5989468 L87.8719699,29.5989468 C74.2760006,29.5989468 63.1076283,32.8535666 54.3668531,39.366371 C45.6225131,45.8756106 40.246865,54.9229546 38.2327794,66.5048383 C46.4317121,58.4484957 56.7944501,54.4203244 69.3102992,54.4203244 C82.9098332,54.4203244 93.7359892,59.3824611 101.795897,69.3102992 C109.852239,79.2381373 113.88041,92.263746 113.88041,108.376431 C113.88041,118.379129 111.524108,127.55124 106.811505,135.896327 C102.098901,144.24498 95.5148011,150.772043 87.0627709,155.484647 C78.6107407,160.193686 69.2390041,162.553553 58.9511259,162.553553 C47.8005774,162.553553 37.833527,160.019013 29.0571043,154.942804 C20.2806815,149.873725 13.4470493,142.626581 8.55264294,133.197809 C3.66180133,123.776166 1.14152071,112.910797 0.998930574,100.608834 L0.998930574,86.0396867 C0.998930574,69.8521417 4.47100034,55.3008185 11.4151399,42.3892818 C18.3557147,29.4741804 28.265729,19.3467161 41.1451829,12.0068889 C54.021072,4.67062653 68.3050387,0.998930574 83.9899535,0.998930574 L89.4939327,0.998930574 Z" transform="translate(-1 -1)"/>
</svg>
