<svg xmlns="http://www.w3.org/2000/svg" width="57" height="76" viewBox="0 0 57 76">
  <path fill-rule="evenodd" d="M934.547,631.279 C934.769,630.473 934.295,629.639 933.489,629.417 C924.936,627.063 919.775,622.197 917.709,614.543 C917.492,613.735 916.658,613.257 915.853,613.475 C915.046,613.693 914.568,614.524 914.786,615.331 C917.122,623.988 923.144,629.71 932.685,632.336 C932.82,632.374 932.955,632.391 933.088,632.391 C933.753,632.391 934.362,631.951 934.547,631.279 Z M934.426,567.875 C933.305,567.875 932.167,568.034 931.043,568.346 C925.232,569.96 919.505,575.878 915.332,584.583 C911.693,592.155 909.606,601.031 909.606,608.934 C909.606,618.663 913.083,626.789 919.398,631.814 C923.31,634.915 928.095,636.68 933.234,636.918 C933.657,636.936 934.048,636.945 934.426,636.945 C946.377,636.945 959.241,628.18 959.241,608.934 C959.241,599.751 956.454,589.413 951.786,581.279 C946.825,572.635 940.66,567.875 934.426,567.875 Z M934.426,639.974 C934.003,639.974 933.569,639.963 933.098,639.943 C927.316,639.676 921.93,637.685 917.515,634.186 C910.461,628.572 906.578,619.605 906.578,608.934 C906.578,600.592 908.774,591.239 912.602,583.273 C917.22,573.641 923.481,567.303 930.232,565.429 C931.619,565.043 933.03,564.847 934.426,564.847 C941.79,564.847 948.889,570.147 954.412,579.772 C959.332,588.343 962.269,599.245 962.269,608.934 C962.269,618.273 959.367,626.205 953.876,631.874 C948.817,637.097 941.909,639.974 934.426,639.974 L934.426,639.974 Z" transform="translate(-906 -564)"/>
</svg>
