<svg xmlns="http://www.w3.org/2000/svg" width="74" height="107" viewBox="0 0 74 107">
  <path fill-rule="evenodd" d="M227.599,286.062 C227.599,287.147 228.54,288.017 229.694,288.017 C230.857,288.017 231.79,287.147 231.79,286.062 C231.79,284.978 230.857,284.107 229.694,284.107 C228.54,284.107 227.599,284.978 227.599,286.062 Z M226.572,281.497 C227.724,281.497 228.667,280.617 228.667,279.542 C228.667,278.458 227.724,277.587 226.572,277.587 C225.409,277.587 224.477,278.458 224.477,279.542 C224.477,280.617 225.409,281.497 226.572,281.497 Z M205.596,286.062 C205.596,287.147 206.539,288.017 207.694,288.017 C208.854,288.017 209.787,287.147 209.787,286.062 C209.787,284.978 208.854,284.107 207.694,284.107 C206.539,284.107 205.596,284.978 205.596,286.062 Z M212.281,273.012 C212.281,274.097 213.211,274.967 214.376,274.967 C215.529,274.967 216.472,274.097 216.472,273.012 C216.472,271.937 215.529,271.067 214.376,271.067 C213.211,271.067 212.281,271.937 212.281,273.012 Z M214.034,244.565 L203.677,236.356 C202.151,235.146 200.407,231.853 200.407,230.177 L200.407,217.526 C200.407,216.717 199.704,216.06 198.838,216.06 C197.968,216.06 197.264,216.717 197.264,217.526 L197.264,230.177 C197.264,232.719 199.394,236.808 201.644,238.593 L211.996,246.801 C212.293,247.036 212.657,247.15 213.017,247.15 C213.46,247.15 213.904,246.973 214.214,246.633 C214.775,246.014 214.695,245.09 214.034,244.565 Z M216.472,238.917 C216.472,237.842 215.529,236.962 214.376,236.962 C213.211,236.962 212.281,237.842 212.281,238.917 C212.281,240.002 213.211,240.872 214.376,240.872 C215.529,240.872 216.472,240.002 216.472,238.917 Z M220.868,258.256 L220.868,254.437 C220.868,253.992 221.085,253.571 221.456,253.294 L238.276,240.715 C241.262,238.349 243.814,233.51 243.814,230.178 L243.814,212.756 L192.452,212.756 L192.452,230.178 C192.452,233.51 195.003,238.349 198.021,240.741 L214.811,253.294 C215.183,253.571 215.4,253.992 215.4,254.437 L215.4,258.256 C215.4,258.7 215.183,259.122 214.811,259.401 L197.989,271.98 C195.003,274.346 192.452,279.185 192.452,282.517 L192.452,299.939 L243.814,299.939 L243.814,282.517 C243.814,279.185 241.262,274.346 238.244,271.954 L221.456,259.401 C221.085,259.122 220.868,258.7 220.868,258.256 Z M224.011,255.142 L224.011,257.553 L240.244,269.692 C244.023,272.685 246.956,278.307 246.956,282.517 L246.956,301.405 C246.956,302.215 246.253,302.871 245.385,302.871 L190.88,302.871 C190.012,302.871 189.309,302.215 189.309,301.405 L189.309,282.517 C189.309,278.307 192.242,272.687 195.986,269.717 L212.255,257.553 L212.255,255.142 L196.021,243.003 C192.242,240.008 189.309,234.385 189.309,230.178 L189.309,211.29 C189.309,210.48 190.012,209.823 190.88,209.823 L245.385,209.823 C246.253,209.823 246.956,210.48 246.956,211.29 L246.956,230.178 C246.956,234.385 244.023,240.008 240.279,242.978 L224.011,255.142 Z M220.266,286.062 C220.266,287.147 221.206,288.017 222.361,288.017 C223.523,288.017 224.456,287.147 224.456,286.062 C224.456,284.978 223.523,284.107 222.361,284.107 C221.206,284.107 220.266,284.978 220.266,286.062 Z M253.184,306.563 L183.049,306.563 C182.184,306.563 181.477,307.219 181.477,308.029 C181.477,308.839 182.184,309.496 183.049,309.496 L253.184,309.496 C254.052,309.496 254.755,308.839 254.755,308.029 C254.755,307.219 254.052,306.563 253.184,306.563 Z M219.604,273.012 C219.604,274.097 220.547,274.967 221.7,274.967 C222.862,274.967 223.795,274.097 223.795,273.012 C223.795,271.937 222.862,271.067 221.7,271.067 C220.547,271.067 219.604,271.937 219.604,273.012 Z M223.795,238.917 C223.795,237.842 222.862,236.962 221.7,236.962 C220.547,236.962 219.604,237.842 219.604,238.917 C219.604,240.002 220.547,240.872 221.7,240.872 C222.862,240.872 223.795,240.002 223.795,238.917 Z M200.407,282.517 C200.407,280.841 202.151,277.548 203.68,276.338 L214.478,267.778 C215.139,267.253 215.219,266.329 214.658,265.71 C214.097,265.095 213.104,265.019 212.44,265.542 L201.644,274.102 C199.394,275.887 197.264,279.976 197.264,282.517 L197.264,295.168 C197.264,295.978 197.968,296.634 198.838,296.634 L234.019,296.634 C234.887,296.634 235.591,295.978 235.591,295.168 C235.591,294.358 234.887,293.702 234.019,293.702 L200.407,293.702 L200.407,282.517 Z M226.572,234.752 C227.724,234.752 228.667,233.881 228.667,232.797 C228.667,231.712 227.724,230.842 226.572,230.842 C225.409,230.842 224.477,231.712 224.477,232.797 C224.477,233.881 225.409,234.752 226.572,234.752 Z M222.361,228.086 C223.523,228.086 224.456,227.216 224.456,226.141 C224.456,225.056 223.523,224.176 222.361,224.176 C221.206,224.176 220.266,225.056 220.266,226.141 C220.266,227.216 221.206,228.086 222.361,228.086 Z M219.238,234.752 C220.391,234.752 221.333,233.881 221.333,232.797 C221.333,231.712 220.391,230.842 219.238,230.842 C218.076,230.842 217.143,231.712 217.143,232.797 C217.143,233.881 218.076,234.752 219.238,234.752 Z M229.694,228.086 C230.857,228.086 231.79,227.216 231.79,226.141 C231.79,225.056 230.857,224.176 229.694,224.176 C228.54,224.176 227.599,225.056 227.599,226.141 C227.599,227.216 228.54,228.086 229.694,228.086 Z M207.694,228.086 C208.854,228.086 209.787,227.216 209.787,226.141 C209.787,225.056 208.854,224.176 207.694,224.176 C206.539,224.176 205.596,225.056 205.596,226.141 C205.596,227.216 206.539,228.086 207.694,228.086 Z M183.05,206.878 L249.867,206.878 C250.735,206.878 251.439,206.221 251.439,205.411 C251.439,204.602 250.735,203.945 249.867,203.945 L183.05,203.945 C182.182,203.945 181.478,204.602 181.478,205.411 C181.478,206.221 182.182,206.878 183.05,206.878 Z M211.902,234.752 C213.057,234.752 214,233.881 214,232.797 C214,231.712 213.057,230.842 211.902,230.842 C210.752,230.842 209.81,231.712 209.81,232.797 C209.81,233.881 210.752,234.752 211.902,234.752 Z M219.238,281.497 C220.391,281.497 221.333,280.617 221.333,279.542 C221.333,278.458 220.391,277.587 219.238,277.587 C218.076,277.587 217.143,278.458 217.143,279.542 C217.143,280.617 218.076,281.497 219.238,281.497 Z M211.902,277.587 C210.752,277.587 209.81,278.458 209.81,279.542 C209.81,280.617 210.752,281.497 211.902,281.497 C213.057,281.497 214,280.617 214,279.542 C214,278.458 213.057,277.587 211.902,277.587 Z M215.025,288.017 C216.187,288.017 217.123,287.147 217.123,286.062 C217.123,284.978 216.187,284.107 215.025,284.107 C213.873,284.107 212.932,284.978 212.932,286.062 C212.932,287.147 213.873,288.017 215.025,288.017 Z M212.932,226.141 C212.932,225.056 213.873,224.176 215.025,224.176 C216.187,224.176 217.123,225.056 217.123,226.141 C217.123,227.216 216.187,228.086 215.025,228.086 C213.873,228.086 212.932,227.216 212.932,226.141 L212.932,226.141 Z" transform="translate(-181 -203)"/>
</svg>
