<svg xmlns="http://www.w3.org/2000/svg" width="95" height="97" viewBox="0 0 95 97">
  <path fill-rule="evenodd" d="M1528.19,449.137 C1527.34,450.811 1525.27,452.198 1522.95,452.668 C1522.39,452.777 1521.85,452.832 1521.33,452.832 C1518.96,452.832 1516.47,451.581 1514.07,450.371 C1511.63,449.145 1509.33,447.987 1507.01,447.987 C1505.43,447.987 1504.07,448.533 1502.86,449.245 C1502.13,449.671 1501.45,450.158 1500.81,450.621 C1500.45,450.874 1500.11,451.121 1499.76,451.357 C1498.73,452.048 1497.71,452.619 1496.57,452.784 C1496.36,452.815 1496.13,452.832 1495.91,452.832 C1494.18,452.832 1492.78,451.775 1491.16,450.551 C1489.31,449.159 1487.22,447.581 1484.34,447.581 C1481.53,447.581 1479.47,449.094 1477.65,450.429 C1475.89,451.718 1474.38,452.832 1472.3,452.832 C1470.34,452.832 1469.04,451.747 1467.53,450.49 C1465.77,449.031 1463.79,447.378 1460.6,447.378 C1457.51,447.378 1455.01,448.972 1452.8,450.378 C1450.81,451.64 1448.94,452.832 1446.87,452.832 C1446.49,452.832 1446.13,452.812 1445.8,452.771 C1443.23,452.463 1441.34,451.1 1440.61,449.029 C1440.34,448.277 1440.23,447.441 1440.26,446.532 C1441.04,446.695 1442.02,446.834 1443.07,446.834 C1445.49,446.834 1447.52,446.135 1449.11,444.755 C1449.36,444.542 1449.59,444.316 1449.8,444.087 C1450.51,443.307 1451.1,442.367 1451.55,441.282 L1517.39,441.282 C1517.44,441.361 1517.5,441.442 1517.55,441.524 C1518.03,442.233 1518.62,443.115 1519.38,443.939 C1519.4,443.955 1519.41,443.971 1519.43,443.987 C1521.18,445.856 1523.25,446.765 1525.75,446.765 C1526.61,446.765 1527.52,446.651 1528.48,446.427 C1528.74,447.356 1528.64,448.264 1528.19,449.137 Z M1514.64,503.435 C1511.13,507.387 1506.51,509.391 1500.91,509.391 L1467.96,509.391 C1462.37,509.391 1457.76,507.392 1454.24,503.448 C1443.66,491.581 1445.61,466.544 1446.46,459.152 C1446.59,458.015 1446.73,456.9 1446.89,455.823 C1447.09,455.823 1447.27,455.799 1447.47,455.786 C1447.63,455.775 1447.8,455.775 1447.95,455.755 C1448.14,455.732 1448.32,455.69 1448.5,455.656 C1448.66,455.626 1448.82,455.605 1448.98,455.566 C1449.14,455.526 1449.31,455.469 1449.47,455.42 C1449.63,455.372 1449.8,455.331 1449.96,455.275 C1450.11,455.22 1450.26,455.152 1450.42,455.09 C1450.58,455.026 1450.74,454.969 1450.9,454.899 C1451.04,454.835 1451.18,454.761 1451.32,454.692 C1451.48,454.613 1451.65,454.539 1451.81,454.455 C1451.9,454.406 1451.99,454.352 1452.08,454.302 C1452.88,453.867 1453.64,453.384 1454.4,452.902 C1456.45,451.599 1458.38,450.369 1460.6,450.369 C1462.7,450.369 1464.05,451.491 1465.62,452.79 C1467.32,454.211 1469.26,455.823 1472.3,455.823 C1472.68,455.823 1473.05,455.798 1473.41,455.752 C1475.89,455.43 1477.75,454.064 1479.42,452.84 C1479.63,452.689 1479.83,452.539 1480.03,452.394 C1481.04,451.667 1481.99,451.049 1483.03,450.755 C1483.45,450.638 1483.88,450.572 1484.34,450.572 C1486.22,450.572 1487.67,451.669 1489.36,452.939 C1491.15,454.291 1493.18,455.823 1495.91,455.823 C1498.68,455.823 1500.74,454.351 1502.55,453.051 C1504.1,451.939 1505.44,450.978 1507.01,450.978 C1508.62,450.978 1510.62,451.981 1512.72,453.043 C1515.31,454.346 1518.25,455.823 1521.33,455.823 C1521.55,455.823 1521.76,455.816 1521.98,455.803 C1522.13,456.835 1522.27,457.899 1522.4,458.984 C1523.26,466.398 1525.26,491.512 1514.64,503.435 Z M1447.99,437.322 C1447.82,437.021 1447.73,436.694 1447.73,436.35 C1447.73,435.282 1448.6,434.414 1449.66,434.412 L1449.66,434.413 L1519.21,434.413 L1519.21,434.412 C1519.72,434.413 1520.21,434.616 1520.57,434.984 C1520.94,435.354 1521.15,435.838 1521.15,436.35 C1521.15,436.693 1521.06,437.018 1520.88,437.321 C1520.53,437.92 1519.89,438.292 1519.21,438.292 L1450.52,438.292 C1450.51,438.292 1450.51,438.29 1450.51,438.29 C1450.5,438.29 1450.5,438.292 1450.5,438.292 L1449.66,438.292 C1449.15,438.292 1448.67,438.088 1448.3,437.719 C1448.18,437.597 1448.07,437.466 1447.99,437.322 Z M1457.94,419.668 L1510.94,419.668 C1515.05,419.668 1517.72,422.332 1517.72,426.454 L1517.72,431.421 L1451.16,431.421 L1451.16,426.454 C1451.16,422.332 1453.82,419.668 1457.94,419.668 Z M1530.64,443.904 C1530.29,443.279 1529.55,442.99 1528.87,443.211 C1527.73,443.585 1526.68,443.774 1525.75,443.774 C1524.12,443.774 1522.81,443.202 1521.64,441.974 C1521.61,441.944 1521.59,441.919 1521.57,441.897 C1521.3,441.609 1521.06,441.301 1520.83,440.993 C1521.92,440.608 1522.87,439.853 1523.46,438.826 C1523.9,438.075 1524.14,437.219 1524.14,436.35 C1524.14,435.04 1523.62,433.805 1522.69,432.87 C1522.12,432.305 1521.44,431.915 1520.71,431.678 L1520.71,426.454 C1520.71,420.697 1516.69,416.677 1510.94,416.677 L1457.94,416.677 C1452.19,416.677 1448.17,420.697 1448.17,426.454 L1448.17,431.679 C1446.19,432.316 1444.74,434.157 1444.74,436.35 C1444.74,437.214 1444.97,438.067 1445.4,438.809 C1445.61,439.177 1445.87,439.521 1446.18,439.834 C1446.78,440.435 1447.52,440.841 1448.31,441.069 C1448.09,441.439 1447.85,441.779 1447.58,442.073 C1447.45,442.22 1447.31,442.358 1447.15,442.496 C1446.12,443.39 1444.75,443.843 1443.07,443.843 C1441.16,443.843 1439.56,443.242 1439.54,443.238 C1439.14,443.08 1438.68,443.109 1438.29,443.318 C1437.91,443.527 1437.63,443.896 1437.54,444.325 C1437.1,446.412 1437.19,448.332 1437.79,450.028 C1438.74,452.719 1440.99,454.666 1443.93,455.443 C1443.77,456.539 1443.62,457.657 1443.49,458.811 C1442.6,466.514 1440.6,492.643 1452.01,505.439 C1456.11,510.045 1461.48,512.381 1467.96,512.381 L1500.91,512.381 C1507.4,512.381 1512.77,510.041 1516.88,505.423 C1528.32,492.571 1526.27,466.364 1525.37,458.639 C1525.23,457.471 1525.08,456.337 1524.91,455.228 C1527.55,454.358 1529.77,452.629 1530.86,450.501 C1531.93,448.412 1531.85,446.069 1530.64,443.904 L1530.64,443.904 Z" transform="translate(-1437 -416)"/>
</svg>
