<?xml version="1.0" encoding="utf-8"?>
<!-- Generator: Adobe Illustrator 21.1.0, SVG Export Plug-In . SVG Version: 6.00 Build 0)  -->
<svg version="1.1" id="Layer_1" xmlns="http://www.w3.org/2000/svg" xmlns:xlink="http://www.w3.org/1999/xlink" x="0px" y="0px"
	 viewBox="0 0 558.98169 800" style="enable-background:new 0 0 558.98169 800;" xml:space="preserve">
<style type="text/css">
	.st0{fill-opacity:0.9;}
</style>
<g id="_x36_.-Ten-new-ideas-about-to-change-your-life---LIST">
	<g id="_x31_0NewIdeas_x5F_LF" transform="translate(-954.000000, -4680.000000)">
		<g id="Fill-1" transform="translate(917.000000, 4680.000000)">
			<path class="st0" d="M313.81418,138.93646c52.936-0.00011,85.75507,39.53044,96.92288,88.09566
				c10.47595,45.55638,9.80301,114.43336-25.82043,149.72115c-1.52792,1.51355-3.12836,2.95346-4.8284,4.27225
				c-15.38303,11.93295-35.98618,16.57144-59.85007,16.57144c-31.00165,0-55.85294-12.02713-74.55386-36.08136
				c-18.70093-24.04236-28.05139-55.12729-28.05139-93.25482c0-37.05685,9.172-67.86819,27.51605-92.44589
				C263.50461,151.23755,286.39264,138.93683,313.81418,138.93646z M257.7114,535.46277
				c61.99146,0,113.28815-19.95007,153.90201-59.8501c-9.96909,57.35187-36.60483,102.1532-79.89532,134.40399
				c-43.27863,32.23889-98.59625,48.35834-165.92911,48.35834h-8.0181V800h27.25436
				c77.68259,0,148.39398-18.17749,212.15799-54.50867c63.78775-36.34308,112.85986-86.49774,147.22815-150.44019
				c34.39209-63.95435,51.57031-135.99808,51.57031-216.16702v-72.13895c-0.7019-60.92078-13.16919-114.7276-37.40186-161.39661
				c-24.22083-46.66907-58.06567-82.56006-101.53461-107.6731C413.57626,12.55054,364.24246,0,309.00809,0
				C258.0683,0,211.67285,11.65833,169.798,34.99884c-41.86295,23.32855-74.45871,55.6626-97.79916,96.99023
				C48.67023,173.31665,37,218.73663,37,268.26077c0,79.80014,19.96191,144.28979,59.8501,193.45706
				C136.76208,510.8851,190.37854,535.46277,257.7114,535.46277z"/>
		</g>
	</g>
</g>
</svg>
