<?xml version="1.0" encoding="utf-8"?>
<!-- Generator: Adobe Illustrator 21.1.0, SVG Export Plug-In . SVG Version: 6.00 Build 0)  -->
<svg version="1.1" id="Layer_1" xmlns="http://www.w3.org/2000/svg" xmlns:xlink="http://www.w3.org/1999/xlink" x="0px" y="0px"
	 viewBox="0 0 558.98169 800" style="enable-background:new 0 0 558.98169 800;" xml:space="preserve">
<style type="text/css">
	.st0{fill-opacity:0.9;}
</style>
<g id="_x36_.-Ten-new-ideas-about-to-change-your-life---LIST">
	<g id="_x31_0NewIdeas_x5F_LF" transform="translate(-954.000000, -4680.000000)">
		<g id="Fill-1" transform="translate(917.000000, 4680.000000)">
			<path class="st0" d="M319.16751,661.06354c-52.936,0.00012-85.75505-39.53046-96.9229-88.09564
				c-10.47594-45.5564-9.80298-114.43338,25.82043-149.72116c1.52792-1.51355,3.12837-2.95346,4.82843-4.27225
				c15.38301-11.93295,35.98616-16.57144,59.85005-16.57144c31.00165,0,55.85294,12.02713,74.55386,36.08136
				c18.70093,24.04236,28.05139,55.12729,28.05139,93.25485c0,37.05682-9.172,67.86816-27.51605,92.44586
				C369.47708,648.76245,346.58905,661.06317,319.16751,661.06354z M375.27029,264.53723
				c-61.99146,0-113.28815,19.95004-153.90199,59.8501c9.96907-57.3519,36.60481-102.15321,79.89531-134.40399
				c43.27863-32.23886,98.59625-48.35831,165.92911-48.35831h8.0181V0h-27.25436c-77.68259,0-148.39398,18.17749-212.15797,54.50869
				C172.01071,90.85178,122.93861,141.00642,88.5703,204.94885C54.17821,268.90317,37,340.94693,37,421.11588v72.13895
				c0.70188,60.92078,13.16917,114.7276,37.40186,161.39661c24.22079,46.66907,58.06567,82.56006,101.53462,107.6731
				C219.40543,787.44946,268.73923,800,323.9736,800c50.93979,0,97.33524-11.65833,139.21008-34.99884
				c41.86295-23.32855,74.45871-55.6626,97.79916-96.99023c23.32861-41.32758,34.99884-86.74756,34.99884-136.27167
				c0-79.80017-19.96191-144.28983-59.8501-193.45709C496.2196,289.1149,442.60315,264.53723,375.27029,264.53723z"/>
		</g>
	</g>
</g>
</svg>
