<svg xmlns="http://www.w3.org/2000/svg" width="65" height="114" viewBox="0 0 65 114">
  <path fill-rule="evenodd" d="M966.926,379.819 L976.205,379.819 L976.205,376.819 L966.926,376.819 L966.926,379.819 Z M959.871,379.819 L963.205,379.819 L963.205,376.819 L959.871,376.819 L959.871,379.819 Z M997.876,379.362 C997.876,376.33 995.409,373.862 992.376,373.862 L944.845,373.862 C941.813,373.862 939.345,376.33 939.345,379.362 L939.345,475.029 C939.345,478.062 941.813,480.529 944.845,480.529 L992.376,480.529 C995.409,480.529 997.876,478.062 997.876,475.029 L997.876,379.362 Z M1000.88,379.362 L1000.88,475.029 C1000.88,479.716 997.063,483.529 992.376,483.529 L944.845,483.529 C940.159,483.529 936.345,479.716 936.345,475.029 L936.345,379.362 C936.345,374.675 940.159,370.862 944.845,370.862 L992.376,370.862 C997.063,370.862 1000.88,374.675 1000.88,379.362 Z M972.368,471.17 C972.368,469.286 970.834,467.753 968.951,467.753 C967.067,467.753 965.534,469.286 965.534,471.17 C965.534,473.055 967.067,474.587 968.951,474.587 C970.834,474.587 972.368,473.055 972.368,471.17 Z M975.368,471.17 C975.368,474.709 972.489,477.587 968.951,477.587 C965.413,477.587 962.534,474.709 962.534,471.17 C962.534,467.632 965.413,464.753 968.951,464.753 C972.489,464.753 975.368,467.632 975.368,471.17 Z M946.384,459.056 L990.805,459.056 L990.805,386.195 L946.384,386.195 L946.384,459.056 Z M943.384,462.056 L993.805,462.056 L993.805,383.195 L943.384,383.195 L943.384,462.056 Z" transform="translate(-936 -370)"/>
</svg>
