<svg xmlns="http://www.w3.org/2000/svg" width="112" height="112" viewBox="0 0 112 112">
  <path fill-rule="evenodd" d="M349.611,222.162 C344.645,222.162 340.604,218.122 340.604,213.155 C340.604,208.188 344.645,204.148 349.611,204.148 C354.577,204.148 358.618,208.188 358.618,213.155 C358.618,218.122 354.577,222.162 349.611,222.162 Z M349.611,201.251 C343.047,201.251 337.706,206.591 337.706,213.155 C337.706,219.719 343.047,225.06 349.611,225.06 C356.175,225.06 361.516,219.719 361.516,213.155 C361.516,206.591 356.175,201.251 349.611,201.251 Z M359.805,241.488 C359.62,242.264 358.836,242.746 358.06,242.562 C352.429,241.215 346.245,241.261 340.644,242.689 C340.528,242.719 340.408,242.734 340.287,242.734 C339.624,242.734 339.047,242.286 338.883,241.643 C338.788,241.268 338.844,240.878 339.042,240.544 C339.24,240.212 339.555,239.977 339.93,239.882 C343.047,239.087 346.332,238.689 349.618,238.689 C352.703,238.689 355.789,239.04 358.733,239.743 C359.51,239.93 359.991,240.712 359.805,241.488 Z M326.663,256.72 C326.663,258.48 325.231,259.912 323.472,259.912 C321.712,259.912 320.28,258.48 320.28,256.72 C320.28,254.961 321.712,253.529 323.472,253.529 C325.231,253.529 326.663,254.961 326.663,256.72 Z M403.126,268.377 C402.665,268.721 402.053,268.897 401.419,268.897 C400.907,268.897 400.381,268.782 399.907,268.55 C399.104,268.154 398.141,267.294 398.11,265.438 C398.11,263.322 399.077,261.636 400.633,261.034 L400.772,260.98 L400.897,261.06 C402.044,261.796 403.504,263.192 403.944,265.67 L403.945,265.673 C404.153,266.906 403.878,267.816 403.126,268.377 Z M375.806,293.454 C375.524,293.678 375.338,293.996 375.279,294.348 L372.774,309.292 L364.777,309.285 L363.534,301.807 C363.467,301.401 363.228,301.042 362.88,300.82 C362.54,300.605 362.125,300.535 361.708,300.652 C354.473,302.701 346.455,302.85 339.131,301.073 C338.734,300.978 338.329,301.048 337.991,301.272 C337.656,301.492 337.426,301.845 337.36,302.243 L336.18,309.292 L328.182,309.285 L325.947,295.848 C325.883,295.464 325.665,295.118 325.346,294.897 C319.634,290.914 315.373,285.636 313.023,279.631 C312.844,279.17 312.446,278.836 311.96,278.738 L308.075,277.953 C307.983,277.935 307.885,277.926 307.788,277.926 C306.665,277.926 305.752,277.012 305.752,275.889 L305.752,261.948 C305.752,260.825 306.665,259.912 307.788,259.912 C307.885,259.912 307.981,259.902 308.075,259.883 L311.96,259.1 C312.445,259.001 312.844,258.667 313.024,258.206 C314.921,253.349 318.161,248.865 322.392,245.24 C322.811,244.881 322.989,244.327 322.857,243.792 C321.837,239.652 320.468,235.525 319.037,231.309 L318.818,230.664 L319.437,230.947 C324.444,233.244 328.877,235.597 332.991,238.139 C333.371,238.374 333.849,238.42 334.264,238.262 C339.108,236.44 344.271,235.515 349.611,235.515 C370.912,235.515 388.242,250.5 388.242,268.919 C388.242,278.211 383.709,287.154 375.806,293.454 Z M411.011,270.177 C411.162,270.534 411.443,270.811 411.803,270.957 C412.162,271.102 412.554,271.098 412.908,270.947 L412.909,270.946 C413.265,270.796 413.541,270.516 413.687,270.158 C413.832,269.799 413.83,269.405 413.678,269.048 C409.028,258.055 403.028,257.758 401.297,257.931 L401.218,257.94 L401.146,257.906 C400.338,257.538 399.474,257.274 398.58,257.12 C395.508,256.596 392.42,257.424 390.106,259.398 L389.77,259.685 L389.636,259.262 C384.675,243.574 368.216,232.618 349.611,232.618 C344.217,232.618 338.98,233.506 334.044,235.257 L333.913,235.304 L333.793,235.232 C328.797,232.196 323.446,229.475 316.954,226.671 C316.428,226.441 315.817,226.547 315.397,226.937 C314.976,227.325 314.823,227.926 315.008,228.468 L315.498,229.904 C317.291,235.164 318.702,239.3 319.785,243.462 L319.83,243.634 L319.697,243.753 C315.766,247.316 312.648,251.645 310.684,256.27 L310.624,256.412 L307.655,257.011 C304.942,257.113 302.854,259.279 302.854,261.948 L302.854,275.889 C302.854,278.559 304.942,280.724 307.607,280.819 L310.624,281.424 L310.684,281.566 C313.209,287.516 317.499,292.8 323.09,296.848 L323.188,296.919 L325.283,309.51 C325.537,311.063 326.863,312.19 328.438,312.19 L335.931,312.19 C337.506,312.19 338.833,311.065 339.086,309.517 L339.966,304.232 L340.264,304.292 C346.957,305.637 353.999,305.513 360.63,303.928 L360.936,303.854 L361.877,309.51 C362.131,311.063 363.458,312.19 365.033,312.19 L372.526,312.19 C374.101,312.19 375.428,311.065 375.681,309.518 L378.046,295.368 L378.131,295.299 C386.398,288.478 391.14,278.863 391.14,268.919 C391.14,267.039 390.969,265.138 390.633,263.267 L390.612,263.15 L390.679,263.051 C392.518,260.33 395.203,259.885 396.639,259.864 L397.259,259.855 L396.874,260.34 C395.803,261.691 395.212,263.511 395.212,265.461 C395.255,268.029 396.499,270.104 398.627,271.149 C400.636,272.139 403.177,271.954 404.858,270.702 C406.481,269.491 407.188,267.479 406.8,265.178 C406.718,264.717 406.602,264.253 406.455,263.8 L406.042,262.537 L406.949,263.509 C408.457,265.127 409.823,267.371 411.011,270.177 L411.011,270.177 Z" transform="translate(-302 -201)"/>
</svg>
