<svg xmlns="http://www.w3.org/2000/svg" width="129" height="92" viewBox="0 0 129 92">
  <path fill-rule="evenodd" d="M1666.37,57.847 C1667.25,57.847 1667.96,58.556 1667.96,59.432 L1667.96,65.773 C1667.96,66.649 1667.25,67.359 1666.37,67.359 C1665.5,67.359 1664.79,66.649 1664.79,65.773 L1664.79,59.432 C1664.79,58.556 1665.5,57.847 1666.37,57.847 Z M1602.8,105.397 C1602.8,106.273 1602.09,106.983 1601.22,106.983 L1591.21,106.983 C1590.73,106.983 1590.28,106.763 1589.97,106.387 L1583.95,98.863 C1583.49,98.284 1583.49,97.461 1583.95,96.882 L1589.18,90.362 L1583.95,83.834 C1583.49,83.255 1583.49,82.432 1583.95,81.853 L1589.18,75.317 L1583.95,68.778 C1583.49,68.199 1583.49,67.375 1583.95,66.796 L1589.19,60.255 L1583.95,53.704 C1583.49,53.125 1583.49,52.305 1583.95,51.726 L1589.98,44.184 C1590.28,43.807 1590.73,43.587 1591.21,43.587 L1689.85,43.587 C1690.73,43.587 1691.44,44.297 1691.44,45.173 L1691.44,59.731 C1691.44,60.62 1690.7,61.314 1689.82,61.316 C1684.91,61.328 1680.59,63.889 1678.11,67.739 C1677.81,68.205 1677.31,68.505 1676.75,68.505 C1675.52,68.505 1674.74,67.133 1675.41,66.09 C1678.18,61.739 1682.86,58.716 1688.27,58.218 L1688.27,46.758 L1667.96,46.758 L1667.96,53.091 C1667.96,54.054 1667.1,54.815 1666.11,54.655 C1665.33,54.529 1664.79,53.798 1664.79,53.008 L1664.79,46.758 L1591.98,46.758 L1587.22,52.715 L1592.45,59.268 C1592.91,59.847 1592.91,60.669 1592.45,61.248 L1587.22,67.787 L1592.45,74.326 C1592.91,74.905 1592.91,75.729 1592.45,76.308 L1587.22,82.843 L1592.45,89.372 C1592.92,89.95 1592.92,90.773 1592.45,91.352 L1587.22,97.874 L1591.98,103.812 L1601.22,103.812 C1602.09,103.812 1602.8,104.522 1602.8,105.397 Z M1688.03,99.339 L1688.03,105.68 C1688.03,106.556 1687.32,107.265 1686.45,107.265 C1685.57,107.265 1684.86,106.556 1684.86,105.68 L1684.86,99.339 C1684.86,98.463 1685.57,97.754 1686.45,97.754 C1687.32,97.754 1688.03,98.463 1688.03,99.339 Z M1688.03,86.657 L1688.03,92.998 C1688.03,93.875 1687.32,94.584 1686.45,94.584 C1685.57,94.584 1684.86,93.875 1684.86,92.998 L1684.86,86.657 C1684.86,85.781 1685.57,85.072 1686.45,85.072 C1687.32,85.072 1688.03,85.781 1688.03,86.657 Z M1688.03,112.021 L1688.03,118.362 C1688.03,119.238 1687.32,119.947 1686.45,119.947 C1685.57,119.947 1684.86,119.238 1684.86,118.362 L1684.86,112.021 C1684.86,111.145 1685.57,110.436 1686.45,110.436 C1687.32,110.436 1688.03,111.145 1688.03,112.021 Z M1692.79,102.509 C1692.79,111.426 1699.63,118.774 1708.34,119.575 L1708.34,131.037 L1688.03,131.037 L1688.03,124.703 C1688.03,123.827 1687.32,123.118 1686.45,123.118 C1685.57,123.118 1684.86,123.827 1684.86,124.703 L1684.86,131.037 L1612.05,131.037 L1607.3,125.099 L1612.52,118.58 C1612.99,118 1612.99,117.176 1612.53,116.597 L1607.3,110.069 L1612.53,103.533 C1612.99,102.954 1612.99,102.13 1612.53,101.551 L1607.3,95.012 L1612.53,88.473 C1612.99,87.894 1612.99,87.072 1612.53,86.493 L1607.3,79.94 L1612.05,73.984 L1684.86,73.984 L1684.86,80.317 C1684.86,81.193 1685.57,81.902 1686.45,81.902 C1687.32,81.902 1688.03,81.193 1688.03,80.317 L1688.03,73.984 L1708.34,73.984 L1708.34,85.443 C1699.63,86.246 1692.79,93.593 1692.79,102.509 Z M1709.89,88.542 C1710.78,88.539 1711.51,87.845 1711.51,86.956 L1711.51,72.398 C1711.51,71.522 1710.8,70.813 1709.93,70.813 L1611.29,70.813 C1610.81,70.813 1610.35,71.032 1610.05,71.409 L1604.03,78.951 C1603.57,79.53 1603.57,80.351 1604.03,80.929 L1609.26,87.481 L1604.03,94.022 C1603.57,94.601 1603.57,95.424 1604.03,96.003 L1609.26,102.542 L1604.03,109.078 C1603.57,109.657 1603.57,110.481 1604.03,111.06 L1609.26,117.587 L1604.03,124.105 C1603.57,124.685 1603.57,125.51 1604.03,126.091 L1610.05,133.613 C1610.35,133.989 1610.81,134.208 1611.29,134.208 L1709.93,134.208 C1710.8,134.208 1711.51,133.498 1711.51,132.623 L1711.51,118.063 C1711.51,117.174 1710.78,116.48 1709.89,116.478 C1702.2,116.46 1695.96,110.2 1695.96,102.509 C1695.96,94.819 1702.2,88.559 1709.89,88.542 L1709.89,88.542 Z" transform="translate(-1583 -43)"/>
</svg>
