<svg xmlns="http://www.w3.org/2000/svg" width="86" height="94" viewBox="0 0 86 94">
  <path fill-rule="evenodd" d="M730.954,435.709 C730.954,435.618 730.879,435.545 730.789,435.545 L712.717,435.545 C712.626,435.545 712.552,435.618 712.552,435.709 L712.552,450.084 C712.552,450.175 712.626,450.25 712.717,450.25 L730.789,450.25 C730.879,450.25 730.954,450.175 730.954,450.084 L730.954,435.709 Z M724.013,453.057 L712.717,453.057 C711.078,453.057 709.745,451.724 709.745,450.084 L709.745,435.709 C709.745,434.071 711.078,432.737 712.717,432.737 L724.013,432.737 L724.013,417.112 C724.013,415.767 722.918,414.671 721.572,414.671 L653.748,414.671 C652.403,414.671 651.307,415.767 651.307,417.112 L651.307,468.682 C651.307,470.028 652.403,471.123 653.748,471.123 L721.572,471.123 C722.918,471.123 724.013,470.028 724.013,468.682 L724.013,453.057 Z M733.761,435.709 L733.761,450.084 C733.761,451.724 732.427,453.057 730.789,453.057 L726.821,453.057 L726.821,468.682 C726.821,471.576 724.466,473.931 721.572,473.931 L653.748,473.931 C650.854,473.931 648.5,471.576 648.5,468.682 L648.5,417.112 C648.5,414.218 650.854,411.864 653.748,411.864 L721.572,411.864 C724.466,411.864 726.821,414.218 726.821,417.112 L726.821,432.737 L730.789,432.737 C732.427,432.737 733.761,434.071 733.761,435.709 Z M708.388,404.477 C708.388,404.016 708.208,403.582 707.882,403.254 C707.545,402.918 707.102,402.749 706.659,402.749 C706.216,402.749 705.773,402.918 705.435,403.256 C705.11,403.582 704.93,404.016 704.93,404.477 C704.93,404.939 705.11,405.373 705.436,405.7 C706.089,406.353 707.228,406.353 707.881,405.7 C708.208,405.373 708.388,404.939 708.388,404.477 Z M709.867,401.27 L709.868,401.27 C710.724,402.128 711.195,403.266 711.195,404.477 C711.195,405.689 710.724,406.828 709.867,407.685 C709.01,408.543 707.871,409.014 706.659,409.014 C705.448,409.014 704.308,408.543 703.451,407.685 C702.594,406.828 702.123,405.689 702.123,404.477 C702.123,403.266 702.594,402.128 703.451,401.27 C705.221,399.501 708.098,399.502 709.867,401.27 Z M665.056,409.381 C664.507,408.833 664.507,407.945 665.056,407.397 L690.02,382.432 C692.646,379.804 696.919,379.804 699.546,382.432 L701.327,384.212 L706.415,389.301 L706.416,389.302 L716.985,399.871 C718.253,401.139 718.952,402.832 718.952,404.634 C718.952,406.437 718.253,408.129 716.985,409.397 L715.653,410.73 C715.379,411.004 715.019,411.141 714.66,411.141 C714.301,411.141 713.942,411.004 713.668,410.73 C713.119,410.183 713.119,409.294 713.667,408.745 L714.999,407.412 C715.738,406.674 716.144,405.687 716.144,404.634 C716.144,403.58 715.738,402.593 715,401.856 L705.423,392.278 L688.653,409.048 C688.104,409.596 687.216,409.596 686.668,409.048 C686.12,408.5 686.12,407.611 686.668,407.063 L703.438,390.294 L700.334,387.19 L677.74,409.784 C677.466,410.058 677.107,410.195 676.748,410.195 C676.389,410.195 676.03,410.058 675.755,409.784 C675.207,409.235 675.207,408.347 675.755,407.799 L698.35,385.205 L697.561,384.417 C696.085,382.94 693.48,382.94 692.004,384.417 L667.04,409.381 C666.492,409.93 665.604,409.93 665.056,409.381 L665.056,409.381 Z" transform="translate(-648 -380)"/>
</svg>
