<svg xmlns="http://www.w3.org/2000/svg" width="162" height="134" viewBox="0 0 162 134">
  <path fill-rule="evenodd" d="M1321.29474,727.577327 L1320.34113,727.299009 C1314.53961,725.611844 1302.11025,722.779045 1284.03255,722.779045 C1275.53847,722.779045 1267.37449,723.715401 1259.77361,725.557906 L1255.12636,726.686279 L1259.20835,724.196523 C1268.61937,718.457572 1279.19112,715.670081 1291.52555,715.670081 C1305.39181,715.670081 1313.94198,718.267711 1314.29797,718.377744 C1314.93012,718.578392 1315.61836,718.470517 1316.14479,718.082166 C1316.67769,717.691659 1316.99485,717.070299 1316.99485,716.416576 L1316.99485,623.055049 L1318.02397,623.480077 C1319.21707,623.971987 1320.18147,624.414275 1320.87619,624.753002 L1321.29474,624.957965 L1321.29474,727.577327 Z M1246.77251,728.442485 L1246.77251,624.58256 L1246.98826,624.364652 C1259.31191,611.920188 1273.46511,606.125141 1291.52555,606.125141 C1301.59245,606.125141 1308.86107,607.490839 1312.29581,608.304217 L1312.8697,608.44014 L1312.8697,713.73696 L1311.96571,713.540627 C1307.75211,712.630162 1300.7877,711.544939 1291.52555,711.544939 C1274.12746,711.544939 1260.30004,716.567601 1248.01092,727.355104 L1246.77251,728.442485 Z M1242.64737,728.442485 L1241.40897,727.355104 C1229.122,716.567601 1215.29458,711.544939 1197.89434,711.544939 C1188.63434,711.544939 1181.66777,712.630162 1177.45633,713.540627 L1176.55234,713.73696 L1176.55234,608.44014 L1177.12408,608.304217 C1180.56098,607.490839 1187.82744,606.125141 1197.89434,606.125141 C1215.95909,606.125141 1230.11014,611.920188 1242.43162,624.364652 L1242.64737,624.58256 L1242.64737,728.442485 Z M1229.6549,725.562221 C1222.0605,723.715401 1213.89436,722.779045 1205.38518,722.779045 C1187.30964,722.779045 1174.87812,725.611844 1169.07876,727.299009 L1168.12514,727.577327 L1168.12514,624.96228 L1168.54154,624.75516 C1169.23841,624.414275 1170.20281,623.974144 1171.39375,623.480077 L1172.4272,623.052892 L1172.4272,716.416576 C1172.4272,717.070299 1172.74435,717.691659 1173.27294,718.080009 C1173.80153,718.468359 1174.48761,718.580549 1175.11329,718.379902 C1175.48653,718.265554 1184.12517,715.670081 1197.89434,715.670081 C1210.23955,715.670081 1220.81347,718.459729 1230.22017,724.200838 L1234.30432,726.692752 L1229.6549,725.562221 Z M1324.40802,621.950409 C1324.14696,621.795069 1321.79097,620.444473 1317.48028,618.83282 L1316.99485,618.649433 L1316.99485,606.871637 C1316.99485,605.971959 1316.41664,605.180156 1315.56011,604.906153 C1314.61728,604.608418 1305.90098,602 1291.52555,602 C1272.8006,602 1258.09076,607.807992 1245.2299,620.280503 L1244.70994,620.783201 L1244.19214,620.280503 C1231.33128,607.807992 1216.62144,602 1197.89434,602 C1183.22549,602 1174.23303,604.787491 1173.85978,604.906153 C1173.00325,605.180156 1172.4272,605.971959 1172.4272,606.871637 L1172.4272,618.649433 L1171.94176,618.83282 C1167.78857,620.386221 1165.44337,621.700139 1165.01403,621.948251 C1164.38835,622.319341 1164,623.001112 1164,623.726032 L1164,730.461905 C1164,731.143676 1164.33657,731.780138 1164.90399,732.166331 C1165.46926,732.550366 1166.19202,732.625878 1166.82417,732.377766 C1166.96441,732.323828 1180.986,726.904187 1205.38518,726.904187 C1229.24066,726.904187 1243.06377,734.701394 1243.63982,735.031492 L1243.92461,735.150154 C1244.44026,735.363747 1244.81566,735.370219 1245.245,735.260187 C1245.48664,735.167414 1245.62041,735.119949 1245.74339,735.048752 C1246.34749,734.705709 1260.12097,726.904187 1284.03255,726.904187 C1308.62806,726.904187 1322.45979,732.323828 1322.59787,732.377766 C1323.23218,732.632351 1323.95279,732.552523 1324.51805,732.164173 C1325.08116,731.780138 1325.41989,731.143676 1325.41989,730.461905 L1325.41989,623.726032 C1325.41989,623.001112 1325.03154,622.319341 1324.40802,621.950409 L1324.40802,621.950409 Z" transform="translate(-1164 -602)"/>
</svg>
