<svg xmlns="http://www.w3.org/2000/svg" width="302" height="313" viewBox="0 0 302 313">
  <path fill-rule="evenodd" d="M208.086803,1832.55796 C205.455257,1832.55796 203.314416,1834.6988 203.314416,1837.33034 L203.314416,1843.78254 C200.212707,1842.07306 198.083278,1838.81158 198.083278,1835.02745 C198.083278,1832.18137 202.166396,1825.28412 208.118755,1818.00115 C214.073398,1825.27955 218.154233,1832.1768 218.154233,1835.02745 C218.154233,1838.83669 215.995133,1842.11642 212.859189,1843.81677 L212.859189,1837.33034 C212.859189,1834.6988 210.718348,1832.55796 208.086803,1832.55796 L208.086803,1832.55796 Z M317.030051,1832.55796 C314.398505,1832.55796 312.257664,1834.6988 312.257664,1837.33034 L312.257664,1843.79851 C309.139979,1842.0936 306.994573,1838.823 306.994573,1835.02745 C306.994573,1832.18137 311.077691,1825.28412 317.030051,1818.00343 C322.98241,1825.28183 327.065528,1832.1768 327.065528,1835.02745 C327.065528,1838.823 324.920123,1842.09588 321.802437,1843.79851 L321.802437,1837.33034 C321.802437,1834.6988 319.661596,1832.55796 317.030051,1832.55796 L317.030051,1832.55796 Z M425.971016,1832.55796 C423.339471,1832.55796 421.200912,1834.6988 421.200912,1837.33034 L421.200912,1843.81677 C418.062686,1842.11642 415.903586,1838.83669 415.903586,1835.02745 C415.903586,1832.17909 419.986704,1825.28183 425.943628,1818.00115 C431.893706,1825.28183 435.976824,1832.17909 435.976824,1835.02745 C435.976824,1838.81158 433.845112,1842.07306 430.743403,1843.78254 L430.743403,1837.33034 C430.743403,1834.6988 428.604844,1832.55796 425.971016,1832.55796 L425.971016,1832.55796 Z M422.273615,1902.76522 L430.882626,1902.76522 L430.882626,1866.31158 L422.273615,1866.31158 L422.273615,1902.76522 Z M313.330367,1902.76522 L321.94166,1902.76522 L321.94166,1866.31158 L313.330367,1866.31158 L313.330367,1902.76522 Z M260.487197,1912.30999 C261.158207,1912.39216 261.838346,1912.44921 262.53218,1912.44921 C263.228295,1912.44921 263.906152,1912.39216 264.579445,1912.30999 L371.899944,1912.30999 C372.570954,1912.39216 373.251093,1912.44921 373.944927,1912.44921 C374.63876,1912.44921 375.318899,1912.39216 375.992191,1912.30999 L452.952917,1912.30999 C457.510763,1912.30999 458.724972,1916.66699 458.724972,1919.24148 L458.724972,1942.68574 C458.724972,1967.13424 440.066789,1986.28769 416.24822,1986.28769 L415.271376,1986.28769 C391.286196,1986.28769 371.772133,1966.77363 371.772133,1942.78845 C371.772133,1940.1569 369.631292,1938.01606 366.999746,1938.01606 C364.3682,1938.01606 362.227359,1940.1569 362.227359,1942.78845 C362.227359,1966.77363 342.713296,1986.28769 318.728116,1986.28769 L317.751272,1986.28769 C293.768375,1986.28769 274.254312,1966.77363 274.254312,1942.78845 C274.254312,1940.1569 272.11347,1938.01606 269.479643,1938.01606 C266.850379,1938.01606 264.709538,1940.1569 264.709538,1942.78845 C264.709538,1966.77363 245.195475,1986.28769 221.210295,1986.28769 L220.233451,1986.28769 C196.143283,1986.28769 176.544773,1966.72798 176.544773,1942.68574 L176.544773,1919.24148 C176.544773,1915.48473 179.742341,1912.30999 183.528754,1912.30999 L260.487197,1912.30999 Z M204.387119,1902.76522 L212.998412,1902.76522 L212.998412,1866.31158 L204.387119,1866.31158 L204.387119,1902.76522 Z M181.387913,2015.3374 L181.387913,1978.9682 C191.108427,1989.3369 204.921188,1995.83246 220.233451,1995.83246 L221.210295,1995.83246 C242.189625,1995.83246 260.852373,1983.73146 269.479643,1964.77886 C278.109195,1983.73146 296.76966,1995.83246 317.751272,1995.83246 L318.728116,1995.83246 C339.707446,1995.83246 358.370194,1983.73146 366.999746,1964.77886 C375.627016,1983.73146 394.289764,1995.83246 415.271376,1995.83246 L416.24822,1995.83246 C431.19759,1995.83246 444.476282,1989.69067 453.881832,1979.70084 L453.881832,2015.3374 L181.387913,2015.3374 Z M181.387913,2045.60131 L453.881832,2045.60131 L453.881832,2024.88445 L181.387913,2024.88445 L181.387913,2045.60131 Z M444.453459,2087.96623 L192.02593,2087.96623 C186.260723,2087.96623 181.387913,2083.33078 181.387913,2077.84174 L181.387913,2055.14608 L453.881832,2055.14608 L453.881832,2069.73941 L453.881832,2077.84174 C453.881832,2083.61379 449.826102,2087.96623 444.453459,2087.96623 L444.453459,2087.96623 Z M181.387913,2094.43212 C184.501033,2096.36526 188.150506,2097.511 192.02593,2097.511 L199.683203,2097.511 L199.683203,2099.34373 C199.683203,2104.67529 196.175236,2108.54386 191.345791,2108.54386 L191.06278,2108.54386 C185.817947,2108.54386 181.387913,2104.33294 181.387913,2099.34373 L181.387913,2094.43212 Z M209.227976,2097.511 L228.735192,2097.511 L228.735192,2099.34373 C228.735192,2104.41738 224.626968,2108.54386 219.573853,2108.54386 L219.293124,2108.54386 C213.931892,2108.54386 209.227976,2104.24621 209.227976,2099.34373 L209.227976,2097.511 Z M238.279965,2097.511 L256.575255,2097.511 L256.575255,2099.34373 C256.575255,2104.50411 252.724937,2108.54386 247.80648,2108.54386 L247.523469,2108.54386 C242.426989,2108.54386 238.279965,2104.41738 238.279965,2099.34373 L238.279965,2097.511 Z M266.120028,2097.511 L284.415318,2097.511 L284.415318,2099.34373 C284.415318,2104.67529 280.891375,2108.54386 276.034542,2108.54386 L275.751531,2108.54386 C270.531804,2108.54386 266.120028,2104.33294 266.120028,2099.34373 L266.120028,2097.511 Z M293.960092,2097.511 L313.467308,2097.511 L313.467308,2099.34373 C313.467308,2104.41738 309.338543,2108.54386 304.267169,2108.54386 L303.984158,2108.54386 C298.645749,2108.54386 293.960092,2104.24621 293.960092,2099.34373 L293.960092,2097.511 Z M323.012081,2097.511 L341.307371,2097.511 L341.307371,2099.34373 C341.307371,2104.50411 337.436511,2108.54386 332.495231,2108.54386 L332.214502,2108.54386 C327.140846,2108.54386 323.012081,2104.41738 323.012081,2099.34373 L323.012081,2097.511 Z M350.854427,2097.511 L369.149717,2097.511 L369.149717,2099.34373 C369.149717,2104.58856 365.527633,2108.54386 360.725575,2108.54386 L360.444847,2108.54386 C355.245661,2108.54386 350.854427,2104.33294 350.854427,2099.34373 L350.854427,2097.511 Z M378.69449,2097.511 L398.199423,2097.511 L398.199423,2099.34373 C398.199423,2104.41738 394.054682,2108.54386 388.958202,2108.54386 L388.675191,2108.54386 C383.357324,2108.54386 378.69449,2104.24621 378.69449,2099.34373 L378.69449,2097.511 Z M407.746479,2097.511 L426.041769,2097.511 L426.041769,2099.34373 C426.041769,2104.50411 422.152651,2108.54386 417.188547,2108.54386 L416.905536,2108.54386 C411.854703,2108.54386 407.746479,2104.41738 407.746479,2099.34373 L407.746479,2097.511 Z M435.586542,2097.511 L444.453459,2097.511 C447.911214,2097.511 451.117911,2096.58665 453.881832,2094.9776 L453.881832,2099.34373 C453.881832,2104.58856 450.24149,2108.54386 445.416609,2108.54386 L445.13588,2108.54386 C439.959518,2108.54386 435.586542,2104.33294 435.586542,2099.34373 L435.586542,2097.511 Z M372.568672,1902.76522 C369.323175,1902.1216 366.86737,1899.25497 366.86737,1895.8246 C366.86737,1891.91951 370.042114,1888.74476 373.944927,1888.74476 C377.850022,1888.74476 381.024766,1891.91951 381.024766,1895.8246 C381.024766,1899.25497 378.568961,1902.1216 375.323464,1902.76522 L372.568672,1902.76522 Z M261.155925,1902.76522 C257.910428,1902.1216 255.454623,1899.25497 255.454623,1895.8246 C255.454623,1891.91951 258.629367,1888.74476 262.53218,1888.74476 C266.437275,1888.74476 269.612019,1891.91951 269.612019,1895.8246 C269.612019,1899.25497 267.156214,1902.1216 263.910717,1902.76522 L261.155925,1902.76522 Z M468.269745,1919.24148 C468.269745,1909.84962 461.685175,1902.76522 452.952917,1902.76522 L440.427399,1902.76522 L440.427399,1861.53919 C440.427399,1858.90765 438.288841,1856.7668 435.655013,1856.7668 L430.743403,1856.7668 L430.743403,1853.98691 C439.22232,1851.83694 445.521597,1844.16369 445.521597,1835.02745 C445.521597,1825.71548 433.226596,1811.58319 429.458442,1807.47268 C427.653106,1805.50987 424.229586,1805.50758 422.42425,1807.47497 C418.653813,1811.58319 406.361095,1825.71548 406.361095,1835.02745 C406.361095,1844.18651 412.690042,1851.87345 421.200912,1854.00288 L421.200912,1856.7668 L417.496664,1856.7668 C414.865118,1856.7668 412.726559,1858.90765 412.726559,1861.53919 L412.726559,1902.76522 L389.03352,1902.76522 C390.010364,1900.64948 390.571821,1898.30323 390.571821,1895.8246 C390.571821,1886.6587 383.113113,1879.19999 373.944927,1879.19999 C364.779023,1879.19999 357.322597,1886.6587 357.322597,1895.8246 C357.322597,1898.30323 357.881772,1900.64948 358.860898,1902.76522 L331.486434,1902.76522 L331.486434,1861.53919 C331.486434,1858.90765 329.345593,1856.7668 326.714047,1856.7668 L321.802437,1856.7668 L321.802437,1853.99375 C330.295049,1851.8552 336.610302,1844.1751 336.610302,1835.02745 C336.610302,1825.71548 324.315301,1811.58547 320.547147,1807.47497 C318.803434,1805.57377 315.254385,1805.57605 313.510672,1807.47497 C309.7448,1811.58547 297.447517,1825.71548 297.447517,1835.02745 C297.447517,1844.1751 303.76277,1851.8552 312.257664,1853.99375 L312.257664,1856.7668 L308.555698,1856.7668 C305.924152,1856.7668 303.783311,1858.90765 303.783311,1861.53919 L303.783311,1902.76522 L277.620773,1902.76522 C278.597617,1900.64948 279.159074,1898.30323 279.159074,1895.8246 C279.159074,1886.6587 271.700366,1879.19999 262.53218,1879.19999 C253.366276,1879.19999 245.90985,1886.6587 245.90985,1895.8246 C245.90985,1898.30323 246.469025,1900.64948 247.448151,1902.76522 L222.543186,1902.76522 L222.543186,1861.53919 C222.543186,1858.90765 220.402345,1856.7668 217.770799,1856.7668 L212.859189,1856.7668 L212.859189,1854.00288 C221.37006,1851.87345 227.699007,1844.18423 227.699007,1835.02745 C227.699007,1825.71092 215.404006,1811.58319 211.635852,1807.47497 C209.892139,1805.57377 206.34309,1805.57377 204.601659,1807.47497 C200.833505,1811.58319 188.538504,1825.71092 188.538504,1835.02745 C188.538504,1844.16369 194.837781,1851.83694 203.314416,1853.98691 L203.314416,1856.7668 L199.614732,1856.7668 C196.983187,1856.7668 194.842346,1858.90765 194.842346,1861.53919 L194.842346,1902.76522 L183.528754,1902.76522 C174.568261,1902.76522 167,1910.31066 167,1919.24148 L167,1942.68574 C167,1950.63059 168.768819,1958.16918 171.91161,1964.94547 C171.879657,1965.1737 171.843139,1965.40194 171.843139,1965.6393 L171.843139,2077.84174 C171.843139,2078.19094 171.877375,2078.53101 171.897916,2078.87564 C171.877375,2079.05823 171.843139,2079.23625 171.843139,2079.42569 L171.843139,2099.34373 C171.843139,2109.50473 180.643868,2118.09092 191.06278,2118.09092 L191.345791,2118.09092 C196.862222,2118.09092 201.632327,2115.71728 204.859565,2111.85555 C208.477084,2115.65109 213.644316,2118.09092 219.293124,2118.09092 L219.573853,2118.09092 C225.117673,2118.09092 230.088623,2115.64881 233.51899,2111.79621 C236.960769,2115.64881 241.956825,2118.09092 247.523469,2118.09092 L247.80648,2118.09092 C253.359429,2118.09092 258.250498,2115.66935 261.580441,2111.79393 C265.120361,2115.62599 270.198582,2118.09092 275.751531,2118.09092 L276.034542,2118.09092 C281.56695,2118.09092 286.348466,2115.71728 289.582551,2111.85555 C293.193223,2115.65109 298.346762,2118.09092 303.984158,2118.09092 L304.267169,2118.09092 C309.820118,2118.09092 314.804763,2115.64881 318.239694,2111.79621 C321.674626,2115.64881 326.659271,2118.09092 332.214502,2118.09092 L332.495231,2118.09092 C338.061874,2118.09092 342.964355,2115.66935 346.303428,2111.79393 C349.8365,2115.62599 354.903309,2118.09092 360.444847,2118.09092 L360.725575,2118.09092 C366.175819,2118.09092 370.975594,2115.66707 374.243914,2111.79164 C377.847739,2115.62599 383.017254,2118.09092 388.675191,2118.09092 L388.958202,2118.09092 C394.524846,2118.09092 399.51862,2115.64881 402.962681,2111.79849 C406.390765,2115.64881 411.363998,2118.09092 416.905536,2118.09092 L417.188547,2118.09092 C422.732367,2118.09092 427.618871,2115.69674 430.964791,2111.86468 C434.461345,2115.6762 439.509896,2118.09092 445.13588,2118.09092 L445.416609,2118.09092 C455.515992,2118.09092 463.426606,2109.85621 463.426606,2099.34373 L463.426606,2077.84174 L463.426606,2069.73941 L463.426606,1965.6393 C463.426606,1965.58224 463.412912,1965.52975 463.410629,1965.47269 C466.528315,1958.59826 468.269745,1950.88849 468.269745,1942.68574 L468.269745,1919.24148 Z" transform="translate(-167 -1806)"/>
</svg>
