<svg xmlns="http://www.w3.org/2000/svg" width="56" height="124" viewBox="0 0 56 124">
  <path fill-rule="evenodd" d="M51.8430126,119.716013 L49.9360253,111.806705 L4.90156651,111.806705 L3.93386279,119.716013 L51.8430126,119.716013 Z M6.82844793,38.1645933 L27.5978424,44.4994292 C27.8934112,44.5107972 28.166244,44.6003204 28.4092357,44.7466838 L47.6624189,50.6182724 L47.6624189,4.34611914 L6.82844793,4.34611914 L6.82844793,38.1645933 Z M5.12608514,107.880471 L49.5225131,107.880471 L49.5225131,55.2635344 L41.8434075,52.9231409 L41.8434075,97.2300456 C41.8434075,98.3128506 41.0348562,99.1924521 40.0373114,99.1924521 L15.036167,99.1924521 C14.0386222,99.1924521 13.231492,98.3128506 13.231492,97.2300456 L13.231492,44.1967553 L5.12608514,41.7242083 L5.12608514,107.880471 Z M16.8408421,95.266218 L38.2326363,95.266218 L38.2326363,51.8218628 L29.3428353,49.1105871 L29.3428353,82.4331309 C29.3428353,83.517357 28.534284,84.3955374 27.5381602,84.3955374 C26.5406154,84.3955374 25.7334851,83.517357 25.7334851,82.4331309 L25.7334851,48.01073 L16.8408421,45.2980334 L16.8408421,95.266218 Z M55.9951863,121.678419 C55.9951863,122.762645 55.188056,123.642247 54.1905112,123.642247 C54.1890902,123.642247 54.1862482,123.642247 54.1819852,123.642247 L1.87340699,123.642247 C1.35189852,123.642247 0.857389126,123.397834 0.514927162,122.971533 C0.172465198,122.546653 0.0147337544,121.981093 0.0843629504,121.419797 L1.51673498,109.714987 L1.51673498,39.1351391 C1.51673498,38.5198443 1.78104173,37.9414957 2.23149999,37.5706136 C2.51996381,37.331885 2.86526778,37.2096786 3.21909777,37.1869426 L3.21909777,2.38229161 C3.21909777,1.29948656 4.02622805,0.419885085 5.02377285,0.419885085 L49.4670939,0.419885085 C50.4646387,0.419885085 51.271769,1.29948656 51.271769,2.38229161 L51.271769,51.7209715 L51.8174346,51.8872289 C52.5947237,52.1259576 53.1332843,52.8975628 53.1332843,53.7771643 L53.1332843,109.591359 L55.881506,120.992074 C55.9553982,121.205225 55.9951863,121.436849 55.9951863,121.678419 L55.9951863,121.678419 Z M40.0387324,35.9591951 C41.0362772,35.9591951 41.8434075,35.0810146 41.8434075,33.9967886 C41.8434075,32.9125625 41.0362772,32.0329611 40.0387324,32.0329611 L15.036167,32.0329611 C14.0386222,32.0329611 13.231492,32.9125625 13.231492,33.9967886 C13.231492,35.0810146 14.0386222,35.9591951 15.036167,35.9591951 L40.0387324,35.9591951 Z M13.231492,17.800185 C13.231492,16.715959 14.0386222,15.8363575 15.036167,15.8363575 L40.0387324,15.8363575 C41.0362772,15.8363575 41.8434075,16.715959 41.8434075,17.800185 C41.8434075,18.8844111 41.0362772,19.7625915 40.0387324,19.7625915 L15.036167,19.7625915 C14.0386222,19.7625915 13.231492,18.8844111 13.231492,17.800185 L13.231492,17.800185 Z"/>
</svg>
