<svg xmlns="http://www.w3.org/2000/svg" width="218" height="300" viewBox="0 0 218 300">
  <path fill-rule="evenodd" d="M1324.41775,1942.53326 C1324.41112,1942.6195 1324.39122,1942.70574 1324.39122,1942.7953 C1324.39122,1950.08248 1295.68364,1960.66996 1250.70345,1960.66996 C1205.72326,1960.66996 1177.01899,1950.08248 1177.01899,1942.7953 C1177.01899,1942.44703 1176.95929,1942.11202 1176.87637,1941.79028 L1176.87637,1914.3 C1190.81721,1923.67018 1220.85486,1928.51614 1250.64706,1928.51614 C1280.43595,1928.51614 1310.47691,1923.67018 1324.41775,1914.3 L1324.41775,1942.53326 Z M1324.41775,1976.74023 C1324.41112,1976.82979 1324.39122,1976.91271 1324.39122,1977.00227 C1324.39122,1984.28945 1295.68364,1994.87692 1250.70345,1994.87692 C1205.72326,1994.87692 1177.01899,1984.28945 1177.01899,1977.00227 C1177.01899,1976.65399 1176.95929,1976.32231 1176.87637,1976.00057 L1176.87637,1954.59012 C1190.74424,1963.9006 1220.84822,1968.7167 1250.70345,1968.7167 C1280.47575,1968.7167 1310.49682,1963.92381 1324.41775,1954.66641 L1324.41775,1976.74023 Z M1250.64706,1884.15289 C1295.66705,1884.15289 1324.39785,1894.87636 1324.39785,1902.25973 C1324.39785,1909.63978 1295.66705,1920.36657 1250.64706,1920.36657 C1205.62707,1920.36657 1176.89627,1909.63978 1176.89627,1902.25973 C1176.89627,1894.87636 1205.62707,1884.15289 1250.64706,1884.15289 L1250.64706,1884.15289 Z M1332.4645,1901.42056 C1332.4645,1900.91639 1332.36168,1900.43876 1332.19252,1899.99098 C1328.74296,1884.23581 1289.48107,1876 1250.64706,1876 C1209.98876,1876 1168.82962,1885.02191 1168.82962,1902.25973 C1168.82962,1902.61795 1168.87274,1902.96622 1168.90923,1903.31781 C1168.85616,1903.56989 1168.82962,1903.83193 1168.82962,1904.10391 L1168.82962,2006.04154 C1168.82962,2008.26384 1170.63069,2010.06491 1172.85299,2010.06491 C1175.0753,2010.06491 1176.87637,2008.26384 1176.87637,2006.04154 L1176.87637,1988.79709 C1190.74424,1998.10756 1220.84822,2002.92367 1250.70345,2002.92367 C1280.47575,2002.92367 1310.49682,1998.1341 1324.41775,1988.87669 L1324.41775,2010.9074 C1324.4078,2011.01022 1324.38459,2011.11304 1324.38459,2011.21918 C1324.38459,2014.85448 1315.13381,2021.81329 1289.65355,2026.07548 C1287.46109,2026.44366 1285.98177,2028.52002 1286.34662,2030.70916 C1286.67831,2032.67607 1288.37987,2034.06916 1290.31029,2034.06916 C1290.53252,2034.06916 1290.75807,2034.05257 1290.9803,2034.01609 C1301.04371,2032.33111 1315.50199,2029.01755 1324.41775,2023.12678 L1324.41775,2045.11105 C1324.4078,2045.21719 1324.38459,2045.31669 1324.38459,2045.42283 C1324.38459,2049.05813 1315.13381,2056.01694 1289.65023,2060.28245 C1287.46109,2060.65062 1285.98177,2062.72367 1286.34662,2064.91613 C1286.67831,2066.88304 1288.37987,2068.27613 1290.31029,2068.27613 C1290.53252,2068.27613 1290.75807,2068.25954 1290.9803,2068.21974 C1301.04371,2066.53477 1315.50199,2063.2212 1324.41775,2057.33043 L1324.41775,2079.3147 C1324.4078,2079.42084 1324.38459,2079.52034 1324.38459,2079.6298 C1324.38459,2083.2651 1315.13381,2090.22391 1289.65355,2094.4861 C1287.46109,2094.85427 1285.98177,2096.92732 1286.34662,2099.11978 C1286.67831,2101.08669 1288.37987,2102.47978 1290.31029,2102.47978 C1290.53252,2102.47978 1290.75807,2102.46319 1290.9803,2102.42339 C1301.04371,2100.74173 1315.50199,2097.42817 1324.41775,2091.53408 L1324.41775,2113.34255 C1324.41775,2113.37241 1324.42439,2113.40226 1324.42439,2113.43211 C1324.41444,2113.56478 1324.38459,2113.69414 1324.38459,2113.83345 C1324.38459,2117.46875 1315.13381,2124.42756 1289.65355,2128.68975 C1287.46109,2129.05792 1285.98177,2131.13097 1286.34662,2133.32343 C1286.67831,2135.29034 1288.37987,2136.68343 1290.31029,2136.68343 C1290.53252,2136.68343 1290.75807,2136.66684 1290.9803,2136.62704 C1306.46349,2134.03988 1332.43465,2127.63167 1332.43465,2113.83345 C1332.43465,2113.8036 1332.4247,2113.77375 1332.4247,2113.7439 C1332.43797,2113.61122 1332.4645,2113.48186 1332.4645,2113.34255 L1332.4645,1901.42056 Z M1270.9165,2080.81724 L1270.88665,2082.07434 C1270.88665,2089.36152 1241.93694,2099.949 1196.87051,2099.949 C1152.24191,2099.949 1123.62057,2089.56717 1123.07328,2082.28662 L1123.07328,2052.99527 C1136.88808,2062.3356 1167.00534,2067.17161 1196.87051,2067.17161 C1226.9148,2067.17161 1257.21448,2062.27921 1270.9165,2052.82942 L1270.9165,2080.81724 Z M1270.88665,2115.8468 C1270.88665,2123.13398 1241.93694,2133.72146 1196.87051,2133.72146 C1152.24191,2133.72146 1123.62057,2123.33963 1123.07328,2116.06239 L1123.07328,2093.97198 C1137.03071,2103.21281 1167.07499,2107.99575 1196.87051,2107.99575 C1226.84514,2107.99575 1257.06854,2103.15642 1270.9165,2093.80946 L1270.88665,2115.8468 Z M1270.9165,2148.51805 C1270.78715,2148.91608 1270.69759,2149.33068 1270.69759,2149.77515 C1270.69759,2157.06233 1241.93694,2167.6498 1196.87051,2167.6498 C1151.89696,2167.6498 1123.16947,2157.10545 1123.05338,2149.81827 C1123.0567,2149.75525 1123.07328,2149.69222 1123.07328,2149.62589 L1123.07328,2127.74776 C1137.03071,2136.98858 1167.07499,2141.7682 1196.87051,2141.7682 C1226.84514,2141.7682 1257.06854,2136.93219 1270.9165,2127.58191 L1270.9165,2148.51805 Z M1196.87051,2023.37223 C1241.78436,2023.37223 1270.44551,2033.9597 1270.44551,2041.24688 C1270.44551,2048.53407 1241.78436,2059.12154 1196.87051,2059.12154 C1151.95998,2059.12154 1123.29883,2048.53407 1123.29883,2041.24688 C1123.29883,2033.9597 1151.95998,2023.37223 1196.87051,2023.37223 L1196.87051,2023.37223 Z M1278.74434,2082.07434 C1278.74434,2081.9682 1278.72112,2081.86869 1278.71449,2081.76255 L1278.71449,2041.79749 C1278.71449,2041.28005 1278.60835,2040.79247 1278.42592,2040.34138 C1276.98308,2023.91619 1236.69959,2015.32548 1196.87051,2015.32548 C1156.31172,2015.32548 1115.24877,2024.22798 1115.24877,2041.24688 C1115.24877,2041.45916 1115.28525,2041.66149 1115.29852,2041.87046 C1115.12936,2042.2917 1115.02654,2042.7428 1115.02654,2043.21711 L1115.02654,2081.81562 C1115.0199,2081.90186 1115,2081.98479 1115,2082.07434 C1115,2082.19043 1115.0199,2082.29989 1115.02654,2082.41598 L1115.02654,2115.58808 C1115.0199,2115.67432 1115,2115.75724 1115,2115.8468 C1115,2115.96289 1115.0199,2116.07566 1115.02654,2116.19175 L1115.02654,2149.51643 C1115.0199,2149.60267 1115,2149.68559 1115,2149.77515 C1115,2166.79405 1156.18568,2175.69655 1196.87051,2175.69655 C1235.72774,2175.69655 1275.00953,2167.5702 1278.46904,2152.01736 C1278.6183,2151.60606 1278.71449,2151.16824 1278.71449,2150.70387 L1278.71449,2150.18312 C1278.72112,2150.04713 1278.74434,2149.91446 1278.74434,2149.77515 C1278.74434,2149.66901 1278.72112,2149.5695 1278.71449,2149.46336 L1278.71449,2116.25809 C1278.72112,2116.11878 1278.74434,2115.98611 1278.74434,2115.8468 C1278.74434,2115.74066 1278.72112,2115.64115 1278.71449,2115.53833 L1278.71449,2082.48563 C1278.72112,2082.34632 1278.74434,2082.21365 1278.74434,2082.07434 L1278.74434,2082.07434 Z" transform="translate(-1115 -1876)"/>
</svg>
