<svg xmlns="http://www.w3.org/2000/svg" width="354" height="165" viewBox="0 0 354 165">
  <path fill-rule="evenodd" d="M490.473395,1955.653 C490.473395,1952.5092 488.827159,1949.98545 485.534686,1948.07814 C482.238588,1946.17808 475.983615,1944.20187 466.762517,1942.14951 C457.541418,1940.10441 449.930295,1937.41386 443.929148,1934.0815 C437.928,1930.75277 433.355525,1926.71333 430.208095,1921.9523 C427.060665,1917.19852 425.486951,1911.74491 425.486951,1905.59509 C425.486951,1894.69149 429.986905,1885.70972 438.990439,1878.64976 C447.990347,1871.58254 459.771452,1868.05438 474.337379,1868.05438 C489.99838,1868.05438 502.584472,1871.6043 512.099283,1878.70052 C521.610467,1885.80037 526.367872,1895.13387 526.367872,1906.69379 L489.265914,1906.69379 C489.265914,1897.1826 484.251057,1892.4252 474.228597,1892.4252 C470.348701,1892.4252 467.092489,1893.50214 464.456336,1895.65965 C461.823808,1897.82079 460.503918,1900.51134 460.503918,1903.73129 C460.503918,1907.02376 462.113894,1909.69618 465.333845,1911.74491 C468.553796,1913.79364 473.695565,1915.47613 480.759151,1916.7924 C487.819111,1918.10866 494.023319,1919.686 499.364521,1921.51354 C517.219295,1927.65973 526.150308,1938.67573 526.150308,1954.5543 C526.150308,1965.389 521.338512,1974.20398 511.714919,1981.01011 C502.091327,1987.81625 489.632147,1991.22113 474.337379,1991.22113 C464.162624,1991.22113 455.090194,1989.38996 447.112838,1985.73126 C439.135482,1982.07255 432.913144,1977.09758 428.453077,1970.80272 C423.985757,1964.50786 421.755723,1957.88666 421.755723,1950.93185 L456.333937,1950.93185 C456.478979,1956.42173 458.310145,1960.42491 461.823808,1962.95591 C465.333845,1965.47603 469.837425,1966.74152 475.32367,1966.74152 C480.374787,1966.74152 484.160406,1965.71535 486.687777,1963.66662 C489.211522,1961.62151 490.473395,1958.94547 490.473395,1955.653 L490.473395,1955.653 Z M375.972951,1889.78905 C375.972951,1878.30165 374.471757,1869.71874 371.472997,1864.04394 C368.47061,1858.37639 363.713205,1855.5408 357.204407,1855.5408 C350.837027,1855.5408 346.206534,1858.17333 343.316555,1863.44201 C340.426577,1868.71069 338.870992,1876.69168 338.649802,1887.37408 L338.649802,1928.21089 C338.649802,1940.14067 340.150995,1948.86499 343.153382,1954.39113 C346.152143,1959.91726 350.909548,1962.6767 357.421972,1962.6767 C363.713205,1962.6767 368.361828,1959.98615 371.364215,1954.61232 C374.362975,1949.23123 375.900429,1940.79699 375.972951,1929.30597 L375.972951,1889.78905 Z M412.966127,1923.70731 C412.966127,1945.30057 408.11807,1961.94786 398.421956,1973.65644 C388.725843,1985.36503 375.059181,1991.22113 357.421972,1991.22113 C339.639719,1991.22113 325.87878,1985.33239 316.146405,1973.54766 C306.414031,1961.76656 301.547843,1945.1519 301.547843,1923.70731 L301.547843,1894.51019 C301.547843,1872.92419 306.3959,1856.27327 316.092014,1844.56106 C325.788128,1832.8561 339.49105,1827 357.204407,1827 C374.910512,1827 388.635191,1832.89237 398.367565,1844.67347 C408.09994,1856.4582 412.966127,1873.10187 412.966127,1894.61897 L412.966127,1923.70731 Z M208.238158,1926.56466 L236.996527,1926.56466 L236.996527,1877.38426 L234.690346,1881.11548 L208.238158,1926.56466 Z M273.989704,1926.56466 L290.238128,1926.56466 L290.238128,1955.10546 L273.989704,1955.10546 L273.989704,1989.02373 L236.996527,1989.02373 L236.996527,1955.10546 L175.193773,1955.10546 L173,1932.48966 L236.996527,1829.52375 L236.996527,1829.19377 L273.989704,1829.19377 L273.989704,1926.56466 Z" transform="translate(-173 -1827)"/>
</svg>
