<svg xmlns="http://www.w3.org/2000/svg" width="224" height="367" viewBox="0 0 224 367">
  <path fill-rule="evenodd" d="M278.76569,6027.90769 C267.09959,6027.90769 257.611097,6018.41675 257.611097,6006.75309 C257.611097,5995.08699 267.09959,5985.59605 278.76569,5985.59605 C290.43179,5985.59605 299.920284,5995.08699 299.920284,6006.75309 C299.920284,6018.41675 290.43179,6027.90769 278.76569,6027.90769 M312.154029,6006.75309 C312.154029,5988.34131 297.177478,5973.36231 278.76569,5973.36231 C260.353903,5973.36231 245.377351,5988.34131 245.377351,6006.75309 C245.377351,6025.16244 260.353903,6040.14143 278.76569,6040.14143 C297.177478,6040.14143 312.154029,6025.16244 312.154029,6006.75309 M367.132484,6136.33782 C361.341028,6149.33251 355.348939,6162.77006 345.522795,6168.44407 C333.117776,6175.60815 324.505219,6172.43716 319.217794,6168.02323 C328.180237,6160.45298 338.079784,6152.9904 347.989118,6147.22096 C350.90809,6145.52047 351.896576,6141.77695 350.196086,6138.85553 C348.498042,6135.939 344.752069,6134.94807 341.833097,6136.64856 C331.441753,6142.69937 321.207001,6150.35036 311.963183,6158.10166 C308.085086,6148.16052 313.257513,6137.76673 326.051565,6130.37999 C338.265737,6123.32846 363.327789,6119.65834 375.055057,6119.65834 C375.123566,6119.65834 375.192075,6119.65834 375.260584,6119.66078 C372.346506,6124.64481 369.7921,6130.3751 367.132484,6136.33782 M278.76569,6086.27244 C273.133274,6086.27244 264.611246,6083.55655 255.998689,6070.61814 C254.851164,6068.89318 252.928019,6067.89002 250.909451,6067.89002 C250.508184,6067.89002 250.10447,6067.92916 249.703203,6068.00991 C234.467296,6071.06834 226.520255,6066.9627 222.536947,6062.97939 C218.55364,6058.99853 214.450441,6051.05149 217.508878,6035.81313 C217.995781,6033.38107 216.965699,6030.89272 214.900643,6029.51765 C201.962233,6020.90509 199.246342,6012.38306 199.246342,6006.75309 C199.246342,6001.12068 201.962233,5992.59865 214.900643,5983.98609 C216.965699,5982.61102 217.995781,5980.12268 217.508878,5977.69061 C214.450441,5962.45225 218.55364,5954.50521 222.536947,5950.5219 C226.520255,5946.54104 234.46485,5942.43785 249.703203,5945.49384 C252.137719,5945.98318 254.623616,5944.9531 255.998689,5942.8856 C264.611246,5929.94964 273.133274,5927.23375 278.76569,5927.23375 C284.398107,5927.23375 292.920134,5929.94964 301.532691,5942.8856 C302.907764,5944.9531 305.396108,5945.98318 307.828177,5945.49384 C323.064084,5942.4354 331.011125,5946.54104 334.994433,5950.5219 C338.977741,5954.50521 343.080939,5962.45225 340.022503,5977.69061 C339.5356,5980.12268 340.565681,5982.61102 342.630737,5983.98609 C355.569147,5992.59865 358.285038,6001.12068 358.285038,6006.75309 C358.285038,6012.38306 355.569147,6020.90509 342.630737,6029.51765 C340.565681,6030.89272 339.5356,6033.38107 340.022503,6035.81313 C343.080939,6051.05149 338.977741,6058.99853 334.994433,6062.97939 C331.013572,6066.9627 323.066531,6071.06834 307.828177,6068.00991 C305.391215,6067.52056 302.905318,6068.55309 301.532691,6070.61814 C292.920134,6083.55655 284.398107,6086.27244 278.76569,6086.27244 M245.732129,6158.10166 C236.488311,6150.35036 226.253559,6142.69937 215.864662,6136.64856 C212.943244,6134.94807 209.199717,6135.939 207.499227,6138.85553 C205.798736,6141.77695 206.787223,6145.52047 209.708641,6147.22096 C219.617975,6152.9904 229.515076,6160.45298 238.477518,6168.02323 C235.448443,6170.55316 231.323224,6172.67694 226.018671,6172.6745 C222.069618,6172.6745 217.464836,6171.50006 212.174964,6168.44407 C202.343926,6162.77006 196.354284,6149.33251 190.562829,6136.33782 C187.905659,6130.3751 185.348806,6124.64481 182.437175,6119.66078 C182.503237,6119.65834 182.574193,6119.65834 182.642702,6119.65834 C194.369971,6119.65834 219.429576,6123.32846 231.643748,6130.37999 C244.437799,6137.76673 249.610227,6148.16052 245.732129,6158.10166 M388.86451,6111.35162 C387.376886,6109.64624 383.425386,6105.11241 357.394422,6108.8437 C341.977455,6111.05312 327.97471,6115.14408 319.934692,6119.78557 C297.25088,6132.88301 294.784557,6152.50839 302.396394,6166.44752 C295.547943,6172.65003 289.560748,6178.55893 284.882563,6183.36679 L284.882563,6097.87003 C293.825431,6096.00806 302.296077,6090.08692 309.389203,6080.68162 C323.690452,6082.68551 335.748032,6079.52676 343.646138,6071.6311 C351.541798,6063.73544 354.698104,6051.67296 352.696663,6037.37416 C364.223299,6028.68086 370.518784,6017.92006 370.518784,6006.75309 C370.518784,5995.58368 364.223299,5984.82288 352.696663,5976.12958 C354.698104,5961.83078 351.541798,5949.76831 343.646138,5941.87265 C335.748032,5933.97699 323.685558,5930.81823 309.389203,5932.82212 C300.693456,5921.29549 289.932653,5915 278.76569,5915 C267.598727,5915 256.837924,5921.29549 248.142177,5932.82212 C233.840928,5930.81823 221.783349,5933.97699 213.885242,5941.87265 C205.989583,5949.76831 202.833276,5961.83078 204.834717,5976.12958 C193.308082,5984.82288 187.012596,5995.58368 187.012596,6006.75309 C187.012596,6017.92006 193.308082,6028.68086 204.834717,6037.37416 C202.833276,6051.67541 205.989583,6063.73544 213.885242,6071.6311 C221.783349,6079.52676 233.843375,6082.68551 248.142177,6080.68162 C255.235303,6090.08692 263.705949,6096.00806 272.648817,6097.87003 L272.648817,6183.19796 C267.9951,6178.42191 262.066627,6172.57907 255.298919,6166.44752 C262.910755,6152.50839 260.444432,6132.88301 237.760621,6119.78557 C229.72305,6115.14408 215.717857,6111.05312 200.300891,6108.8437 C174.272373,6105.11241 170.318426,6109.64379 168.830803,6111.35162 C166.398734,6114.14092 166.388947,6118.1071 168.806335,6121.21936 C172.615924,6126.12509 175.904355,6133.50449 179.388525,6141.31696 C185.669331,6155.40779 192.789371,6171.38017 206.058092,6179.03849 C213.114516,6183.11478 219.821056,6184.86909 225.962396,6184.86665 C234.528465,6184.86665 241.986156,6181.44854 247.73357,6176.15377 C259.786257,6187.13723 269.07901,6197.12975 272.648817,6201.06657 L272.648817,6275.8955 C272.648817,6279.27202 275.38673,6282.01238 278.76569,6282.01238 C282.144651,6282.01238 284.882563,6279.27202 284.882563,6275.8955 L284.882563,6201.25008 C288.320246,6197.44783 297.708422,6187.32318 309.942168,6176.1709 C313.573144,6179.53029 317.769319,6182.02597 322.300698,6183.44998 C324.845317,6184.25007 327.999177,6184.86909 331.671748,6184.86909 C337.250336,6184.86909 344.018044,6183.44019 351.639668,6179.03849 C364.905942,6171.38017 372.025982,6155.41023 378.306787,6141.31941 C381.790958,6133.50449 385.079389,6126.12509 388.888977,6121.21936 L388.888977,6121.21691 C391.306365,6118.1071 391.296578,6114.14092 388.86451,6111.35162" transform="translate(-167 -5915)"/>
</svg>
