<svg xmlns="http://www.w3.org/2000/svg" width="319" height="422" viewBox="0 0 319 422">
  <path fill-rule="evenodd" d="M355.354259,2072.19606 L355.354259,2078.74179 L260.861801,2078.74179 L260.861801,2072.19606 L298.478254,2059.54057 C300.977421,2058.69933 302.659907,2056.35675 302.659907,2053.71942 L302.659907,2037.97528 C306.273567,2038.07353 309.908719,2038.06125 313.556152,2037.94765 L313.556152,2053.71942 C313.556152,2056.35675 315.238638,2058.69933 317.737805,2059.54057 L355.354259,2072.19606 Z M484.623207,1847.03156 C479.155128,1777.42024 434.480217,1719.66308 372.338769,1695.66924 L378.448526,1678.16586 C379.566089,1674.96361 377.877463,1671.46355 374.675214,1670.34291 C371.476034,1669.22842 367.969832,1670.92012 366.852269,1674.1193 L360.733301,1691.65031 C348.771686,1687.96603 336.245149,1685.50064 323.304131,1684.39228 C319.899247,1684.09754 316.951826,1686.61206 316.660154,1689.99238 C316.374623,1693.36964 318.87993,1696.34162 322.260253,1696.63329 C335.913564,1697.79691 349.060288,1700.59082 361.52235,1704.81852 C361.826303,1704.98431 362.148677,1705.13169 362.489472,1705.25142 C362.839478,1705.37116 363.192555,1705.46327 363.545631,1705.51853 C423.623885,1726.78601 467.165882,1781.59882 472.376061,1847.99254 C479.492854,1938.61037 411.554812,2018.12625 320.933914,2025.2369 C320.408905,2025.27988 319.886966,2025.31672 319.365027,2025.35357 C319.300552,2025.35664 319.233007,2025.36278 319.171602,2025.36585 C311.968843,2025.85708 304.818279,2025.89086 297.738329,2025.46409 C297.207179,2025.35971 296.642257,2025.32286 296.092686,2025.35971 C267.634727,2023.37634 240.420212,2014.05512 216.297418,1997.87194 C213.482017,1995.98068 209.665721,1996.73596 207.77753,1999.55136 C205.886269,2002.36983 206.638475,2006.18305 209.453876,2008.07124 C220.420736,2015.42444 231.97401,2021.46359 243.975538,2026.13955 L238.243419,2042.55606 C237.128926,2045.75831 238.817552,2049.25837 242.019801,2050.37901 C245.231262,2051.49657 248.725183,2049.80181 249.842747,2046.60263 L255.565655,2030.19225 C266.876381,2033.70766 278.515621,2036.05639 290.378989,2037.20772 L290.378989,2049.3075 L252.762535,2061.96298 C250.263368,2062.80116 248.580882,2065.14681 248.580882,2067.78414 L248.580882,2084.88225 C248.580882,2088.27178 251.328738,2091.02271 254.721342,2091.02271 L361.494718,2091.02271 C364.887322,2091.02271 367.635177,2088.27178 367.635177,2084.88225 L367.635177,2067.78414 C367.635177,2065.14681 365.952691,2062.80116 363.453524,2061.96298 L325.837071,2049.3075 L325.837071,2037.1279 C421.226036,2027.51808 492.163691,1943.08062 484.623207,1847.03156 L484.623207,1847.03156 Z M183.212623,1893.19246 L220.905832,1906.3484 C220.193539,1929.07117 223.644477,1949.23336 230.911711,1964.7718 C214.544316,1952.57377 201.247152,1936.52875 192.122429,1917.61614 C188.303064,1909.69802 185.331081,1901.51892 183.212623,1893.19246 L183.212623,1893.19246 Z M180.480118,1879.22906 C178.005513,1861.31427 179.374836,1842.98807 184.64335,1825.26977 L232.649461,1842.02708 C226.88664,1859.81907 223.28219,1877.24569 221.722513,1893.62536 L180.480118,1879.22906 Z M220.33784,1767.70297 L261.107419,1781.93348 C251.792342,1796.03197 243.46588,1812.36253 236.699093,1830.4339 L188.692983,1813.67658 C195.938725,1795.69118 206.887164,1780.17731 220.33784,1767.70297 L220.33784,1767.70297 Z M311.621907,1733.31946 C296.654538,1740.78933 281.797697,1753.94834 268.488251,1771.50391 L231.387596,1758.55368 C254.306861,1741.62443 282.562184,1732.46594 311.621907,1733.31946 L311.621907,1733.31946 Z M344.206255,1738.99018 L325.867773,1791.53102 L281.03935,1775.88206 C301.281374,1750.62328 324.636611,1736.15329 344.206255,1738.99018 L344.206255,1738.99018 Z M355.802512,1743.03674 C372.912902,1752.9935 382.163504,1778.85711 382.289383,1811.22654 L337.46403,1795.57758 L355.802512,1743.03674 Z M394.128189,1828.36456 L434.891628,1842.59508 C437.664045,1860.73092 436.577184,1879.68959 431.059981,1898.27983 L383.05387,1881.52252 C389.000905,1863.16562 392.645268,1845.19556 394.128189,1828.36456 L394.128189,1828.36456 Z M431.938067,1828.55799 L394.840482,1815.60776 C395.34707,1793.58193 391.908413,1774.03992 384.840744,1758.87606 C408.100804,1776.30575 424.532673,1801.04873 431.938067,1828.55799 L431.938067,1828.55799 Z M396.612004,1954.67381 L355.357329,1940.27136 C364.540386,1926.22506 372.565966,1910.27522 379.004237,1893.11571 L427.013418,1909.87302 C419.991803,1927.29657 409.497758,1942.40517 396.612004,1954.67381 L396.612004,1954.67381 Z M303.869578,1990.224 C312.008756,1986.1498 320.233902,1980.32251 328.339308,1972.81273 C335.256535,1966.40823 341.860599,1958.98441 348.044042,1950.72857 L385.780234,1963.89985 C362.557017,1981.56902 333.693788,1991.13586 303.869578,1990.224 L303.869578,1990.224 Z M271.494006,1984.56864 L290.336005,1930.58479 L335.846019,1946.47016 C330.810843,1952.88694 325.505486,1958.69888 319.994424,1963.8016 C303.009913,1979.53346 286.071456,1986.75771 271.494006,1984.56864 L271.494006,1984.56864 Z M300.02872,1865.54811 L282.789381,1914.94197 L233.935887,1897.88991 C235.163979,1881.46418 238.553512,1863.84107 244.251858,1846.07979 L300.02872,1865.54811 Z M304.078353,1853.95186 L248.301491,1834.48353 C255.10205,1816.47663 263.735536,1800.11231 273.354565,1786.21031 L321.82121,1803.1242 L304.078353,1853.95186 Z M367.40798,1889.06914 C360.902163,1906.3484 352.735353,1922.2921 343.395714,1936.09892 L294.385638,1918.9916 L311.628048,1869.59775 L367.40798,1889.06914 Z M315.674611,1857.99842 L333.414397,1807.17384 L381.881043,1824.08773 C380.757339,1840.95864 377.334033,1859.14054 371.451473,1877.46982 L315.674611,1857.99842 Z M259.903889,1980.51286 C242.511038,1970.39032 233.238945,1943.83283 233.413948,1910.71426 L278.742818,1926.53823 L259.903889,1980.51286 Z M261.392951,1994.66662 C261.414442,1994.67583 261.432864,1994.68197 261.457425,1994.69118 C261.478917,1994.69732 261.500409,1994.70653 261.5219,1994.71267 C276.694975,1999.99961 292.353146,2002.62773 307.959124,2002.62773 C328.855106,2002.62773 349.658983,1997.91492 369.032132,1988.56608 C402.896765,1972.22324 428.37353,1943.67318 440.768047,1908.16904 C448.940999,1884.74626 450.540588,1860.58969 446.537009,1837.73183 C446.512447,1837.18533 446.4142,1836.64804 446.248407,1836.13224 C437.274126,1788.13841 403.572215,1746.08241 354.264327,1728.86456 C354.261257,1728.86456 354.255116,1728.86149 354.248976,1728.85842 C304.913456,1711.64364 252.357265,1723.58991 215.465385,1755.59091 C215.023272,1755.88565 214.618002,1756.23873 214.264925,1756.644 C196.905847,1772.0412 183.120516,1791.94243 174.944494,1815.36214 L174.935284,1815.38056 C174.935284,1815.38363 174.932214,1815.38977 174.929143,1815.39898 C162.546907,1850.89698 164.7237,1889.09063 181.060392,1922.95527 C197.394014,1956.80148 225.919517,1982.26596 261.392951,1994.66662 L261.392951,1994.66662 Z" transform="translate(-167 -1670)"/>
</svg>
