<svg xmlns="http://www.w3.org/2000/svg" width="122" height="189" viewBox="0 0 122 189">
  <path fill-rule="evenodd" d="M593.794002,1695.646 C595.725096,1695.646 597.279413,1694.09917 597.279413,1692.18677 C597.279413,1690.25746 595.725096,1688.69463 593.794002,1688.69463 C591.879831,1688.69463 590.317498,1690.25746 590.317498,1692.18677 C590.317498,1694.09917 591.879831,1695.646 593.794002,1695.646 L593.794002,1695.646 Z M581.614212,1695.646 C583.540853,1695.646 585.090717,1694.09917 585.090717,1692.18677 C585.090717,1690.25746 583.540853,1688.69463 581.614212,1688.69463 C579.695588,1688.69463 578.128801,1690.25746 578.128801,1692.18677 C578.128801,1694.09917 579.695588,1695.646 581.614212,1695.646 L581.614212,1695.646 Z M605.982699,1695.646 C607.913793,1695.646 609.463657,1694.09917 609.463657,1692.18677 C609.463657,1690.25746 607.913793,1688.69463 605.982699,1688.69463 C604.063184,1688.69463 602.50085,1690.25746 602.50085,1692.18677 C602.50085,1694.09917 604.063184,1695.646 605.982699,1695.646 L605.982699,1695.646 Z M618.165161,1695.646 C620.097146,1695.646 621.647009,1694.09917 621.647009,1692.18677 C621.647009,1690.25746 620.097146,1688.69463 618.165161,1688.69463 C616.247427,1688.69463 614.684203,1690.25746 614.684203,1692.18677 C614.684203,1694.09917 616.247427,1695.646 618.165161,1695.646 L618.165161,1695.646 Z M593.794002,1802.21855 C595.725096,1802.21855 597.279413,1800.66995 597.279413,1798.74153 C597.279413,1796.81312 595.725096,1795.2654 593.794002,1795.2654 C591.879831,1795.2654 590.317498,1796.81312 590.317498,1798.74153 C590.317498,1800.66995 591.879831,1802.21855 593.794002,1802.21855 L593.794002,1802.21855 Z M578.128801,1798.74153 C578.128801,1800.66995 579.695588,1802.21855 581.614212,1802.21855 C583.540853,1802.21855 585.090717,1800.66995 585.090717,1798.74153 C585.090717,1796.81312 583.540853,1795.2654 581.614212,1795.2654 C579.695588,1795.2654 578.128801,1796.81312 578.128801,1798.74153 L578.128801,1798.74153 Z M614.684203,1798.74153 C614.684203,1800.66995 616.247427,1802.21855 618.165161,1802.21855 C620.097146,1802.21855 621.647009,1800.66995 621.647009,1798.74153 C621.647009,1796.81312 620.097146,1795.2654 618.165161,1795.2654 C616.247427,1795.2654 614.684203,1796.81312 614.684203,1798.74153 L614.684203,1798.74153 Z M602.50085,1798.74153 C602.50085,1800.66995 604.063184,1802.21855 605.982699,1802.21855 C607.913793,1802.21855 609.463657,1800.66995 609.463657,1798.74153 C609.463657,1796.81312 607.913793,1795.2654 605.982699,1795.2654 C604.063184,1795.2654 602.50085,1796.81312 602.50085,1798.74153 L602.50085,1798.74153 Z M600.793328,1707.49935 C602.708389,1707.49935 604.275177,1705.95164 604.275177,1704.02322 C604.275177,1702.0948 602.708389,1700.54709 600.793328,1700.54709 C598.862234,1700.54709 597.31237,1702.0948 597.31237,1704.02322 C597.31237,1705.95164 598.862234,1707.49935 600.793328,1707.49935 L600.793328,1707.49935 Z M612.977571,1707.49935 C614.892633,1707.49935 616.458529,1705.95164 616.458529,1704.02322 C616.458529,1702.0948 614.892633,1700.54709 612.977571,1700.54709 C611.046477,1700.54709 609.496614,1702.0948 609.496614,1704.02322 C609.496614,1705.95164 611.046477,1707.49935 612.977571,1707.49935 L612.977571,1707.49935 Z M588.606413,1707.49935 C590.525037,1707.49935 592.090934,1705.95164 592.090934,1704.02322 C592.090934,1702.0948 590.525037,1700.54709 588.606413,1700.54709 C586.695805,1700.54709 585.128127,1702.0948 585.128127,1704.02322 C585.128127,1705.95164 586.695805,1707.49935 588.606413,1707.49935 L588.606413,1707.49935 Z M612.977571,1790.62404 C614.892633,1790.62404 616.458529,1789.06032 616.458529,1787.14791 C616.458529,1785.2195 614.892633,1783.67178 612.977571,1783.67178 C611.046477,1783.67178 609.496614,1785.2195 609.496614,1787.14791 C609.496614,1789.06032 611.046477,1790.62404 612.977571,1790.62404 L612.977571,1790.62404 Z M588.606413,1783.67178 C586.695805,1783.67178 585.128127,1785.2195 585.128127,1787.14791 C585.128127,1789.06032 586.695805,1790.62404 588.606413,1790.62404 C590.525037,1790.62404 592.090934,1789.06032 592.090934,1787.14791 C592.090934,1785.2195 590.525037,1783.67178 588.606413,1783.67178 L588.606413,1783.67178 Z M600.793328,1790.62404 C602.708389,1790.62404 604.275177,1789.06032 604.275177,1787.14791 C604.275177,1785.2195 602.708389,1783.67178 600.793328,1783.67178 C598.862234,1783.67178 597.31237,1785.2195 597.31237,1787.14791 C597.31237,1789.06032 598.862234,1790.62404 600.793328,1790.62404 L600.793328,1790.62404 Z M608.364501,1714.90614 C608.364501,1712.99462 606.814637,1711.43001 604.883543,1711.43001 C602.969372,1711.43001 601.402585,1712.99462 601.402585,1714.90614 C601.402585,1716.83456 602.969372,1718.38316 604.883543,1718.38316 C606.814637,1718.38316 608.364501,1716.83456 608.364501,1714.90614 L608.364501,1714.90614 Z M596.197181,1714.90614 C596.197181,1712.99462 594.630394,1711.43001 592.716223,1711.43001 C590.780675,1711.43001 589.236156,1712.99462 589.236156,1714.90614 C589.236156,1716.83456 590.780675,1718.38316 592.716223,1718.38316 C594.630394,1718.38316 596.197181,1716.83456 596.197181,1714.90614 L596.197181,1714.90614 Z M601.402585,1775.5365 C601.402585,1777.46491 602.969372,1779.01352 604.883543,1779.01352 C606.814637,1779.01352 608.364501,1777.46491 608.364501,1775.5365 C608.364501,1773.62498 606.814637,1772.07727 604.883543,1772.07727 C602.969372,1772.07727 601.402585,1773.62498 601.402585,1775.5365 L601.402585,1775.5365 Z M589.236156,1775.5365 C589.236156,1777.46491 590.780675,1779.01352 592.716223,1779.01352 C594.630394,1779.01352 596.197181,1777.46491 596.197181,1775.5365 C596.197181,1773.62498 594.630394,1772.07727 592.716223,1772.07727 C590.780675,1772.07727 589.236156,1773.62498 589.236156,1775.5365 L589.236156,1775.5365 Z M574.941783,1710.35284 C572.404995,1708.20027 569.508353,1702.34475 569.508353,1699.36585 L569.508353,1676.86885 C569.508353,1675.42876 568.33972,1674.26175 566.902088,1674.26175 C565.455549,1674.26175 564.286916,1675.42876 564.286916,1676.86885 L564.286916,1699.36585 C564.286916,1703.88446 567.825771,1711.15605 571.564149,1714.32975 L588.76229,1728.92629 C589.254861,1729.34435 589.860555,1729.54627 590.457342,1729.54627 C591.194863,1729.54627 591.932384,1729.23228 592.446333,1728.62831 C593.378924,1727.52712 593.246205,1725.88424 592.14794,1724.94849 L574.941783,1710.35284 Z M569.508353,1792.43771 C569.508353,1789.45881 572.404995,1783.60329 574.945346,1781.45072 L592.885461,1766.22976 C593.983727,1765.2949 594.116445,1763.65112 593.183855,1762.55082 C592.252155,1761.45764 590.60253,1761.32155 589.499811,1762.25284 L571.564149,1777.47381 C567.825771,1780.6484 564.286916,1787.9191 564.286916,1792.43771 L564.286916,1814.93471 C564.286916,1816.37569 565.455549,1817.54181 566.902088,1817.54181 L625.351539,1817.54181 C626.793625,1817.54181 627.961367,1816.37569 627.961367,1814.93471 C627.961367,1813.49463 626.793625,1812.32762 625.351539,1812.32762 L569.508353,1812.32762 L569.508353,1792.43771 Z M603.501136,1749.29563 L603.501136,1742.50437 C603.501136,1741.7145 603.86188,1740.96466 604.479153,1740.47277 L632.423905,1718.10475 C637.384359,1713.89568 641.623325,1705.29163 641.623325,1699.36585 L641.623325,1668.38577 L556.290868,1668.38577 L556.290868,1699.36585 C556.290868,1705.29163 560.530724,1713.89568 565.544622,1718.15011 L593.439493,1740.47277 C594.056766,1740.96466 594.41751,1741.7145 594.41751,1742.50437 L594.41751,1749.29563 C594.41751,1750.08639 594.056766,1750.83534 593.439493,1751.33168 L565.491178,1773.6997 C560.530724,1777.90877 556.290868,1786.51193 556.290868,1792.4386 L556.290868,1823.41868 L641.623325,1823.41868 L641.623325,1792.4386 C641.623325,1786.51193 637.384359,1777.90877 632.370461,1773.65434 L604.479153,1751.33168 C603.86188,1750.83534 603.501136,1750.08639 603.501136,1749.29563 L603.501136,1749.29563 Z M608.723463,1743.75855 L608.723463,1748.0459 L635.69287,1769.63206 C641.971599,1774.95388 646.845652,1784.95176 646.845652,1792.4386 L646.845652,1826.02577 C646.845652,1827.46586 645.67702,1828.63376 644.234934,1828.63376 L553.680149,1828.63376 C552.238064,1828.63376 551.069431,1827.46586 551.069431,1826.02577 L551.069431,1792.4386 C551.069431,1784.95176 555.943484,1774.95833 562.162534,1769.67742 L589.19162,1748.0459 L589.19162,1743.75855 L562.221322,1722.17239 C555.943484,1716.84612 551.069431,1706.84824 551.069431,1699.36585 L551.069431,1665.77868 C551.069431,1664.33859 552.238064,1663.17069 553.680149,1663.17069 L644.234934,1663.17069 C645.67702,1663.17069 646.845652,1664.33859 646.845652,1665.77868 L646.845652,1699.36585 C646.845652,1706.84824 641.971599,1716.84612 635.750767,1722.12703 L608.723463,1743.75855 Z M657.191437,1835.19909 L540.669312,1835.19909 C539.23168,1835.19909 538.058594,1836.36521 538.058594,1837.8053 C538.058594,1839.24538 539.23168,1840.41329 540.669312,1840.41329 L657.191437,1840.41329 C658.633522,1840.41329 659.801264,1839.24538 659.801264,1837.8053 C659.801264,1836.36521 658.633522,1835.19909 657.191437,1835.19909 L657.191437,1835.19909 Z M538.060375,1655.32449 C538.060375,1653.88441 539.229008,1652.71739 540.671094,1652.71739 L651.680514,1652.71739 C653.1226,1652.71739 654.292123,1653.88441 654.292123,1655.32449 C654.292123,1656.76547 653.1226,1657.93248 651.680514,1657.93248 L540.671094,1657.93248 C539.229008,1657.93248 538.060375,1656.76547 538.060375,1655.32449 L538.060375,1655.32449 Z" transform="translate(-538 -1652)"/>
</svg>
