<svg xmlns="http://www.w3.org/2000/svg" width="145" height="65" viewBox="0 0 145 65">
  <path fill-rule="evenodd" d="M124.480934,109.674247 C123.839463,114.087023 117.905923,116.244492 116.437339,114.82558 C114.67549,113.121932 118.659531,108.923649 122.170435,104.840263 C123.686684,106.193448 124.77445,107.65576 124.480934,109.674247 L124.480934,109.674247 Z M89.4571902,99.005565 C93.7186925,87.2446015 99.4307161,76.1504463 102.18475,71.0317265 C101.87292,75.0925341 101.67072,84.2462219 102.198046,93.9169495 C97.9232476,95.4138815 93.5433354,97.1579189 89.4571902,99.005565 L89.4571902,99.005565 Z M205.295694,71.6551346 C207.546486,73.3888865 203.779445,80.8181046 195.430293,82.127387 C197.000729,76.1323838 202.904416,69.8150146 205.295694,71.6551346 L205.295694,71.6551346 Z M178.874481,98.6789343 C180.441907,98.2742835 180.299413,96.2753638 181.047252,92.1952394 C182.02865,86.8309194 186.261553,77.6742212 189.170122,74.909651 C192.440944,71.7988823 195.36582,71.9624485 196.467383,73.1776552 C194.708043,74.9906815 193.110763,77.2562744 192.151944,79.6896983 C191.819042,80.5363793 191.543588,81.3993667 191.329095,82.260849 C191.022032,82.2355113 190.710203,82.2023966 190.394109,82.1605016 C188.789303,81.94626 188.255957,81.3469352 187.957925,81.6045771 C187.689496,81.8353761 187.786833,82.8303204 189.460627,83.5420341 C189.956845,83.7532654 190.461592,83.9271172 190.975622,84.0663492 C190.223267,89.2793954 191.937451,94.0652128 197.277688,94.7365367 C204.041603,95.5847229 210.368003,89.0395652 211.120107,84.75122 C211.292203,83.7668123 210.863719,83.6664649 210.325858,84.5429992 C207.928308,88.450777 203.159048,92.6101758 198.912598,91.9197858 C195.731335,91.402746 194.682454,88.2528418 195.025893,84.5008533 C199.783362,84.2986534 204.434463,81.7709029 206.596447,78.5359543 C209.503511,74.1889059 208.069296,70.7891368 206.332785,69.5844665 C204.687338,68.4440185 202.026377,68.9625636 199.751753,70.4369175 C198.834578,71.0317265 197.881528,71.7946175 196.960339,72.6862039 C196.886835,72.3114065 196.719004,71.8049031 196.476163,71.4020084 C193.420837,66.3088772 184.980619,69.9168672 181.066569,84.5894099 C181.671915,81.0980737 181.860819,77.5798947 179.689552,77.2008325 C177.110876,76.749771 175.269501,79.2371316 171.210199,87.4272337 C168.767744,92.3588056 166.430151,98.2966108 165.21645,98.2863252 C163.746612,98.2742835 164.633432,95.3376175 165.228492,91.618242 C166.001668,86.786014 167.693274,81.4876724 164.49144,80.9242219 C160.44418,80.2140133 155.759964,90.6100017 150.966621,97.4996018 C152.863688,92.1744173 151.709944,85.8450064 148.378913,84.7361679 C143.973663,83.2693401 140.169243,87.1517802 138.008513,94.4159268 C138.03084,92.5459535 137.470651,91.0234329 135.793846,90.6729697 C132.953012,90.0766554 127.988576,95.0077255 123.325685,100.412435 C121.215881,98.8422497 119.218466,97.5101382 119.095792,95.7121641 C118.900867,92.8740894 122.225877,92.4350696 122.678193,92.3796277 C125.377036,92.0499865 124.946796,94.3559693 125.663026,92.5743016 C126.367464,90.8167173 126.484369,88.8448913 121.918563,89.0889863 C118.007775,89.2989632 112.255362,90.6446215 105.999706,92.6447956 C105.433245,83.38775 105.449803,74.1786203 105.373288,68.8441537 C105.344689,66.9082019 104.544669,66.097646 103.51084,66.0090894 C102.205823,65.8969512 101.006923,66.8319379 99.9776093,68.286724 C97.2953239,72.077848 89.7599884,86.9089395 84.6247114,101.311548 C79.558674,103.869402 75.3107186,106.508037 72.8369049,108.883008 C71.1646159,110.489319 70.6312696,112.301091 71.2486568,113.531099 C71.5918448,114.21597 72.306569,114.786695 73.6161023,115.012979 C76.2188624,115.46404 72.9357471,113.999972 76.7522087,110.788856 C78.2386043,109.537775 80.3363662,108.13241 82.8282424,106.665331 C79.8298628,116.233955 78.3509933,124.948874 80.6512061,129.235965 C82.4986013,132.682145 86.1306746,130.334267 86.315063,128.928651 C86.4425041,127.950264 84.5155836,129.132357 84.2308479,125.318905 C83.76925,119.169618 85.3442021,111.568304 87.7758699,103.935381 C92.2980245,101.579726 97.4556288,99.2167963 102.406267,97.2133609 C103.503314,112.453619 106.564662,127.692372 113.975567,125.344494 C116.056771,124.686717 117.051716,122.663714 117.087841,122.001672 C117.113178,121.505454 116.92879,121.615084 116.44637,121.71217 C109.895442,123.037006 107.285407,109.822511 106.210938,95.7299758 C110.247662,94.2182425 113.981588,93.0283735 116.907968,92.3796277 C116.12576,93.1287209 115.56532,94.1311912 115.440889,95.4708287 C115.07989,99.3710804 118.010786,101.512493 120.640389,103.578646 C116.551484,108.321063 111.841931,112.97969 114.027998,116.177259 C116.373116,119.607133 126.060151,116.151671 127.837303,110.869886 C129.347782,106.383606 127.348862,103.710603 124.882574,101.632158 C129.368604,96.4507208 132.452279,94.0832753 133.766578,94.3348963 C135.748941,94.7142094 133.17478,100.601339 132.747551,110.120542 C132.290468,120.321857 133.540295,130.046521 137.888598,129.992584 C140.42839,129.960975 135.58412,127.374772 136.769223,110.077142 C137.251894,103.034763 141.240451,87.3825791 146.230224,88.1615257 C148.982753,88.5915142 148.258997,96.6935614 146.482096,99.7428674 C143.748885,104.426832 140.795661,103.65215 141.201566,105.481483 C141.405272,106.395899 142.286572,106.611395 144.345199,105.898176 C152.548848,103.05408 159.515214,85.7193214 161.930575,84.9549252 C163.20875,84.5517796 162.228607,88.0882721 161.506357,91.5404727 C160.241729,97.5851479 159.793678,101.84665 162.801089,102.393543 C166.650414,103.093215 169.597867,95.7254601 172.997636,88.647207 C174.869115,84.7497148 176.63272,81.2571243 177.702674,81.74983 C179.562111,82.6055422 173.337814,100.109888 178.874481,98.6789343 L178.874481,98.6789343 Z M186.440924,121.626373 C185.33911,121.626373 184.555898,120.614118 184.555898,118.918248 C184.555898,117.574596 185.25256,116.782354 186.269079,116.782354 C187.371144,116.782354 188.168153,117.794357 188.168153,119.49073 C188.168153,120.821838 187.457944,121.626373 186.440924,121.626373 L186.440924,121.626373 Z M186.478052,116.427877 C184.960047,116.427877 183.808561,117.636561 183.808561,119.356013 C183.808561,120.94401 184.800495,121.968557 186.221414,121.968557 C187.764255,121.968557 188.901943,120.759622 188.901943,118.978456 C188.901943,117.464967 187.87263,116.427877 186.478052,116.427877 L186.478052,116.427877 Z M180.668943,117.366877 C179.567128,116.915063 178.991385,116.464504 178.991385,115.683048 C178.991385,114.901593 179.689552,114.254603 180.694029,114.254603 C181.329981,114.254603 181.808136,114.426448 182.029402,114.671045 C182.174906,114.828841 182.089862,115.036309 182.273999,115.036309 C182.346751,115.036309 182.359043,114.999181 182.359043,114.901593 L182.359043,114.828841 L182.346751,114.059428 C181.930309,113.914175 181.514118,113.815082 181.072841,113.815082 C179.444956,113.815082 178.380019,114.86597 178.380019,116.037525 C178.380019,116.976777 178.979093,117.538973 180.130579,118.001324 C181.404238,118.515353 182.273999,118.880367 182.273999,119.991714 C182.273999,120.931216 181.514118,121.626122 180.142621,121.626122 C179.322532,121.626122 178.550359,121.175813 178.391057,120.7965 C178.318305,120.62616 178.343141,120.466859 178.208425,120.466859 C178.134168,120.466859 178.084496,120.528823 178.084496,120.638704 C178.084496,120.66354 178.096788,120.698912 178.096788,120.723748 L178.219212,121.688086 C178.81954,121.907847 179.469541,122.03002 180.142621,122.03002 C181.746172,122.03002 182.910201,120.931216 182.910201,119.600108 C182.910201,118.331216 182.015354,117.928823 180.668943,117.366877 L180.668943,117.366877 Z M194.28834,120.271432 L194.28834,116.427124 C193.666186,116.549297 193.126066,116.598969 192.660203,116.598969 L192.660203,116.916067 L193.212867,116.891482 L193.24849,116.891482 C193.565588,116.891482 193.604472,117.063076 193.604472,118.247175 L193.604472,120.650745 C193.003642,121.175311 192.367691,121.419657 191.852407,121.419657 C191.081739,121.419657 190.812557,120.930714 190.812557,119.881583 L190.812557,116.427124 C190.249107,116.549297 189.710492,116.598969 189.182916,116.598969 L189.182916,116.916067 L189.746116,116.891482 L189.782993,116.891482 C190.100593,116.891482 190.139226,117.063076 190.139226,118.247175 L190.139226,120.101093 C190.139226,120.638202 190.151519,121.028302 190.297023,121.297484 C190.518289,121.71217 190.994939,121.967805 191.559894,121.967805 C192.378478,121.967805 192.856633,121.627125 193.616514,120.990923 C193.800902,121.517245 194.118,121.784922 194.669158,121.857673 L195.062018,121.333358 C194.509606,121.23577 194.28834,120.905878 194.28834,120.271432 L194.28834,120.271432 Z M197.600305,121.527781 C196.891601,121.527781 196.780216,121.224481 196.780216,120.455319 L196.780216,117.062825 L198.101791,117.062825 C198.188591,117.062825 198.213427,117.03824 198.224215,116.952944 L198.273636,116.61076 L196.780216,116.61076 L196.780216,115.731717 L196.657792,115.731717 C196.571242,115.731717 196.438282,115.866684 196.241601,116.11103 L195.54218,116.965237 C195.518849,116.988568 195.506557,117.013404 195.506557,117.025696 C195.506557,117.048776 195.529637,117.062825 195.568521,117.062825 L196.106885,117.062825 L196.106885,120.67508 C196.106885,121.516994 196.303566,121.981351 197.159529,121.981351 C197.55264,121.981351 198.066418,121.846635 198.604782,121.56491 L198.495153,121.322069 C198.200884,121.431699 197.919409,121.527781 197.600305,121.527781 L197.600305,121.527781 Z M215.596102,121.491907 C215.057487,121.491907 215.008066,121.468827 215.008066,120.003003 L215.008066,113.156301 C214.446121,113.243102 213.907506,113.278474 213.37993,113.278474 L213.37993,113.595823 L213.944886,113.572492 L213.978502,113.572492 C214.297607,113.572492 214.334735,113.755375 214.334735,114.938973 L214.334735,121.249067 C214.334735,121.443991 214.311655,121.491907 214.102682,121.491907 L213.649112,121.491907 L213.649112,121.796712 L216,121.796712 L216,121.491907 L215.596102,121.491907 Z M212.051832,120.003003 L212.051832,113.156301 C211.488633,113.243102 210.949767,113.278474 210.423696,113.278474 L210.423696,113.595823 L210.987147,113.572492 L211.022519,113.572492 C211.343129,113.572492 211.378502,113.755375 211.378502,114.938973 L211.378502,121.249067 C211.378502,121.443991 211.352411,121.491907 211.144943,121.491907 L210.692878,121.491907 L210.692878,121.796712 L213.043766,121.796712 L213.043766,121.491907 L212.638363,121.491907 C212.099748,121.491907 212.051832,121.468827 212.051832,120.003003 L212.051832,120.003003 Z M204.025798,120.002752 L204.025798,117.966202 C204.025798,116.94015 203.522807,116.427626 202.542915,116.427626 C201.80787,116.427626 201.281799,116.817726 200.509375,117.391964 L200.509375,113.157556 C199.946176,113.242851 199.409066,113.279729 198.88149,113.279729 L198.88149,113.597077 L199.44469,113.572241 L199.481567,113.572241 C199.800672,113.572241 199.836044,113.755124 199.836044,114.938722 L199.836044,121.248565 C199.836044,121.44349 199.812965,121.491405 199.604242,121.491405 L199.152177,121.491405 L199.152177,121.797967 L201.503065,121.797967 L201.503065,121.491405 L201.097662,121.491405 C200.558796,121.491405 200.509375,121.468576 200.509375,120.002752 L200.509375,117.746441 C201.184211,117.221625 201.80787,116.977028 202.310862,116.977028 C203.081529,116.977028 203.350962,117.464716 203.350962,118.515353 L203.350962,121.248565 C203.350962,121.44349 203.327631,121.491405 203.118658,121.491405 L202.640503,121.491405 L202.640503,121.797967 L204.906096,121.797967 L204.906096,121.491405 L204.612329,121.491405 C204.073714,121.491405 204.025798,121.468576 204.025798,120.002752 L204.025798,120.002752 Z M208.571284,120.491946 C208.046467,121.101556 207.506347,121.394068 206.980276,121.394068 C206.514413,121.394068 206.246486,121.089263 206.246486,120.662034 C206.246486,119.869792 207.017154,119.380598 208.571284,118.856032 L208.571284,120.491946 Z M209.247374,120.174346 L209.247374,117.624017 C209.247374,116.842562 209.086317,116.427626 208.057254,116.427626 C206.576378,116.427626 205.632109,117.282084 205.632109,117.904238 C205.632109,118.123998 205.718909,118.233879 205.890503,118.233879 C206.220395,118.233879 206.489577,117.831486 206.503626,117.147367 C206.80818,116.927607 207.188999,116.817726 207.617733,116.817726 C208.242897,116.817726 208.571284,117.099452 208.571284,117.624017 L208.571284,118.52614 C206.526455,119.270718 205.499149,119.784497 205.499149,120.881795 C205.499149,121.528785 205.901291,121.956014 206.503626,121.956014 C207.188999,121.956014 207.850037,121.601537 208.571284,120.894339 C208.694962,121.468576 209.100365,121.870719 209.674603,121.968306 L210.152758,121.431197 C209.40517,121.176064 209.247374,120.894339 209.247374,120.174346 L209.247374,120.174346 Z M161.963941,120.003505 L161.963941,117.965199 C161.963941,116.940652 161.460949,116.428378 160.481308,116.428378 C159.746264,116.428378 159.219942,116.818479 158.447768,117.392466 L158.447768,116.463751 C157.886074,116.549046 157.345703,116.598718 156.819632,116.598718 L156.819632,116.915816 L157.382832,116.891231 L157.41996,116.891231 C157.737309,116.891231 157.774438,117.062825 157.774438,118.246924 L157.774438,121.247812 C157.774438,121.444242 157.751358,121.492158 157.542384,121.492158 L157.088814,121.492158 L157.088814,121.796963 L159.439702,121.796963 L159.439702,121.492158 L159.03756,121.492158 C158.49719,121.492158 158.447768,121.469078 158.447768,120.003505 L158.447768,117.745438 C159.122354,117.220621 159.746264,116.97778 160.249255,116.97778 C161.019923,116.97778 161.29061,117.465469 161.29061,118.51435 L161.29061,121.247812 C161.29061,121.444242 161.265774,121.492158 161.057051,121.492158 L160.578645,121.492158 L160.578645,121.796963 L162.844489,121.796963 L162.844489,121.492158 L162.551976,121.492158 C162.013613,121.492158 161.963941,121.469078 161.963941,120.003505 L161.963941,120.003505 Z M174.472743,116.428378 C173.958964,116.428378 173.579651,116.830771 172.88023,117.392466 L172.88023,116.463751 C172.318536,116.549046 171.778416,116.598718 171.252094,116.598718 L171.252094,116.915816 L171.815544,116.891231 L171.851168,116.891231 C172.169771,116.891231 172.20715,117.062825 172.20715,118.246924 L172.20715,121.247812 C172.20715,121.444242 172.182314,121.492158 171.974846,121.492158 L171.521276,121.492158 L171.521276,121.796963 L173.872164,121.796963 L173.872164,121.492158 L173.468266,121.492158 C172.929902,121.492158 172.88023,121.469078 172.88023,120.003505 L172.88023,117.745438 C173.346093,117.367881 173.688026,117.135577 174.068845,117.135577 C174.680211,117.135577 174.619752,117.51489 174.779304,117.51489 C174.852056,117.51489 174.876641,117.452925 174.901477,117.330752 L175.036193,116.683512 C175.036193,116.683512 174.852056,116.428378 174.472743,116.428378 L174.472743,116.428378 Z M155.588119,120.271432 L155.588119,116.427124 C154.962704,116.549297 154.424089,116.598969 153.958227,116.598969 L153.958227,116.916067 L154.509134,116.891482 L154.546262,116.891482 C154.865367,116.891482 154.90074,117.063076 154.90074,118.247175 L154.90074,120.650745 C154.300411,121.175311 153.664209,121.419657 153.148925,121.419657 C152.378257,121.419657 152.108574,120.930714 152.108574,119.881583 L152.108574,116.427124 C151.545374,116.549297 151.00701,116.598969 150.480688,116.598969 L150.480688,116.916067 L151.043888,116.891482 L151.079762,116.891482 C151.398365,116.891482 151.435494,117.063076 151.435494,118.247175 L151.435494,120.101093 C151.435494,120.638202 151.448037,121.028302 151.595046,121.297484 C151.814807,121.71217 152.291457,121.967805 152.856413,121.967805 C153.676502,121.967805 154.154908,121.627125 154.913032,120.990923 C155.09742,121.517245 155.414518,121.784922 155.965425,121.857673 L156.358787,121.333358 C155.806124,121.23577 155.588119,120.905878 155.588119,120.271432 L155.588119,120.271432 Z M165.283683,76.822272 C166.627585,77.5608287 168.427315,76.3922835 168.741904,74.409921 C169.040187,72.5366863 170.235826,72.6686431 170.087312,72.0274234 C169.955606,71.4609625 168.532178,71.177732 166.536269,72.380897 C164.682853,73.4972616 163.756646,75.983117 165.283683,76.822272 L165.283683,76.822272 Z M147.241726,117.976989 C146.837828,117.976989 146.458515,117.929074 146.115076,117.806901 L146.115076,114.584495 C146.115076,114.426699 146.251046,114.414407 146.556102,114.414407 C148.209075,114.414407 149.054,115.219193 149.054,116.232952 C149.054,117.282084 148.32046,117.976989 147.241726,117.976989 L147.241726,117.976989 Z M147.241726,114.05993 L144.315095,114.05993 L144.315095,114.402114 L144.756121,114.402114 C145.294485,114.402114 145.344408,114.462322 145.344408,115.890767 L145.344408,121.199144 C145.344408,121.394319 145.319572,121.456284 145.110598,121.456284 L144.571733,121.456284 L144.571733,121.796712 L147.254018,121.796712 L147.254018,121.456284 L146.703111,121.456284 C146.151953,121.456284 146.115076,121.406863 146.115076,119.967129 L146.115076,118.136291 C146.605524,118.246422 146.997129,118.294338 147.266562,118.294338 C148.908496,118.294338 149.874089,117.30692 149.874089,116.110528 C149.874089,114.914387 148.931576,114.05993 147.241726,114.05993 L147.241726,114.05993 Z M165.301745,121.527781 C164.591537,121.527781 164.481656,121.224481 164.481656,120.455319 L164.481656,117.062825 L165.804736,117.062825 C165.890032,117.062825 165.913362,117.03824 165.925655,116.952944 L165.975076,116.61076 L164.481656,116.61076 L164.481656,115.731717 L164.357978,115.731717 C164.272683,115.731717 164.138217,115.866684 163.943042,116.11103 L163.245126,116.965237 C163.22029,116.988568 163.207997,117.013404 163.207997,117.025696 C163.207997,117.048776 163.231077,117.062825 163.268456,117.062825 L163.80682,117.062825 L163.80682,120.67508 C163.80682,121.516994 164.00325,121.981351 164.860719,121.981351 C165.252324,121.981351 165.767859,121.846635 166.306222,121.56491 L166.194837,121.322069 C165.902324,121.431699 165.62085,121.527781 165.301745,121.527781 L165.301745,121.527781 Z M168.649835,116.757518 C169.238122,116.757518 169.6651,117.160162 170.021082,118.001825 L167.278589,118.733859 C167.314212,117.464967 167.904004,116.757518 168.649835,116.757518 L168.649835,116.757518 Z M169.286038,121.456284 C168.037215,121.456284 167.339048,120.649993 167.254003,119.051208 L170.903136,118.074577 C170.474402,116.988066 169.776486,116.428128 168.821931,116.428128 C167.54777,116.428128 166.531251,117.672435 166.531251,119.356264 C166.531251,120.94401 167.38872,121.968557 168.88214,121.968557 C169.702229,121.968557 170.46236,121.614331 171.000724,120.979634 L170.866007,120.809545 C170.364772,121.249067 169.886617,121.456284 169.286038,121.456284 L169.286038,121.456284 Z" transform="translate(-71 -66)"/>
</svg>
