<svg id="Layer_1" data-name="Layer 1" xmlns="http://www.w3.org/2000/svg" viewBox="0 0 132.81 163.31"><defs><style>.cls-1{fill:#231f20;}</style></defs><title>moon</title><path class="cls-1" d="M17.03 39.89a1.45 1.45 0 0 0 2.05 0l1.83-1.8 1.79 1.79a1.45 1.45 0 0 0 2.05-2.05l-1.84-1.79 1.81-1.76a1.45 1.45 0 0 0-2.05-2.05l-1.76 1.76-1.79-1.79a1.474 1.474 0 0 0-2.09 2.08l1.79 1.79-1.79 1.79a1.45 1.45 0 0 0 0 2.03zm88.61-22.33a1.45 1.45 0 0 0 2.05 0l1.79-1.79 1.79 1.79a1.45 1.45 0 1 0 2.05-2.05l-1.79-1.79 1.79-1.79a1.45 1.45 0 1 0-2.05-2.05l-1.79 1.79-1.79-1.79a1.45 1.45 0 0 0-2.05 2.05l1.79 1.79-1.79 1.79a1.45 1.45 0 0 0 0 2.05zm-97.52 96a1.45 1.45 0 0 0-2.05 0l-1.8 1.72-1.79-1.79a1.45 1.45 0 0 0-2.05 2.05l1.79 1.79-1.79 1.79a1.45 1.45 0 1 0 2.05 2.05l1.79-1.79 1.79 1.79a1.45 1.45 0 1 0 2.05-2.05l-1.79-1.74 1.79-1.79a1.45 1.45 0 0 0 .01-2.06zm83.38 41.66a1.45 1.45 0 0 0-2.05 0l-1.79 1.79-1.79-1.79a1.457 1.457 0 0 0-2.06 2.06l1.79 1.79-1.79 1.79a1.45 1.45 0 1 0 2.05 2.05l1.79-1.79 1.79 1.79a1.45 1.45 0 0 0 2.05-2.05l-1.79-1.79 1.8-1.79a1.45 1.45 0 0 0 0-2.09zM130.6 4.28l1.79-1.79a1.45 1.45 0 1 0-2.05-2.05l-1.79 1.79-1.79-1.79a1.45 1.45 0 1 0-2.05 2.05l1.79 1.79-1.79 1.79a1.45 1.45 0 1 0 2.05 2.05l1.79-1.84 1.79 1.79a1.45 1.45 0 0 0 2.05-2.05zM75 22.09a1.45 1.45 0 0 0-1.09 2.55 41.47 41.47 0 1 1-58.42 58.43 1.45 1.45 0 0 0-2.58 1.08 56.82 56.82 0 0 0 84 44.34 1.43 1.43 0 0 0 .47-.26 57.26 57.26 0 0 0 21.14-20.71 1.44 1.44 0 0 0 .29-.5A56.8 56.8 0 0 0 75 22.09zm-39.75 98.34a10.32 10.32 0 0 1 14.79 8.59 53.61 53.61 0 0 1-14.79-8.59zm61.52 4.78a13.29 13.29 0 0 1 18.73-18.34 54.35 54.35 0 0 1-18.74 18.34zm20.14-20.84a16.17 16.17 0 0 0-22.73 22.24 53.6 53.6 0 0 1-24.7 6 54.47 54.47 0 0 1-16.57-2.55v-.3a13.25 13.25 0 0 0-20-11.36 53.61 53.61 0 0 1-16.48-30.12 44.36 44.36 0 0 0 73-18.44 10.6 10.6 0 1 0 1.56-20.49 44.27 44.27 0 0 0-11.82-23.77 53.94 53.94 0 0 1 37.74 78.79zM91.39 52.28a7.7 7.7 0 1 1-1.13 14.82 44.3 44.3 0 0 0 1.32-10.75c0-1.37-.07-2.72-.19-4.07zm7.63 36a6.79 6.79 0 1 0 6.79-6.79 6.8 6.8 0 0 0-6.79 6.79zm10.68 0a3.89 3.89 0 1 1-3.89-3.89 3.9 3.9 0 0 1 3.89 3.89zm-41.13 13.15a8.41 8.41 0 1 0 8.41 8.41 8.42 8.42 0 0 0-8.41-8.41zm0 13.92a5.51 5.51 0 1 1 5.51-5.51 5.52 5.52 0 0 1-5.51 5.51zm45.92 19.79a1.45 1.45 0 0 0-2.05 0l-1.79 1.79-1.79-1.79a1.45 1.45 0 1 0-2.05 2.05l1.79 1.79-1.79 1.79a1.45 1.45 0 1 0 2.05 2.05l1.79-1.79 1.79 1.79a1.45 1.45 0 1 0 2.05-2.05l-1.79-1.79 1.79-1.79a1.45 1.45 0 0 0 0-2.06z"/></svg>