<svg xmlns="http://www.w3.org/2000/svg" width="486" height="800" viewBox="0 0 486 800">
  <path fill-rule="evenodd" d="M282.167499,661.063526 C214.10897,661.063526 180.085653,611.896265 180.085653,513.561742 L180.085653,459.588389 C187.925291,443.552225 199.869141,430.026172 215.893409,418.974542 C231.929574,407.934808 251.87961,402.403045 275.743517,402.403045 C306.745182,402.403045 331.596479,414.430169 350.297407,438.484416 C368.998335,462.526767 378.348798,493.611706 378.348798,531.739234 C378.348798,568.796098 369.176778,599.607423 350.832739,624.185106 C332.476802,648.762788 309.588389,661.063526 282.167499,661.063526 Z M338.270283,264.537235 C276.278848,264.537235 224.982156,284.487271 184.368308,324.387342 C194.337378,267.035451 220.973114,222.234118 264.263621,189.983345 C307.542232,157.744468 362.859862,141.62503 430.192719,141.62503 L438.210802,141.62503 L438.210802,0 L410.95646,0 C333.273852,0 262.562455,18.1774923 198.798477,54.5086843 C135.010707,90.8517725 85.9386153,141.006424 51.5703069,204.948846 C17.178206,268.903164 0,340.946943 0,421.11587 L0,493.254818 C0.70187961,554.175589 13.1691649,607.982394 37.4018558,654.651439 C61.6226505,701.320485 95.4675232,737.211516 138.936474,762.32453 C182.405425,787.449441 231.739234,800 286.97359,800 C337.913395,800 384.308827,788.341661 426.183678,765.00119 C468.046633,741.672615 500.642398,709.338568 523.982869,668.010945 C547.311444,626.683321 558.98168,581.263383 558.98168,531.739234 C558.98168,451.939091 539.019748,387.449441 499.131573,338.282179 C459.219605,289.114918 405.603141,264.537235 338.270283,264.537235 Z"/>
</svg>
