<svg xmlns="http://www.w3.org/2000/svg" width="552" height="800" viewBox="0 0 552 800">
  <path fill-rule="evenodd" d="M551.230265,534.958148 C551.230265,585.548601 539.924934,631.349069 517.350467,672.359551 C494.763936,713.370032 463.05592,744.897067 422.238485,766.940653 C381.396919,788.984239 333.15923,800 277.513351,800 C228.008789,800 181.580918,789.792625 138.229738,769.402006 C94.8664919,748.999321 60.8901704,721.031596 36.3249038,685.462635 C11.7475718,649.893673 -0.35407968,609.727773 0.00788397292,564.964935 L183.209754,564.964935 C185.007507,593.813438 194.225515,616.701606 210.851712,633.653571 C227.465843,650.605535 249.340513,659.075485 276.439526,659.075485 C337.852692,659.075485 368.571341,613.636981 368.571341,522.772038 C368.571341,438.760274 330.987448,396.74836 255.843794,396.74836 C213.19241,396.74836 181.399936,410.454717 160.44224,437.855365 L15.1862265,403.673931 L63.4239159,0 L524.674199,0 L524.674199,142.010406 L211.937603,142.010406 L194.044533,298.776864 C207.063159,291.151497 224.135778,284.443104 245.274455,278.63962 C266.413132,272.824071 287.081257,269.916296 307.327091,269.916296 C385.728418,269.916296 445.983301,293.142297 488.091739,339.570168 C530.176046,385.998039 551.230265,451.139431 551.230265,534.958148"/>
</svg>
