<svg xmlns="http://www.w3.org/2000/svg" width="65" height="65" viewBox="0 0 65 65">
  <path fill-rule="evenodd" d="M20.726,43.91 L20.726,20.684 L46.44,32.297 L20.726,43.91 Z M49.281,31.386 L20.138,18.224 C19.829,18.084 19.469,18.111 19.184,18.295 C18.898,18.48 18.726,18.796 18.726,19.136 L18.726,45.459 C18.726,45.798 18.898,46.115 19.184,46.299 C19.348,46.405 19.537,46.459 19.726,46.459 C19.866,46.459 20.006,46.43 20.138,46.37 L49.281,33.208 C49.64,33.047 49.87,32.69 49.87,32.297 C49.87,31.904 49.64,31.548 49.281,31.386 L49.281,31.386 Z M32.297,62.594 C15.592,62.594 2,49.003 2,32.297 C2,15.592 15.592,2 32.297,2 C49.003,2 62.595,15.592 62.595,32.297 C62.595,49.003 49.003,62.594 32.297,62.594 L32.297,62.594 Z M32.297,0 C14.489,0 0,14.489 0,32.297 C0,50.106 14.489,64.594 32.297,64.594 C50.106,64.594 64.595,50.106 64.595,32.297 C64.595,14.489 50.106,0 32.297,0 L32.297,0 Z"/>
</svg>
