<svg xmlns="http://www.w3.org/2000/svg" width="861" height="784" viewBox="0 0 861 784">
  <path fill-rule="evenodd" d="M841.025927,342.737441 C832.204305,355.845274 817.481667,363.660134 801.662556,363.660134 C792.23289,363.660134 783.092295,360.869113 775.237563,355.57614 C753.557306,340.973117 747.795841,311.458064 762.398864,289.777808 C769.196995,279.690259 779.434063,272.692769 791.166321,270.031331 L795.163463,310.411431 C795.492405,313.770625 797.286633,316.780941 800.087622,318.664881 C802.858708,320.528884 806.397324,321.077121 809.597031,320.130167 L848.491909,308.637139 C850.445624,320.588692 847.804122,332.669828 841.025927,342.737441 L841.025927,342.737441 Z M643.850225,319.163277 C636.374275,323.87811 627.921467,326.399997 619.199525,326.589388 L595.964271,235.20337 C606.05182,230.000108 617.544848,228.514886 628.748805,231.056709 C641.358242,233.907538 652.083739,241.503104 658.981549,252.437927 C665.869391,263.372751 668.092241,276.331065 665.231444,288.930534 C662.380615,301.530002 654.785049,312.265467 643.850225,319.163277 L643.850225,319.163277 Z M643.700706,471.214142 C644.438333,474.104843 643.78045,477.244742 641.956318,479.597174 C640.092314,481.989478 637.291325,483.365053 634.261073,483.365053 L567.276557,483.365053 L479.967423,483.365053 L381.035679,483.365053 L293.736513,483.365053 L226.751997,483.365053 C223.721745,483.365053 220.910788,481.989478 219.056752,479.597174 C217.222652,477.244742 216.564768,474.104843 217.302396,471.214142 L276.541827,238.213686 L381.005775,238.213686 C381.015743,238.213686 381.025711,238.223654 381.035679,238.223654 L479.967423,238.223654 C479.977391,238.223654 479.987359,238.213686 480.007295,238.213686 L584.461275,238.213686 L643.700706,471.214142 Z M561.335668,637.728479 C561.335668,641.157448 558.534679,643.958437 555.105709,643.958437 L543.582778,643.958437 L503.661202,643.958437 L492.138271,643.958437 C488.709301,643.958437 485.908312,641.157448 485.908312,637.728479 L485.908312,495.246831 L561.335668,495.246831 L561.335668,637.728479 Z M509.602091,704.433893 L509.602091,655.840215 L537.641889,655.840215 L537.641889,704.433893 C533.096511,703.556714 528.42155,703.088221 523.626974,703.088221 C518.832398,703.088221 514.147469,703.556714 509.602091,704.433893 L509.602091,704.433893 Z M585.298581,770.989788 L461.945399,770.989788 C464.945747,739.600764 491.460451,714.979967 523.626974,714.979967 C555.783529,714.979967 582.298233,739.600764 585.298581,770.989788 L585.298581,770.989788 Z M375.09479,637.728479 C375.09479,641.157448 372.303769,643.958437 368.874799,643.958437 L357.351868,643.958437 L317.420324,643.958437 L305.897393,643.958437 C302.468423,643.958437 299.677402,641.157448 299.677402,637.728479 L299.677402,495.246831 L375.09479,495.246831 L375.09479,637.728479 Z M323.371181,704.433893 L323.371181,655.840215 L351.401011,655.840215 L351.401011,704.433893 C346.865601,703.556714 342.180672,703.088221 337.386096,703.088221 C332.59152,703.088221 327.906591,703.556714 323.371181,704.433893 L323.371181,704.433893 Z M399.057703,770.989788 L275.704521,770.989788 C278.704869,739.600764 305.229541,714.979967 337.386096,714.979967 C369.542651,714.979967 396.057355,739.600764 399.057703,770.989788 L399.057703,770.989788 Z M217.162844,319.163277 C206.228021,312.265467 198.632455,301.530002 195.771658,288.930534 C192.920829,276.331065 195.143678,263.372751 202.031521,252.437927 C215.488232,231.086613 243.009697,223.869829 265.048799,235.20337 L241.813545,326.589388 C233.081635,326.390029 224.638795,323.87811 217.162844,319.163277 L217.162844,319.163277 Z M357.890136,158.569893 L357.890136,126.562857 L424.565646,126.562857 L424.565646,158.320695 L381.035679,158.320695 C380.467506,158.320695 379.929238,158.420374 379.410905,158.569893 L357.890136,158.569893 Z M345.998391,158.569893 L277.987177,158.569893 C278.076889,156.157653 278.236376,153.745413 278.435735,151.353109 C278.45567,151.183654 278.465638,151.004231 278.485574,150.834777 C278.684933,148.522216 278.954067,146.229591 279.263073,143.946934 C279.292977,143.717672 279.322881,143.478441 279.352784,143.249179 C279.671758,140.97649 280.040572,138.713769 280.459225,136.470984 C280.499097,136.271625 280.529001,136.072266 280.568872,135.872908 C281.007461,133.560347 281.49589,131.27769 282.044127,129.005001 C282.064062,128.925258 282.083998,128.845514 282.103934,128.765771 C282.283357,128.018176 282.492684,127.300485 282.682074,126.562857 L345.998391,126.562857 L345.998391,158.569893 Z M430.506535,11.8817773 C497.221917,11.8817773 554.079012,54.9133482 574.782411,114.671112 L286.220691,114.671112 C306.92409,54.9133482 363.781185,11.8817773 430.506535,11.8817773 L430.506535,11.8817773 Z M578.939039,128.875418 C578.939039,128.885386 578.949007,128.895354 578.949007,128.91529 C579.497244,131.217883 579.99564,133.550379 580.444197,135.902812 C580.474101,136.082234 580.513973,136.261657 580.543877,136.44108 C580.96253,138.693833 581.341312,140.966522 581.660285,143.249179 C581.690189,143.488409 581.720093,143.717672 581.749997,143.946934 C582.059003,146.229591 582.318169,148.522216 582.527496,150.834777 C582.547432,151.004231 582.557399,151.183654 582.567367,151.363077 C582.776694,153.745413 582.936181,156.157653 583.025892,158.569893 L515.014679,158.569893 L515.014679,126.562857 L578.321028,126.562857 C578.520386,127.340356 578.749649,128.097919 578.939039,128.875418 L578.939039,128.875418 Z M386.986535,226.331908 L474.026535,226.331908 L474.026535,170.461639 L386.986535,170.461639 L386.986535,226.331908 Z M503.122934,158.569893 L481.592196,158.569893 C481.073864,158.420374 480.535595,158.320695 479.967423,158.320695 L436.447424,158.320695 L436.447424,126.562857 L503.122934,126.562857 L503.122934,158.569893 Z M85.775507,355.57614 C77.9108071,360.869113 68.7801796,363.660134 59.3505141,363.660134 C43.521435,363.660134 28.8087645,355.845274 19.9871429,342.737441 C13.2089478,332.679796 10.5674453,320.608628 12.5111925,308.667043 L51.4160387,320.130167 C54.6157455,321.067153 58.1443941,320.528884 60.9154797,318.664881 C63.7164692,316.780941 65.5106973,313.770625 65.8496071,310.411431 L69.8467486,270.051267 C81.6388144,272.742609 91.8459788,279.730131 98.614206,289.787776 C105.681471,300.28401 108.24323,312.913383 105.821022,325.343396 C103.398814,337.763442 96.2817094,348.508875 85.775507,355.57614 L85.775507,355.57614 Z M860.084617,305.935829 C859.526412,302.775994 857.642473,299.984972 854.911259,298.300392 C852.199981,296.625779 848.830819,296.167254 845.770663,297.074336 L806.915657,308.527492 L802.928483,268.217167 C802.619477,265.027428 800.944864,262.116791 798.353202,260.212916 C795.771507,258.319008 792.462153,257.621253 789.332221,258.279137 C774.230801,261.508747 761.16284,270.330369 752.540577,283.139164 C735.385763,308.617203 740.698672,342.737441 763.884086,361.915746 L728.218818,413.130991 C727.301768,414.446758 725.806578,415.244193 724.191773,415.264129 C722.606872,415.35384 721.07181,414.526501 720.114888,413.240638 L655.403061,325.532787 C666.218269,317.030139 673.744059,305.168298 676.824151,291.562068 C680.392671,275.862572 677.621586,259.714519 669.039194,246.098321 C660.446835,232.482124 647.079836,223.022554 631.38034,219.464002 C616.268952,216.035033 600.738911,218.487144 587.451655,226.331908 L485.908312,226.331908 L485.908312,170.461639 L589.086396,170.461639 C589.096364,170.461639 589.106332,170.461639 589.1163,170.461639 C592.39575,170.461639 595.057189,167.8002 595.057189,164.52075 C595.057189,164.301455 595.047221,164.082161 595.027285,163.862866 C595.017317,162.277965 594.987413,160.683095 594.937573,159.098194 C594.917638,158.679541 594.897702,158.250919 594.877766,157.822298 C594.827926,156.486595 594.758151,155.150892 594.668439,153.815189 C594.638535,153.306824 594.608632,152.808428 594.56876,152.300063 C594.449145,150.715161 594.319562,149.13026 594.160075,147.555326 C594.140139,147.415775 594.130171,147.276224 594.110235,147.136673 C593.94078,145.481996 593.731453,143.827319 593.512159,142.18261 C593.432415,141.594502 593.342704,141.016362 593.252993,140.428254 C593.093506,139.301877 592.914083,138.185468 592.724692,137.06906 C592.615045,136.451048 592.515365,135.823068 592.405718,135.195088 C592.136584,133.719834 591.857482,132.234612 591.548476,130.769326 C591.379021,129.941987 591.179662,129.124616 591.00024,128.307246 C590.830785,127.569619 590.671298,126.84196 590.491875,126.104332 C590.262612,125.147411 590.023382,124.180521 589.774184,123.2236 C589.674504,122.814914 589.554889,122.416197 589.445242,122.007512 C589.176108,120.990782 588.926909,119.984021 588.637839,118.97726 C588.607935,118.887548 588.568064,118.807805 588.53816,118.718093 C568.652132,50.2084833 505.335815,0 430.506535,0 C355.677255,0 292.370906,50.2084833 272.47491,118.708125 C272.445006,118.797837 272.405134,118.87758 272.375231,118.97726 C272.106096,119.904278 271.876834,120.841263 271.627636,121.778249 C271.458181,122.396261 271.288726,123.004305 271.129239,123.622317 C270.909944,124.469591 270.710586,125.316866 270.501259,126.16414 C270.3019,127.001447 270.11251,127.838753 269.923119,128.686027 C269.753664,129.433622 269.584209,130.181217 269.43469,130.93878 C269.115716,132.443938 268.816678,133.959064 268.547544,135.484158 C268.467801,135.952651 268.388057,136.421144 268.318282,136.889637 C268.098987,138.125661 267.899628,139.38162 267.720206,140.63758 C267.640462,141.205752 267.560719,141.763957 267.480975,142.332129 C267.301552,143.687768 267.132097,145.043407 266.982578,146.409014 C266.942707,146.747924 266.902835,147.086833 266.862963,147.425743 C266.693508,149.120292 266.543989,150.824809 266.424374,152.529325 C266.39447,152.957947 266.364566,153.396536 266.334663,153.835125 C266.254919,155.170828 266.185144,156.506531 266.125336,157.852202 C266.1054,158.340631 266.085464,158.82906 266.065528,159.317488 C266.015689,161.041941 265.985785,162.776361 265.985785,164.52075 C265.985785,167.8002 268.647223,170.461639 271.926674,170.461639 L375.09479,170.461639 L375.09479,226.331908 L273.551447,226.331908 C260.264191,218.487144 244.744118,216.025065 229.63273,219.464002 C213.933234,223.022554 200.556267,232.482124 191.973875,246.098321 C183.391484,259.714519 180.620399,275.862572 184.178951,291.562068 C187.269011,305.168298 194.794801,317.030139 205.610009,325.532787 L140.888214,413.240638 C139.951228,414.516533 138.456038,415.264129 136.881104,415.264129 C136.861169,415.264129 136.831265,415.264129 136.811329,415.264129 C135.206492,415.244193 133.711301,414.446758 132.794251,413.130991 L97.1289838,361.915746 C107.675058,353.203772 114.832035,341.222315 117.493473,327.616085 C120.523725,312.066108 117.324018,296.276901 108.472493,283.139164 C99.8502298,270.330369 86.7822684,261.508747 71.6708805,258.279137 C68.5409492,257.621253 65.2415631,258.319008 62.6499003,260.212916 C60.0582374,262.116791 58.3935925,265.027428 58.0746186,268.217167 L54.087445,308.527492 L15.2424064,297.074336 C12.1822506,296.167254 8.80312103,296.625779 6.10181093,298.300392 C3.37059703,299.984972 1.47668958,302.766026 0.918485277,305.935829 C-1.77285689,321.136928 1.49662545,336.56729 10.1188883,349.376085 C21.1633591,365.763369 39.5641652,375.55188 59.3505141,375.55188 C69.1390253,375.55188 78.6584022,373.109736 87.2308254,368.514518 L123.035644,419.929122 C126.135672,424.384788 131.229286,427.086098 136.651842,427.155874 L136.881104,427.155874 C142.223917,427.155874 147.27766,424.604083 150.45743,420.297935 L215.667654,331.932201 C222.914342,335.640272 230.739171,337.82325 238.813197,338.371486 L205.779464,468.283569 C204.124787,474.802598 205.540233,481.590761 209.666958,486.893702 C213.803651,492.206611 220.023642,495.246831 226.751997,495.246831 L287.785657,495.246831 L287.785657,637.728479 C287.785657,647.716348 295.909523,655.840215 305.897393,655.840215 L311.479436,655.840215 L311.479436,707.793086 C283.499445,718.309257 263.543641,745.322358 263.543641,776.930676 C263.543641,780.220094 266.20508,782.881533 269.48453,782.881533 L405.287662,782.881533 L405.317566,782.881533 C408.606984,782.881533 411.268422,780.220094 411.268422,776.930676 C411.268422,776.711382 411.248487,776.482119 411.228551,776.262825 C410.949448,744.943576 391.073388,718.239481 363.292756,707.793086 L363.292756,655.840215 L368.874799,655.840215 C378.862669,655.840215 386.986535,647.716348 386.986535,637.728479 L386.986535,495.246831 L474.026535,495.246831 L474.026535,637.728479 C474.026535,647.716348 482.150401,655.840215 492.138271,655.840215 L497.720314,655.840215 L497.720314,707.793086 C469.740323,718.309257 449.774551,745.322358 449.774551,776.930676 C449.774551,780.220094 452.43599,782.881533 455.71544,782.881533 L591.52854,782.881533 C594.80799,782.881533 597.469429,780.220094 597.469429,776.930676 C597.469429,745.322358 577.503657,718.309257 549.533634,707.793086 L549.533634,655.840215 L555.105709,655.840215 C565.093579,655.840215 573.217445,647.716348 573.217445,637.728479 L573.217445,495.246831 L634.261073,495.246831 C640.97946,495.246831 647.209419,492.206611 651.336144,486.893702 C655.462868,481.590761 656.878315,474.802598 655.223638,468.283569 L622.189905,338.371486 C630.263931,337.82325 638.098727,335.640272 645.345415,331.932201 L710.555639,420.297935 C713.725442,424.604083 718.789153,427.155874 724.121997,427.155874 L724.361228,427.155874 C729.783784,427.086098 734.877398,424.384788 737.977426,419.929122 L773.772277,368.514518 C782.354668,373.109736 791.874045,375.55188 801.662556,375.55188 L801.662556,375.55188 C821.448905,375.55188 839.849711,365.763369 850.884214,349.376085 C859.516444,336.56729 862.775959,321.136928 860.084617,305.935829 L860.084617,305.935829 Z M598.167184,434.970734 C598.167184,445.337385 589.734312,453.770257 579.377629,453.770257 C569.010977,453.770257 560.578105,445.337385 560.578105,434.970734 C560.578105,424.614051 569.010977,416.181178 579.377629,416.181178 C589.734312,416.181178 598.167184,424.614051 598.167184,434.970734 L598.167184,434.970734 Z M548.696328,434.970734 C548.696328,451.886318 562.462045,465.652035 579.377629,465.652035 C596.293212,465.652035 610.048961,451.886318 610.048961,434.970734 C610.048961,418.05515 596.293212,404.299401 579.377629,404.299401 C562.462045,404.299401 548.696328,418.05515 548.696328,434.970734 L548.696328,434.970734 Z M397.044181,437.721884 L317.659555,437.721884 C312.864978,437.721884 308.977484,433.824422 308.977484,429.039813 C308.977484,424.255205 312.864978,420.357743 317.659555,420.357743 L397.044181,420.357743 C401.828789,420.357743 405.726251,424.255205 405.726251,429.039813 C405.726251,433.824422 401.828789,437.721884 397.044181,437.721884 L397.044181,437.721884 Z M397.044181,408.475966 L317.659555,408.475966 C306.316046,408.475966 297.085739,417.706272 297.085739,429.039813 C297.085739,440.383322 306.316046,449.603661 317.659555,449.603661 L397.044181,449.603661 C408.387689,449.603661 417.608028,440.383322 417.608028,429.039813 C417.608028,417.706272 408.387689,408.475966 397.044181,408.475966 L397.044181,408.475966 Z M397.044181,369.47144 L317.659555,369.47144 C312.864978,369.47144 308.977484,365.573978 308.977484,360.789369 C308.977484,356.004761 312.864978,352.117267 317.659555,352.117267 L397.044181,352.117267 C401.828789,352.117267 405.726251,356.004761 405.726251,360.789369 C405.726251,365.573978 401.828789,369.47144 397.044181,369.47144 L397.044181,369.47144 Z M397.044181,340.225522 L317.659555,340.225522 C306.316046,340.225522 297.085739,349.455829 297.085739,360.789369 C297.085739,372.132878 306.316046,381.353217 317.659555,381.353217 L397.044181,381.353217 C408.387689,381.353217 417.608028,372.132878 417.608028,360.789369 C417.608028,349.455829 408.387689,340.225522 397.044181,340.225522 L397.044181,340.225522 Z M397.044181,301.220996 L317.659555,301.220996 C312.864978,301.220996 308.977484,297.323534 308.977484,292.538926 C308.977484,287.754317 312.864978,283.856855 317.659555,283.856855 L397.044181,283.856855 C401.828789,283.856855 405.726251,287.754317 405.726251,292.538926 C405.726251,297.323534 401.828789,301.220996 397.044181,301.220996 L397.044181,301.220996 Z M397.044181,271.975078 L317.659555,271.975078 C306.316046,271.975078 297.085739,281.195417 297.085739,292.538926 C297.085739,303.882435 306.316046,313.102773 317.659555,313.102773 L397.044181,313.102773 C408.387689,313.102773 417.608028,303.882435 417.608028,292.538926 C417.608028,281.195417 408.387689,271.975078 397.044181,271.975078 L397.044181,271.975078 Z M548.955494,374.315856 L548.955494,290.036974 C560.139516,300.632888 567.137006,315.594757 567.137006,332.181399 C567.137006,348.758073 560.139516,363.719942 548.955494,374.315856 L548.955494,374.315856 Z M537.073717,383.02783 C530.405169,386.715966 522.939186,389.128206 515.014679,389.945576 L515.014679,274.407254 C522.939186,275.224624 530.405169,277.646832 537.073717,281.325 L537.073717,383.02783 Z M503.122934,389.945576 C495.188458,389.128206 487.732444,386.715966 481.063896,383.02783 L481.063896,281.325 C487.732444,277.646832 495.188458,275.224624 503.122934,274.407254 L503.122934,389.945576 Z M469.182119,374.315856 C457.998097,363.719942 451.000607,348.758073 451.000607,332.181399 C451.000607,315.594757 457.998097,300.632888 469.182119,290.036974 L469.182119,374.315856 Z M579.018783,332.181399 C579.018783,307.371211 566.030565,285.551404 546.503382,273.131358 C546.353863,273.011743 546.194376,272.922032 546.024922,272.822352 C535.299425,266.113933 522.630181,262.216471 509.07379,262.216471 C495.507432,262.216471 482.838188,266.113933 472.112691,272.822352 C471.943236,272.922032 471.783749,273.011743 471.63423,273.131358 C452.107048,285.551404 439.108862,307.371211 439.108862,332.181399 C439.108862,356.981619 452.09708,378.791458 471.624262,391.221472 C471.783749,391.341087 471.953204,391.440766 472.122659,391.540446 C482.858124,398.248865 495.5174,402.13636 509.07379,402.13636 C522.620213,402.13636 535.279489,398.248865 546.014954,391.540446 C546.184408,391.440766 546.353863,391.341087 546.51335,391.221472 C566.040533,378.791458 579.018783,356.981619 579.018783,332.181399 L579.018783,332.181399 Z M487.244015,92.8513048 C478.492169,92.8513048 471.365096,85.724232 471.365096,76.972386 C471.365096,68.22054 478.492169,61.0934672 487.244015,61.0934672 C495.995861,61.0934672 503.122934,68.22054 503.122934,76.972386 C503.122934,85.724232 495.995861,92.8513048 487.244015,92.8513048 L487.244015,92.8513048 Z M487.244015,49.201722 C471.933268,49.201722 459.483319,61.6616394 459.483319,76.972386 C459.483319,92.2831326 471.933268,104.74305 487.244015,104.74305 C502.554762,104.74305 515.014679,92.2831326 515.014679,76.972386 C515.014679,61.6616394 502.554762,49.201722 487.244015,49.201722 L487.244015,49.201722 Z M373.769055,92.8513048 C365.007241,92.8513048 357.890136,85.724232 357.890136,76.972386 C357.890136,68.22054 365.007241,61.0934672 373.769055,61.0934672 C382.520901,61.0934672 389.647974,68.22054 389.647974,76.972386 C389.647974,85.724232 382.520901,92.8513048 373.769055,92.8513048 L373.769055,92.8513048 Z M373.769055,49.201722 C358.458308,49.201722 345.998391,61.6616394 345.998391,76.972386 C345.998391,92.2831326 358.458308,104.74305 373.769055,104.74305 C389.079801,104.74305 401.529751,92.2831326 401.529751,76.972386 C401.529751,61.6616394 389.079801,49.201722 373.769055,49.201722 L373.769055,49.201722 Z" transform="translate(0 .27)"/>
</svg>
