<svg xmlns="http://www.w3.org/2000/svg" width="333" height="233" viewBox="0 0 333 233">
  <path fill-rule="evenodd" d="M1122.56401,2572.53087 L1139.31992,2572.53087 L1139.31992,2516.97747 L1122.56401,2516.97747 L1122.56401,2572.53087 Z M1113.45424,2585.4627 L1096.69834,2585.4627 L1096.69834,2504.04362 L1113.45424,2504.04362 L1113.45424,2514.67573 L1113.45424,2574.82856 L1113.45424,2585.4627 Z M1087.58857,2598.39452 L1070.83266,2598.39452 L1070.83266,2568.83231 L1070.83266,2520.79952 L1070.83266,2491.10977 L1087.58857,2491.10977 L1087.58857,2501.74391 L1087.58857,2587.76038 L1087.58857,2598.39452 Z M959.98498,2556.67987 L959.974858,2557.02604 C957.476757,2556.10494 955.29446,2555.42475 953.614214,2554.95306 L953.614214,2548.89608 C957.221683,2548.10859 960.408078,2546.19554 962.809009,2543.55371 C963.001326,2543.76424 963.179473,2543.98288 963.381912,2544.18532 C966.685722,2547.4871 971.076631,2549.30703 975.746907,2549.30703 C982.619722,2549.30703 988.561317,2545.3129 991.417736,2539.53326 C994.292375,2541.60421 997.806722,2542.84112 1001.61258,2542.84112 C1008.48337,2542.84112 1014.42294,2538.84902 1017.28139,2533.07342 C1020.23498,2535.20713 1023.76147,2536.37318 1027.47623,2536.37318 L1027.48433,2536.37318 C1032.15258,2536.37318 1036.54146,2534.55528 1039.84527,2531.25349 C1040.27445,2530.82432 1040.6773,2530.37288 1041.05586,2529.90929 L1061.72289,2529.90929 L1061.72289,2559.46949 L959.98498,2556.67987 Z M940.526511,2505.95465 L941.504293,2505.95465 C941.504293,2501.33498 945.263591,2497.57568 949.883257,2497.57568 C952.120212,2497.57568 954.223556,2498.4482 955.806632,2500.02925 C957.389708,2501.61232 958.258172,2503.71567 958.258172,2505.95465 L958.260197,2531.8183 C958.260197,2535.09174 956.355243,2537.9016 953.614214,2539.28021 L953.614214,2528.82827 C953.614214,2519.09701 948.344718,2510.59253 940.526511,2505.95465 L940.526511,2505.95465 Z M975.746907,2491.10977 C980.366573,2491.10977 984.125871,2494.86704 984.125871,2499.48873 L984.125871,2505.95465 L984.125871,2525.35441 L984.125871,2531.82032 C984.125871,2536.43796 980.366573,2540.19726 975.746907,2540.19726 C973.509952,2540.19726 971.406607,2539.32475 969.821507,2537.7437 C968.240456,2536.16265 967.369967,2534.0593 967.369967,2531.82032 L967.367943,2499.49076 C967.369967,2494.86704 971.129266,2491.10977 975.746907,2491.10977 L975.746907,2491.10977 Z M1001.61258,2497.57568 C1006.23427,2497.57568 1009.99155,2501.33498 1009.99155,2505.95465 L1009.99155,2512.42056 L1009.99155,2518.8885 L1009.99155,2525.35441 C1009.99155,2529.97205 1006.23427,2533.73135 1001.61258,2533.73135 C996.992916,2533.73135 993.235641,2529.97205 993.235641,2525.35441 L993.235641,2505.95465 C993.235641,2501.33498 996.992916,2497.57568 1001.61258,2497.57568 L1001.61258,2497.57568 Z M1027.48028,2504.04362 C1032.09792,2504.04362 1035.85722,2507.80089 1035.85722,2512.42056 L1035.85722,2518.8885 C1035.85722,2521.12545 1034.98471,2523.2288 1033.40366,2524.81187 C1031.82058,2526.39495 1029.71926,2527.26341 1027.48433,2527.26341 L1027.4823,2527.26341 L1027.47826,2527.26341 L1027.47623,2527.26341 C1025.23928,2527.26341 1023.13593,2526.39292 1021.55488,2524.80985 C1019.97383,2523.2288 1019.10132,2521.12545 1019.10132,2518.8885 L1019.10132,2512.42056 C1019.10132,2507.80089 1022.86061,2504.04362 1027.48028,2504.04362 L1027.48028,2504.04362 Z M902.706793,2559.59702 L902.706793,2529.90929 L918.636745,2529.90727 L918.636745,2559.59702 L902.706793,2559.59702 Z M893.597023,2598.39452 L876.841119,2598.39452 L876.841119,2587.76038 L876.841119,2501.74391 L876.841119,2491.10977 L893.597023,2491.10977 L893.597023,2520.79952 L893.597023,2568.70679 L893.597023,2598.39452 Z M850.97342,2585.4627 L850.97342,2574.8488 C850.97342,2574.84273 850.975445,2574.83666 850.975445,2574.82856 L850.975445,2514.67573 C850.975445,2514.66966 850.97342,2514.66359 850.97342,2514.65751 L850.97342,2504.04362 L867.731349,2504.04362 L867.731349,2585.4627 L850.97342,2585.4627 Z M825.10977,2572.52885 L841.86365,2572.52885 L841.86365,2516.97544 L825.10977,2516.97544 L825.10977,2572.52885 Z M1141.61963,2507.86567 L1122.56401,2507.86567 L1122.56401,2501.74391 C1122.56401,2497.98663 1119.5092,2494.93385 1115.75193,2494.93385 L1096.69834,2494.93385 L1096.69834,2488.81006 C1096.69834,2485.05481 1093.6415,2482 1089.88626,2482 L1068.53295,2482 C1064.7777,2482 1061.72289,2485.05481 1061.72289,2488.81006 L1061.72289,2520.79952 L1044.85565,2520.79952 C1044.92448,2520.16791 1044.96699,2519.53225 1044.96699,2518.8885 L1044.96699,2512.42056 C1044.96699,2502.77837 1037.12247,2494.93385 1027.48028,2494.93385 C1023.67442,2494.93385 1020.15805,2496.16873 1017.28543,2498.24171 C1014.42699,2492.46004 1008.4854,2488.46591 1001.61258,2488.46591 C997.806722,2488.46591 994.292375,2489.70282 991.417736,2491.77377 C988.561317,2485.99413 982.619722,2482 975.746907,2482 C968.880164,2482 962.940594,2485.99008 960.080126,2491.7677 C957.126536,2489.63399 953.598019,2488.46591 949.883257,2488.46591 C941.299829,2488.46591 934.159793,2494.68485 932.688059,2502.84923 C930.855983,2502.4484 928.959127,2502.22369 927.009636,2502.22369 C922.394019,2502.22369 918.636745,2505.97894 918.636745,2510.59456 L918.636745,2520.7975 L902.706793,2520.79952 L902.706793,2488.81006 C902.706793,2485.05481 899.649959,2482 895.89471,2482 L874.541408,2482 C870.784134,2482 867.731349,2485.05481 867.731349,2488.81006 L867.731349,2494.93385 L848.675734,2494.93385 C844.91846,2494.93385 841.86365,2497.98663 841.86365,2501.74391 L841.86365,2507.86567 L822.810059,2507.86567 C819.05481,2507.86567 816,2510.92048 816,2514.67573 L816,2574.82856 C816,2578.58583 819.05481,2581.64064 822.810059,2581.64064 L841.86365,2581.64064 L841.86365,2587.76038 C841.86365,2591.51563 844.91846,2594.57247 848.675734,2594.57247 L867.731349,2594.57247 L867.731349,2600.69423 C867.731349,2604.44948 870.784134,2607.50429 874.541408,2607.50429 L895.89471,2607.50429 C899.649959,2607.50429 902.706793,2604.44948 902.706793,2600.69423 L902.706793,2568.70679 L918.636745,2568.70679 L918.636745,2569.37282 C918.636745,2580.26406 922.877849,2590.50344 930.580666,2598.20221 L937.925165,2605.5467 C946.26769,2613.89125 948.945963,2621.52119 948.945963,2636.94302 L948.945963,2714.62304 L958.055733,2714.62304 L958.055733,2636.94302 C958.055733,2619.11419 954.472557,2609.21491 944.364761,2599.10711 L937.020261,2591.76261 C931.040203,2585.78053 927.746515,2577.83073 927.746515,2569.37282 L927.746515,2511.34966 C937.052652,2511.73631 944.504444,2519.42901 944.504444,2528.82827 L944.504444,2562.24493 L948.164547,2562.97574 C948.468206,2563.03647 978.449472,2569.27767 990.247637,2592.87603 L998.397845,2588.80497 C993.395568,2578.79839 985.820288,2571.52475 978.133667,2566.28967 L1042.32313,2568.05089 L1042.32313,2568.38491 C1042.32313,2573.64024 1042.32313,2575.41158 1037.582,2579.94218 C1031.26994,2585.9688 1030.07353,2594.62915 1030.07353,2608.49625 L1030.02089,2714.62102 L1039.13066,2714.62507 L1039.1833,2608.49827 C1039.1833,2595.42069 1040.36757,2589.8779 1043.87179,2586.52955 C1050.68793,2580.02113 1051.4329,2575.81039 1051.4329,2568.38491 L1051.4329,2568.29989 L1061.72289,2568.58331 L1061.72289,2600.69423 C1061.72289,2604.44948 1064.7777,2607.50429 1068.53295,2607.50429 L1089.88626,2607.50429 C1093.6415,2607.50429 1096.69834,2604.44948 1096.69834,2600.69423 L1096.69834,2594.57247 L1115.75193,2594.57247 C1119.5092,2594.57247 1122.56401,2591.51563 1122.56401,2587.76038 L1122.56401,2581.64064 L1141.61963,2581.64064 C1145.37488,2581.64064 1148.42969,2578.58583 1148.42969,2574.82856 L1148.42969,2514.67573 C1148.42969,2510.92048 1145.37488,2507.86567 1141.61963,2507.86567 L1141.61963,2507.86567 Z" transform="translate(-816 -2482)"/>
</svg>
