<svg xmlns="http://www.w3.org/2000/svg" width="94" height="104" viewBox="0 0 94 104">
  <path fill-rule="evenodd" d="M1334.23,497.442 C1334.85,498.084 1334.83,499.104 1334.18,499.72 C1333.87,500.02 1333.47,500.169 1333.07,500.169 C1332.65,500.169 1332.22,500.003 1331.91,499.673 C1326.46,494.003 1320.18,486.314 1319.91,477.1 C1319.89,476.211 1320.59,475.469 1321.48,475.444 C1322.36,475.429 1323.11,476.119 1323.13,477.008 C1323.32,483.423 1326.64,489.535 1334.23,497.442 Z M1366.69,509.843 C1362.93,509.843 1359.28,508.816 1355.85,506.79 C1355.59,506.641 1355.31,506.567 1355.03,506.567 C1354.75,506.567 1354.46,506.641 1354.21,506.79 C1350.77,508.816 1347.13,509.843 1343.37,509.843 C1328.24,509.842 1312.27,492.723 1311.74,464.076 C1311.58,455.162 1313.73,448.364 1318.14,443.874 C1323.46,438.455 1331.22,437.317 1336.79,437.317 C1344.06,437.317 1350.8,439.143 1354.38,440.706 C1354.38,440.707 1354.38,440.707 1354.38,440.707 C1354.38,440.708 1354.38,440.708 1354.38,440.709 C1354.41,440.72 1354.44,440.715 1354.46,440.725 C1354.63,440.79 1354.81,440.84 1355,440.844 C1355.01,440.844 1355.02,440.844 1355.03,440.844 C1355.25,440.844 1355.47,440.795 1355.66,440.711 C1355.67,440.71 1355.67,440.711 1355.67,440.709 C1359.25,439.144 1366,437.317 1373.26,437.317 C1378.83,437.317 1386.59,438.455 1391.91,443.874 C1396.32,448.365 1398.48,455.162 1398.31,464.076 C1397.79,492.724 1381.82,509.843 1366.69,509.843 Z M1341.8,427.631 C1332.39,427.631 1326.25,426.056 1324.05,423.075 C1323.02,421.679 1322.86,419.912 1323.55,417.675 C1324.48,414.674 1326.49,413.216 1329.7,413.216 C1336.75,413.216 1347.38,420.078 1353.58,426.957 C1349.33,427.405 1345.38,427.631 1341.8,427.631 Z M1394.21,441.617 C1389.38,436.697 1382.14,434.096 1373.26,434.096 C1366.88,434.096 1360.84,435.432 1356.74,436.846 C1356.94,433.856 1357.42,431.197 1358.18,428.864 C1358.19,428.857 1358.19,428.85 1358.2,428.842 C1358.2,428.82 1358.21,428.796 1358.21,428.773 C1359.75,424.126 1362.42,420.76 1366.28,418.603 C1367.05,418.169 1367.33,417.187 1366.89,416.411 C1366.46,415.635 1365.48,415.358 1364.7,415.793 C1360.94,417.899 1358.12,421.021 1356.23,425.113 C1349.57,417.581 1337.91,409.995 1329.7,409.995 C1325.1,409.995 1321.82,412.383 1320.48,416.721 C1319.47,419.959 1319.8,422.74 1321.46,424.986 C1324.33,428.878 1331.17,430.852 1341.8,430.852 C1345.66,430.852 1349.94,430.583 1354.52,430.082 C1354,432.179 1353.66,434.454 1353.51,436.916 C1349.42,435.476 1343.29,434.096 1336.79,434.096 C1327.92,434.096 1320.67,436.697 1315.84,441.616 C1310.81,446.748 1308.34,454.324 1308.52,464.135 C1309.09,494.762 1326.68,513.063 1343.37,513.064 C1347.41,513.064 1351.33,512.044 1355.03,510.028 C1358.73,512.044 1362.65,513.064 1366.69,513.064 C1383.37,513.064 1400.97,494.762 1401.53,464.135 C1401.71,454.325 1399.25,446.749 1394.21,441.617 L1394.21,441.617 Z" transform="translate(-1308 -410)"/>
</svg>
