<svg xmlns="http://www.w3.org/2000/svg" width="106" height="88" viewBox="0 0 106 88">
  <path fill-rule="evenodd" d="M168.74,465.427 L168.121,465.247 C164.356,464.151 156.29,462.314 144.559,462.314 C139.045,462.314 133.748,462.92 128.815,464.117 L125.799,464.849 L128.448,463.233 C134.555,459.509 141.416,457.7 149.421,457.7 C158.419,457.7 163.968,459.386 164.199,459.458 C164.61,459.588 165.056,459.517 165.398,459.265 C165.744,459.013 165.949,458.609 165.949,458.184 L165.949,397.597 L166.617,397.873 C167.392,398.192 168.017,398.478 168.469,398.699 L168.74,398.831 L168.74,465.427 Z M120.377,465.988 L120.377,398.588 L120.518,398.447 C128.515,390.371 137.7,386.609 149.421,386.609 C155.955,386.609 160.67,387.496 162.9,388.024 L163.272,388.113 L163.272,456.445 L162.686,456.318 C159.952,455.728 155.431,455.023 149.421,455.023 C138.13,455.023 129.157,458.283 121.181,465.284 L120.377,465.988 Z M117.701,465.988 L116.897,465.284 C108.923,458.283 99.949,455.023 88.658,455.023 C82.648,455.023 78.127,455.728 75.394,456.318 L74.807,456.445 L74.807,388.113 L75.18,388.024 C77.409,387.496 82.125,386.609 88.658,386.609 C100.381,386.609 109.564,390.371 117.561,398.447 L117.701,398.588 L117.701,465.988 Z M109.269,464.12 C104.34,462.922 99.042,462.314 93.519,462.314 C81.788,462.314 73.722,464.151 69.958,465.247 L69.338,465.427 L69.338,398.834 L69.609,398.7 C70.061,398.48 70.688,398.193 71.461,397.873 L72.13,397.595 L72.13,458.184 C72.13,458.609 72.336,459.013 72.679,459.264 C73.023,459.516 73.468,459.589 73.875,459.459 C74.116,459.385 79.722,457.7 88.658,457.7 C96.669,457.7 103.532,459.511 109.636,463.236 L112.287,464.854 L109.269,464.12 Z M170.76,396.879 C170.591,396.779 169.061,395.902 166.264,394.857 L165.949,394.738 L165.949,387.094 C165.949,386.51 165.575,385.997 165.019,385.819 C164.407,385.626 158.75,383.933 149.421,383.933 C137.269,383.933 127.723,387.702 119.376,395.796 L119.04,396.123 L118.703,395.796 C110.356,387.702 100.811,383.933 88.658,383.933 C79.138,383.933 73.303,385.742 73.059,385.819 C72.505,385.997 72.13,386.51 72.13,387.094 L72.13,394.738 L71.816,394.857 C69.12,395.864 67.598,396.718 67.32,396.878 C66.913,397.119 66.661,397.562 66.661,398.032 L66.661,467.299 C66.661,467.741 66.881,468.155 67.249,468.406 C67.616,468.654 68.084,468.704 68.495,468.544 C68.585,468.508 77.685,464.991 93.519,464.991 C109.001,464.991 117.97,470.05 118.345,470.265 L118.529,470.341 C118.864,470.48 119.108,470.485 119.387,470.414 C119.543,470.353 119.63,470.323 119.71,470.276 C120.102,470.053 129.04,464.991 144.559,464.991 C160.519,464.991 169.496,468.508 169.586,468.544 C169.997,468.709 170.465,468.656 170.831,468.405 C171.197,468.155 171.417,467.741 171.417,467.299 L171.417,398.032 C171.417,397.562 171.165,397.119 170.76,396.879 L170.76,396.879 Z" transform="translate(-66 -383)"/>
</svg>
