<svg xmlns="http://www.w3.org/2000/svg" width="100" height="92" viewBox="0 0 100 92">
  <path fill-rule="evenodd" d="M1390.8,78.168 C1386.61,80.515 1387.1,85.688 1387.53,90.251 C1387.62,91.26 1387.72,92.303 1387.77,93.297 C1388.01,98.019 1389.36,124.764 1389.7,131.66 L1329.27,131.66 C1329.3,130.949 1329.35,130.023 1329.41,128.926 C1329.75,122.055 1330.43,108.606 1330.86,100.135 L1331.21,93.297 C1331.26,92.298 1331.36,91.25 1331.45,90.237 C1331.88,85.679 1332.36,80.513 1328.18,78.168 C1328.14,78.151 1328.11,78.134 1328.08,78.119 C1323.1,75.771 1321.22,73.241 1320.83,67.676 C1320.78,66.881 1320.75,66.024 1320.75,65.097 C1320.75,51.625 1339.89,50.498 1359.49,50.498 C1361.18,50.498 1362.9,50.506 1364.63,50.53 C1369.25,50.594 1373.91,50.778 1378.22,51.276 C1380.4,51.528 1382.31,51.836 1384.07,52.218 C1393.73,54.3 1398.23,58.393 1398.23,65.097 C1398.23,72.513 1396.58,75.434 1390.9,78.119 C1390.86,78.134 1390.83,78.151 1390.8,78.168 Z M1313.01,73.812 C1312.98,73.794 1312.95,73.779 1312.92,73.764 C1307.24,71.076 1305.59,68.154 1305.59,60.734 C1305.59,47.262 1324.73,46.135 1344.33,46.135 C1351.9,46.135 1360.1,46.275 1366.98,47.484 C1366.94,47.482 1366.9,47.482 1366.87,47.482 C1365.75,47.456 1364.63,47.44 1363.52,47.429 C1363.25,47.427 1362.99,47.424 1362.73,47.422 C1361.64,47.415 1360.56,47.41 1359.49,47.41 C1350.22,47.41 1339.66,47.598 1331.63,49.846 C1322.36,52.442 1317.66,57.573 1317.66,65.097 C1317.66,73.687 1319.95,77.679 1326.71,80.886 C1328.94,82.172 1328.82,85.173 1328.38,89.948 C1328.28,90.995 1328.18,92.076 1328.12,93.142 L1327.78,99.979 C1327.63,102.949 1327.45,106.532 1327.26,110.228 C1327.02,114.92 1326.78,119.791 1326.58,123.83 C1326.51,125.077 1326.45,126.247 1326.4,127.305 L1314.11,127.305 C1314.46,120.408 1315.81,93.66 1316.05,88.939 C1316.1,87.944 1316.2,86.901 1316.29,85.892 C1316.72,81.327 1317.21,76.153 1313.01,73.812 Z M1392.27,80.886 C1399.03,77.677 1401.32,73.685 1401.32,65.097 C1401.32,56.807 1395.89,51.607 1384.72,49.2 C1382.95,48.817 1381.04,48.505 1378.9,48.247 C1378.38,47.94 1377.84,47.643 1377.28,47.37 C1369.06,43.381 1355.96,43.047 1344.33,43.047 C1335.06,43.047 1324.51,43.235 1316.48,45.484 C1307.2,48.079 1302.5,53.21 1302.5,60.734 C1302.5,69.326 1304.79,73.32 1311.55,76.531 C1313.78,77.813 1313.67,80.819 1313.22,85.603 C1313.12,86.644 1313.02,87.721 1312.96,88.784 C1312.69,94.214 1310.95,128.771 1310.95,128.771 C1310.93,129.193 1311.08,129.607 1311.37,129.913 C1311.66,130.219 1312.07,130.393 1312.49,130.393 L1326.24,130.393 C1326.22,130.887 1326.2,131.322 1326.18,131.688 C1326.13,132.612 1326.11,133.137 1326.11,133.137 C1326.09,133.558 1326.24,133.968 1326.53,134.272 C1326.83,134.576 1327.23,134.748 1327.65,134.748 L1391.33,134.748 C1392.19,134.748 1392.88,134.057 1392.88,133.204 C1392.88,133.125 1392.87,133.047 1392.86,132.971 C1392.74,130.46 1391.12,98.359 1390.85,93.141 C1390.8,92.08 1390.7,91.003 1390.6,89.961 C1390.15,85.179 1390.04,82.173 1392.27,80.886 L1392.27,80.886 Z" transform="translate(-1302 -43)"/>
</svg>
