<svg xmlns="http://www.w3.org/2000/svg" width="91" height="83" viewBox="0 0 91 83">
  <path fill-rule="evenodd" d="M635.64,253.149 C638.143,253.149 640.179,255.184 640.179,257.687 C640.179,260.189 638.143,262.224 635.64,262.224 C633.138,262.224 631.102,260.189 631.102,257.687 C631.102,255.184 633.138,253.149 635.64,253.149 Z M635.64,264.954 C639.648,264.954 642.908,261.694 642.908,257.687 C642.908,253.679 639.648,250.419 635.64,250.419 C631.632,250.419 628.372,253.679 628.372,257.687 C628.372,261.694 631.632,264.954 635.64,264.954 Z M615.696,276.105 C618.199,276.105 620.234,278.14 620.234,280.644 C620.234,283.146 618.199,285.181 615.696,285.181 C613.194,285.181 611.158,283.146 611.158,280.644 C611.158,278.14 613.194,276.105 615.696,276.105 Z M608.429,280.644 C608.429,284.65 611.688,287.911 615.696,287.911 C619.704,287.911 622.964,284.65 622.964,280.644 C622.964,276.635 619.704,273.375 615.696,273.375 C611.688,273.375 608.429,276.635 608.429,280.644 Z M584.718,274.387 C588.168,274.387 590.976,277.194 590.976,280.644 C590.976,284.093 588.168,286.9 584.718,286.9 C581.268,286.9 578.462,284.093 578.462,280.644 C578.462,277.194 581.268,274.387 584.718,274.387 Z M584.718,289.63 C589.674,289.63 593.706,285.599 593.706,280.644 C593.706,275.688 589.674,271.657 584.718,271.657 C579.763,271.657 575.732,275.688 575.732,280.644 C575.732,285.599 579.763,289.63 584.718,289.63 Z M570.256,294.524 L654.878,294.524 L654.878,239.436 L570.256,239.436 L570.256,294.524 Z M594.653,218.347 L600.97,220.518 C600.274,224.266 602.108,227.986 605.523,229.37 C606.399,229.725 607.324,229.904 608.27,229.904 C611.193,229.904 613.954,228.158 615.399,225.478 L648.072,236.706 L572.656,236.706 L594.653,218.347 Z M657.585,237.958 C657.577,237.854 657.557,237.756 657.525,237.658 C657.503,237.591 657.483,237.528 657.452,237.467 C657.407,237.378 657.35,237.3 657.288,237.223 C657.245,237.17 657.207,237.117 657.157,237.071 C657.084,237.004 656.999,236.956 656.913,236.906 C656.851,236.871 656.796,236.83 656.729,236.804 C656.714,236.798 656.703,236.786 656.687,236.781 L615.083,222.483 C614.369,222.236 613.596,222.613 613.35,223.325 C613.321,223.407 613.298,223.489 613.275,223.589 C612.407,225.734 610.395,227.174 608.27,227.174 C607.677,227.174 607.096,227.063 606.547,226.84 C604.082,225.842 602.921,222.878 603.902,220.093 C604.022,219.751 604.001,219.373 603.843,219.045 C603.685,218.717 603.402,218.467 603.058,218.35 L594.813,215.516 C594.362,215.358 593.861,215.453 593.495,215.758 L568.017,237.024 C567.998,237.039 567.988,237.059 567.971,237.075 C567.931,237.112 567.9,237.154 567.865,237.195 C567.793,237.28 567.732,237.368 567.684,237.464 C567.659,237.514 567.637,237.561 567.619,237.613 C567.574,237.735 567.55,237.861 567.542,237.991 C567.54,238.019 567.526,238.043 567.526,238.071 L567.526,295.889 C567.526,296.644 568.137,297.254 568.891,297.254 L656.243,297.219 C656.997,297.219 657.608,296.609 657.608,295.855 L657.608,238.071 C657.608,238.031 657.589,237.998 657.585,237.958 Z M600.081,248.461 C604.811,248.461 608.658,252.309 608.658,257.038 C608.658,261.767 604.811,265.615 600.081,265.615 C595.352,265.615 591.504,261.767 591.504,257.038 C591.504,252.309 595.352,248.461 600.081,248.461 Z M600.081,268.345 C606.316,268.345 611.388,263.274 611.388,257.038 C611.388,250.803 606.316,245.731 600.081,245.731 C593.847,245.731 588.774,250.803 588.774,257.038 C588.774,263.274 593.847,268.345 600.081,268.345 L600.081,268.345 Z" transform="translate(-567 -215)"/>
</svg>
