<svg xmlns="http://www.w3.org/2000/svg" width="93" height="114" viewBox="0 0 93 114">
  <path fill-rule="evenodd" d="M2091.21,246.558 L2094.93,236.585 L2172.41,236.585 L2175.76,246.558 L2091.21,246.558 Z M2168.3,269.65 L2100,269.65 L2098.15,249.412 L2169.74,249.412 L2168.3,269.65 Z M2165.8,304.492 L2103.19,304.492 L2100.26,272.504 L2168.09,272.504 L2165.8,304.492 Z M2163.96,330.152 L2105.54,330.152 L2103.45,307.347 L2165.6,307.347 L2163.96,330.152 Z M2105.9,230.2 L2106.2,230.163 L2160.37,223.479 L2164.81,233.73 L2105.9,233.73 L2105.9,230.2 Z M2179.6,247.984 C2179.6,247.8 2179.56,247.621 2179.48,247.453 L2179.47,247.418 L2175.21,234.758 C2175.01,234.153 2174.36,233.73 2173.64,233.73 L2168.31,233.73 L2162.98,221.403 C2162.7,220.772 2161.98,220.404 2161.21,220.492 L2104.03,227.547 C2103.23,227.648 2102.62,228.255 2102.62,228.961 L2102.62,233.73 L2093.74,233.73 C2093.03,233.73 2092.4,234.128 2092.18,234.718 L2087.39,247.545 C2087.24,247.969 2087.32,248.439 2087.61,248.803 C2087.92,249.185 2088.42,249.412 2088.95,249.412 L2094.86,249.412 L2102.39,331.693 C2102.46,332.43 2103.18,333.007 2104.03,333.007 L2165.51,333.007 C2166.37,333.007 2167.09,332.418 2167.14,331.668 L2173.03,249.412 L2177.95,249.412 C2178.86,249.412 2179.6,248.772 2179.6,247.984 L2179.6,247.984 Z" transform="translate(-2087 -220)"/>
</svg>
