<svg xmlns="http://www.w3.org/2000/svg" width="350" height="163" viewBox="0 0 350 163">
  <path fill-rule="evenodd" d="M1189.54137,1259.048 C1189.54137,1255.94612 1187.91709,1253.45604 1184.66853,1251.57416 C1181.4164,1249.69945 1175.24485,1247.74959 1166.14674,1245.72461 C1157.04863,1243.70678 1149.53902,1241.05212 1143.61791,1237.76421 C1137.6968,1234.47987 1133.18531,1230.49431 1130.07986,1225.79678 C1126.97441,1221.1064 1125.42169,1215.72553 1125.42169,1209.65773 C1125.42169,1198.89957 1129.86162,1190.03758 1138.74507,1183.07178 C1147.62494,1176.09883 1159.24892,1172.61772 1173.62057,1172.61772 C1189.07269,1172.61772 1201.49092,1176.1203 1210.87883,1183.12187 C1220.26315,1190.12703 1224.95711,1199.33605 1224.95711,1210.74178 L1188.35,1210.74178 C1188.35,1201.35745 1183.40203,1196.6635 1173.51324,1196.6635 C1169.68509,1196.6635 1166.47231,1197.72608 1163.87132,1199.85481 C1161.2739,1201.98713 1159.97162,1204.64179 1159.97162,1207.81879 C1159.97162,1211.06735 1161.56012,1213.70412 1164.73712,1215.72553 C1167.91413,1217.74693 1172.98732,1219.40699 1179.95669,1220.7057 C1186.92249,1222.00441 1193.04395,1223.56071 1198.31391,1225.36387 C1215.93055,1231.42809 1224.74244,1242.29717 1224.74244,1257.96395 C1224.74244,1268.65414 1219.99483,1277.35155 1210.49959,1284.06691 C1201.00435,1290.78227 1188.71135,1294.14174 1173.62057,1294.14174 C1163.58152,1294.14174 1154.6301,1292.33499 1146.75914,1288.72509 C1138.88818,1285.11518 1132.74883,1280.20656 1128.34825,1273.99566 C1123.94052,1267.78476 1121.74023,1261.25186 1121.74023,1254.38982 L1155.85725,1254.38982 C1156.00036,1259.80647 1157.8071,1263.75626 1161.2739,1266.2535 C1164.73712,1268.74001 1169.18064,1269.98863 1174.59371,1269.98863 C1179.57746,1269.98863 1183.31258,1268.97614 1185.80625,1266.95473 C1188.29633,1264.9369 1189.54137,1262.29656 1189.54137,1259.048 L1189.54137,1259.048 Z M1076.56808,1194.0625 C1076.56808,1182.72832 1075.08691,1174.25989 1072.12815,1168.66078 C1069.1658,1163.06882 1064.47185,1160.27105 1058.04986,1160.27105 C1051.76741,1160.27105 1047.19867,1162.86847 1044.34724,1168.06688 C1041.49581,1173.26529 1039.96097,1181.13982 1039.74273,1191.67975 L1039.74273,1231.9719 C1039.74273,1243.74256 1041.2239,1252.35053 1044.18624,1257.80295 C1047.14501,1263.25538 1051.83896,1265.97802 1058.26453,1265.97802 C1064.47185,1265.97802 1069.05847,1263.32336 1072.02081,1258.02119 C1074.97958,1252.71188 1076.49653,1244.39013 1076.56808,1233.05237 L1076.56808,1194.0625 Z M1113.06786,1227.52839 C1113.06786,1248.83364 1108.28446,1265.2589 1098.71767,1276.81132 C1089.15088,1288.36374 1075.6665,1294.14174 1058.26453,1294.14174 C1040.71944,1294.14174 1027.14204,1288.33154 1017.53947,1276.70399 C1007.9369,1265.08001 1003.13562,1248.68695 1003.13562,1227.52839 L1003.13562,1198.72068 C1003.13562,1177.42258 1007.91902,1160.99375 1017.48581,1149.43775 C1027.0526,1137.88891 1040.57276,1132.11091 1058.04986,1132.11091 C1075.51981,1132.11091 1089.06144,1137.92468 1098.66401,1149.54866 C1108.26658,1161.17621 1113.06786,1177.59789 1113.06786,1198.82801 L1113.06786,1227.52839 Z M912.909396,1197.85488 L930.132484,1197.85488 C943.777863,1197.85488 950.600552,1191.17529 950.600552,1177.81613 C950.600552,1172.61772 948.976273,1168.37456 945.727714,1165.09022 C942.479155,1161.80231 937.892533,1160.16014 931.971426,1160.16014 C927.134364,1160.16014 922.926979,1161.56976 919.352849,1164.38541 C915.778718,1167.20107 913.993442,1170.70723 913.993442,1174.89314 L877.493663,1174.89314 C877.493663,1166.58928 879.801284,1159.187 884.423683,1152.68631 C889.046082,1146.18919 895.453758,1141.116 903.650287,1137.47032 C911.843239,1133.82463 920.851909,1132 930.672718,1132 C948.217799,1132 962.009864,1136.00703 972.045335,1144.02468 C982.084385,1152.03874 987.103909,1163.05093 987.103909,1177.05766 C987.103909,1183.84457 985.025261,1190.25225 980.875119,1196.28426 C976.7214,1202.3127 970.675073,1207.207 962.732561,1210.96002 C971.107976,1213.99034 977.680226,1218.59485 982.445733,1224.7664 C987.211241,1230.9451 989.593994,1238.57635 989.593994,1247.67446 C989.593994,1261.75632 984.177344,1273.01895 973.347621,1281.46949 C962.514321,1289.91646 948.289353,1294.14174 930.672718,1294.14174 C920.347452,1294.14174 910.762771,1292.174 901.915099,1288.23494 C893.071004,1284.30304 886.373534,1278.85061 881.826267,1271.88481 C877.275422,1264.91544 875,1256.99081 875,1248.10736 L911.718019,1248.10736 C911.718019,1252.948 913.66787,1257.1375 917.567572,1260.67228 C921.467274,1264.21063 926.268559,1265.97802 931.971426,1265.97802 C938.39699,1265.97802 943.523846,1264.18916 947.351993,1260.61861 C951.176563,1257.0409 953.094215,1252.47932 953.094215,1246.91599 C953.094215,1238.97705 951.105009,1233.34216 947.137331,1230.02205 C943.162497,1226.70194 937.67787,1225.0383 930.672718,1225.0383 L912.909396,1225.0383 L912.909396,1197.85488 Z" transform="translate(-875 -1132)"/>
</svg>
