<svg xmlns="http://www.w3.org/2000/svg" width="64" height="89" viewBox="0 0 64 89">
  <path fill-rule="evenodd" d="M1729.44,498.239 C1729.44,502.248 1726.18,505.509 1722.18,505.509 L1679.92,505.509 C1675.91,505.509 1672.66,502.248 1672.66,498.239 L1672.66,494.769 L1729.44,494.769 L1729.44,498.239 Z M1672.66,451.778 C1672.66,448.791 1674.54,446.062 1677.34,444.986 C1678.16,444.67 1679.03,444.509 1679.91,444.509 L1722.18,444.509 C1726.19,444.509 1729.44,447.77 1729.44,451.778 L1729.44,456.975 L1672.66,456.975 L1672.66,451.778 Z M1680.33,441.775 L1721.76,441.775 L1721.76,438.29 L1680.33,438.29 L1680.33,441.775 Z M1675.73,435.558 L1678.94,435.558 L1678.94,423.55 L1675.73,423.55 L1675.73,435.558 Z M1723.16,435.558 L1726.37,435.558 L1726.37,423.55 L1723.16,423.55 L1723.16,435.558 Z M1717.23,435.558 L1720.43,435.558 L1720.43,423.55 L1717.23,423.55 L1717.23,435.558 Z M1711.31,435.558 L1714.5,435.558 L1714.5,423.55 L1711.31,423.55 L1711.31,435.558 Z M1705.38,435.558 L1708.57,435.558 L1708.57,423.55 L1705.38,423.55 L1705.38,435.558 Z M1699.45,435.558 L1702.65,435.558 L1702.65,423.55 L1699.45,423.55 L1699.45,435.558 Z M1693.52,435.558 L1696.72,435.558 L1696.72,423.55 L1693.52,423.55 L1693.52,435.558 Z M1687.6,435.558 L1690.79,435.558 L1690.79,423.55 L1687.6,423.55 L1687.6,435.558 Z M1681.67,435.558 L1684.86,435.558 L1684.86,423.55 L1681.67,423.55 L1681.67,435.558 Z M1672.64,492.037 L1729.44,492.037 L1729.44,459.707 L1672.64,459.707 L1672.64,492.037 Z M1732.17,457.96 C1732.17,457.958 1732.17,457.957 1732.17,457.955 L1732.17,451.778 C1732.17,447.062 1728.89,443.107 1724.5,442.059 L1724.5,438.29 L1727.73,438.29 C1728.49,438.29 1729.1,437.678 1729.1,436.923 L1729.1,422.184 C1729.1,421.429 1728.49,420.818 1727.73,420.818 L1674.36,420.818 C1673.61,420.818 1673,421.429 1673,422.184 L1673,436.923 C1673,437.678 1673.61,438.29 1674.36,438.29 L1677.6,438.29 L1677.6,442.061 C1677.18,442.162 1676.76,442.281 1676.36,442.437 C1672.51,443.914 1669.92,447.668 1669.92,451.778 L1669.92,457.802 C1669.91,457.867 1669.9,457.932 1669.9,458 L1669.9,494.769 C1669.9,494.837 1669.91,494.902 1669.92,494.967 L1669.92,498.239 C1669.92,503.754 1674.41,508.241 1679.92,508.241 L1722.18,508.241 C1727.69,508.241 1732.17,503.754 1732.17,498.239 L1732.17,494.09 C1732.17,494.088 1732.17,494.086 1732.17,494.085 L1732.17,457.96 Z M1712.31,476.379 C1711.7,476.667 1710.92,476.8 1710.1,476.941 C1709.31,477.078 1708.48,477.219 1707.72,477.517 C1707.52,477.593 1707.32,477.666 1707.12,477.74 C1705.88,478.203 1704.33,478.779 1702.03,480.384 C1700.73,481.295 1699.97,482.142 1699.36,482.823 C1698.74,483.523 1698.29,484.028 1697.41,484.445 C1695.97,485.13 1694.43,485.492 1692.95,485.492 C1690.33,485.492 1688.25,484.401 1687.39,482.575 C1685.97,479.593 1688.17,475.576 1692.28,473.62 C1693.75,472.92 1695.02,472.821 1696.79,472.684 C1697.09,472.66 1697.41,472.636 1697.73,472.607 C1699.83,472.427 1702.17,471.045 1703.73,470.131 C1704.1,469.914 1704.41,469.726 1704.66,469.595 C1705.44,469.178 1706.02,468.658 1706.53,468.198 C1707.01,467.77 1707.42,467.4 1707.93,467.157 C1709.18,466.565 1710.51,466.253 1711.79,466.253 C1714.02,466.253 1715.79,467.174 1716.52,468.719 C1717.73,471.263 1715.84,474.699 1712.31,476.379 Z M1718.99,467.549 C1717.8,465.026 1715.1,463.521 1711.79,463.521 C1710.11,463.521 1708.37,463.925 1706.76,464.689 C1705.89,465.103 1705.26,465.668 1704.71,466.166 C1704.25,466.573 1703.86,466.924 1703.38,467.184 C1703.08,467.341 1702.74,467.544 1702.34,467.778 C1701,468.566 1698.98,469.758 1697.49,469.886 C1697.18,469.914 1696.87,469.937 1696.57,469.961 C1694.67,470.108 1693.03,470.236 1691.1,471.153 C1685.64,473.755 1682.86,479.405 1684.92,483.746 C1686.25,486.55 1689.25,488.224 1692.95,488.224 C1694.83,488.224 1696.78,487.771 1698.58,486.912 C1699.96,486.259 1700.69,485.439 1701.4,484.646 C1701.97,484.009 1702.56,483.351 1703.6,482.622 C1705.61,481.218 1706.86,480.752 1708.07,480.301 C1708.29,480.222 1708.5,480.145 1708.7,480.064 C1709.22,479.865 1709.87,479.753 1710.56,479.634 C1711.53,479.468 1712.54,479.295 1713.48,478.846 C1718.37,476.52 1720.84,471.452 1718.99,467.549 L1718.99,467.549 Z" transform="translate(-1669 -420)"/>
</svg>
