<svg xmlns="http://www.w3.org/2000/svg" width="175" height="102" viewBox="0 0 175 102">
  <path fill="#dad3d1" fill-rule="evenodd" d="M196.13016,2482.27374 C193.464055,2482.27374 190.860054,2482.53785 188.334468,2483.02527 C195.436345,2473.86014 204.946499,2468.24501 215.385084,2468.24501 L215.385084,2463 C182.088882,2463 155,2490.11523 155,2523.4428 L155,2526.06562 L155.092216,2526.06562 C156.449107,2547.54752 174.331457,2564.61248 196.13016,2564.61248 C218.809618,2564.61248 237.260319,2546.14358 237.260319,2523.4428 C237.260319,2500.74201 218.809618,2482.27374 196.13016,2482.27374 M288.86984,2482.27374 C286.203735,2482.27374 283.599735,2482.53785 281.074149,2483.02527 C288.176026,2473.86014 297.686179,2468.24501 308.124765,2468.24501 L308.124765,2463 C274.828563,2463 247.739681,2490.11523 247.739681,2523.4428 L247.739681,2526.06562 L247.831896,2526.06562 C249.188787,2547.54752 267.071138,2564.61248 288.86984,2564.61248 C311.549298,2564.61248 330,2546.14358 330,2523.4428 C330,2500.74201 311.549298,2482.27374 288.86984,2482.27374" transform="translate(-155 -2463)"/>
</svg>
