<svg xmlns="http://www.w3.org/2000/svg" width="195" height="178" viewBox="0 0 195 178">
  <path fill-rule="evenodd" d="M1950.71,77.933 C1948.72,80.883 1945.41,82.645 1941.85,82.645 C1939.72,82.645 1937.67,82.015 1935.9,80.824 C1931.02,77.537 1929.72,70.891 1933.01,66.01 C1934.54,63.738 1936.84,62.162 1939.48,61.564 L1940.38,70.655 C1940.46,71.412 1940.86,72.089 1941.49,72.514 C1942.12,72.934 1942.91,73.056 1943.63,72.844 L1952.39,70.256 C1952.83,72.946 1952.23,75.668 1950.71,77.933 Z M1906.32,72.625 C1904.63,73.687 1902.73,74.254 1900.76,74.298 L1895.53,53.721 C1897.81,52.55 1900.39,52.216 1902.92,52.788 C1905.75,53.431 1908.17,55.141 1909.72,57.602 C1911.27,60.064 1911.77,62.982 1911.13,65.819 C1910.49,68.656 1908.78,71.074 1906.32,72.625 Z M1906.28,106.859 C1906.45,107.51 1906.3,108.216 1905.89,108.747 C1905.47,109.285 1904.84,109.594 1904.16,109.594 L1812.41,109.594 C1811.72,109.594 1811.09,109.285 1810.67,108.747 C1810.26,108.216 1810.11,107.51 1810.28,106.859 L1823.62,54.401 L1847.14,54.401 L1847.14,54.402 L1869.42,54.402 L1869.42,54.401 L1892.94,54.401 L1906.28,106.859 Z M1887.74,144.35 C1887.74,145.122 1887.11,145.751 1886.33,145.751 L1872.16,145.751 C1871.39,145.751 1870.76,145.122 1870.76,144.35 L1870.76,112.271 L1887.74,112.271 L1887.74,144.35 Z M1876.09,159.369 L1876.09,148.427 L1882.4,148.427 L1882.4,159.369 C1881.38,159.171 1880.33,159.065 1879.25,159.065 C1878.17,159.065 1877.11,159.171 1876.09,159.369 Z M1893.13,174.353 L1865.36,174.353 C1866.04,167.286 1872.01,161.741 1879.25,161.741 C1886.49,161.741 1892.46,167.286 1893.13,174.353 Z M1845.81,144.35 C1845.81,145.122 1845.18,145.751 1844.4,145.751 L1830.23,145.751 C1829.45,145.751 1828.83,145.122 1828.83,144.35 L1828.83,112.271 L1845.81,112.271 L1845.81,144.35 Z M1834.16,159.369 L1834.16,148.427 L1840.47,148.427 L1840.47,159.369 C1839.45,159.171 1838.4,159.065 1837.32,159.065 C1836.24,159.065 1835.18,159.171 1834.16,159.369 Z M1851.2,174.353 L1823.43,174.353 C1824.1,167.286 1830.08,161.741 1837.32,161.741 C1844.56,161.741 1850.53,167.286 1851.2,174.353 Z M1810.25,72.625 C1807.79,71.074 1806.08,68.656 1805.43,65.819 C1804.79,62.982 1805.29,60.064 1806.84,57.602 C1809.87,52.795 1816.07,51.17 1821.03,53.722 L1815.8,74.298 C1813.83,74.252 1811.93,73.687 1810.25,72.625 Z M1841.93,36.469 L1841.93,29.262 L1856.94,29.262 L1856.94,36.412 L1847.14,36.412 C1847.02,36.412 1846.9,36.436 1846.78,36.469 L1841.93,36.469 Z M1839.25,36.469 L1823.94,36.469 C1823.96,35.924 1824,35.383 1824.04,34.844 C1824.05,34.805 1824.05,34.766 1824.05,34.727 C1824.1,34.206 1824.16,33.69 1824.23,33.176 C1824.24,33.124 1824.24,33.072 1824.25,33.019 C1824.32,32.507 1824.41,31.998 1824.5,31.493 C1824.51,31.448 1824.52,31.403 1824.52,31.357 C1824.62,30.839 1824.73,30.323 1824.86,29.813 C1824.86,29.794 1824.86,29.776 1824.87,29.757 C1824.91,29.591 1824.96,29.428 1825,29.262 L1839.25,29.262 L1839.25,36.469 Z M1858.28,3.442 C1873.3,3.442 1886.1,13.13 1890.77,26.586 L1825.8,26.586 C1830.46,13.13 1843.26,3.442 1858.28,3.442 Z M1891.7,29.782 C1891.7,29.785 1891.7,29.788 1891.7,29.791 C1891.83,30.311 1891.94,30.836 1892.04,31.365 C1892.05,31.405 1892.05,31.445 1892.06,31.485 C1892.16,31.993 1892.24,32.505 1892.31,33.02 C1892.32,33.072 1892.33,33.124 1892.33,33.175 C1892.4,33.689 1892.46,34.206 1892.51,34.727 C1892.51,34.766 1892.51,34.806 1892.52,34.845 C1892.56,35.383 1892.6,35.924 1892.62,36.469 L1877.31,36.469 L1877.31,29.262 L1891.56,29.262 C1891.61,29.436 1891.66,29.607 1891.7,29.782 Z M1848.48,51.724 L1868.08,51.724 L1868.08,39.146 L1848.48,39.146 L1848.48,51.724 Z M1874.63,36.469 L1869.78,36.469 C1869.67,36.436 1869.55,36.412 1869.42,36.412 L1859.62,36.412 L1859.62,29.262 L1874.63,29.262 L1874.63,36.469 Z M1780.67,80.824 C1778.9,82.016 1776.84,82.645 1774.72,82.645 C1771.15,82.645 1767.84,80.883 1765.85,77.933 C1764.33,75.669 1763.73,72.95 1764.17,70.261 L1772.93,72.844 C1773.65,73.055 1774.45,72.934 1775.07,72.514 C1775.7,72.089 1776.1,71.412 1776.18,70.655 L1777.08,61.568 C1779.74,62.173 1782.03,63.746 1783.56,66.011 C1785.15,68.375 1785.73,71.218 1785.18,74.016 C1784.63,76.814 1783.03,79.231 1780.67,80.824 Z M1955,69.647 C1954.88,68.935 1954.45,68.308 1953.83,67.927 C1953.23,67.55 1952.47,67.448 1951.78,67.651 L1943.03,70.231 L1942.13,61.156 C1942.06,60.438 1941.69,59.781 1941.1,59.354 C1940.52,58.927 1939.77,58.769 1939.07,58.918 C1935.67,59.644 1932.73,61.631 1930.79,64.515 C1926.92,70.251 1928.12,77.932 1933.34,82.251 L1925.31,93.782 C1925.1,94.078 1924.77,94.258 1924.4,94.263 C1924.05,94.283 1923.7,94.097 1923.49,93.807 L1908.92,74.06 C1911.35,72.145 1913.05,69.475 1913.74,66.411 C1914.54,62.876 1913.92,59.241 1911.99,56.175 C1910.05,53.109 1907.04,50.979 1903.51,50.178 C1900.1,49.406 1896.61,49.958 1893.62,51.724 L1870.76,51.724 L1870.76,39.146 L1893.99,39.146 C1894.73,39.146 1895.33,38.547 1895.33,37.808 C1895.33,37.758 1895.33,37.709 1895.32,37.661 C1895.32,37.302 1895.31,36.945 1895.3,36.589 C1895.3,36.492 1895.29,36.397 1895.29,36.301 C1895.28,35.999 1895.26,35.698 1895.24,35.397 C1895.24,35.284 1895.23,35.17 1895.22,35.057 C1895.19,34.7 1895.16,34.343 1895.13,33.988 C1895.12,33.957 1895.12,33.926 1895.12,33.895 C1895.08,33.521 1895.03,33.149 1894.98,32.779 C1894.96,32.647 1894.94,32.516 1894.92,32.384 C1894.89,32.131 1894.85,31.88 1894.8,31.628 C1894.78,31.488 1894.76,31.346 1894.73,31.206 C1894.67,30.873 1894.61,30.539 1894.54,30.209 C1894.5,30.023 1894.46,29.839 1894.42,29.654 C1894.38,29.489 1894.34,29.324 1894.3,29.16 C1894.25,28.943 1894.2,28.726 1894.14,28.511 C1894.12,28.419 1894.09,28.328 1894.07,28.236 C1894.01,28.008 1893.95,27.781 1893.88,27.554 C1893.88,27.534 1893.87,27.515 1893.86,27.496 C1889.38,12.072 1875.13,0.766 1858.28,0.766 C1841.44,0.766 1827.18,12.071 1822.7,27.493 C1822.7,27.513 1822.69,27.533 1822.68,27.554 C1822.62,27.763 1822.57,27.974 1822.51,28.184 C1822.47,28.323 1822.43,28.461 1822.4,28.601 C1822.35,28.792 1822.3,28.982 1822.26,29.173 C1822.21,29.362 1822.17,29.55 1822.13,29.739 C1822.09,29.908 1822.05,30.077 1822.02,30.247 C1821.95,30.586 1821.88,30.928 1821.82,31.271 C1821.8,31.376 1821.78,31.481 1821.76,31.586 C1821.72,31.866 1821.67,32.148 1821.63,32.43 C1821.61,32.558 1821.59,32.685 1821.58,32.813 C1821.54,33.117 1821.5,33.423 1821.47,33.73 C1821.46,33.807 1821.45,33.883 1821.44,33.96 C1821.4,34.341 1821.37,34.724 1821.34,35.108 C1821.33,35.206 1821.33,35.305 1821.32,35.403 C1821.3,35.704 1821.28,36.005 1821.27,36.308 C1821.27,36.418 1821.26,36.527 1821.26,36.637 C1821.25,37.026 1821.24,37.416 1821.24,37.808 C1821.24,38.547 1821.84,39.146 1822.58,39.146 L1845.81,39.146 L1845.81,51.724 L1822.94,51.724 C1819.95,49.958 1816.46,49.405 1813.06,50.178 C1809.52,50.979 1806.51,53.109 1804.58,56.175 C1802.64,59.241 1802.02,62.876 1802.82,66.411 C1803.52,69.475 1805.21,72.145 1807.65,74.06 L1793.08,93.807 C1792.86,94.093 1792.53,94.263 1792.17,94.263 L1792.16,94.263 C1791.8,94.258 1791.46,94.078 1791.25,93.782 L1783.22,82.251 C1785.6,80.291 1787.21,77.592 1787.81,74.528 C1788.49,71.029 1787.77,67.473 1785.78,64.516 C1783.83,61.632 1780.89,59.644 1777.49,58.918 C1776.79,58.769 1776.04,58.927 1775.46,59.354 C1774.88,59.781 1774.5,60.438 1774.43,61.156 L1773.53,70.231 L1764.79,67.652 C1764.1,67.448 1763.34,67.552 1762.73,67.927 C1762.11,68.307 1761.69,68.934 1761.56,69.647 C1760.96,73.071 1761.69,76.544 1763.63,79.428 C1766.12,83.118 1770.26,85.322 1774.72,85.322 C1776.92,85.322 1779.06,84.772 1781,83.737 L1789.06,95.312 C1789.75,96.315 1790.9,96.923 1792.12,96.939 C1792.14,96.939 1792.16,96.939 1792.17,96.939 C1793.38,96.939 1794.51,96.365 1795.23,95.397 L1809.91,75.501 C1811.54,76.335 1813.3,76.827 1815.12,76.95 L1807.69,106.2 C1807.31,107.668 1807.63,109.195 1808.56,110.389 C1809.49,111.585 1810.89,112.271 1812.41,112.271 L1826.15,112.271 L1826.15,144.35 C1826.15,146.598 1827.98,148.427 1830.23,148.427 L1831.48,148.427 L1831.48,160.124 C1825.18,162.491 1820.69,168.575 1820.69,175.691 C1820.69,176.43 1821.29,177.029 1822.03,177.029 L1852.61,177.029 C1853.35,177.029 1853.95,176.43 1853.95,175.691 C1853.95,175.64 1853.95,175.59 1853.94,175.541 C1853.88,168.49 1849.4,162.475 1843.15,160.124 L1843.15,148.427 L1844.4,148.427 C1846.65,148.427 1848.48,146.598 1848.48,144.35 L1848.48,112.271 L1868.08,112.271 L1868.08,144.35 C1868.08,146.598 1869.91,148.427 1872.16,148.427 L1873.41,148.427 L1873.41,160.124 C1867.12,162.491 1862.62,168.575 1862.62,175.691 C1862.62,176.43 1863.22,177.029 1863.96,177.029 L1894.53,177.029 C1895.27,177.029 1895.87,176.43 1895.87,175.691 C1895.87,168.575 1891.38,162.491 1885.08,160.124 L1885.08,148.427 L1886.33,148.427 C1888.58,148.427 1890.41,146.598 1890.41,144.35 L1890.41,112.271 L1904.16,112.271 C1905.67,112.271 1907.07,111.585 1908,110.389 C1908.93,109.195 1909.25,107.668 1908.88,106.2 L1901.44,76.95 C1903.26,76.828 1905.02,76.335 1906.65,75.501 L1921.33,95.397 C1922.05,96.365 1923.19,96.939 1924.39,96.939 C1924.41,96.939 1924.42,96.939 1924.44,96.939 C1925.66,96.923 1926.81,96.315 1927.51,95.312 L1935.57,83.737 C1937.5,84.772 1939.64,85.321 1941.85,85.322 C1946.3,85.322 1950.44,83.118 1952.93,79.428 C1954.87,76.544 1955.61,73.07 1955,69.647 Z M1896.03,98.7 C1896.03,101.033 1894.13,102.931 1891.8,102.931 C1889.47,102.931 1887.57,101.033 1887.57,98.7 C1887.57,96.367 1889.47,94.469 1891.8,94.469 C1894.13,94.469 1896.03,96.367 1896.03,98.7 Z M1884.89,98.7 C1884.89,102.509 1887.99,105.608 1891.8,105.608 C1895.61,105.608 1898.71,102.509 1898.71,98.7 C1898.71,94.892 1895.61,91.793 1891.8,91.793 C1887.99,91.793 1884.89,94.892 1884.89,98.7 Z M1850.75,99.318 L1832.87,99.318 C1831.8,99.318 1830.92,98.441 1830.92,97.364 C1830.92,96.287 1831.8,95.41 1832.87,95.41 L1850.75,95.41 C1851.83,95.41 1852.7,96.287 1852.7,97.364 C1852.7,98.441 1851.83,99.318 1850.75,99.318 Z M1850.75,92.733 L1832.87,92.733 C1830.32,92.733 1828.24,94.811 1828.24,97.364 C1828.24,99.918 1830.32,101.995 1832.87,101.995 L1850.75,101.995 C1853.3,101.995 1855.38,99.918 1855.38,97.364 C1855.38,94.811 1853.3,92.733 1850.75,92.733 Z M1850.75,83.952 L1832.87,83.952 C1831.8,83.952 1830.92,83.075 1830.92,81.998 C1830.92,80.921 1831.8,80.044 1832.87,80.044 L1850.75,80.044 C1851.83,80.044 1852.7,80.921 1852.7,81.998 C1852.7,83.075 1851.83,83.952 1850.75,83.952 Z M1850.75,77.367 L1832.87,77.367 C1830.32,77.367 1828.24,79.445 1828.24,81.998 C1828.24,84.551 1830.32,86.628 1832.87,86.628 L1850.75,86.628 C1853.3,86.628 1855.38,84.551 1855.38,81.998 C1855.38,79.445 1853.3,77.367 1850.75,77.367 Z M1850.75,68.586 L1832.87,68.586 C1831.8,68.586 1830.92,67.709 1830.92,66.632 C1830.92,65.554 1831.8,64.677 1832.87,64.677 L1850.75,64.677 C1851.83,64.677 1852.7,65.554 1852.7,66.632 C1852.7,67.709 1851.83,68.586 1850.75,68.586 Z M1850.75,62.001 L1832.87,62.001 C1830.32,62.001 1828.24,64.078 1828.24,66.632 C1828.24,69.185 1830.32,71.262 1832.87,71.262 L1850.75,71.262 C1853.3,71.262 1855.38,69.185 1855.38,66.632 C1855.38,64.078 1853.3,62.001 1850.75,62.001 Z M1884.95,85.043 L1884.95,66.068 C1887.47,68.453 1889.04,71.823 1889.04,75.556 C1889.04,79.289 1887.47,82.658 1884.95,85.043 Z M1882.27,87.005 C1880.77,87.835 1879.09,88.379 1877.31,88.562 L1877.31,62.549 C1879.09,62.732 1880.77,63.277 1882.27,64.107 L1882.27,87.005 Z M1874.63,88.562 C1872.85,88.379 1871.17,87.835 1869.66,87.005 L1869.66,64.107 C1871.17,63.277 1872.85,62.732 1874.63,62.549 L1874.63,88.562 Z M1866.99,85.043 C1864.47,82.658 1862.9,79.289 1862.9,75.556 C1862.9,71.823 1864.47,68.453 1866.99,66.068 L1866.99,85.043 Z M1891.72,75.556 C1891.72,69.97 1888.79,65.058 1884.4,62.261 C1884.36,62.235 1884.33,62.214 1884.29,62.192 C1881.87,60.681 1879.02,59.805 1875.97,59.805 C1872.92,59.805 1870.06,60.681 1867.65,62.192 C1867.61,62.214 1867.58,62.235 1867.54,62.261 C1863.14,65.058 1860.22,69.97 1860.22,75.556 C1860.22,81.14 1863.14,86.052 1867.54,88.849 C1867.57,88.876 1867.61,88.899 1867.65,88.922 C1870.07,90.431 1872.92,91.306 1875.97,91.306 C1879.02,91.306 1881.87,90.431 1884.29,88.922 C1884.33,88.899 1884.36,88.876 1884.4,88.849 C1888.8,86.052 1891.72,81.14 1891.72,75.556 Z M1871.06,21.672 C1869.08,21.672 1867.48,20.068 1867.48,18.097 C1867.48,16.126 1869.08,14.522 1871.06,14.522 C1873.03,14.522 1874.63,16.126 1874.63,18.097 C1874.63,20.068 1873.03,21.672 1871.06,21.672 Z M1871.06,11.846 C1867.61,11.846 1864.8,14.651 1864.8,18.097 C1864.8,21.544 1867.61,24.349 1871.06,24.349 C1874.5,24.349 1877.31,21.544 1877.31,18.097 C1877.31,14.651 1874.5,11.846 1871.06,11.846 Z M1845.51,21.672 C1843.54,21.672 1841.93,20.068 1841.93,18.097 C1841.93,16.126 1843.54,14.522 1845.51,14.522 C1847.48,14.522 1849.08,16.126 1849.08,18.097 C1849.08,20.068 1847.48,21.672 1845.51,21.672 Z M1845.51,11.846 C1842.06,11.846 1839.25,14.651 1839.25,18.097 C1839.25,21.544 1842.06,24.349 1845.51,24.349 C1848.95,24.349 1851.76,21.544 1851.76,18.097 C1851.76,14.651 1848.95,11.846 1845.51,11.846 L1845.51,11.846 Z" transform="translate(-1761)"/>
</svg>
