<svg xmlns="http://www.w3.org/2000/svg" width="158" height="30" viewBox="0 0 158 30">
  <path fill-rule="evenodd" d="M860.278,255.026 C857.105,259.745 851.623,262.236 845.99,261.531 L837.029,260.411 C829.8,259.509 822.444,259.337 815.163,259.897 L808.567,260.409 L811.985,255.013 L860.287,255.013 L860.278,255.026 Z M793.616,278.947 L732.324,278.947 L717.162,255.013 L751.543,255.013 L754.469,258.458 C756.255,260.56 758.862,261.765 761.621,261.765 L764.32,261.765 C767.08,261.765 769.685,260.56 771.47,258.458 L774.397,255.013 L808.778,255.013 L793.616,278.947 Z M770.842,255.013 L769.406,256.703 C768.137,258.198 766.283,259.055 764.32,259.055 L761.621,259.055 C759.659,259.055 757.804,258.198 756.534,256.703 L755.098,255.013 L770.842,255.013 Z M864.027,253.022 C863.791,252.579 863.332,252.303 862.831,252.303 L708.963,252.303 C708.215,252.303 707.608,252.91 707.608,253.658 C707.608,254.407 708.215,255.013 708.963,255.013 L713.956,255.013 L730.434,281.027 C730.683,281.419 731.113,281.657 731.578,281.657 L794.362,281.657 C794.827,281.657 795.258,281.419 795.506,281.027 L806.756,263.268 L815.372,262.599 C822.465,262.049 829.639,262.218 836.693,263.101 L845.654,264.22 C846.401,264.314 847.146,264.359 847.885,264.359 C853.731,264.359 859.2,261.484 862.527,256.539 L863.956,254.415 C864.234,253.998 864.261,253.463 864.027,253.022 L864.027,253.022 Z" transform="translate(-707 -252)"/>
</svg>
