<svg xmlns="http://www.w3.org/2000/svg" width="75" height="75" viewBox="0 0 75 75">
  <path fill-rule="evenodd" d="M1719.35,263.814 L1719.35,261.752 C1721.29,261.089 1722.69,259.272 1722.69,257.112 C1722.69,254.4 1720.48,252.193 1717.77,252.193 C1715.06,252.193 1712.85,254.4 1712.85,257.112 C1712.85,259.272 1714.25,261.09 1716.19,261.752 L1716.19,263.815 C1713.15,263.097 1710.87,260.374 1710.87,257.112 C1710.87,253.309 1713.96,250.214 1717.77,250.214 C1721.57,250.214 1724.67,253.309 1724.67,257.112 C1724.67,260.373 1722.39,263.096 1719.35,263.814 Z M1717.77,258.878 C1716.8,258.878 1716,258.086 1716,257.112 C1716,256.141 1716.8,255.349 1717.77,255.349 C1718.74,255.349 1719.53,256.141 1719.53,257.112 C1719.53,258.086 1718.74,258.878 1717.77,258.878 Z M1669.58,240.721 C1670.02,240.721 1670.37,241.072 1670.37,241.507 C1670.37,242.376 1668.8,242.376 1668.8,241.507 C1668.8,241.072 1669.15,240.721 1669.58,240.721 Z M1683.4,241.507 C1683.4,241.072 1683.75,240.721 1684.18,240.721 C1684.62,240.721 1684.97,241.072 1684.97,241.507 C1684.97,242.376 1683.4,242.376 1683.4,241.507 Z M1717.77,247.058 C1712.23,247.058 1707.71,251.567 1707.71,257.112 C1707.71,262.117 1711.4,266.246 1716.19,267.01 L1716.19,291.038 C1716.19,300.461 1708.14,308.421 1698.6,308.421 L1696.61,308.421 C1686.87,308.421 1678.32,300.297 1678.32,291.038 L1678.32,285.161 C1690.17,283.994 1700.05,268.701 1700.05,256.058 C1700.05,248.059 1695.83,242.664 1687.89,240.336 C1687.38,238.743 1685.94,237.565 1684.18,237.565 C1682.01,237.565 1680.24,239.334 1680.24,241.507 C1680.24,243.683 1682.01,245.452 1684.18,245.452 C1685.61,245.452 1686.81,244.651 1687.5,243.513 C1693.79,245.505 1696.89,249.603 1696.89,256.058 C1696.89,267.028 1688.3,280.779 1678.3,281.999 C1678.27,281.161 1677.59,280.491 1676.74,280.491 C1675.9,280.491 1675.23,281.149 1675.18,281.974 C1665.31,280.533 1656.88,266.924 1656.88,256.058 C1656.88,249.603 1659.98,245.505 1666.27,243.513 C1666.96,244.65 1668.16,245.452 1669.58,245.452 C1671.76,245.452 1673.53,243.683 1673.53,241.507 C1673.53,239.334 1671.76,237.565 1669.58,237.565 C1667.83,237.565 1666.38,238.743 1665.88,240.336 C1657.94,242.664 1653.72,248.059 1653.72,256.058 C1653.72,268.599 1663.44,283.753 1675.16,285.138 L1675.16,291.038 C1675.16,301.98 1685.19,311.578 1696.61,311.578 L1698.6,311.578 C1709.85,311.578 1719.35,302.171 1719.35,291.038 L1719.35,267.01 C1724.14,266.246 1727.82,262.117 1727.82,257.112 C1727.82,251.567 1723.32,247.058 1717.77,247.058 L1717.77,247.058 Z" transform="translate(-1653 -237)"/>
</svg>
