<svg xmlns="http://www.w3.org/2000/svg" width="118" height="85" viewBox="0 0 118 85">
  <path fill-rule="evenodd" d="M1785.82,482.029 L1896.82,482.029 L1896.82,425.029 L1785.82,425.029 L1785.82,482.029 Z M1785.82,492.029 L1896.82,492.029 L1896.82,485.029 L1785.82,485.029 L1785.82,492.029 Z M1898.32,422.029 L1784.32,422.029 C1783.49,422.029 1782.82,422.701 1782.82,423.529 L1782.82,493.529 C1782.82,494.358 1783.49,495.029 1784.32,495.029 L1898.32,495.029 C1899.15,495.029 1899.82,494.358 1899.82,493.529 L1899.82,423.529 C1899.82,422.701 1899.15,422.029 1898.32,422.029 Z M1835.92,490.029 L1846.72,490.029 C1847.55,490.029 1848.22,489.358 1848.22,488.529 C1848.22,487.701 1847.55,487.029 1846.72,487.029 L1835.92,487.029 C1835.09,487.029 1834.42,487.701 1834.42,488.529 C1834.42,489.358 1835.09,490.029 1835.92,490.029 Z M1875.57,498.697 C1875.29,498.28 1874.82,498.029 1874.32,498.029 L1808.32,498.029 C1807.82,498.029 1807.35,498.28 1807.07,498.697 L1803.07,504.697 C1802.61,505.387 1802.8,506.318 1803.49,506.777 C1804.18,507.236 1805.11,507.05 1805.57,506.361 L1809.12,501.029 L1873.52,501.029 L1877.07,506.361 C1877.36,506.795 1877.84,507.029 1878.32,507.029 C1878.61,507.029 1878.9,506.948 1879.15,506.777 C1879.84,506.318 1880.03,505.387 1879.57,504.697 L1875.57,498.697 Z M1887.97,490.02 C1888.37,490.02 1888.75,489.859 1889.03,489.58 C1889.31,489.299 1889.47,488.909 1889.47,488.52 C1889.47,488.129 1889.31,487.739 1889.03,487.46 C1888.47,486.899 1887.47,486.899 1886.91,487.46 C1886.63,487.739 1886.47,488.129 1886.47,488.52 C1886.47,488.92 1886.63,489.299 1886.91,489.58 C1887.19,489.859 1887.57,490.02 1887.97,490.02 L1887.97,490.02 Z" transform="translate(-1782 -422)"/>
</svg>
