<svg xmlns="http://www.w3.org/2000/svg" width="55" height="167" viewBox="0 0 55 167">
  <path fill-rule="evenodd" d="M512.106,336.42 L468.846,336.42 C466.371,334.055 466.43,329.716 466.492,325.124 L466.494,324.86 C466.502,324.244 466.509,323.629 466.509,323.019 L466.509,321.763 L514.445,321.763 L514.445,323.019 C514.445,323.628 514.452,324.242 514.459,324.856 L514.462,325.121 C514.522,329.713 514.58,334.055 512.106,336.42 Z M466.509,319.084 L514.445,319.084 L514.445,257.254 L466.509,257.254 L466.509,319.084 Z M466.509,249.86 C466.505,244.173 466.504,241.82 471.914,237.699 C478.049,233.034 480.738,230.496 480.738,225.781 C480.738,224.537 480.552,223.553 480.335,222.412 C480.053,220.926 479.712,216.861 479.628,213.064 L501.325,213.064 C501.242,216.861 500.901,220.926 500.618,222.412 C500.402,223.553 500.216,224.537 500.216,225.781 C500.216,230.493 502.904,233.031 509.038,237.7 C514.45,241.815 514.449,244.166 514.445,249.853 L514.445,254.576 L466.509,254.576 L466.509,249.86 Z M482.303,199.784 C482.691,198.649 483.059,197.576 483.259,196.777 L483.281,196.731 L483.281,196.714 C483.286,196.697 483.29,196.679 483.294,196.663 C483.339,196.481 483.376,196.31 483.402,196.152 C483.414,196.11 483.429,196.046 483.439,195.969 C483.48,195.725 483.499,195.507 483.499,195.303 L483.499,193.145 L497.453,193.145 L497.453,195.303 C497.453,195.5 497.474,195.725 497.512,195.965 C497.518,196.01 497.531,196.066 497.544,196.136 C497.573,196.296 497.609,196.461 497.654,196.654 C497.664,196.697 497.674,196.736 497.688,196.776 L497.689,196.779 C497.9,197.589 498.242,198.593 498.639,199.755 L498.804,199.699 L498.653,199.8 C499.628,202.66 500.959,206.559 501.268,210.385 L479.685,210.385 C479.991,206.551 481.326,202.647 482.303,199.784 Z M481.822,178.312 C481.822,176.421 486.544,176.274 487.993,176.274 L492.958,176.274 C494.405,176.274 499.125,176.421 499.125,178.312 L499.125,189.624 C499.125,190.113 498.58,190.29 498.476,190.318 C498.311,190.358 498.164,190.431 498.033,190.523 C497.941,190.503 497.856,190.467 497.759,190.467 L483.195,190.467 C483.098,190.467 483.013,190.503 482.921,190.523 C482.789,190.43 482.642,190.357 482.477,190.317 L482.436,190.486 L482.476,190.315 C482.47,190.314 481.822,190.147 481.822,189.624 L481.822,178.312 Z M517.141,325.084 L516.966,325.084 L517.141,325.081 L517.138,324.824 C517.13,324.221 517.123,323.618 517.123,323.019 L517.123,249.853 C517.127,243.814 517.13,240.487 510.66,235.567 C504.738,231.061 502.895,229.122 502.895,225.781 C502.895,224.792 503.052,223.961 503.252,222.907 C503.577,221.186 504.023,215.851 504.023,211.412 C504.023,211.35 503.996,211.297 503.988,211.237 C503.83,206.719 502.315,202.238 501.182,198.912 C500.793,197.778 500.46,196.799 500.275,196.079 C500.271,196.058 500.264,196.039 500.259,196.019 L500.249,195.988 C500.219,195.863 500.197,195.753 500.178,195.644 L500.158,195.545 C500.137,195.416 500.131,195.342 500.131,195.303 L500.131,192.484 C500.795,192.082 501.804,191.211 501.804,189.624 L501.804,178.312 C501.804,176.161 500.269,173.596 492.958,173.596 L487.993,173.596 C480.679,173.596 479.143,176.161 479.143,178.312 L479.143,189.624 C479.143,191.211 480.155,192.085 480.821,192.487 L480.821,195.303 C480.821,195.343 480.817,195.414 480.798,195.53 L480.77,195.653 C480.752,195.76 480.732,195.865 480.707,195.972 C480.691,196.021 480.68,196.068 480.672,196.103 C480.49,196.805 480.17,197.744 479.798,198.834 L479.769,198.92 C478.639,202.223 477.12,206.707 476.966,211.239 C476.958,211.298 476.931,211.351 476.931,211.412 C476.931,215.851 477.377,221.186 477.702,222.911 C477.902,223.961 478.059,224.792 478.059,225.781 C478.059,229.126 476.214,231.063 470.292,235.567 C463.824,240.491 463.827,243.819 463.831,249.861 L463.831,323.019 C463.831,323.706 463.823,324.398 463.813,325.088 C463.743,330.303 463.669,335.696 467.498,338.799 C467.734,338.992 468.034,339.099 468.341,339.099 L512.61,339.099 C512.916,339.099 513.215,338.992 513.455,338.799 C517.28,335.696 517.209,330.3 517.141,325.084 Z M504.293,308.571 C504.293,309.652 503.414,310.532 502.333,310.532 L478.621,310.532 C477.539,310.532 476.66,309.652 476.66,308.571 L476.66,267.768 C476.66,266.686 477.539,265.807 478.621,265.807 L502.333,265.807 C503.414,265.807 504.293,266.686 504.293,267.768 L504.293,308.571 Z M502.333,263.128 L478.621,263.128 C476.063,263.128 473.982,265.209 473.982,267.768 L473.982,308.571 C473.982,311.129 476.063,313.21 478.621,313.21 L502.333,313.21 C504.891,313.21 506.972,311.129 506.972,308.571 L506.972,267.768 C506.972,265.209 504.891,263.128 502.333,263.128 L502.333,263.128 Z" transform="translate(-463 -173)"/>
</svg>
